<?xml version="1.0" encoding="utf-8"?>
<!-- Generator: Adobe Illustrator 22.0.1, SVG Export Plug-In . SVG Version: 6.00 Build 0)  -->
<svg version="1.1" id="Layer_1" xmlns="http://www.w3.org/2000/svg" xmlns:xlink="http://www.w3.org/1999/xlink" x="0px" y="0px"
	 viewBox="0 0 2198 2392" style="enable-background:new 0 0 2198 2392;" xml:space="preserve">
<style type="text/css">
	.st0{fill:#F7CFB6;}
	.st1{fill:#FF9C7B;}
	.st2{fill:#EF8970;}
	.st3{fill:#7F5E6A;}
	.st4{clip-path:url(#SVGID_2_);}
	.st5{fill:#FFA655;}
	.st6{fill:#FFDEBF;}
	.st7{fill:#C66E57;}
	.st8{fill:#FFFFFF;}
	.st9{fill:#352836;}
</style>
<g>
	<g>
		<g>
			<path class="st0" d="M983.1,1413.5c0,0-110.9,28.9-192.9-28.9l14.5,38.6c0,0-173.6-77.2-188.1-390.6
				c-14.5-313.5,101.3-308.6,101.3-308.6S1036.1,1157.9,983.1,1413.5z"/>
			<path class="st0" d="M1716.1,926.5c0,0,65.1,274.9-180.8,390.6v-94c0,0-57.9,173.6-303.8,202.5c-245.9,28.9-123-340-123-340
				l123-318.3l484.7,130.2"/>
		</g>
		<g>
			<path class="st1" d="M2076.6,1960.5c-86-231.2-612.2-341.6-704.3-408.6c-118.3-86-80.6-371-80.6-371l-193.6,5.1l-193.6-5.1
				c0,0,37.6,285-80.6,371c-92.1,67-618.3,177.4-704.3,408.6c-86,231.2-118.3,435.5-118.3,435.5h1086h21.5h1086.1
				C2194.9,2395.9,2162.6,2191.6,2076.6,1960.5z"/>
			<path class="st2" d="M868.7,1498.7c90.6-9.3,181.7-27.6,260.6-71.8c57.5-32.2,109.3-70.1,157.3-112.9c-2.8-73.2,5-133.2,5-133.2
				l-193.6,5.1l-193.6-5.1C904.5,1180.9,931.3,1383.7,868.7,1498.7z"/>
		</g>
		<g>
			<path class="st3" d="M2091.8,1957.2c-78.1-210-516.7-321.1-670.2-390.4c1.5-0.8,2.5-1.4,2.5-1.4
				c-67.1-36.9-83.9-134.3-83.9-134.3l-486.8,23.5c-16.8,73.9-90.4,121.6-90.4,121.6c0.8,0.5,1.5,0.9,2.3,1.3
				c-171.4,69.9-570.7,180.1-644.9,379.6C33.8,2190.1,1.3,2395.9,1.3,2395.9h1094h21.7h1094
				C2211,2395.9,2178.5,2190.1,2091.8,1957.2z"/>
			<g>
				<defs>
					<path id="SVGID_1_" d="M2091.8,1957.2c-78.1-210-516.7-321.1-670.2-390.4c1.5-0.8,2.5-1.4,2.5-1.4
						c-67.1-36.9-83.9-134.3-83.9-134.3l-486.8,23.5c-16.8,73.9-90.4,121.6-90.4,121.6c0.8,0.5,1.5,0.9,2.3,1.3
						c-171.4,69.9-570.7,180.1-644.9,379.6C33.8,2190.1,1.3,2395.9,1.3,2395.9h1094h21.7h1094
						C2211,2395.9,2178.5,2190.1,2091.8,1957.2z"/>
				</defs>
				<clipPath id="SVGID_2_">
					<use xlink:href="#SVGID_1_"  style="overflow:visible;"/>
				</clipPath>
				<g class="st4">
					<g>
						<g>
							<g>
								<path class="st5" d="M1662.9,1498.3c19.2,18.5,38.4,37.1,57.7,55.6c0.2,0.2,1.2-0.1,1.4-0.3c20.2-19.5,40.4-38.9,60.6-58.4
									c2.9-2.8,5.7-5.5,8.6-8.3c0.3-0.3-1.1-0.1-1.3,0.1c-18.5,17.8-37,35.6-55.4,53.5c-3.8,3.7-7.6,7.3-11.4,11
									c-0.7,0.7-1.6,1.4-2.3,2.2c0.9-1.2,1.5,0.3-0.1-1.5c-3.3-4-7.8-7.5-11.5-11.1c-5.8-5.6-11.6-11.2-17.4-16.8
									c-9.1-8.8-18.3-17.6-27.4-26.4C1664,1497.6,1662.7,1498.1,1662.9,1498.3L1662.9,1498.3z"/>
							</g>
						</g>
						<g>
							<g>
								<path class="st5" d="M1418.3,1498.4c19.2,18.5,38.4,37.1,57.7,55.6c0.3,0.3,1,0.1,1.3-0.1c20.2-19.5,40.4-38.9,60.6-58.4
									c2.9-2.8,5.7-5.5,8.6-8.3c0.6-0.6-0.8-0.7-1.2-0.3c-20.2,19.5-40.4,38.9-60.6,58.4c-2.9,2.8-5.7,5.5-8.6,8.3
									c0.4,0,0.9-0.1,1.3-0.1c-19.2-18.5-38.4-37.1-57.7-55.6C1419.2,1497.4,1417.8,1497.9,1418.3,1498.4L1418.3,1498.4z"/>
							</g>
						</g>
						<g>
							<g>
								<path class="st5" d="M1173.6,1498.3c19.2,18.5,38.4,37.1,57.7,55.6c0.2,0.2,1.2-0.1,1.4-0.3c20.2-19.5,40.4-38.9,60.6-58.4
									c2.9-2.8,5.7-5.5,8.6-8.3c0.3-0.3-1.1-0.1-1.3,0.1c-18.5,17.8-37,35.6-55.4,53.5c-3.8,3.7-7.6,7.3-11.4,11
									c-0.7,0.7-1.6,1.4-2.3,2.2c0.9-1.2,1.5,0.3-0.1-1.5c-3.3-4-7.8-7.5-11.5-11.1c-5.8-5.6-11.6-11.2-17.4-16.8
									c-9.1-8.8-18.3-17.6-27.4-26.4C1174.7,1497.6,1173.4,1498.1,1173.6,1498.3L1173.6,1498.3z"/>
							</g>
						</g>
						<g>
							<g>
								<path class="st5" d="M929.1,1498.5c19.2,18.5,38.4,37.1,57.7,55.6c0.2,0.2,0.8,0.1,1.1-0.1c20.2-19.5,40.4-38.9,60.6-58.4
									c2.9-2.8,5.7-5.5,8.6-8.3c0.7-0.7-0.4-1.3-1-0.7c-18.5,17.8-37,35.6-55.4,53.5c-3.8,3.7-7.6,7.3-11.4,11
									c-0.7,0.7-1.4,1.6-2.3,2.2c0.9-0.7,0.9,0.2-0.4-1.3c-3.4-4-7.7-7.5-11.5-11.1c-5.8-5.6-11.6-11.2-17.4-16.8
									c-9.1-8.8-18.3-17.6-27.4-26.4C929.7,1497.1,928.5,1497.9,929.1,1498.5L929.1,1498.5z"/>
							</g>
						</g>
						<g>
							<g>
								<path class="st5" d="M684.3,1498.3c19.2,18.5,38.4,37.1,57.7,55.6c0.3,0.3,1.1-0.1,1.4-0.3c20.2-19.5,40.4-38.9,60.6-58.4
									c2.9-2.8,5.7-5.5,8.6-8.3c0.3-0.3-1.1-0.2-1.3,0.1c-20.2,19.5-40.4,38.9-60.6,58.4c-2.9,2.8-5.7,5.5-8.6,8.3
									c0.5-0.1,0.9-0.2,1.4-0.3c-19.2-18.5-38.4-37.1-57.7-55.6C685.4,1497.5,684,1498.1,684.3,1498.3L684.3,1498.3z"/>
							</g>
						</g>
						<g>
							<g>
								<path class="st5" d="M439.7,1498.3c19.2,18.5,38.4,37.1,57.7,55.6c0.2,0.2,1.2-0.1,1.4-0.3c20.2-19.5,40.4-38.9,60.6-58.4
									c2.9-2.8,5.7-5.5,8.6-8.3c0.3-0.3-1.1-0.1-1.3,0.1c-18.5,17.8-37,35.6-55.4,53.5c-3.8,3.7-7.6,7.3-11.4,11
									c-0.7,0.7-1.6,1.4-2.3,2.2c0.9-1.2,1.5,0.3-0.1-1.5c-3.3-4-7.8-7.5-11.5-11.1c-5.8-5.6-11.6-11.2-17.4-16.8
									c-9.1-8.8-18.3-17.6-27.4-26.4C440.8,1497.6,439.5,1498.1,439.7,1498.3L439.7,1498.3z"/>
							</g>
						</g>
						<g>
							<g>
								<path class="st5" d="M195,1498.3c19.2,18.5,38.4,37.1,57.7,55.6c0.2,0.2,1.2-0.1,1.4-0.3c20.2-19.5,40.4-38.9,60.6-58.4
									c2.9-2.8,5.7-5.5,8.6-8.3c0.3-0.3-1.1-0.1-1.3,0.1c-18.5,17.8-37,35.6-55.4,53.5c-3.8,3.7-7.6,7.3-11.4,11
									c-0.7,0.7-1.6,1.4-2.3,2.2c0.9-1.2,1.5,0.4-0.1-1.5c-3.3-4-7.8-7.5-11.5-11.1c-5.8-5.6-11.6-11.2-17.4-16.8
									c-9.1-8.8-18.3-17.6-27.4-26.4C196.1,1497.6,194.8,1498.1,195,1498.3L195,1498.3z"/>
							</g>
						</g>
						<g>
							<g>
								<path class="st5" d="M-49.6,1498.3c19.2,18.5,38.4,37.1,57.7,55.6c0.3,0.3,1.1-0.1,1.4-0.3c20.2-19.5,40.4-38.9,60.6-58.4
									c2.9-2.8,5.7-5.5,8.6-8.3c0.4-0.3-1.1-0.2-1.4,0.1c-20.2,19.5-40.4,38.9-60.6,58.4c-2.9,2.8-5.7,5.5-8.6,8.3
									c0.5-0.1,0.9-0.2,1.4-0.3c-19.2-18.5-38.4-37.1-57.7-55.6C-48.6,1497.5-49.9,1498-49.6,1498.3L-49.6,1498.3z"/>
							</g>
						</g>
						<g>
							<g>
								<path class="st5" d="M1907.6,1498.4c19.2,18.5,38.4,37.1,57.7,55.6c0.4,0.4,0.9,0.2,1.3-0.1c20.2-19.5,40.4-38.9,60.6-58.4
									c2.9-2.8,5.7-5.5,8.6-8.3c0.7-0.6-0.8-0.9-1.2-0.4c-20.2,19.5-40.4,38.9-60.6,58.4c-2.9,2.8-5.7,5.5-8.6,8.3
									c0.4,0,0.9-0.1,1.3-0.1c-19.2-18.5-38.4-37.1-57.7-55.6C1908.4,1497.3,1907,1497.9,1907.6,1498.4L1907.6,1498.4z"/>
							</g>
						</g>
					</g>
					<g>
						<g>
							<g>
								<path class="st5" d="M1662.9,1498.4c19.2,18.5,38.4,37.1,57.7,55.6c0.3,0.3,1,0.1,1.3-0.2c20.2-19.5,40.4-38.9,60.6-58.4
									c2.9-2.8,5.7-5.5,8.6-8.3c0.6-0.6-0.8-0.6-1.2-0.3c-20.2,19.5-40.4,38.9-60.6,58.4c-2.9,2.8-5.7,5.5-8.6,8.3
									c0.4-0.1,0.9-0.1,1.3-0.2c-19.2-18.5-38.4-37.1-57.7-55.6C1663.9,1497.4,1662.5,1498,1662.9,1498.4L1662.9,1498.4z"/>
							</g>
						</g>
						<g>
							<g>
								<path class="st5" d="M1418.3,1498.3c19.2,18.5,38.4,37.1,57.7,55.6c0.3,0.3,1,0.1,1.3-0.2c20.2-19.5,40.4-38.9,60.6-58.4
									c2.9-2.8,5.7-5.5,8.6-8.3c0.6-0.6-0.8-0.6-1.2-0.2c-20.2,19.5-40.4,38.9-60.6,58.4c-2.9,2.8-5.7,5.5-8.6,8.3
									c0.4-0.1,0.9-0.1,1.3-0.2c-19.2-18.5-38.4-37.1-57.7-55.6C1419.3,1497.4,1417.9,1498,1418.3,1498.3L1418.3,1498.3z"/>
							</g>
						</g>
						<g>
							<g>
								<path class="st5" d="M1173.6,1498.4c19.2,18.5,38.4,37.1,57.7,55.6c0.3,0.3,1,0.1,1.3-0.2c20.2-19.5,40.4-38.9,60.6-58.4
									c2.9-2.8,5.7-5.5,8.6-8.3c0.6-0.6-0.8-0.6-1.2-0.3c-20.2,19.5-40.4,38.9-60.6,58.4c-2.9,2.8-5.7,5.5-8.6,8.3
									c0.4-0.1,0.9-0.1,1.3-0.2c-19.2-18.5-38.4-37.1-57.7-55.6C1174.6,1497.4,1173.2,1498,1173.6,1498.4L1173.6,1498.4z"/>
							</g>
						</g>
						<g>
							<g>
								<path class="st5" d="M929,1498.3c19.2,18.5,38.4,37.1,57.7,55.6c0.3,0.3,1,0.1,1.3-0.2c20.2-19.5,40.4-38.9,60.6-58.4
									c2.9-2.8,5.7-5.5,8.6-8.3c0.6-0.6-0.8-0.5-1.2-0.2c-20.2,19.5-40.4,38.9-60.6,58.4c-2.9,2.8-5.7,5.5-8.6,8.3
									c0.4-0.1,0.8-0.1,1.3-0.2c-19.2-18.5-38.4-37.1-57.7-55.6C930,1497.4,928.6,1498,929,1498.3L929,1498.3z"/>
							</g>
						</g>
						<g>
							<g>
								<path class="st5" d="M684.3,1498.3c19.2,18.5,38.4,37.1,57.7,55.6c0.3,0.3,1.1,0,1.4-0.3c20.2-19.5,40.4-38.9,60.6-58.4
									c2.9-2.8,5.7-5.5,8.6-8.3c0.4-0.4-1.1-0.3-1.4,0c-20.2,19.5-40.4,38.9-60.6,58.4c-2.9,2.8-5.7,5.5-8.6,8.3
									c0.5-0.1,0.9-0.2,1.4-0.3c-19.2-18.5-38.4-37.1-57.7-55.6C685.4,1497.5,684,1498,684.3,1498.3L684.3,1498.3z"/>
							</g>
						</g>
						<g>
							<g>
								<path class="st5" d="M439.7,1498.4c19.2,18.5,38.4,37.1,57.7,55.6c0.3,0.3,1,0.1,1.3-0.2c20.2-19.5,40.4-38.9,60.6-58.4
									c2.9-2.8,5.7-5.5,8.6-8.3c0.6-0.6-0.8-0.6-1.2-0.3c-20.2,19.5-40.4,38.9-60.6,58.4c-2.9,2.8-5.7,5.5-8.6,8.3
									c0.4-0.1,0.9-0.1,1.3-0.2c-19.2-18.5-38.4-37.1-57.7-55.6C440.7,1497.4,439.3,1498,439.7,1498.4L439.7,1498.4z"/>
							</g>
						</g>
						<g>
							<g>
								<path class="st5" d="M195,1498.4c19.2,18.5,38.4,37.1,57.7,55.6c0.3,0.3,1,0.2,1.3-0.1c20.2-19.5,40.4-38.9,60.6-58.4
									c2.9-2.8,5.7-5.5,8.6-8.3c0.6-0.6-0.8-0.7-1.2-0.3c-20.2,19.5-40.4,38.9-60.6,58.4c-2.9,2.8-5.7,5.5-8.6,8.3
									c0.4,0,0.9-0.1,1.3-0.1c-19.2-18.5-38.4-37.1-57.7-55.6C196,1497.3,194.6,1497.9,195,1498.4L195,1498.4z"/>
							</g>
						</g>
						<g>
							<g>
								<path class="st5" d="M-49.5,1498.5c19.2,18.5,38.4,37.1,57.7,55.6c0.2,0.2,0.8,0.1,1.1-0.1c20.2-19.5,40.4-38.9,60.6-58.4
									c2.9-2.8,5.7-5.5,8.6-8.3c0.7-0.7-0.4-1.3-1-0.7c-18.5,17.8-37,35.6-55.4,53.5c-3.8,3.7-7.6,7.3-11.4,11
									c-0.7,0.7-1.4,1.6-2.3,2.2c0.9-0.7,0.9,0.2-0.4-1.3c-3.4-4-7.7-7.5-11.5-11.1c-5.8-5.6-11.6-11.2-17.4-16.8
									c-9.1-8.8-18.3-17.6-27.4-26.4C-48.9,1497.1-50.1,1497.9-49.5,1498.5L-49.5,1498.5z"/>
							</g>
						</g>
						<g>
							<g>
								<path class="st5" d="M1907.6,1498.4c19.2,18.5,38.4,37.1,57.7,55.6c0.3,0.3,1,0.2,1.3-0.1c20.2-19.5,40.4-38.9,60.6-58.4
									c2.9-2.8,5.7-5.5,8.6-8.3c0.6-0.6-0.8-0.7-1.2-0.3c-20.2,19.5-40.4,38.9-60.6,58.4c-2.9,2.8-5.7,5.5-8.6,8.3
									c0.4,0,0.9-0.1,1.3-0.1c-19.2-18.5-38.4-37.1-57.7-55.6C1908.5,1497.3,1907.1,1497.9,1907.6,1498.4L1907.6,1498.4z"/>
							</g>
						</g>
					</g>
					<g>
						<g>
							<g>
								<path class="st5" d="M1662.9,2317.1c19.2,18.5,38.4,37.1,57.7,55.6c0.4,0.4,0.9,0.2,1.3-0.1c20.2-19.5,40.4-38.9,60.6-58.4
									c2.9-2.8,5.7-5.5,8.6-8.3c0.7-0.6-0.8-0.9-1.2-0.4c-20.2,19.5-40.4,38.9-60.6,58.4c-2.9,2.8-5.7,5.5-8.6,8.3
									c0.4,0,0.9-0.1,1.3-0.1c-19.2-18.5-38.4-37.1-57.7-55.6C1663.8,2315.9,1662.4,2316.5,1662.9,2317.1L1662.9,2317.1z"/>
							</g>
						</g>
						<g>
							<g>
								<path class="st5" d="M1418.3,2317.1c19.2,18.5,38.4,37.1,57.7,55.6c0.4,0.4,0.9,0.2,1.3-0.1c20.2-19.5,40.4-38.9,60.6-58.4
									c2.9-2.8,5.7-5.5,8.6-8.3c0.7-0.6-0.8-0.9-1.2-0.4c-20.2,19.5-40.4,38.9-60.6,58.4c-2.9,2.8-5.7,5.5-8.6,8.3
									c0.4,0,0.9-0.1,1.3-0.1c-19.2-18.5-38.4-37.1-57.7-55.6C1419.2,2316,1417.8,2316.6,1418.3,2317.1L1418.3,2317.1z"/>
							</g>
						</g>
						<g>
							<g>
								<path class="st5" d="M1173.6,2317c19.2,18.5,38.4,37.1,57.7,55.6c0.4,0.3,1,0.2,1.3-0.1c20.2-19.5,40.4-38.9,60.6-58.4
									c2.9-2.8,5.7-5.5,8.6-8.3c0.6-0.6-0.8-0.8-1.2-0.4c-20.2,19.5-40.4,38.9-60.6,58.4c-2.9,2.8-5.7,5.5-8.6,8.3
									c0.4,0,0.9-0.1,1.3-0.1c-19.2-18.5-38.4-37.1-57.7-55.6C1174.5,2316,1173.1,2316.6,1173.6,2317L1173.6,2317z"/>
							</g>
						</g>
						<g>
							<g>
								<path class="st5" d="M929,2317c19.2,18.5,38.4,37.1,57.7,55.6c0.3,0.3,1,0.1,1.3-0.2c20.2-19.5,40.4-38.9,60.6-58.4
									c2.9-2.8,5.7-5.5,8.6-8.3c0.6-0.6-0.8-0.6-1.2-0.3c-20.2,19.5-40.4,38.9-60.6,58.4c-2.9,2.8-5.7,5.5-8.6,8.3
									c0.4-0.1,0.9-0.1,1.3-0.2c-19.2-18.5-38.4-37.1-57.7-55.6C930,2316.1,928.6,2316.6,929,2317L929,2317z"/>
							</g>
						</g>
						<g>
							<g>
								<path class="st5" d="M684.4,2317.2c19.2,18.5,38.4,37.1,57.7,55.6c0.3,0.3,0.9,0,1.2-0.2c20.2-19.5,40.4-38.9,60.6-58.4
									c2.9-2.8,5.7-5.5,8.6-8.3c0.7-0.6-0.8-0.9-1.2-0.5c-18.5,17.8-37,35.6-55.4,53.5c-3.8,3.7-7.6,7.3-11.4,11
									c-0.7,0.7-1.5,1.5-2.3,2.2c1.1-0.9,1.1,0.2-0.2-1.4c-3.4-4-7.8-7.5-11.5-11.1c-5.8-5.6-11.6-11.2-17.4-16.8
									c-9.1-8.8-18.3-17.6-27.4-26.4C685.1,2315.8,683.8,2316.6,684.4,2317.2L684.4,2317.2z"/>
							</g>
						</g>
						<g>
							<g>
								<path class="st5" d="M439.7,2317c19.2,18.5,38.4,37.1,57.7,55.6c0.3,0.3,1.1-0.1,1.4-0.3c20.2-19.5,40.4-38.9,60.6-58.4
									c2.9-2.8,5.7-5.5,8.6-8.3c0.3-0.3-1.1-0.2-1.3,0.1c-20.2,19.5-40.4,38.9-60.6,58.4c-2.9,2.8-5.7,5.5-8.6,8.3
									c0.5-0.1,0.9-0.2,1.4-0.3c-19.2-18.5-38.4-37.1-57.7-55.6C440.8,2316.2,439.4,2316.7,439.7,2317L439.7,2317z"/>
							</g>
						</g>
						<g>
							<g>
								<path class="st5" d="M195,2317c19.2,18.5,38.4,37.1,57.7,55.6c0.3,0.3,1,0.1,1.3-0.1c20.2-19.5,40.4-38.9,60.6-58.4
									c2.9-2.8,5.7-5.5,8.6-8.3c0.6-0.6-0.8-0.7-1.2-0.3c-20.2,19.5-40.4,38.9-60.6,58.4c-2.9,2.8-5.7,5.5-8.6,8.3
									c0.4,0,0.9-0.1,1.3-0.1c-19.2-18.5-38.4-37.1-57.7-55.6C196,2316,194.6,2316.6,195,2317L195,2317z"/>
							</g>
						</g>
						<g>
							<g>
								<path class="st5" d="M-49.6,2317c19.2,18.5,38.4,37.1,57.7,55.6c0.3,0.3,1,0.1,1.3-0.1c20.2-19.5,40.4-38.9,60.6-58.4
									c2.9-2.8,5.7-5.5,8.6-8.3c0.6-0.6-0.8-0.7-1.2-0.3c-20.2,19.5-40.4,38.9-60.6,58.4c-2.9,2.8-5.7,5.5-8.6,8.3
									c0.4,0,0.9-0.1,1.3-0.1c-19.2-18.5-38.4-37.1-57.7-55.6C-48.7,2316-50.1,2316.6-49.6,2317L-49.6,2317z"/>
							</g>
						</g>
						<g>
							<g>
								<path class="st5" d="M1907.6,2317.1c19.2,18.5,38.4,37.1,57.7,55.6c0.4,0.4,0.9,0.2,1.3-0.1c20.2-19.5,40.4-38.9,60.6-58.4
									c2.9-2.8,5.7-5.5,8.6-8.3c0.7-0.6-0.8-0.9-1.2-0.4c-20.2,19.5-40.4,38.9-60.6,58.4c-2.9,2.8-5.7,5.5-8.6,8.3
									c0.4,0,0.9-0.1,1.3-0.1c-19.2-18.5-38.4-37.1-57.7-55.6C1908.4,2315.9,1907.1,2316.6,1907.6,2317.1L1907.6,2317.1z"/>
							</g>
						</g>
					</g>
					<g>
						<g>
							<g>
								<path class="st5" d="M1789.8,2103.5c19.2,18.5,38.4,37.1,57.7,55.6c0.3,0.3,1,0.1,1.3-0.2c20.2-19.5,40.4-38.9,60.6-58.4
									c2.9-2.8,5.7-5.5,8.6-8.3c0.6-0.6-0.8-0.6-1.2-0.2c-20.2,19.5-40.4,38.9-60.6,58.4c-2.9,2.8-5.7,5.5-8.6,8.3
									c0.4-0.1,0.9-0.1,1.3-0.2c-19.2-18.5-38.4-37.1-57.7-55.6C1790.8,2102.5,1789.4,2103.1,1789.8,2103.5L1789.8,2103.5z"/>
							</g>
						</g>
						<g>
							<g>
								<path class="st5" d="M1545.1,2103.4c19.2,18.5,38.4,37.1,57.7,55.6c0.2,0.2,1.2-0.1,1.4-0.3c20.2-19.5,40.4-38.9,60.6-58.4
									c2.9-2.8,5.7-5.5,8.6-8.3c0.3-0.3-1.1-0.1-1.3,0.1c-18.5,17.8-37,35.6-55.4,53.5c-3.8,3.7-7.6,7.3-11.4,11
									c-0.7,0.7-1.6,1.4-2.3,2.2c0.9-1.2,1.5,0.3-0.1-1.5c-3.3-4-7.8-7.5-11.5-11.1c-5.8-5.6-11.6-11.2-17.4-16.8
									c-9.1-8.8-18.3-17.6-27.4-26.4C1546.2,2102.7,1544.9,2103.2,1545.1,2103.4L1545.1,2103.4z"/>
							</g>
						</g>
						<g>
							<g>
								<path class="st5" d="M1300.5,2103.4c19.2,18.5,38.4,37.1,57.7,55.6c0.3,0.3,1.1-0.1,1.4-0.3c20.2-19.5,40.4-38.9,60.6-58.4
									c2.9-2.8,5.7-5.5,8.6-8.3c0.3-0.3-1.1-0.1-1.3,0.1c-20.2,19.5-40.4,38.9-60.6,58.4c-2.9,2.8-5.7,5.5-8.6,8.3
									c0.5-0.1,0.9-0.2,1.4-0.3c-19.2-18.5-38.4-37.1-57.7-55.6C1301.6,2102.6,1300.2,2103.2,1300.5,2103.4L1300.5,2103.4z"/>
							</g>
						</g>
						<g>
							<g>
								<path class="st5" d="M1055.8,2103.5c19.2,18.5,38.4,37.1,57.7,55.6c0.4,0.4,1,0.2,1.3-0.1c20.2-19.5,40.4-38.9,60.6-58.4
									c2.9-2.8,5.7-5.5,8.6-8.3c0.7-0.6-0.8-0.8-1.2-0.4c-20.2,19.5-40.4,38.9-60.6,58.4c-2.9,2.8-5.7,5.5-8.6,8.3
									c0.4,0,0.9-0.1,1.3-0.1c-19.2-18.5-38.4-37.1-57.7-55.6C1056.7,2102.4,1055.3,2103,1055.8,2103.5L1055.8,2103.5z"/>
							</g>
						</g>
						<g>
							<g>
								<path class="st5" d="M811.2,2103.4c19.2,18.5,38.4,37.1,57.7,55.6c0.3,0.3,1.1,0,1.4-0.3c20.2-19.5,40.4-38.9,60.6-58.4
									c2.9-2.8,5.7-5.5,8.6-8.3c0.4-0.4-1.1-0.3-1.4,0c-20.2,19.5-40.4,38.9-60.6,58.4c-2.9,2.8-5.7,5.5-8.6,8.3
									c0.5-0.1,0.9-0.2,1.4-0.3c-19.2-18.5-38.4-37.1-57.7-55.6C812.2,2102.6,810.8,2103.1,811.2,2103.4L811.2,2103.4z"/>
							</g>
						</g>
						<g>
							<g>
								<path class="st5" d="M566.5,2103.5c19.2,18.5,38.4,37.1,57.7,55.6c0.4,0.3,1,0.2,1.3-0.1c20.2-19.5,40.4-38.9,60.6-58.4
									c2.9-2.8,5.7-5.5,8.6-8.3c0.6-0.6-0.8-0.8-1.2-0.4c-20.2,19.5-40.4,38.9-60.6,58.4c-2.9,2.8-5.7,5.5-8.6,8.3
									c0.4,0,0.9-0.1,1.3-0.1c-19.2-18.5-38.4-37.1-57.7-55.6C567.5,2102.4,566.1,2103,566.5,2103.5L566.5,2103.5z"/>
							</g>
						</g>
						<g>
							<g>
								<path class="st5" d="M321.9,2103.5c19.2,18.5,38.4,37.1,57.7,55.6c0.4,0.3,1,0.2,1.3-0.1c20.2-19.5,40.4-38.9,60.6-58.4
									c2.9-2.8,5.7-5.5,8.6-8.3c0.7-0.6-0.8-0.8-1.2-0.4c-20.2,19.5-40.4,38.9-60.6,58.4c-2.9,2.8-5.7,5.5-8.6,8.3
									c0.4,0,0.9-0.1,1.3-0.1c-19.2-18.5-38.4-37.1-57.7-55.6C322.8,2102.4,321.4,2103,321.9,2103.5L321.9,2103.5z"/>
							</g>
						</g>
						<g>
							<g>
								<path class="st5" d="M77.2,2103.5c19.2,18.5,38.4,37.1,57.7,55.6c0.3,0.3,1,0.1,1.3-0.2c20.2-19.5,40.4-38.9,60.6-58.4
									c2.9-2.8,5.7-5.5,8.6-8.3c0.6-0.6-0.8-0.6-1.2-0.2c-20.2,19.5-40.4,38.9-60.6,58.4c-2.9,2.8-5.7,5.5-8.6,8.3
									c0.4-0.1,0.9-0.1,1.3-0.2c-19.2-18.5-38.4-37.1-57.7-55.6C78.2,2102.5,76.8,2103.1,77.2,2103.5L77.2,2103.5z"/>
							</g>
						</g>
						<g>
							<g>
								<path class="st5" d="M2034.4,2103.5c19.2,18.5,38.4,37.1,57.7,55.6c0.4,0.4,0.9,0.2,1.3-0.1c20.2-19.5,40.4-38.9,60.6-58.4
									c2.9-2.8,5.7-5.5,8.6-8.3c0.7-0.6-0.8-0.9-1.2-0.4c-20.2,19.5-40.4,38.9-60.6,58.4c-2.9,2.8-5.7,5.5-8.6,8.3
									c0.4,0,0.9-0.1,1.3-0.1c-19.2-18.5-38.4-37.1-57.7-55.6C2035.3,2102.4,2033.9,2103,2034.4,2103.5L2034.4,2103.5z"/>
							</g>
						</g>
					</g>
					<g>
						<g>
							<g>
								<path class="st5" d="M1662.9,1907.6c19.2,18.5,38.4,37.1,57.7,55.6c0.2,0.2,1.2-0.1,1.4-0.3c20.2-19.5,40.4-38.9,60.6-58.4
									c2.9-2.8,5.7-5.5,8.6-8.3c0.3-0.3-1.1-0.1-1.3,0.1c-18.5,17.8-37,35.6-55.4,53.5c-3.8,3.7-7.6,7.3-11.4,11
									c-0.7,0.7-1.6,1.4-2.3,2.2c0.9-1.2,1.5,0.3-0.1-1.5c-3.3-4-7.8-7.5-11.5-11.1c-5.8-5.6-11.6-11.2-17.4-16.8
									c-9.1-8.8-18.3-17.6-27.4-26.4C1664,1906.9,1662.7,1907.5,1662.9,1907.6L1662.9,1907.6z"/>
							</g>
						</g>
						<g>
							<g>
								<path class="st5" d="M1418.3,1907.7c19.2,18.5,38.4,37.1,57.7,55.6c0.3,0.3,1,0,1.3-0.2c20.2-19.5,40.4-38.9,60.6-58.4
									c2.9-2.8,5.7-5.5,8.6-8.3c0.6-0.6-0.9-0.5-1.2-0.2c-18.5,17.8-37,35.6-55.4,53.5c-3.8,3.7-7.6,7.3-11.4,11
									c-0.7,0.7-1.6,1.4-2.3,2.2c0.9-1,1.3,0.4-0.2-1.4c-3.3-4-7.8-7.5-11.5-11.1c-5.8-5.6-11.6-11.2-17.4-16.8
									c-9.1-8.8-18.3-17.6-27.4-26.4C1419.3,1906.8,1417.9,1907.3,1418.3,1907.7L1418.3,1907.7z"/>
							</g>
						</g>
						<g>
							<g>
								<path class="st5" d="M1173.6,1907.7c19.2,18.5,38.4,37.1,57.7,55.6c0.4,0.4,1,0.2,1.3-0.1c20.2-19.5,40.4-38.9,60.6-58.4
									c2.9-2.8,5.7-5.5,8.6-8.3c0.7-0.6-0.8-0.9-1.2-0.4c-20.2,19.5-40.4,38.9-60.6,58.4c-2.9,2.8-5.7,5.5-8.6,8.3
									c0.4,0,0.9-0.1,1.3-0.1c-19.2-18.5-38.4-37.1-57.7-55.6C1174.5,1906.6,1173.1,1907.2,1173.6,1907.7L1173.6,1907.7z"/>
							</g>
						</g>
						<g>
							<g>
								<path class="st5" d="M929,1907.7c19.2,18.5,38.4,37.1,57.7,55.6c0.4,0.4,0.9,0.2,1.3-0.1c20.2-19.5,40.4-38.9,60.6-58.4
									c2.9-2.8,5.7-5.5,8.6-8.3c0.7-0.6-0.8-0.9-1.2-0.5c-20.2,19.5-40.4,38.9-60.6,58.4c-2.9,2.8-5.7,5.5-8.6,8.3
									c0.4,0,0.9-0.1,1.3-0.1c-19.2-18.5-38.4-37.1-57.7-55.6C929.8,1906.6,928.5,1907.2,929,1907.7L929,1907.7z"/>
							</g>
						</g>
						<g>
							<g>
								<path class="st5" d="M684.3,1907.7c19.2,18.5,38.4,37.1,57.7,55.6c0.3,0.3,1.1,0,1.4-0.3c20.2-19.5,40.4-38.9,60.6-58.4
									c2.9-2.8,5.7-5.5,8.6-8.3c0.4-0.4-1.1-0.3-1.4,0c-20.2,19.5-40.4,38.9-60.6,58.4c-2.9,2.8-5.7,5.5-8.6,8.3
									c0.5-0.1,0.9-0.2,1.4-0.3c-19.2-18.5-38.4-37.1-57.7-55.6C685.4,1906.8,684,1907.4,684.3,1907.7L684.3,1907.7z"/>
							</g>
						</g>
						<g>
							<g>
								<path class="st5" d="M439.7,1907.7c19.2,18.5,38.4,37.1,57.7,55.6c0.4,0.3,1,0.2,1.3-0.1c20.2-19.5,40.4-38.9,60.6-58.4
									c2.9-2.8,5.7-5.5,8.6-8.3c0.6-0.6-0.8-0.8-1.2-0.4c-20.2,19.5-40.4,38.9-60.6,58.4c-2.9,2.8-5.7,5.5-8.6,8.3
									c0.4,0,0.9-0.1,1.3-0.1c-19.2-18.5-38.4-37.1-57.7-55.6C440.6,1906.7,439.2,1907.2,439.7,1907.7L439.7,1907.7z"/>
							</g>
						</g>
						<g>
							<g>
								<path class="st5" d="M195,1907.7c19.2,18.5,38.4,37.1,57.7,55.6c0.3,0.3,1,0.1,1.3-0.2c20.2-19.5,40.4-38.9,60.6-58.4
									c2.9-2.8,5.7-5.5,8.6-8.3c0.6-0.6-0.8-0.5-1.2-0.2c-20.2,19.5-40.4,38.9-60.6,58.4c-2.9,2.8-5.7,5.5-8.6,8.3
									c0.4-0.1,0.9-0.1,1.3-0.2c-19.2-18.5-38.4-37.1-57.7-55.6C196,1906.8,194.6,1907.3,195,1907.7L195,1907.7z"/>
							</g>
						</g>
						<g>
							<g>
								<path class="st5" d="M-49.5,1907.8c19.2,18.5,38.4,37.1,57.7,55.6c0.3,0.3,0.9,0,1.2-0.2c20.2-19.5,40.4-38.9,60.6-58.4
									c2.9-2.8,5.7-5.5,8.6-8.3c0.7-0.6-0.8-0.9-1.2-0.5c-18.5,17.8-37,35.6-55.4,53.5c-3.8,3.7-7.6,7.3-11.4,11
									c-0.7,0.7-1.5,1.5-2.3,2.2c1.1-0.9,1.1,0.2-0.2-1.4c-3.4-4-7.8-7.5-11.5-11.1c-5.8-5.6-11.6-11.2-17.4-16.8
									c-9.1-8.8-18.3-17.6-27.4-26.4C-48.9,1906.5-50.1,1907.2-49.5,1907.8L-49.5,1907.8z"/>
							</g>
						</g>
						<g>
							<g>
								<path class="st5" d="M1907.7,1907.8c19.2,18.5,38.4,37.1,57.7,55.6c0.2,0.2,0.8,0.1,1.1-0.1c20.2-19.5,40.4-38.9,60.6-58.4
									c2.9-2.8,5.7-5.5,8.6-8.3c0.7-0.7-0.4-1.3-1-0.7c-18.5,17.8-37,35.6-55.4,53.5c-3.8,3.7-7.6,7.3-11.4,11
									c-0.7,0.7-1.4,1.6-2.3,2.2c0.9-0.7,0.9,0.2-0.4-1.3c-3.4-4-7.7-7.5-11.5-11.1c-5.8-5.6-11.6-11.2-17.4-16.8
									c-9.1-8.8-18.3-17.6-27.4-26.4C1908.3,1906.5,1907.1,1907.2,1907.7,1907.8L1907.7,1907.8z"/>
							</g>
						</g>
					</g>
					<g>
						<g>
							<g>
								<path class="st5" d="M1780.7,1694.1c19.2,18.5,38.4,37.1,57.7,55.6c0.3,0.3,1,0,1.3-0.2c20.2-19.5,40.4-38.9,60.6-58.4
									c2.9-2.8,5.7-5.5,8.6-8.3c0.6-0.6-0.9-0.5-1.2-0.2c-20.2,19.5-40.4,38.9-60.6,58.4c-2.9,2.8-5.7,5.5-8.6,8.3
									c0.4-0.1,0.8-0.1,1.3-0.2c-19.2-18.5-38.4-37.1-57.7-55.6C1781.7,1693.2,1780.4,1693.8,1780.7,1694.1L1780.7,1694.1z"/>
							</g>
						</g>
						<g>
							<g>
								<path class="st5" d="M1536.1,1694.1c19.2,18.5,38.4,37.1,57.7,55.6c0.3,0.3,1,0.1,1.3-0.2c20.2-19.5,40.4-38.9,60.6-58.4
									c2.9-2.8,5.7-5.5,8.6-8.3c0.6-0.6-0.8-0.7-1.2-0.3c-20.2,19.5-40.4,38.9-60.6,58.4c-2.9,2.8-5.7,5.5-8.6,8.3
									c0.4-0.1,0.9-0.1,1.3-0.2c-19.2-18.5-38.4-37.1-57.7-55.6C1537,1693.1,1535.6,1693.7,1536.1,1694.1L1536.1,1694.1z"/>
							</g>
						</g>
						<g>
							<g>
								<path class="st5" d="M1291.4,1694.1c19.2,18.5,38.4,37.1,57.7,55.6c0.3,0.3,1,0.1,1.3-0.1c20.2-19.5,40.4-38.9,60.6-58.4
									c2.9-2.8,5.7-5.5,8.6-8.3c0.6-0.6-0.8-0.7-1.2-0.3c-20.2,19.5-40.4,38.9-60.6,58.4c-2.9,2.8-5.7,5.5-8.6,8.3
									c0.4,0,0.9-0.1,1.3-0.1c-19.2-18.5-38.4-37.1-57.7-55.6C1292.4,1693.1,1291,1693.7,1291.4,1694.1L1291.4,1694.1z"/>
							</g>
						</g>
						<g>
							<g>
								<path class="st5" d="M1046.8,1694.1c19.2,18.5,38.4,37.1,57.7,55.6c0.3,0.3,1.1-0.1,1.4-0.3c20.2-19.5,40.4-38.9,60.6-58.4
									c2.9-2.8,5.7-5.5,8.6-8.3c0.3-0.3-1.1-0.2-1.3,0.1c-20.2,19.5-40.4,38.9-60.6,58.4c-2.9,2.8-5.7,5.5-8.6,8.3
									c0.5-0.1,0.9-0.2,1.4-0.3c-19.2-18.5-38.4-37.1-57.7-55.6C1047.9,1693.3,1046.5,1693.8,1046.8,1694.1L1046.8,1694.1z"/>
							</g>
						</g>
						<g>
							<g>
								<path class="st5" d="M802.1,1694.1c19.2,18.5,38.4,37.1,57.7,55.6c0.3,0.3,1.1,0,1.4-0.3c20.2-19.5,40.4-38.9,60.6-58.4
									c2.9-2.8,5.7-5.5,8.6-8.3c0.4-0.4-1.1-0.2-1.4,0c-20.2,19.5-40.4,38.9-60.6,58.4c-2.9,2.8-5.7,5.5-8.6,8.3
									c0.5-0.1,0.9-0.2,1.4-0.3c-19.2-18.5-38.4-37.1-57.7-55.6C803.2,1693.3,801.8,1693.8,802.1,1694.1L802.1,1694.1z"/>
							</g>
						</g>
						<g>
							<g>
								<path class="st5" d="M557.6,1694.3c19.2,18.5,38.4,37.1,57.7,55.6c0.3,0.3,0.9,0,1.2-0.2c20.2-19.5,40.4-38.9,60.6-58.4
									c2.9-2.8,5.7-5.5,8.6-8.3c0.7-0.6-0.8-0.9-1.2-0.5c-18.5,17.8-37,35.6-55.4,53.5c-3.8,3.7-7.6,7.3-11.4,11
									c-0.7,0.7-1.5,1.5-2.3,2.2c1.1-0.9,1.1,0.2-0.2-1.4c-3.4-4-7.8-7.5-11.5-11.1c-5.8-5.6-11.6-11.2-17.4-16.8
									c-9.1-8.8-18.3-17.6-27.4-26.4C558.2,1692.9,557,1693.7,557.6,1694.3L557.6,1694.3z"/>
							</g>
						</g>
						<g>
							<g>
								<path class="st5" d="M312.8,1694.1c19.2,18.5,38.4,37.1,57.7,55.6c0.3,0.3,1,0.1,1.3-0.2c20.2-19.5,40.4-38.9,60.6-58.4
									c2.9-2.8,5.7-5.5,8.6-8.3c0.6-0.6-0.8-0.6-1.2-0.2c-20.2,19.5-40.4,38.9-60.6,58.4c-2.9,2.8-5.7,5.5-8.6,8.3
									c0.4-0.1,0.9-0.1,1.3-0.2c-19.2-18.5-38.4-37.1-57.7-55.6C313.8,1693.2,312.4,1693.7,312.8,1694.1L312.8,1694.1z"/>
							</g>
						</g>
						<g>
							<g>
								<path class="st5" d="M68.2,1694.1c19.2,18.5,38.4,37.1,57.7,55.6c0.3,0.3,1,0.1,1.3-0.2c20.2-19.5,40.4-38.9,60.6-58.4
									c2.9-2.8,5.7-5.5,8.6-8.3c0.6-0.6-0.8-0.6-1.2-0.3c-20.2,19.5-40.4,38.9-60.6,58.4c-2.9,2.8-5.7,5.5-8.6,8.3
									c0.4-0.1,0.9-0.1,1.3-0.2c-19.2-18.5-38.4-37.1-57.7-55.6C69.2,1693.2,67.8,1693.7,68.2,1694.1L68.2,1694.1z"/>
							</g>
						</g>
						<g>
							<g>
								<path class="st5" d="M2025.4,1694.1c19.2,18.5,38.4,37.1,57.7,55.6c0.3,0.3,1,0,1.3-0.2c20.2-19.5,40.4-38.9,60.6-58.4
									c2.9-2.8,5.7-5.5,8.6-8.3c0.6-0.6-0.9-0.5-1.2-0.2c-20.2,19.5-40.4,38.9-60.6,58.4c-2.9,2.8-5.7,5.5-8.6,8.3
									c0.4-0.1,0.8-0.1,1.3-0.2c-19.2-18.5-38.4-37.1-57.7-55.6C2026.4,1693.2,2025,1693.8,2025.4,1694.1L2025.4,1694.1z"/>
							</g>
						</g>
					</g>
				</g>
			</g>
		</g>
	</g>
	<g>
		<g>
			<path class="st6" d="M954.1,193.4c0,0-243.5-221.8-409.9,74.7s50.6,766.8-115.7,969.3c0,0,173.6,188.1,231.5-101.3
				c57.9-289.4,79.6-759.5,79.6-759.5L954.1,193.4z"/>
			<g>
				<path class="st6" d="M912.2,224.7c-4.7-5.9-9.7-11.6-14.9-17c-5.2-5.5-10.6-10.8-16.1-15.9c-11.1-10.2-23-19.6-35.5-28
					c-12.5-8.4-25.7-15.8-39.6-21.6c-13.9-5.9-28.4-10.2-43.3-12.5c-7.4-1.1-15-1.7-22.5-1.8c-7.5-0.1-15,0.5-22.5,1.5l-5.6,0.9
					l-1.4,0.2l-1.4,0.3l-2.8,0.6c-3.7,0.7-7.3,1.8-10.9,2.7c-1.8,0.5-3.6,1.1-5.4,1.7l-2.7,0.9c-0.9,0.3-1.8,0.7-2.6,1l-5.3,2
					c-1.7,0.7-3.4,1.5-5.2,2.2c-3.5,1.4-6.8,3.2-10.2,4.9l-1.3,0.6L662,148l-2.5,1.4c-1.6,0.9-3.3,1.8-4.9,2.8l-4.8,3
					c-1.6,1-3.2,2-4.7,3.1c-3.1,2.2-6.2,4.2-9.2,6.5c-12.1,9-23.3,19.1-33.7,30c-21,21.7-38.8,46.1-55,71.5
					c-16,25.5-29.5,52.6-40.1,80.8l-2,5.3c-0.7,1.8-1.3,3.6-1.9,5.3l-3.7,10.7l-3.4,10.8c-0.6,1.8-1.2,3.6-1.7,5.4l-1.6,5.4
					c-4.3,14.5-7.8,29.1-11,43.8l-2.3,11.1c-0.8,3.7-1.4,7.4-2.1,11.1c-1.4,7.4-2.5,14.9-3.7,22.3l-1.6,11.2l-0.8,5.6l-0.7,5.6
					l-1.4,11.2l-1.2,11.2l-0.6,5.6l-0.5,5.6l-1,11.3c-0.5,7.5-1.2,15-1.6,22.6c-1,15-1.6,30.1-2.1,45.2c-0.9,30.2-1.1,60.3-0.9,90.5
					c0.4,60.4,2.6,120.7,2.7,181.1c0,15.1-0.1,30.2-0.4,45.3c-0.3,15.1-0.8,30.2-1.6,45.3c-0.9,15.1-1.9,30.1-3.5,45.2
					c-1.6,15-3.5,30-6,44.9c-2.6,14.9-5.7,29.7-9.6,44.3c-3.8,14.6-8.5,29-14.2,43c-5.7,14-12.3,27.6-20.2,40.5
					c-7.8,12.9-16.8,25.1-27,36.3c10.1-11.2,19-23.5,26.8-36.4c7.8-12.9,14.3-26.6,19.9-40.6c5.6-14,10.2-28.4,14-43
					c3.8-14.6,6.8-29.4,9.3-44.2c2.4-14.9,4.3-29.8,5.8-44.9c1.5-15,2.5-30.1,3.3-45.1c0.8-15.1,1.2-30.1,1.5-45.2
					c0.2-15.1,0.3-30.2,0.3-45.3c-0.3-60.4-2.4-120.7-2.9-181.1c-0.3-30.2-0.1-60.4,0.8-90.6c0.5-15.1,1.1-30.2,2.1-45.3
					c0.4-7.5,1.1-15.1,1.6-22.6l1-11.3l0.5-5.6l0.6-5.6l1.2-11.3l1.4-11.2l0.7-5.6l0.8-5.6l1.6-11.2c1.2-7.5,2.3-14.9,3.8-22.3
					c0.7-3.7,1.3-7.4,2.1-11.1l2.3-11.1c3.2-14.8,6.7-29.5,11-44l1.6-5.4c0.5-1.8,1.1-3.6,1.7-5.4l3.4-10.8l3.7-10.7
					c0.6-1.8,1.2-3.6,1.9-5.3l2-5.3c10.7-28.3,24.2-55.5,40.3-81.1c8.1-12.8,16.7-25.2,25.8-37.3l7-8.9l7.3-8.7
					c1.2-1.5,2.5-2.9,3.7-4.3l3.8-4.2c2.5-2.9,5.2-5.5,7.8-8.3c10.5-10.8,21.8-21,34-30c3-2.3,6.2-4.4,9.3-6.5
					c1.5-1.1,3.2-2.1,4.8-3.1l4.8-3c1.6-1,3.3-1.9,4.9-2.8l2.5-1.4l1.2-0.7l1.3-0.6c3.4-1.7,6.7-3.4,10.3-4.9
					c1.7-0.7,3.5-1.5,5.2-2.2l5.3-2c0.9-0.3,1.8-0.7,2.7-1l2.7-0.9c1.8-0.6,3.6-1.2,5.4-1.7c3.7-0.9,7.3-2,11-2.7l2.8-0.6l1.4-0.3
					l1.4-0.2l5.6-0.9c7.5-1,15.1-1.5,22.7-1.4c7.6,0.1,15.1,0.8,22.6,1.9c14.9,2.4,29.5,6.8,43.4,12.8c13.9,5.9,27.1,13.4,39.6,21.9
					c12.5,8.5,24.3,18,35.4,28.2c5.5,5.1,10.9,10.4,16.1,15.9C902.6,213.1,907.6,218.7,912.2,224.7z"/>
			</g>
		</g>
		<g>
			<path class="st2" d="M746.8,718.1c-31.3-97-105.3-74.5-112.2-72.2c-7.3,0.8-83.8,12.2-70.6,113.2
				c13.3,101.6,72.3,156.7,127.6,140.5C748.5,890.6,778.2,815.6,746.8,718.1z"/>
			<path class="st2" d="M1413.4,736.6c31.3-97,105.3-74.5,112.2-72.2c7.3,0.8,83.8,12.2,70.6,113.2
				c-13.3,101.6-72.3,156.7-127.6,140.5C1411.7,909.2,1381.9,834.2,1413.4,736.6z"/>
			<path class="st1" d="M1477.9,584.1c-38.7-425.2-362-401.3-392.4-398.1c-30.5-3.2-353.7-27-392.4,398.1
				c-39,427.7,151.5,707,392.4,691.7C1326.4,1291.1,1516.9,1011.8,1477.9,584.1z"/>
		</g>
		<g>
			<g>
				<path class="st7" d="M1131.7,729.2c2.1,14,4.3,28,6.4,42.1c2.1,14,4.2,28,6.2,42.1l6.1,42.1l5.9,42.1l0,0.2l-0.2,0.2l-24.5,23
					l-24.6,22.9l24.2-23.3l24.3-23.2l-0.1,0.4l-6.1-42.1l-6-42.1c-2-14-3.9-28.1-5.9-42.1C1135.4,757.3,1133.5,743.3,1131.7,729.2z"
					/>
			</g>
			<path class="st8" d="M898.3,1006.5l383.6-4C1281.9,1002.5,1128.5,1153.4,898.3,1006.5z"/>
			<g>
				<path class="st7" d="M996.7,1083.5c10,4.6,20.3,8.7,30.8,12.1c10.5,3.5,21.2,6.3,32,8.4c21.6,4.2,43.9,5.5,65.8,3.3
					c21.9-2.1,43.5-7.7,63.7-16.6c10.1-4.4,19.8-9.7,29.1-15.6c9.3-5.9,18.2-12.5,26.5-19.7c-8.3,7.3-17,14.1-26.3,20.2
					c-9.2,6.1-19,11.4-29.1,16c-20.2,9.1-41.9,14.8-63.9,17c-22,2.1-44.4,0.8-66.1-3.6c-10.8-2.2-21.5-5.1-32-8.7
					C1016.9,1092.6,1006.6,1088.3,996.7,1083.5z"/>
			</g>
			<g>
				<path class="st9" d="M884.4,735.6c0,32,11.9,58,26.5,58c14.7,0,26.5-26,26.5-58c0-32-11.9-58-26.5-58
					C896.3,677.7,884.4,703.6,884.4,735.6z"/>
				<path class="st9" d="M1249.2,735.6c0,32,11.9,58,26.5,58c14.7,0,26.5-26,26.5-58c0-32-11.9-58-26.5-58
					C1261,677.7,1249.2,703.6,1249.2,735.6z"/>
			</g>
			<g>
				<path class="st9" d="M819.2,640.8c11.5-13.8,25.3-25.7,40.6-35.3c7.7-4.8,15.8-8.8,24.3-11.9c8.5-3.1,17.4-5.2,26.4-6.1
					c18.1-1.7,36.6,2.4,52.5,11c16,8.5,29.6,20.9,41.1,34.6c-6.1-6.6-12.6-12.8-19.5-18.4l-2.6-2.1l-2.7-2c-1.8-1.4-3.7-2.6-5.5-3.9
					c-3.8-2.4-7.6-4.8-11.6-6.7c-4-2-8.1-3.8-12.2-5.3c-4.2-1.5-8.5-2.8-12.8-3.6c-4.4-0.9-8.8-1.5-13.2-1.7
					c-4.4-0.2-8.9-0.1-13.3,0.3c-8.8,0.8-17.6,2.8-26,5.8c-8.4,3-16.4,7-24.1,11.5c-7.7,4.5-15,9.7-21.9,15.4
					C831.8,628,825.2,634.1,819.2,640.8z"/>
			</g>
			<g>
				<path class="st9" d="M1186.6,640.8c11.5-13.8,25.3-25.7,40.6-35.3c7.7-4.8,15.8-8.8,24.3-11.9c8.5-3.1,17.4-5.2,26.4-6.1
					c18.1-1.7,36.6,2.4,52.5,11c16,8.5,29.6,20.9,41.1,34.6c-6.1-6.6-12.6-12.8-19.5-18.4l-2.6-2.1l-2.7-2c-1.8-1.4-3.7-2.6-5.5-3.9
					c-3.8-2.4-7.6-4.8-11.6-6.7c-4-2-8.1-3.8-12.2-5.3c-4.2-1.5-8.5-2.8-12.8-3.6c-4.4-0.9-8.8-1.5-13.2-1.7
					c-4.4-0.2-8.9-0.1-13.3,0.3c-8.8,0.8-17.6,2.8-26,5.8c-8.4,3-16.4,7-24.1,11.5c-7.7,4.5-15,9.7-21.9,15.4
					C1199.1,628,1192.6,634.1,1186.6,640.8z"/>
			</g>
		</g>
		<g>
			<path class="st6" d="M891.5,304.4c0,0,166.4-173.6,267.6-36.2c101.3,137.4,274.9,651,564.2,687.2c0,0,55.5-598-205-829.5
				C1245.6-116.5,884.2,29.5,891.5,304.4z"/>
			<g>
				<path class="st6" d="M1600.4,969.9c-23.9-3.2-47.2-10.5-68.9-21.1c-21.7-10.6-41.9-24.3-60.3-39.8c-18.5-15.6-35.4-33-51-51.4
					c-15.6-18.4-30-37.9-43.5-57.9c-26.9-40.1-50.1-82.6-71.5-125.9c-21.3-43.3-40.7-87.5-59.2-132.1
					c-18.5-44.5-36.1-89.5-54.2-134.2c-9.1-22.3-18.3-44.6-28.1-66.6c-4.9-11-10-21.9-15.4-32.7c-5.4-10.8-11.1-21.4-17.3-31.6
					c-6.3-10.2-13.3-20-21.5-28.8c-8.1-8.8-17.4-16.5-27.8-22.5c-10.3-6-21.8-10-33.6-11.6c-11.8-1.7-24-1.1-35.7,1.2
					c-11.8,2.3-23.2,6.2-34.2,11.1c-11,4.9-21.5,10.9-31.5,17.5c-10.1,6.6-19.7,13.9-28.9,21.6c-9.2,7.8-18.1,16-26.3,24.8
					c8.1-8.9,16.9-17.2,26-25.1c9.1-7.9,18.7-15.2,28.7-22c10-6.7,20.5-12.8,31.5-17.9c11-5.1,22.5-9.1,34.4-11.5
					c11.9-2.4,24.2-3.1,36.2-1.4c12.1,1.6,23.8,5.6,34.4,11.7c10.6,6,20.1,13.8,28.4,22.7c8.3,8.8,15.5,18.7,21.9,29
					c6.4,10.3,12.1,21,17.5,31.7c5.4,10.8,10.5,21.7,15.5,32.7c9.9,22,19.1,44.3,28.3,66.6c9.1,22.3,18.1,44.7,27.1,67.1
					c9,22.4,18.1,44.7,27.3,67c18.4,44.5,37.7,88.8,58.9,132c10.6,21.6,21.7,43,33.5,64.1c11.8,21,24.1,41.7,37.5,61.8
					c13.3,20.1,27.5,39.5,43,58c15.5,18.5,32.2,35.8,50.5,51.5c18.3,15.6,38.2,29.5,59.8,40.2
					C1553.3,958.9,1576.5,966.4,1600.4,969.9z"/>
			</g>
			<path class="st6" d="M891.5,304.4c0,0,44.2-55.7,20.7-79.7c-51.6-52.7-234.6-88.1-259.5,115.8
				c-36.2,296.6,115.7,774-137.4,1027.2c0,0,79.6,94,166.4-36.2c0,0-28.9,86.8-79.6,94c0,0,123,21.7,151.9-151.9
				C782.9,1100.1,696.1,318.8,891.5,304.4z"/>
		</g>
	</g>
</g>
</svg>
