<?xml version="1.0" encoding="utf-8"?>
<!-- Generator: Adobe Illustrator 22.0.1, SVG Export Plug-In . SVG Version: 6.00 Build 0)  -->
<svg version="1.1" id="Layer_1" xmlns="http://www.w3.org/2000/svg" xmlns:xlink="http://www.w3.org/1999/xlink" x="0px" y="0px"
	 viewBox="0 0 2198 2392" style="enable-background:new 0 0 2198 2392;" xml:space="preserve">
<style type="text/css">
	.st0{fill:#FFDEBF;}
	.st1{fill:#ECC6AE;}
	.st2{fill:#FF6A59;}
	.st3{clip-path:url(#SVGID_2_);fill:none;stroke:#FF9786;stroke-width:3;stroke-miterlimit:10;}
	.st4{clip-path:url(#SVGID_2_);fill:none;stroke:#FF9786;stroke-miterlimit:10;}
	.st5{fill:#D27168;}
	.st6{fill:#FF9786;}
	.st7{fill:#FFFFFF;}
	.st8{fill:#352836;}
</style>
<g>
	<g>
		<g>
			<path class="st0" d="M2064.4,1880.6c-85.5-229.8-608.4-339.5-700-406.1c-117.6-85.5-80.1-368.7-80.1-368.7l-192.4,5.1l-192.4-5.1
				c0,0,37.4,283.2-80.1,368.7c-91.6,66.6-614.5,176.3-700,406.1S1.9,2313.4,1.9,2313.4h1079.3h21.4H2182
				C2182,2313.4,2149.9,2110.3,2064.4,1880.6z"/>
			<path class="st1" d="M863.9,1421.7c90-9.2,180.6-27.5,259-71.3c57.1-32,108.6-69.7,156.4-112.2c-2.8-72.8,5-132.4,5-132.4
				l-192.4,5.1l-192.4-5.1C899.6,1105.8,926.2,1307.3,863.9,1421.7z"/>
		</g>
		<g>
			<g>
				<path class="st2" d="M2079.6,1877.4c-83.3-223.8-578.5-334.6-694.5-402.3c-7.8,4.6-16,8.7-24.2,13L1106,1775.4l-352.5-272.1
					c-174.4,69.7-560.5,178.8-633.1,374.1c-86.1,231.5-118.4,436-118.4,436H2198C2198,2313.4,2165.7,2108.8,2079.6,1877.4z"/>
				<g>
					<defs>
						<path id="SVGID_1_" d="M2079.6,1877.4c-83.3-223.8-578.5-334.6-694.5-402.3c-7.8,4.6-16,8.7-24.2,13L1106,1775.4l-352.5-272.1
							c-174.4,69.7-560.5,178.8-633.1,374.1c-86.1,231.5-118.4,436-118.4,436H2198C2198,2313.4,2165.7,2108.8,2079.6,1877.4z"/>
					</defs>
					<clipPath id="SVGID_2_">
						<use xlink:href="#SVGID_1_"  style="overflow:visible;"/>
					</clipPath>
					<line class="st3" x1="18" y1="2146.8" x2="2189.1" y2="2146.8"/>
					<line class="st4" x1="18" y1="2213.9" x2="2189.1" y2="2213.9"/>
				</g>
			</g>
			<g>
				<polygon class="st5" points="1024.5,1617.2 1106,1775.4 1163.5,1598.1 1206.6,1684.3 1101.2,1794.6 981.3,1689.1 				"/>
				<polygon class="st6" points="732.1,1507 947.8,1818.5 1024.5,1617.2 799.2,1392 				"/>
				<polygon class="st6" points="1441.4,1483 1240.2,1799.4 1163.5,1598.1 1388.7,1372.8 				"/>
			</g>
		</g>
	</g>
	<g>
		<g>
			<path class="st1" d="M768.9,664.3c-31.1-96.4-104.6-74.1-111.5-71.7c-7.2,0.8-83.3,12.1-70.1,112.5
				c13.2,101,71.8,155.8,126.8,139.7C770.6,835.8,800.2,761.3,768.9,664.3z"/>
			<path class="st1" d="M1371.7,654.7c31.1-96.4,104.6-74.1,111.5-71.7c7.2,0.8,83.3,12.1,70.1,112.5
				c-13.2,101-71.8,155.7-126.8,139.7C1370.1,826.2,1340.5,751.7,1371.7,654.7z"/>
			<path class="st0" d="M1469.4,512.7c-38.5-422.5-359.7-398.9-390-395.7c-30.3-3.2-351.5-26.8-390,395.7
				c-38.7,425.1,150.6,702.7,390,687.4C1318.8,1215.3,1508.2,937.7,1469.4,512.7z"/>
		</g>
		<g>
			<g>
				<path class="st1" d="M1125.3,657l3.3,20.9c1.1,7,2.2,13.9,3.2,20.9c2.1,13.9,4.3,27.9,6.3,41.8c2,13.9,4.1,27.9,6.1,41.8
					l5.9,41.9l0.1,0.4l-0.3,0.3l-24.5,22.8l-12.3,11.3l-12.3,11.3l11.9-11.7l12-11.7l24-23.2l-0.3,0.7l-6.1-41.8
					c-2.1-13.9-3.9-27.9-5.9-41.9c-2-13.9-3.8-27.9-5.7-41.9c-0.9-7-1.9-14-2.7-21L1125.3,657z"/>
			</g>
			<path class="st7" d="M893.4,932.5l381.2-4C1274.6,928.5,1122.2,1078.5,893.4,932.5z"/>
			<g>
				<path class="st1" d="M991.2,1009c10,4.6,20.2,8.7,30.6,12.1c10.4,3.5,21,6.3,31.8,8.4c21.5,4.2,43.6,5.5,65.4,3.3
					c21.8-2.1,43.3-7.6,63.3-16.5c10-4.4,19.7-9.7,28.9-15.6c9.2-5.9,18.1-12.5,26.4-19.6c-8.2,7.3-16.9,14-26.1,20.1
					c-9.2,6-18.9,11.3-28.9,15.8c-20.1,9-41.6,14.7-63.5,16.9c-21.9,2.1-44.1,0.7-65.6-3.6c-10.8-2.2-21.4-5-31.8-8.6
					C1011.2,1018,1001.1,1013.8,991.2,1009z"/>
			</g>
			<g>
				<ellipse class="st8" cx="905.9" cy="663.3" rx="26.4" ry="57.6"/>
				<path class="st8" d="M1242.1,663.3c0,31.8,11.8,57.6,26.4,57.6c14.6,0,26.4-25.8,26.4-57.6s-11.8-57.6-26.4-57.6
					C1253.9,605.7,1242.1,631.5,1242.1,663.3z"/>
			</g>
			<g>
				<path class="st8" d="M814.8,569c11.4-13.8,25.1-25.6,40.3-35.1c7.6-4.8,15.7-8.7,24.2-11.8c8.4-3.1,17.3-5.2,26.3-6
					c18-1.7,36.4,2.4,52.2,10.9c15.9,8.5,29.4,20.7,40.9,34.4c-6.1-6.5-12.5-12.8-19.4-18.3l-2.6-2.1l-2.7-2
					c-1.8-1.4-3.6-2.6-5.4-3.8c-3.7-2.4-7.5-4.7-11.5-6.7c-4-2-8-3.8-12.2-5.3c-4.2-1.5-8.4-2.7-12.7-3.6c-4.3-0.9-8.7-1.4-13.1-1.7
					c-4.4-0.2-8.8-0.1-13.2,0.3c-8.8,0.7-17.5,2.7-25.8,5.7c-8.3,3-16.3,6.9-24,11.4c-7.6,4.5-14.9,9.7-21.8,15.3
					C827.3,556.3,820.8,562.4,814.8,569z"/>
			</g>
			<g>
				<path class="st8" d="M1179.9,569c11.4-13.8,25.1-25.6,40.3-35.1c7.6-4.8,15.7-8.7,24.2-11.8c8.4-3.1,17.3-5.2,26.3-6
					c18-1.7,36.4,2.4,52.2,10.9c15.9,8.5,29.4,20.7,40.9,34.4c-6.1-6.5-12.5-12.8-19.4-18.3l-2.6-2.1l-2.7-2
					c-1.8-1.4-3.6-2.6-5.4-3.8c-3.7-2.4-7.5-4.7-11.5-6.7c-4-2-8-3.8-12.2-5.3c-4.2-1.5-8.4-2.7-12.7-3.6c-4.3-0.9-8.7-1.4-13.1-1.7
					c-4.4-0.2-8.8-0.1-13.2,0.3c-8.8,0.7-17.5,2.7-25.8,5.7c-8.3,3-16.3,6.9-24,11.4c-7.6,4.5-14.9,9.7-21.8,15.3
					C1192.4,556.3,1185.9,562.4,1179.9,569z"/>
			</g>
		</g>
		<g>
			<path class="st8" d="M822.2,348.2c0,0,116,152.3,298.1,176.3l-43.1-62.3c0,0,71.9,52.7,196.5,76.7c0,0,24-86.3-33.5-177.3
				c0,0,81.5,177.3,177.3,244.4c0,0,38.3-124.6-9.6-196.5c0,0,30.5,33.9,121.6,144.1c0,0,102-309.3-147.3-477S867,60.1,780.8,151.2
				c0,0-153.5-51.9-188.7,153.5c-29.2,170,35.3,300.7,35.3,300.7s53.9-35.6,53.9,74.7l12.6,112.8h33.5l4.8-225.3
				C732.1,567.6,817.4,535.2,822.2,348.2z"/>
			<path class="st8" d="M1428.1,786.6c12.1-0.4,24.1-0.8,36.2-1.2c33-118.3,10.7-332.8,10.7-332.8s-112-222.6-67.1-43.1
				C1445,557.7,1432.2,740.5,1428.1,786.6z"/>
		</g>
	</g>
</g>
</svg>
