<?xml version="1.0" encoding="utf-8"?>
<!-- Generator: Adobe Illustrator 22.0.1, SVG Export Plug-In . SVG Version: 6.00 Build 0)  -->
<svg version="1.1" id="Layer_1" xmlns="http://www.w3.org/2000/svg" xmlns:xlink="http://www.w3.org/1999/xlink" x="0px" y="0px"
	 viewBox="0 0 2198 2392" style="enable-background:new 0 0 2198 2392;" xml:space="preserve">
<style type="text/css">
	.st0{fill:#A9534F;}
	.st1{fill:#924644;}
	.st2{fill:#FFDEBF;}
	.st3{fill:#ECC6AE;}
	.st4{fill:#5996BF;}
	.st5{fill:#FFFFFF;}
	.st6{fill:#352836;}
</style>
<g>
	<g>
		<path class="st0" d="M1030.6,149.5c0,0,184.8-82.6,330.4-5.5s240.8,385.4,375.2,506.5c134.4,121.1,238.8,265.1,160.4,402.7
			c-78.4,137.6-154.8,125.8-76.4,318.5c78.4,192.7-249.8,238.7-182.6,381.8c0,0-170.2-315.8-119.8-591
			c50.4-275.3-89.6-930.5-313.6-908.4l-201.6-11L1030.6,149.5z"/>
		<path class="st0" d="M1092.2,72.5c0,0,91.5-144.5,286.4-14.5c95.7,63.8,136.5,219.2,312.8,306.3
			c193.6,95.6,226.9,185.3,146.4,324.8c-49.8,86.3,103.8,69.4,27.9,284c-59.3,167.7-571.9-746.5-571.9-746.5L1081,199.1L1092.2,72.5
			z"/>
		<path class="st1" d="M1687.8,712.6c0,0,151.3,122.1,103.8,266.3c-47.4,144.3-182.9,197.5-88,399.5c94.8,202-88,253-88,253
			s-442.5-31.1-388.3-499.3c54.2-468.3,283.4-482.4,283.4-482.4L1687.8,712.6z"/>
		<path class="st1" d="M1687.8,712.6c0,0,151.3,122.1,103.8,266.3c-47.4,144.3-182.9,197.5-88,399.5c94.8,202-88,253-88,253
			s-442.5-31.1-388.3-499.3c54.2-468.3,283.4-482.4,283.4-482.4L1687.8,712.6z"/>
		<path class="st1" d="M559.9,366c0,0-168.7,163.4-157.6,321.3c11.2,157.9-38.1,276.8-119.6,347.5c-81.5,70.7-78,221.9,0.3,310.2
			c0,0-43-97.9,6.3-216.8c0,0-72,409.1,342.7,459c0,0-14.9-6.2-59.4-125.6c0,0,22.5,113.8,276.2,131.9
			c253.8,18.1,381.1-322.8,261.3-689.4C990.5,537.5,752.7,438.9,752.7,438.9L559.9,366z"/>
	</g>
	<g>
		<g>
			<path class="st2" d="M2064.3,1957.1c-85.6-230-608.9-339.8-700.6-406.4c-117.7-85.6-80.2-369-80.2-369l-192.5,5.1l-192.5-5.1
				c0,0,37.4,283.4-80.2,369c-91.6,66.7-615,176.5-700.6,406.4C32.1,2187,0,2390.3,0,2390.3h1080.3h21.4H2182
				C2182,2390.3,2149.9,2187,2064.3,1957.1z"/>
			<path class="st3" d="M862.8,1497.8c90.1-9.2,180.7-27.5,259.2-71.4c57.2-32,108.7-69.8,156.5-112.3c-2.8-72.8,5-132.5,5-132.5
				l-192.5,5.1l-192.5-5.1C898.5,1181.6,925.1,1383.3,862.8,1497.8z"/>
		</g>
		<path class="st4" d="M2079.5,1953.9c-83.3-224-579-334.8-695.1-402.6c-91.7,53.3-203.6,84.8-324.4,84.8
			c-105,0-203.2-23.7-287.4-64.9c-162.8,69.3-578.4,179.4-654,382.8C32.3,2185.5,0,2390.3,0,2390.3h1088.2h21.5H2198
			C2198,2390.3,2165.7,2185.5,2079.5,1953.9z"/>
	</g>
	<g>
		<g>
			<path class="st3" d="M767.7,739.8C736.6,643.3,663,665.6,656.1,668c-7.2,0.8-83.3,12.1-70.2,112.6
				c13.2,101.1,71.9,155.9,126.9,139.8C769.4,911.4,799,836.8,767.7,739.8z"/>
			<path class="st3" d="M1404.6,739.8c31.1-96.5,104.7-74.1,111.6-71.8c7.2,0.8,83.3,12.1,70.2,112.6
				c-13.2,101.1-71.9,155.9-126.9,139.8C1402.9,911.4,1373.3,836.8,1404.6,739.8z"/>
			<path class="st2" d="M1468.8,588c-38.5-422.9-360-399.2-390.4-396c-30.3-3.2-351.8-26.9-390.4,396
				c-38.8,425.4,150.7,703.3,390.4,688C1318.1,1291.3,1507.6,1013.4,1468.8,588z"/>
		</g>
		<g>
			<g>
				<path class="st3" d="M1124.4,732.4l3.4,20.9c1.1,7,2.2,13.9,3.2,20.9c2.1,13.9,4.3,27.9,6.3,41.8c2,14,4.1,27.9,6.1,41.9
					l5.9,41.9l0.1,0.4l-0.3,0.3l-24.5,22.8l-12.3,11.3l-12.3,11.3l11.9-11.7l12-11.7l24.1-23.2l-0.3,0.7l-6.1-41.9
					c-2.1-14-3.9-27.9-5.9-41.9c-2-14-3.8-27.9-5.7-41.9c-0.9-7-1.9-14-2.7-21L1124.4,732.4z"/>
			</g>
			<path class="st5" d="M892.3,1008.2l381.5-4C1273.8,1004.2,1121.3,1154.3,892.3,1008.2z"/>
			<g>
				<path class="st3" d="M990.1,1084.8c10,4.6,20.2,8.7,30.6,12.1c10.4,3.5,21,6.3,31.8,8.4c21.5,4.2,43.7,5.5,65.5,3.3
					c21.8-2.1,43.3-7.6,63.4-16.5c10-4.4,19.7-9.7,28.9-15.6c9.3-5.9,18.1-12.5,26.4-19.7c-8.2,7.3-16.9,14-26.1,20.1
					c-9.2,6-18.9,11.3-28.9,15.8c-20.1,9-41.6,14.7-63.5,16.9c-21.9,2.1-44.1,0.7-65.7-3.6c-10.8-2.2-21.4-5-31.8-8.6
					C1010.2,1093.8,1000,1089.6,990.1,1084.8z"/>
			</g>
			<g>
				<path class="st6" d="M878.4,738.8c0,31.9,11.8,57.7,26.4,57.7c14.6,0,26.4-25.8,26.4-57.7c0-31.9-11.8-57.7-26.4-57.7
					C890.2,681.1,878.4,706.9,878.4,738.8z"/>
				<path class="st6" d="M1241.3,738.8c0,31.9,11.8,57.7,26.4,57.7c14.6,0,26.4-25.8,26.4-57.7c0-31.9-11.8-57.7-26.4-57.7
					C1253.1,681.1,1241.3,706.9,1241.3,738.8z"/>
			</g>
			<g>
				<path class="st6" d="M813.6,644.4c11.4-13.8,25.1-25.6,40.4-35.1c7.6-4.8,15.7-8.7,24.2-11.8c8.5-3.1,17.3-5.2,26.3-6
					c18-1.7,36.4,2.4,52.2,10.9c15.9,8.5,29.4,20.8,40.9,34.4c-6.1-6.5-12.5-12.8-19.4-18.3l-2.6-2.1l-2.7-2
					c-1.8-1.4-3.6-2.6-5.5-3.8c-3.7-2.4-7.5-4.7-11.5-6.7c-4-2-8-3.8-12.2-5.3c-4.2-1.5-8.4-2.7-12.8-3.6c-4.3-0.9-8.7-1.4-13.1-1.7
					c-4.4-0.2-8.8-0.1-13.2,0.3c-8.8,0.7-17.5,2.7-25.8,5.7c-8.4,3-16.3,6.9-24,11.4c-7.6,4.5-14.9,9.7-21.8,15.4
					C826.1,631.7,819.6,637.8,813.6,644.4z"/>
			</g>
			<g>
				<path class="st6" d="M1179,644.4c11.4-13.8,25.1-25.6,40.4-35.1c7.6-4.8,15.7-8.7,24.2-11.8c8.5-3.1,17.3-5.2,26.3-6
					c18-1.7,36.4,2.4,52.2,10.9c15.9,8.5,29.4,20.8,40.9,34.4c-6.1-6.5-12.5-12.8-19.4-18.3l-2.6-2.1l-2.7-2
					c-1.8-1.4-3.6-2.6-5.5-3.8c-3.7-2.4-7.5-4.7-11.5-6.7c-4-2-8-3.8-12.2-5.3c-4.2-1.5-8.4-2.7-12.8-3.6c-4.3-0.9-8.7-1.4-13.1-1.7
					c-4.4-0.2-8.8-0.1-13.2,0.3c-8.8,0.7-17.5,2.7-25.8,5.7c-8.4,3-16.3,6.9-24,11.4c-7.6,4.5-14.9,9.7-21.8,15.4
					C1191.5,631.7,1185,637.8,1179,644.4z"/>
			</g>
		</g>
		<g>
			<path class="st0" d="M1093.1,312.2c0,0-152.9-73.6-226.5,101.9C793.1,589.6,808.8,838,611.3,926.7
				c-223.6,100.4-141,336.6-141,336.6s-147.2-118.9-101.9-232.1C413.8,917.9,628.9,765.1,674.2,550
				C719.5,334.8,951.6,131,1093.1,312.2z"/>
			<g>
				<path class="st0" d="M1097.6,299c-6.1-1.7-12.5-3-18.9-3.9c-6.4-1-12.8-1.6-19.2-2c-12.9-0.8-25.8-0.4-38.6,1.3
					c-12.8,1.7-25.4,4.7-37.5,9.1c-12.1,4.4-23.7,10.2-34.4,17.4c-5.4,3.6-10.5,7.5-15.4,11.6c-4.9,4.2-9.6,8.6-14,13.4
					c-4.4,4.7-8.6,9.7-12.4,14.8c-1,1.3-1.9,2.6-2.9,3.9c-0.9,1.3-1.9,2.6-2.8,4l-2.7,4l-2.6,4.1l-1.3,2.1l-1.2,2.1l-2.4,4.2
					l-2.3,4.3c-0.8,1.4-1.5,2.8-2.2,4.3l-2.2,4.3c-0.7,1.4-1.4,2.9-2,4.4c-1.4,2.9-2.6,5.9-3.9,8.9c-5,11.9-9.1,24.2-13,36.6
					c-7.7,24.7-13.8,50-19.2,75.3c-5.4,25.4-10.1,50.9-15,76.4c-4.9,25.5-9.9,51-15.8,76.2c-6,25.3-12.9,50.3-21.8,74.8
					c-8.8,24.4-19.7,48.2-33.3,70.3c-13.6,22.2-30.1,42.5-49.3,60.1c-19.2,17.6-41,32.1-64.2,43.7c-23.2,11.6-45.2,25.6-64.7,42.7
					c-9.8,8.5-18.9,17.8-27.1,27.8c-8.2,10-15.6,20.7-22,32c-6.4,11.3-11.7,23.2-15.9,35.4c-4.2,12.3-7.4,24.9-9.5,37.7
					c-4.3,25.6-4.4,51.8-1.3,77.5c1.5,12.9,3.9,25.7,7,38.3c1.5,6.3,3.3,12.6,5.2,18.7c1.9,6.2,4,12.3,6.5,18.3
					c-2.5-6-4.6-12.1-6.6-18.3c-1.9-6.2-3.7-12.4-5.2-18.7c-3.1-12.6-5.5-25.4-7-38.3c-3.1-25.8-3-52,1.2-77.6
					c2.1-12.8,5.2-25.5,9.5-37.7c4.2-12.3,9.5-24.2,15.9-35.5c6.3-11.3,13.7-22.1,22-32.1c8.3-10,17.4-19.3,27.1-27.9
					c19.5-17.2,41.6-31.2,64.8-42.9c23.2-11.6,44.9-26.1,64-43.7c19.1-17.5,35.6-37.9,49-60c13.5-22.1,24.3-45.8,33.1-70.2
					c8.8-24.4,15.6-49.4,21.5-74.7c5.9-25.3,10.8-50.7,15.6-76.2c4.8-25.5,9.5-51,14.8-76.4c5.3-25.4,11.4-50.7,19-75.5
					c3.9-12.4,8-24.7,13-36.8c1.3-3,2.5-6,3.9-9c0.7-1.5,1.3-3,2-4.4l2.2-4.4c0.7-1.5,1.5-2.9,2.2-4.3l2.3-4.3l2.4-4.2l1.2-2.1
					l1.3-2.1l2.6-4.1l2.7-4.1c0.9-1.4,1.8-2.7,2.8-4c1-1.3,1.9-2.7,2.9-4c3.9-5.2,8.1-10.2,12.5-15c4.4-4.8,9.2-9.3,14.1-13.5
					c4.9-4.3,10.1-8.2,15.6-11.8c10.9-7.3,22.6-13.2,34.9-17.7c12.3-4.5,25-7.6,38-9.3c12.9-1.8,26-2.2,39.1-1.4
					c6.5,0.4,13,1,19.5,2c6.5,1,12.8,2.2,19.2,4L1097.6,299z"/>
			</g>
			<path class="st0" d="M1104.3,70.9l-11.1,241.3c0,0-294.4-141.5-402,430.3c0,0-454.3,452.4-346.3,229.3s-117.9-325.5,68.9-484.1
				s203.8-158.5,311.4-294.4S962.7-59.3,1104.3,70.9z"/>
			<path class="st0" d="M1093.1,312.2c0,0,157.7-87.4,208.7,76.7c51,164.2,153.1,257.5,179.9,412.5c33.6,194.3-249.3,478-204,647.8
				c45.3,169.8,221.4,116.4,221.4,116.4s-161.8-37.4-139.2-150.6c22.6-113.2,421-392.9,409.7-534.4
				c-11.3-141.5-32.1-77.1-88.7-326.2c-56.6-249.1-326.4-466.8-592.5-376.3C937.4,42.3,1093.1,312.2,1093.1,312.2z"/>
			<g>
				<path class="st0" d="M1090,306.9c10.7-3.9,21.6-7,32.6-9.6c11-2.6,22.2-4.5,33.5-5.7c11.3-1.2,22.7-1.6,34-0.9
					c11.3,0.7,22.6,2.6,33.4,6.2c10.8,3.6,21.1,9,29.8,16.2c8.8,7.2,15.9,16.4,21.3,26.5c5.6,9.9,10.5,20.1,14.7,30.6
					c4.3,10.5,7.9,21.3,11.2,32.1c3.3,10.8,6.4,21.7,9.6,32.6c3.2,10.9,6.5,21.7,10.2,32.4c7.4,21.4,16.3,42.2,26.9,62.2
					c10.5,20,22.5,39.3,35.4,57.8c6.4,9.3,13.2,18.4,20,27.4l5.1,6.8c0.9,1.1,1.7,2.3,2.5,3.4l2.4,3.5c1.6,2.3,3.1,4.7,4.7,7.1
					c1.5,2.4,3,4.8,4.5,7.2c11.5,19.6,20.3,40.7,26,62.7c2.8,11,4.9,22.2,6.3,33.4c1.3,11.3,2,22.6,2,33.9c0,11.3-0.6,22.7-1.8,33.9
					c-1.2,11.3-2.9,22.5-5.1,33.6c-4.4,22.2-10.6,44.1-18.1,65.5c-7.5,21.4-16.2,42.3-25.7,62.9c-4.8,10.3-9.7,20.5-14.8,30.6
					c-2.5,5.1-5.1,10.1-7.5,15.2c-2.4,5.1-4.5,10.4-6.4,15.7c-15.3,42.6-12.7,91.4,7.5,132c-20.3-40.5-23.1-89.4-7.8-132.1
					c1.9-5.3,4-10.6,6.4-15.7c2.4-5.1,5-10.2,7.5-15.2c5-10.1,10-20.3,14.7-30.6c9.5-20.6,18.2-41.5,25.6-62.9
					c7.4-21.4,13.6-43.2,17.9-65.4c2.1-11.1,3.9-22.3,5-33.5c1.1-11.3,1.8-22.6,1.7-33.9c-0.1-11.3-0.7-22.6-2.1-33.8
					c-1.4-11.2-3.5-22.3-6.3-33.3c-5.7-21.9-14.5-42.9-26-62.4c-1.5-2.4-2.9-4.8-4.4-7.2c-1.6-2.4-3.1-4.8-4.7-7.1
					c-3.2-4.7-6.6-9.2-10-13.7c-6.9-9-13.6-18.1-20-27.4c-12.9-18.6-25-37.9-35.5-57.9c-10.6-20-19.6-40.9-27-62.3
					c-3.7-10.7-7.1-21.5-10.3-32.4c-3.2-10.9-6.3-21.8-9.6-32.6c-3.3-10.8-7-21.5-11.2-32c-4.2-10.5-9.1-20.7-14.7-30.5
					c-2.7-5-5.7-9.7-9.2-14.1c-3.5-4.4-7.5-8.4-11.8-12c-8.7-7.2-18.8-12.5-29.5-16c-10.7-3.5-21.9-5.4-33.2-6.1
					c-11.3-0.7-22.6-0.3-33.8,0.9c-11.2,1.2-22.4,3.2-33.4,5.7c-11,2.6-21.9,5.7-32.5,9.6L1090,306.9z"/>
			</g>
			<path class="st1" d="M1402.5,537.6c0,0,81.5,203.9,50.4,350.2c0,0,57.6-136.7,40.8-261.4C1476.9,501.6,1402.5,537.6,1402.5,537.6
				z"/>
		</g>
	</g>
</g>
</svg>
