<?xml version="1.0" encoding="utf-8"?>
<!-- Generator: Adobe Illustrator 22.0.1, SVG Export Plug-In . SVG Version: 6.00 Build 0)  -->
<svg version="1.1" id="Layer_1" xmlns="http://www.w3.org/2000/svg" xmlns:xlink="http://www.w3.org/1999/xlink" x="0px" y="0px"
	 viewBox="0 0 2198 2392" style="enable-background:new 0 0 2198 2392;" xml:space="preserve">
<style type="text/css">
	.st0{fill:#FFAC9D;}
	.st1{fill:#E08880;}
	.st2{fill:#5996BF;}
	.st3{fill:#69B7E1;}
	.st4{fill:#FFFFFF;}
	.st5{fill:#352836;}
	.st6{fill:#A9534F;}
	.st7{fill:#853F38;}
</style>
<g>
	<g>
		<g>
			<path class="st0" d="M2039.6,1964.5c-84.4-226.9-600.9-335.3-691.4-401.1c-116.1-84.4-79.2-364.1-79.2-364.1l-190,5l-190-5
				c0,0,36.9,279.7-79.2,364.1c-90.4,65.8-606.9,174.2-691.4,401.1S2.5,2392,2.5,2392h1066.1h21.1h1066.1
				C2155.7,2392,2124,2191.5,2039.6,1964.5z"/>
			<path class="st1" d="M853.9,1511.3c88.9-9.1,178.3-27.1,255.8-70.4c56.4-31.6,107.3-68.8,154.4-110.8c-2.8-71.9,5-130.8,5-130.8
				l-190,5l-190-5C889.1,1199.3,915.4,1398.3,853.9,1511.3z"/>
		</g>
		<g>
			<path class="st2" d="M2054.6,1961.4c-65.8-176.7-391.5-282.1-578-351.4c-81.1,93.6-225.2,156-389.5,156
				c-164.3,0-308.4-62.3-389.5-156c-186.6,69.3-512.3,174.7-578,351.4C34.4,2190,2.5,2392,2.5,2392h1073.9h21.3h1073.9
				C2171.5,2392,2139.6,2190,2054.6,1961.4z"/>
			<path class="st3" d="M1086.3,1838.4c208.4,0,387.3-83,464-201.3c-26.2-9.6-51-18.6-73.8-27c-81.1,93.6-225.2,156-389.5,156
				c-164.3,0-308.4-62.3-389.5-156c-23.1,8.6-48.3,17.7-74.9,27.4C699.4,1755.6,878.1,1838.4,1086.3,1838.4z"/>
		</g>
	</g>
	<g>
		<g>
			<path class="st1" d="M760.1,763.2c-30.7-95.2-103.3-73.2-110.1-70.9c-7.1,0.8-82.2,12-69.3,111.2c13.1,99.8,70.9,153.8,125.2,138
				C761.7,932.6,790.9,859,760.1,763.2z"/>
			<path class="st1" d="M1374.4,763.2c30.7-95.2,103.3-73.2,110.1-70.9c7.1,0.8,82.2,12,69.3,111.2c-13.1,99.8-70.9,153.8-125.2,138
				C1372.7,932.6,1343.5,859,1374.4,763.2z"/>
			<path class="st0" d="M1451.9,613.5c-38-417.3-355.3-394-385.2-390.8c-29.9-3.1-347.2-26.5-385.2,390.8
				c-38.3,419.8,148.7,694,385.2,678.9C1303.2,1307.5,1490.2,1033.3,1451.9,613.5z"/>
		</g>
		<g>
			<g>
				<path class="st1" d="M1112,756c2.1,13.8,4.2,27.5,6.3,41.3c2.1,13.8,4.1,27.5,6.1,41.3l5.9,41.3l5.8,41.3l0,0.2l-0.2,0.2
					l-24.1,22.6l-24.1,22.5l23.8-22.9l23.8-22.8l-0.1,0.4l-6-41.3l-5.9-41.3c-2-13.8-3.9-27.6-5.8-41.4
					C1115.7,783.6,1113.9,769.8,1112,756z"/>
			</g>
			<path class="st4" d="M883,1028.1l376.5-3.9C1259.5,1024.1,1109,1172.3,883,1028.1z"/>
			<g>
				<path class="st1" d="M979.6,1103.7c9.8,4.6,19.9,8.6,30.2,11.9c10.3,3.4,20.8,6.2,31.4,8.2c21.2,4.1,43.1,5.4,64.6,3.3
					c21.5-2.1,42.7-7.6,62.5-16.3c9.9-4.3,19.5-9.5,28.6-15.3c9.1-5.8,17.8-12.3,26.1-19.4c-8.1,7.2-16.7,13.9-25.8,19.8
					c-9.1,5.9-18.6,11.2-28.5,15.7c-19.8,8.9-41.1,14.5-62.7,16.7c-21.6,2.1-43.6,0.8-64.9-3.5c-10.6-2.2-21.1-5-31.4-8.5
					C999.4,1112.6,989.3,1108.4,979.6,1103.7z"/>
			</g>
			<g>
				<path class="st5" d="M869.3,762.3c0,31.4,11.7,56.9,26.1,56.9s26.1-25.5,26.1-56.9c0-31.4-11.7-56.9-26.1-56.9
					S869.3,730.8,869.3,762.3z"/>
				<path class="st5" d="M1227.4,762.3c0,31.4,11.7,56.9,26.1,56.9c14.4,0,26.1-25.5,26.1-56.9c0-31.4-11.7-56.9-26.1-56.9
					C1239.1,705.3,1227.4,730.8,1227.4,762.3z"/>
			</g>
			<g>
				<path class="st5" d="M805.4,669.1c11.2-13.6,24.8-25.3,39.8-34.7c7.5-4.7,15.5-8.6,23.9-11.7c8.3-3.1,17.1-5.1,25.9-6
					c17.8-1.7,35.9,2.4,51.6,10.8c15.7,8.4,29.1,20.5,40.4,34c-6-6.5-12.3-12.6-19.2-18.1l-2.6-2.1l-2.6-2c-1.7-1.3-3.6-2.5-5.4-3.8
					c-3.7-2.4-7.4-4.7-11.3-6.6c-3.9-2-7.9-3.7-12-5.2c-4.1-1.5-8.3-2.7-12.6-3.5c-4.3-0.9-8.6-1.4-13-1.7
					c-4.4-0.2-8.7-0.1-13.1,0.3c-8.7,0.7-17.3,2.7-25.5,5.7c-8.2,2.9-16.1,6.8-23.7,11.3c-7.5,4.5-14.7,9.6-21.5,15.2
					C817.7,656.6,811.3,662.6,805.4,669.1z"/>
			</g>
			<g>
				<path class="st5" d="M1165.9,669.1c11.2-13.6,24.8-25.3,39.8-34.7c7.5-4.7,15.5-8.6,23.9-11.7c8.3-3.1,17.1-5.1,25.9-6
					c17.8-1.7,35.9,2.4,51.6,10.8c15.7,8.4,29.1,20.5,40.4,34c-6-6.5-12.3-12.6-19.2-18.1l-2.6-2.1l-2.6-2c-1.7-1.3-3.6-2.5-5.4-3.8
					c-3.7-2.4-7.4-4.7-11.3-6.6c-3.9-2-7.9-3.7-12-5.2c-4.1-1.5-8.3-2.7-12.6-3.5c-4.3-0.9-8.6-1.4-13-1.7
					c-4.4-0.2-8.7-0.1-13.1,0.3c-8.7,0.7-17.3,2.7-25.5,5.7c-8.2,2.9-16.1,6.8-23.7,11.3c-7.5,4.5-14.7,9.6-21.5,15.2
					C1178.3,656.6,1171.9,662.6,1165.9,669.1z"/>
			</g>
		</g>
		<g>
			<path class="st6" d="M682.7,819.2c0,0-99.4-411.8-42.6-530.2c56.8-118.3,123.1-80.5,123.1-80.5S853.1-37.6,1042.5,9.8
				c189.4,47.3,298.2,132.5,397.6,47.3c0,0,0,75.7-56.8,108.9c0,0,118.3,0,165.7-113.6c0,0,70.7,242.9-85.5,328.1
				c0,0,11.7,303.4,0.3,415.1l-42.6-4.7c0,0-23.7-160.9-37.9-364.5c0,0-246.2,132.5-544.4-99.4c0,0,42.6,156.2-127.8,255.6
				l14.2,217.8L682.7,819.2z"/>
			<path class="st7" d="M1289,456.1c-70.4-4.8-141-20.4-198.2-42.3c-128-49.2-238-195-246.7-336.3c-54.4,58.7-80.9,131.1-80.9,131.1
				s-66.3-37.9-123.1,80.5c-56.8,118.3,42.6,530.2,42.6,530.2l42.6-18.9l-14.2-217.8c170.4-99.4,127.8-255.6,127.8-255.6
				C1024.9,471.6,1190.6,474.5,1289,456.1z"/>
		</g>
	</g>
</g>
</svg>
