<svg xmlns="http://www.w3.org/2000/svg" viewBox="0 0 576.13 551.24"><defs><style>.cls-1{isolation:isolate;}.cls-2{opacity:0.4;}.cls-3,.cls-37{fill:#099094;}.cls-14,.cls-4,.cls-9{fill:#ffa47a;}.cls-14,.cls-4{stroke:#ffa47a;}.cls-21,.cls-22,.cls-32,.cls-33,.cls-37,.cls-4{stroke-linecap:round;stroke-linejoin:round;}.cls-20,.cls-21,.cls-4{stroke-width:1.48px;}.cls-12,.cls-35,.cls-5{fill:#d22d43;}.cls-12,.cls-32,.cls-36,.cls-5{stroke:#d22d43;}.cls-11,.cls-12,.cls-13,.cls-14,.cls-15,.cls-18,.cls-20,.cls-23,.cls-24,.cls-34,.cls-36,.cls-38,.cls-5{stroke-miterlimit:10;}.cls-5{stroke-width:0.6px;}.cls-6{fill:#aa243b;}.cls-7{fill:#cf5540;}.cls-8{fill:#00043b;}.cls-10{fill:#fff;}.cls-11{fill:#e8632e;stroke:#e8632e;opacity:0.37;}.cls-11,.cls-12{stroke-width:0.32px;}.cls-13,.cls-22,.cls-32,.cls-33,.cls-34,.cls-36,.cls-38{fill:none;}.cls-13,.cls-20,.cls-21,.cls-22,.cls-33{stroke:#f8f1ee;}.cls-13{stroke-width:0.72px;}.cls-14{stroke-width:1.3px;}.cls-15,.cls-17{fill:#105e5e;}.cls-15{stroke:#365185;}.cls-15,.cls-18,.cls-23,.cls-24{stroke-width:0.3px;}.cls-16{opacity:0.43;}.cls-16,.cls-19,.cls-21{mix-blend-mode:multiply;}.cls-18,.cls-19{fill:#599696;}.cls-18{stroke:#4465a6;}.cls-19{opacity:0.5;}.cls-20,.cls-21,.cls-28{fill:#f8f1ee;}.cls-22,.cls-34,.cls-36,.cls-37{stroke-width:1.06px;}.cls-23{fill:#3e7c7b;stroke:#2f8c8c;}.cls-24{fill:#1d2b47;stroke:#1d2b47;}.cls-25{fill:#cfb2a3;}.cls-26{opacity:0.76;}.cls-27{fill:#f2fcf9;}.cls-29{fill:#e0cfc8;opacity:0.42;}.cls-30{opacity:0.46;}.cls-31{fill:#a8263b;}.cls-32,.cls-33{stroke-width:2.12px;}.cls-32,.cls-37{stroke-dasharray:9.09;}.cls-33{stroke-dasharray:7.33;mix-blend-mode:lighten;}.cls-34,.cls-37,.cls-38{stroke:#099094;}.cls-38{stroke-width:0.95px;}</style></defs><title>book-flying</title><g class="cls-1"><g id="OBJECTS"><g class="cls-2"><path class="cls-3" d="M483.76,194.44a245,245,0,0,1-20.4-99.55c.21-32.83,6.35-67.83,21.41-97.28,7.39-14.45,18-27.5,33-34.42,13.14-6.07,27.42-6.06,40.22.64a75.8,75.8,0,0,1,40.67,69c-.91,31.55-18.37,61.94-42.85,81.27-1.58,1.25.65,3.46,2.22,2.22,22.88-18.07,39.31-45.37,43-74.43A79.12,79.12,0,0,0,568.16-33.6c-10.51-7.49-22.45-12.21-35.54-10.67-15.47,1.83-29.31,10.75-39.1,22.62C482.65-8.48,476.1,7.67,471.09,23.84A243.56,243.56,0,0,0,461,76.54a249.07,249.07,0,0,0,20,119.49c.81,1.85,3.51.25,2.71-1.59Z" transform="translate(-92.33 44.56)"/><path class="cls-3" d="M491.89,187.06c-13.5-54.78-16.25-114.88,8.42-165.62,4.73-9.71,10.56-19.15,18.94-26s19.64-10.76,30.17-8.33C559.73-10.49,568-2.45,573.35,6.65c9.52,16.06,11.64,35.71,9,54.19s-9.65,36.05-17.47,53" transform="translate(-92.33 44.56)"/><path class="cls-3" d="M493.41,186.64c-11.2-45.83-15.34-95.22-1.05-140.88,6.67-21.31,18-49.47,41.58-56.42,26.12-7.7,42.53,19.54,46.54,41.4,5.24,28.54-5.2,56.76-16.92,82.31-.84,1.82,1.86,3.42,2.71,1.58,11.13-24.25,21-50.41,18.24-77.58-2.09-20.62-13.12-47.72-36.26-51.75C523.44-19,506.53,4.16,497.48,23.77c-10.92,23.65-16.15,49.56-17.15,75.51-1.15,29.7,3,59.39,10.05,88.19.48,2,3.51,1.14,3-.83Z" transform="translate(-92.33 44.56)"/><path class="cls-3" d="M518.38,282.38c18.4,12.53,39.9,19.84,62.31,17,18.73-2.38,36-11.1,50.78-22.51,15.28-11.76,31.21-26.89,35.79-46.32,5.43-23-9-43.34-17-63.76-10-25.53-16.88-55.7-2.94-81.07,1-1.78-1.74-3.36-2.71-1.59-10.45,19-9.76,40.61-4.54,61.13a186.06,186.06,0,0,0,10.62,30.5c4.75,10.54,10.35,20.87,13.09,32.18,5.7,23.57-7.39,42.59-24,57.86-14,12.83-30.48,23.62-49,28.45C565.7,300.77,541,294,520,279.67c-1.67-1.14-3.25,1.58-1.58,2.71Z" transform="translate(-92.33 44.56)"/><path class="cls-3" d="M469.31,211a1.89,1.89,0,0,1-.47,3c-30.73-15.39-54.47-41.43-79.9-64.54s-55.28-44.56-89.56-47c-14.56-1-30.13,1.91-40.95,11.71s-15,27.58-6.58,39.48c3.24,4.57,7.89,7.87,12.12,11.53a85.71,85.71,0,0,1,19,23.38c1.6,2.9,3.07,6,2.93,9.35-.36,8.82-11.05,13.21-15.17,21-2.82,5.32-2.28,11.85-.36,17.56,3.66,10.89,12,19.84,21.86,25.72s21.23,8.89,32.63,10.37a135.3,135.3,0,0,0,94.89-23.8" transform="translate(-92.33 44.56)"/><path class="cls-3" d="M468,211.77l-.23,1.13,1.9-.24C432.76,193.91,406.78,161,375,135.45c-27.2-21.9-66.44-44.15-102.43-31.3-14.84,5.3-26.6,18-26.81,34.4A27.7,27.7,0,0,0,254,158.61c7.48,7.61,15.88,13.47,22.21,22.26,3,4.14,6.76,9.2,7.83,14.25,1.16,5.51-2.24,9.47-5.9,13.06-5.53,5.41-10.68,10.32-10.94,18.59-.53,17.3,14.33,32.19,28.77,39.28,19.32,9.49,42.78,10.78,63.81,7.95a137.63,137.63,0,0,0,60.76-23.83c1.63-1.16.07-3.88-1.59-2.71-30.84,21.71-72.16,31-108.91,20.59-17.5-4.94-36.24-17.44-39.39-36.76-1.76-10.81,5-15.73,11.52-22.72,4.49-4.8,6.6-10.23,4.11-16.64-3-7.66-8.46-14.76-14-20.79-6.25-6.86-15.46-11.87-20.2-19.95-9.4-16.07,2.32-35.37,17.41-42.41,17-7.91,37.53-5.41,54.71.47,17.86,6.12,34,16.64,48.59,28.42,31.94,25.72,58.11,58.83,95.22,77.7a1.67,1.67,0,0,0,1.91-.25,3.51,3.51,0,0,0,.72-4.93c-1.09-1.7-3.81-.12-2.71,1.58Z" transform="translate(-92.33 44.56)"/><path class="cls-3" d="M272,191.87c-22.28,19.48-18.21,54.31,2.36,73.24,25.23,23.22,61.86,21.11,91.45,8.16,1.84-.81.25-3.52-1.59-2.71-27.76,12.15-62.4,14.53-86.56-6.69-20.15-17.71-25-50.94-3.44-69.79,1.53-1.33-.7-3.54-2.22-2.21Z" transform="translate(-92.33 44.56)"/><path class="cls-3" d="M404.87,243.16c-16.61,9.81-31.29,39.13-44.5,53.2s-22.76,32.58-22.18,51.86c.27,8.64,3.85,18.59,12.19,20.86a18.34,18.34,0,0,0,9.41-.35c16.55-4.37,27.27-20.06,41.68-29.3,6-3.86,13.94-6.56,20.14-3,7.82,4.46,8.87,16.5,16.92,20.52,4.6,2.29,10.34,1.14,14.57-1.77s7.17-7.32,9.64-11.82c5.73-10.47,9.43-22.26,9.16-34.2s-4.8-24-13.52-32.15c-6.61-6.19-18.08-61.78-26.62-64.82" transform="translate(-92.33 44.56)"/><path class="cls-3" d="M404.08,241.8c-12.93,7.95-21.59,21.92-30.09,34.1-4.64,6.65-9.27,13.33-14.73,19.35a96,96,0,0,0-15.12,21.38c-6.59,13.14-11.58,32-3.93,45.77,8.37,15.05,26.34,7.05,36.89-1,10-7.63,32.57-35.28,46.26-21.7,5,5,6.43,12.75,12.19,17.15s13.43,3.21,19-.82c6.61-4.83,10.59-13,13.63-20.39a65,65,0,0,0,5.26-28.08,49.47,49.47,0,0,0-6.87-23c-2.79-4.59-7.16-7.85-9.42-12.72-5.31-11.47-8.19-24.21-12.14-36.18a157.33,157.33,0,0,0-6.18-16.46c-1.31-2.87-3.09-7.11-6.24-8.45-1.83-.78-3.44,1.92-1.58,2.71,2.51,1.07,3.88,4.68,4.95,7a129.51,129.51,0,0,1,5.18,13.55c3.44,10.16,6.35,20.49,9.87,30.62a69.5,69.5,0,0,0,4.22,10.44c2.37,4.37,6.48,7.41,9,11.77,9.8,16.85,6.67,37.49-2,54.1-4.08,7.82-12.54,19.68-22.92,14.52-6.19-3.08-8-10.85-12-16-9.16-11.76-23.56-4.28-32.91,3.12-11.65,9.23-23.87,25.09-40.09,25.34-9.82.15-13.83-10.19-14.46-18.43s1.08-16.67,4-24.33c6.29-16.74,19.45-28.64,29.57-42.95,9.29-13.15,18.24-29.09,32.31-37.74,1.71-1,.14-3.77-1.59-2.71Z" transform="translate(-92.33 44.56)"/><path class="cls-3" d="M409.52,331.75c8.67,7.19,11.25,20.93,16.68,30.41,2.18,3.82,4.9,7.85,9,9.77,5.92,2.78,13.21,2.07,19.18-.11,28.83-10.52,37.86-47.17,31.76-74.26-4.09-18.21-14-34.5-26-48.56-1.32-1.53-3.53.69-2.22,2.22,19.21,22.49,32.89,52.32,24.64,82.2-3.74,13.59-12.24,27.09-25.1,33.66-6.26,3.19-15.18,5.41-21.69,1.61-4-2.34-6.41-7.14-8.44-11.13-4.6-9-7.47-21.33-15.55-28-1.54-1.29-3.77.92-2.22,2.22Z" transform="translate(-92.33 44.56)"/><path class="cls-3" d="M435.55,223.91c13.61,5.86,97.09,50.64,111.43,54.36,9.2,2.38,18.66,4.33,28.15,3.82,10.46-.56,20.52-4.09,30.24-8,13.76-5.55,28.6-13.58,32.64-27.86,3.48-12.32-2.65-25.74-12-34.44s-95.9-70.67-107.78-75.43" transform="translate(-92.33 44.56)"/><path class="cls-3" d="M434.76,225.27c21.54,9.36,42.14,21.27,63.09,31.85,23,11.62,46.92,26.35,73.48,26.62,11.69.12,22.87-3.5,33.59-7.8,8.2-3.28,16.38-7.05,23.21-12.73,14.82-12.32,15.69-31.54,4.27-46.63-5.33-7.05-12.94-12.12-19.95-17.36-10.36-7.75-20.84-15.32-31.37-22.83-12.86-9.16-25.79-18.23-38.89-27-7.48-5-15.19-11-23.57-14.51-1.86-.77-2.68,2.27-.83,3,6.61,2.74,12.76,7.51,18.68,11.44,10.52,7,20.89,14.17,31.21,21.43,18.33,12.89,37,25.67,54.39,39.79,12.6,10.21,20.85,28.27,10.72,43.1-5.42,7.94-14.29,12.94-22.86,16.82-10.33,4.68-21.58,8.95-33,9.94-26.53,2.31-50.76-12.5-73.49-23.94-22.31-11.22-44.22-23.94-67.13-33.89-1.84-.8-3.44,1.9-1.59,2.71Z" transform="translate(-92.33 44.56)"/><path class="cls-3" d="M484.78,125.18c-4-13.57-8.17-27.31-15.55-39.4s-18.5-22.54-32.22-26a16.35,16.35,0,0,0-8.38-.33c-2.72.78-5.19,3-5.54,5.79-.28,2.29.82,4.5,1.9,6.55L433,87.05a7.32,7.32,0,0,1,1.11,3.31c0,2.72-3,4.52-5.69,4.73s-5.42-.61-8.13-.39c-7.06.55-11.95,8.28-11.46,15.35s72.92,62.16,78.11,67" transform="translate(-92.33 44.56)"/><path class="cls-3" d="M486.29,124.76c-7.31-24.5-16.61-53-42.08-64.16-4.74-2.08-10.8-4.25-16-2.7-4.06,1.21-7.21,4.84-6.64,9.21.9,6.85,6.81,12.71,9.22,19,1,2.6,1.63,6.19-1.58,7.25-1.68.56-3.91,0-5.63-.16a14.41,14.41,0,0,0-7.57,1c-5.51,2.61-11.08,11.53-8.1,17.64,1.85,3.77,6.06,7,9.06,9.76,12,11.06,24.8,21.24,37.53,31.42,10.38,8.31,21.54,16.07,31.37,25,1.49,1.36,3.72-.85,2.22-2.22-6.88-6.28-14.65-11.75-21.95-17.54-11.95-9.48-23.88-19-35.51-28.87-4.77-4-9.54-8.15-14-12.5-2-1.92-5.34-4.46-6.18-7.22-2-6.55,5.76-13.63,11.55-13.54,4.08,0,8.59,1.42,11.91-1.84,3.16-3.11,1.34-6.52-.37-9.85-1.46-2.85-3-5.67-4.47-8.5-.89-1.7-1.84-3.39-2.69-5.11-2.66-5.4-.72-10.33,5.62-10.39,13.69-.12,26.7,12.36,33.85,22.82,8.68,12.69,13.1,27.64,17.46,42.22.57,1.93,3.6,1.1,3-.84Z" transform="translate(-92.33 44.56)"/></g><path class="cls-4" d="M238.15,274.47c45.27-5.18,56.94-80.05,56.94-80.05l1.22-16.55c6-15.56,5.79-22.86,5.79-22.86l-3.78,10.22,1.76-14.95c0-.4-.81.71-.93,1.09l-3.75,11.88.9-15.18a.29.29,0,0,0-.57-.1l-4.29,14.88s.57-14.55-.44-13.16S287,168,287,168s-2.57-10.78-3.46-9.18c-.57,1,.31,8.22,1,13.14.45,3.16,1.44,3.39.62,6.51l-5.83,22.79c-4.65,19.38-20.35,46.3-49.61,49.08,0,0-9.33,2.9-8.12,14.63S238.15,274.47,238.15,274.47Z" transform="translate(-92.33 44.56)"/><path class="cls-5" d="M265.88,228.29c-8.31,10.91-18.84,15.61-36.18,22,0,0-9.33,2.9-8.12,14.63s16.57,9.54,16.57,9.54c15.23-1.74,24.08-4.12,32.54-16.13Z" transform="translate(-92.33 44.56)"/><path class="cls-6" d="M266.38,227.69l10,20.19a55.93,55.93,0,0,1-5.46,7.27Z" transform="translate(-92.33 44.56)"/><path class="cls-7" d="M284.73,176.47c1.1.26,2.54,1,2.37,1.78s-1.89,1.17-3,.92" transform="translate(-92.33 44.56)"/><path class="cls-7" d="M286.84,164.6s2.1,4.36,2,4.25L288,159Z" transform="translate(-92.33 44.56)"/><path class="cls-8" d="M155.08,205.09c9.84-5.16,53.85,1.4,53.85,1.4a30.82,30.82,0,0,1,17.69,4.7c1.91,1.28,5.53,7.07,5.25,9.33l-4.69,45.2s-27.19,13-37.84-7.38-3.24-21.12-14.5-27.61S155.08,205.09,155.08,205.09Z" transform="translate(-92.33 44.56)"/><path class="cls-8" d="M223.79,210.55c-5.62-2.54-11.24-5.15-17.21-6.76-6.35-1.71-13-2.42-19.55-3.18-10.26-1.18-20.2.1-30.43,1.09-.81.08-.82,1.36,0,1.28,9.38-.91,18.71-2.26,28.14-1.34A154.46,154.46,0,0,1,204,204.47c6.68,1.54,12.9,4.37,19.12,7.18.75.34,1.4-.76.65-1.1Z" transform="translate(-92.33 44.56)"/><path class="cls-9" d="M210.21,229.78a.48.48,0,0,1-.51.52c-1.22-.1-4.12,0-4.54,3.31s4.16,3.86,5.9,4.5c2.54.95,8.45,5.68,11,11.88,1.81,4.49,2,15.48,2,15.48s15.67.87,17.47-8.16c0,0-11.12-12.2-11.64-16.29,0-.09,7.36-1.93,4.76-15-2.46-12.29-11.93-12-14-11.79C218.75,214.46,209.87,214.69,210.21,229.78Z" transform="translate(-92.33 44.56)"/><path class="cls-7" d="M237.16,252.2c-.17.19-4,11.23-4,11.23s6.9.06,8.28-6.12Z" transform="translate(-92.33 44.56)"/><path class="cls-10" d="M234.74,229.58l-6.46,1.83s2.5,2.65,4.27,1.79S234.74,229.58,234.74,229.58Z" transform="translate(-92.33 44.56)"/><path class="cls-7" d="M210.07,232c-1.11,0-2.43.78-2.44,1.89a2.49,2.49,0,0,0,2.41,2.13" transform="translate(-92.33 44.56)"/><path class="cls-7" d="M231,226.19l.58,3.36,1.65-.64a.43.43,0,0,0,.13-.73Z" transform="translate(-92.33 44.56)"/><path class="cls-8" d="M227.46,214.51S218,229.05,209.7,230.3s-5.25-20.32,4.83-19.43S227.46,214.51,227.46,214.51Z" transform="translate(-92.33 44.56)"/><path class="cls-7" d="M229.89,241a13.92,13.92,0,0,1-8.46-.08c-2.53-.86,5.68,7.35,11.31,5.59C232.74,246.51,231.18,243.62,229.89,241Z" transform="translate(-92.33 44.56)"/><path class="cls-8" d="M224.75,223.14c-.46.59-.11-1.51.63-2a1.46,1.46,0,0,1,2,.34A4.58,4.58,0,0,0,224.75,223.14Z" transform="translate(-92.33 44.56)"/><path class="cls-8" d="M232,219.36a1.52,1.52,0,0,0-1.51,1.48,4.52,4.52,0,0,1,2.17-.39" transform="translate(-92.33 44.56)"/><path class="cls-8" d="M228.05,226.55c.2.57.58.95.86.86s.33-.64.14-1.2-.59-1-.86-.86S227.85,226,228.05,226.55Z" transform="translate(-92.33 44.56)"/><path class="cls-8" d="M232,225.2c.19.54.56.9.82.81s.32-.6.14-1.15-.56-.9-.82-.81S231.77,224.66,232,225.2Z" transform="translate(-92.33 44.56)"/><path class="cls-11" d="M220.87,234.17a3.26,3.26,0,1,0,1.37-4.41A3.27,3.27,0,0,0,220.87,234.17Z" transform="translate(-92.33 44.56)"/><path class="cls-8" d="M205.29,229.51c5.44.35,11,1.47,15.1-2.9a24.31,24.31,0,0,0,6.79-14.48c0-.67-1-.67-1.05,0a23,23,0,0,1-6.48,13.74c-4,4-9.29,2.92-14.36,2.59-.67,0-.67,1,0,1Z" transform="translate(-92.33 44.56)"/><path class="cls-9" d="M137.27,371c-6.43-4.74-20.73-18.05-20.73-18.05L93.91,378.16c4.52-1.57,21.85-5.61,21.85-5.61l12.54,8.76S137.18,370.89,137.27,371Z" transform="translate(-92.33 44.56)"/><path class="cls-12" d="M115.69,372.6l-21.81,6.17a1.08,1.08,0,0,1-1.19-1.65c4.91-6.69,18.24-24.64,21.76-29.35a1.06,1.06,0,0,1,1.71,0c2.35,3.22,9.49,11.55,11.36,14.2.3.42-10-.7-10.67,1.83C116.26,366,115.77,372.44,115.69,372.6Z" transform="translate(-92.33 44.56)"/><path class="cls-13" d="M114.46,373l-.75-5.17a2.25,2.25,0,0,0-2.55-1.89h0a2.24,2.24,0,0,0-1.89,2.54l.85,5.8" transform="translate(-92.33 44.56)"/><path class="cls-7" d="M126.41,368.89c3.49,3.2,7.05,6.32,7.05,6.32l4-4.37L127.52,362s-7.28-.45-7.78.14c-.25.29,3.18,3.56,6.67,6.75" transform="translate(-92.33 44.56)"/><path class="cls-14" d="M165,433c-7.4,0-22.31-7.56-22.31-7.56s-17.85,32.91-17.55,32.76l21.16-9.64,16.24-2.33S164.61,434.25,165,433Z" transform="translate(-92.33 44.56)"/><path class="cls-12" d="M146.26,449.43l-20.69,9.45a1.07,1.07,0,0,1-1.4-1.46c3.9-7.32,14.55-27,17.36-32.14.34-.63,2-.73,2.64-.39a109.26,109.26,0,0,0,13,5.93c.49.15-10.66,7.41-11,10C145.92,443.07,146.93,449.25,146.26,449.43Z" transform="translate(-92.33 44.56)"/><path class="cls-13" d="M144.38,450l-2.26-5.28a2.23,2.23,0,0,0-2.94-1.18h0a2.23,2.23,0,0,0-1.19,2.94l2.29,5.39" transform="translate(-92.33 44.56)"/><polygon class="cls-7" points="71.44 487.69 53.92 489.56 53.93 493.99 70.96 491.27 71.44 487.69"/><path class="cls-15" d="M240.25,320.84c4.24-1.89,9-1.53,15.39,2.63s3.06-9.61,8.22-4.2c-.92,3.2,2.32,28.84.06,34.32-10,24.3-20,40.42-40.11,53.75-19.63,13-47.58,3.72-64.66-3.85-13.45-6-21.32-14-32.93-22.15-.65-1.65,8.74-11.58,9.72-11.66,27,13.84,47.5,16.1,62.25,6.05,13.79-9.39,20.21-19.43,25.94-30.59C224.13,345.14,225.41,327.46,240.25,320.84Z" transform="translate(-92.33 44.56)"/><g class="cls-16"><path class="cls-17" d="M198.19,375.73c13.79-9.39,20.21-19.43,25.94-30.59,0,0,1.28-17.68,16.12-24.3,4.24-1.89,9-1.53,15.39,2.63s3.3-8.75,8.46-3.34c-.91,3.2,2.08,28-.18,33.46" transform="translate(-92.33 44.56)"/></g><path class="cls-18" d="M260.88,318.3c-10.33.4-28.44,2.73-28.75,4.14C224,332.78,222.24,349,226,361a29.37,29.37,0,0,1,1.3,7.13c.6,11-.22,21.93-6.23,35.45-7.25,16.31-25.71,26.57-56,29,.11,3.72-3.25,13-1.83,14.09,14.19.85,24.64,3.05,39.22,1,18.5-2.56,47.17-9.36,57-30.78a108.94,108.94,0,0,0,9.1-60.87Z" transform="translate(-92.33 44.56)"/><path class="cls-19" d="M269,360.34s-1.12,92.9-105.51,85.22c0,0,30.62,8.19,64.35-4.13C228.17,439.51,272.8,436.31,269,360.34Z" transform="translate(-92.33 44.56)"/><path class="cls-4" d="M238.1,253.25c1,.3,19.94,14.67,22.32,23.52,1.59,5.93.57,29.37,2,41.72,0,0-18,4.21-30.18,4.46-4.76-8.22-24.09-39.25-18.76-57.82a94.32,94.32,0,0,1,9.51-5.36S240.48,264.28,238.1,253.25Z" transform="translate(-92.33 44.56)"/><polygon class="cls-7" points="136.67 363.27 138.15 365.75 163.5 364.1 136.67 363.27"/><path class="cls-20" d="M238.1,253.25c1,.3,19.94,14.67,22.32,23.52,1.59,5.93.57,29.37,2,41.72,0,0-5.68,1.14-37.77-.67-4.76-8.22-16.5-34.12-11.17-52.69a94.32,94.32,0,0,1,9.51-5.36S240.48,264.28,238.1,253.25Z" transform="translate(-92.33 44.56)"/><path class="cls-21" d="M262.4,318.49s-5.68,1.14-37.77-.67c-4.76-8.22-16.5-34.12-11.17-52.69a94.32,94.32,0,0,1,9.51-5.36" transform="translate(-92.33 44.56)"/><path class="cls-22" d="M497.07,299.68l141.05-56.1a12,12,0,0,0,7-14.51L590.33,48c-2.1-7.11-7.47-12.24-14.13-9,0,0-40.89,2-89.58,28.81C472.51,75.58,433.93,108,433.93,108Z" transform="translate(-92.33 44.56)"/><path class="cls-22" d="M503.3,297.08,355.79,335.79a12,12,0,0,1-14.21-7.62L278.33,153.72c-2.49-7,2.46-12.72,9.19-15.84,21.21-9.82,32.08-26.53,87.26-33.53,16-2,66.27,1.43,66.27,1.43Z" transform="translate(-92.33 44.56)"/><path class="cls-23" d="M574.83,43.83s-39.33,1.92-86.16,27.71c-13,7.15-47.53,36-50.47,38.44-6.21-.41-48.68-3.13-62.91-1.32-53,6.72-63.5,22.78-83.88,32.23-6.46,3-11.22,8.5-8.83,15.22l60.8,167.69A11.54,11.54,0,0,0,357,331.12L498.53,294l.13-.11L634.4,240.61a11.52,11.52,0,0,0,6.72-14L588.42,52.48C586.4,45.65,581.24,40.71,574.83,43.83Z" transform="translate(-92.33 44.56)"/><path class="cls-24" d="M490.5,296.74,506,291.88,444.89,104.72A23,23,0,0,1,430,110.35Z" transform="translate(-92.33 44.56)"/><path class="cls-25" d="M572.37,55.08S499.1,66.9,439.59,114.33c-75.79-3.11-141.65,30.3-141.65,30.3l56,174.69C369,310.65,477.82,289.77,495.3,287.9l.11.31.48-.37a10.47,10.47,0,0,1,1.52-.07l-.26-.79C508.52,279.6,564.7,249.7,630,229.25Z" transform="translate(-92.33 44.56)"/><path class="cls-5" d="M386.49,120.64s-11.08-22.48-4.16-39.22a1.52,1.52,0,0,1,2.38-.6l4.12,3.43,5.07-3.86a1.51,1.51,0,0,1,2.43,1.24c-.28,8.52.09,32.28,4.9,36.42Z" transform="translate(-92.33 44.56)"/><g class="cls-26"><path class="cls-27" d="M389.32,117.88a55.68,55.68,0,0,1-5.17-21c-.1-1.47-2.41-1.48-2.3,0A58.94,58.94,0,0,0,387.33,119c.63,1.34,2.62.17,2-1.16Z" transform="translate(-92.33 44.56)"/><path class="cls-27" d="M383.69,91.58c.1-1.16.2-2.33.29-3.5.13-1.48-2.18-1.47-2.3,0-.1,1.17-.2,2.34-.29,3.5-.13,1.48,2.18,1.48,2.3,0Z" transform="translate(-92.33 44.56)"/></g><path class="cls-28" d="M304.29,146.84c6.08-10.2,7.93-8.81,18.15-14.85a107.68,107.68,0,0,1,29.68-12.65c10.57-2.81,24.2-5.38,35.13-5.51,17.66-.23,33.75-.24,51.39.7L492.87,286s-122.14-11.11-135.14,26.67Z" transform="translate(-92.33 44.56)"/><path class="cls-28" d="M305.06,147.3c1.85-3,3.77-6.09,6.64-8.25,2.44-1.84,5.35-3,8-4.5,8.58-4.66,16.77-9.41,26.12-12.44,20.15-6.54,40.48-7.58,61.48-7.51q8,0,16,.22c2.53.07,5.07.15,7.6.25,1.26.05,2.61.22,3.85.17.07,0,3.47-.17,3-.44.37.23.64,2,.76,2.4l4.78,15.1L481,251.59l11,34.66.87-1.13a431.15,431.15,0,0,0-44-1.49c-23.62.29-49.41,1.31-71.49,10.56-8.61,3.61-17.19,9.1-20.5,18.26h1.73l-18-55.84-28.85-89.55-6.59-20.45c-.36-1.1-2.09-.63-1.73.47l18,55.84,28.85,89.55,6.59,20.46a.91.91,0,0,0,1.73,0c3.17-8.78,11.77-14,20-17.32,10.63-4.35,22.17-6.46,33.51-7.89C434,285,456.35,284.91,478.41,286c4.82.23,9.65.5,14.46.93a.89.89,0,0,0,.86-1.13l-18.37-58.09-29.11-92.08-6.74-21.31a.93.93,0,0,0-.87-.66c-27.83-1.44-56.41-2.68-83.66,4a125.82,125.82,0,0,0-33,13.53c-3.7,2.13-7.87,3.79-11.3,6.35-3.1,2.31-5.19,5.57-7.17,8.83C302.91,147.38,304.46,148.28,305.06,147.3Z" transform="translate(-92.33 44.56)"/><path class="cls-28" d="M611,226.53a264,264,0,0,0-111.44,53.9c-.9.74.38,2,1.26,1.27a262.26,262.26,0,0,1,110.66-53.44c1.13-.24.65-2-.48-1.73Z" transform="translate(-92.33 44.56)"/><path class="cls-28" d="M496.19,287.25c38.32-25.4,81.11-46,125.55-58a.9.9,0,0,0-.48-1.73c-44.57,12.06-87.55,32.7-126,58.17-1,.64-.06,2.19.9,1.55Z" transform="translate(-92.33 44.56)"/><path class="cls-28" d="M361.77,310c8-5.68,17.3-8.67,26.61-11.42a283.31,283.31,0,0,1,29.59-7,288.4,288.4,0,0,1,62.23-4.38c1.16,0,1.15-1.75,0-1.79a290.32,290.32,0,0,0-62.71,4.44,284.61,284.61,0,0,0-30.49,7.3c-9.16,2.74-18.28,5.74-26.14,11.33-.93.66,0,2.22.91,1.55Z" transform="translate(-92.33 44.56)"/><path class="cls-28" d="M359.13,313.79c43.55-16.91,91.29-25,137.88-26.43a.9.9,0,0,0,0-1.8c-46.74,1.4-94.67,9.53-138.36,26.5-1.06.42-.6,2.15.48,1.73Z" transform="translate(-92.33 44.56)"/><path class="cls-28" d="M570,60.48l39.24,127.75c.34,1.1,2.07.63,1.73-.48L571.75,60c-.33-1.1-2.07-.63-1.73.47Z" transform="translate(-92.33 44.56)"/><path class="cls-28" d="M566.66,60.66c-10.92-4.66-11.6-2.45-23.42-1.32a107.78,107.78,0,0,0-31.44,7.25c-10.19,4-22.72,9.9-31.64,16.23-14.41,10.21-26.94,20-40.65,31.12l54.18,172.65s97.89-81.69,130.64-58.81Z" transform="translate(-92.33 44.56)"/><path class="cls-28" d="M566.9,59.8c-4.06-1.69-8.07-3.12-12.52-2.82-4.92.34-9.87,1.28-14.77,1.85a123.06,123.06,0,0,0-34.76,9.65c-24.58,10.61-45.35,28.07-66,44.82a.89.89,0,0,0-.23.88l18.27,58.22,29.16,92.94,6.74,21.49a.91.91,0,0,0,1.5.4c10.91-9.1,22.42-17.55,34.11-25.6,20-13.79,41.72-27.82,65.32-34.48,9.64-2.72,21.3-4.55,30.13,1.41a.91.91,0,0,0,1.32-1l-19.4-56.21L574.67,81.12l-7.14-20.69c-.38-1.09-2.11-.62-1.73.47l19.39,56.22,31.14,90.21L623.47,228l1.32-1c-16.74-11.3-42.06,1.17-57.56,9-21.75,11-42,25-61.37,39.81-4.32,3.31-8.63,6.65-12.81,10.13l1.5.4-28-89.19-18.71-59.63-5.76-18.37c-.38-1.21-1.53-3.29-1.44-4.57,0-.25-.32-.6-.26-.84-.1.41,3.45-2.11,2.67-1.56,2.49-1.77,4.79-3.86,7.19-5.76,18.27-14.51,36.5-28.6,58.22-37.56a119.08,119.08,0,0,1,32.92-8.45c4.31-.47,8.66-1.36,13-1.65s8.13,1.13,12,2.75C567.49,62,568,60.24,566.9,59.8Z" transform="translate(-92.33 44.56)"/><path class="cls-29" d="M438.33,115.34s22.71,93,10.8,121c-16.41,38.52-69,56.5-69,56.5s88.55-19.14,112.78-6.78Z" transform="translate(-92.33 44.56)"/><path class="cls-29" d="M442.63,109.06S480.66,197,507,212c36.34,20.81,89.15,3.39,89.15,3.39s-82.16,38.17-94,62.64Z" transform="translate(-92.33 44.56)"/><g class="cls-30"><path class="cls-3" d="M320.32,156.36a18.31,18.31,0,0,1,3.79-3.31c.65-.49,1.37-.86,2.06-1.29s1.43-.74,2.15-1.1,1.47-.64,2.23-.93,1.51-.56,2.31-.75a18.59,18.59,0,0,1,5-.76l.09.19c-2.88,1.44-5.81,2.78-8.71,4.17s-5.84,2.7-8.8,4Z" transform="translate(-92.33 44.56)"/><path class="cls-3" d="M348.89,145.53l2.43-1.07,2.46-1,5-1.88,5.06-1.64c1.7-.51,3.41-1,5.12-1.45s3.45-.86,5.18-1.26l5.22-1.08,5.26-.87,5.28-.72,5.3-.51c1.78-.11,3.55-.26,5.32-.35l5.33-.14c1.78,0,3.55,0,5.33,0s3.54.13,5.31.23l5.31.45L427,135c1.75.26,3.5.56,5.23.9v.21A207.63,207.63,0,0,0,349,145.73Z" transform="translate(-92.33 44.56)"/><path class="cls-3" d="M326.37,178.45l1.54-1.51,1.59-1.47,3.32-2.8,3.52-2.55c1.2-.8,2.44-1.56,3.67-2.35s2.51-1.44,3.79-2.13l3.92-1.93c1.33-.59,2.68-1.13,4-1.69l4.1-1.51,4.19-1.24c1.41-.35,2.82-.73,4.24-1.05l4.29-.8c1.43-.21,2.88-.39,4.32-.56s2.89-.24,4.34-.32l4.35,0,4.33.25c1.44.13,2.87.31,4.29.52v.21a99.61,99.61,0,0,0-63.69,21.15Z" transform="translate(-92.33 44.56)"/><path class="cls-3" d="M406,158.08a37.42,37.42,0,0,1,7-2.14c1.18-.29,2.37-.45,3.56-.67s2.38-.31,3.58-.46,2.4-.21,3.6-.27,2.41-.11,3.62-.07a39,39,0,0,1,7.33.65l0,.21-14.36,1.59-14.37,1.37Z" transform="translate(-92.33 44.56)"/><path class="cls-3" d="M345.74,220c2.12-1.22,4.22-2.5,6.42-3.6l3.26-1.7c1.1-.56,2.21-1.08,3.31-1.63,4.45-2.09,9-3.94,13.61-5.71A180.41,180.41,0,0,1,430.15,196c4.92-.15,9.84-.06,14.75.12,2.45.13,4.89.3,7.34.47s4.88.37,7.33.61v.21c-9.77-.17-19.56-.38-29.32.24a211.89,211.89,0,0,0-29.05,3.7,218.28,218.28,0,0,0-28.32,7.5,220.94,220.94,0,0,0-27,11.27Z" transform="translate(-92.33 44.56)"/><path class="cls-3" d="M353.73,237.22a39.76,39.76,0,0,1,7.39-4.6c1.28-.68,2.62-1.21,3.95-1.79s2.7-1,4.06-1.49,2.76-.83,4.16-1.19,2.8-.68,4.24-.89a39.8,39.8,0,0,1,8.68-.66l.05.21a158.63,158.63,0,0,0-16.47,4.55,162.73,162.73,0,0,0-16,6.06Z" transform="translate(-92.33 44.56)"/><path class="cls-3" d="M403.21,225.14l1.71-.47,1.71-.4,3.42-.8c2.29-.47,4.58-.93,6.87-1.31s4.6-.73,6.9-1.09l6.93-.88c2.31-.23,4.62-.49,6.94-.7s4.64-.39,7-.49,4.66-.21,7-.27,4.68-.06,7,.08l0,.22L431,222.29l-27.75,3.06Z" transform="translate(-92.33 44.56)"/><path class="cls-3" d="M399.52,265a13.75,13.75,0,0,1,4.75-3.7,22.93,22.93,0,0,1,2.75-1.17c.94-.3,1.9-.55,2.86-.78s1.94-.34,2.91-.45a28.88,28.88,0,0,1,2.94-.1,19.23,19.23,0,0,1,5.87.92v.21a79.3,79.3,0,0,0-11.29,1.49,44.86,44.86,0,0,0-5.49,1.47,32.58,32.58,0,0,0-5.2,2.29Z" transform="translate(-92.33 44.56)"/><path class="cls-3" d="M430.89,259.81a56.17,56.17,0,0,1,8.78-1.56c1.47-.19,2.93-.25,4.4-.37s2.93-.12,4.4-.17,2.93,0,4.4,0,2.94.08,4.41.22a56.06,56.06,0,0,1,8.83,1.26v.21l-17.6.4L430.9,260Z" transform="translate(-92.33 44.56)"/><path class="cls-3" d="M462.23,122.22A19.56,19.56,0,0,1,466,117.8c.68-.66,1.45-1.21,2.18-1.81s1.56-1.07,2.35-1.59,1.63-.94,2.47-1.37,1.71-.82,2.61-1.13a20,20,0,0,1,5.62-1.34l.09.19c-3.29,1.71-6.55,3.48-9.69,5.46s-6.22,4-9.24,6.18Z" transform="translate(-92.33 44.56)"/><path class="cls-3" d="M493.47,104.22c2.22-1.8,4.6-3.35,7-5l3.65-2.21c1.24-.7,2.51-1.36,3.76-2s2.55-1.28,3.84-1.89l3.91-1.75c1.32-.54,2.65-1,4-1.57l4-1.46,4.1-1.26c1.37-.37,2.74-.78,4.13-1.13L536,85c1.4-.29,2.8-.54,4.21-.79s2.82-.44,4.23-.62l4.25-.43c2.86-.14,5.69-.33,8.54-.23l0,.21a158.19,158.19,0,0,0-63.67,21.27Z" transform="translate(-92.33 44.56)"/><path class="cls-3" d="M470.81,144.24a45.89,45.89,0,0,1,8.2-8c1.5-1.2,3.1-2.26,4.7-3.32.82-.51,1.65-1,2.48-1.48l2.53-1.39,2.6-1.23c.88-.38,1.75-.79,2.64-1.15,1.81-.67,3.6-1.35,5.45-1.87a46.22,46.22,0,0,1,11.32-2l0,.2A97.91,97.91,0,0,0,471,144.4Z" transform="translate(-92.33 44.56)"/><path class="cls-3" d="M525.55,117.3a74.67,74.67,0,0,1,10.5-5.27c1.8-.78,3.64-1.42,5.47-2.11s3.7-1.22,5.56-1.81,3.76-1.06,5.65-1.53,3.8-.9,5.73-1.23A74.35,74.35,0,0,1,570.13,104l0,.21c-7.56,1.7-15.07,3.68-22.48,5.93s-14.8,4.64-22.06,7.36Z" transform="translate(-92.33 44.56)"/><path class="cls-3" d="M479.35,171.59a23.71,23.71,0,0,1,4.45-3.7c.77-.56,1.6-1,2.4-1.49s1.66-.87,2.49-1.3,1.7-.77,2.57-1.12,1.74-.69,2.66-.95a24.1,24.1,0,0,1,5.66-1.17l.09.19c-3.33,1.71-6.71,3.31-10.07,5s-6.74,3.23-10.15,4.77Z" transform="translate(-92.33 44.56)"/><path class="cls-3" d="M507.86,159a8.57,8.57,0,0,1,2-1.95,9.59,9.59,0,0,1,4.3-1.71,8.36,8.36,0,0,1,2.76.06l.12.18a22.36,22.36,0,0,1-9.1,3.63Z" transform="translate(-92.33 44.56)"/><path class="cls-3" d="M490.61,210.74l2.61-2,2.66-2,5.43-3.82,5.63-3.53,5.74-3.36c1.94-1.07,3.89-2.12,5.87-3.14l6-2.91,6.1-2.66,6.19-2.48a177.81,177.81,0,0,1,25.54-7.48l6.53-1.26,6.56-1.05,6.6-.71c2.21-.19,4.42-.33,6.62-.44l0,.21a227.88,227.88,0,0,0-98,36.84Z" transform="translate(-92.33 44.56)"/><path class="cls-3" d="M528.61,211.42a11.11,11.11,0,0,1,4.38-5,20.55,20.55,0,0,1,2.9-1.61c1-.44,2-.8,3-1.15s2.08-.57,3.13-.78,2.1-.38,3.16-.44a26.73,26.73,0,0,1,6.44.08l0,.21c-4.08.88-8.18,1.69-12.14,2.95a37.45,37.45,0,0,0-5.81,2.23,16.17,16.17,0,0,0-5,3.64Z" transform="translate(-92.33 44.56)"/><path class="cls-3" d="M562,199a47.24,47.24,0,0,1,7.42-3.58c1.25-.54,2.54-.94,3.81-1.41s2.58-.81,3.88-1.21,2.61-.71,3.92-1,2.64-.62,4-.83a48,48,0,0,1,8.18-.89l.06.2-15.57,4.58-15.63,4.37Z" transform="translate(-92.33 44.56)"/></g><path class="cls-4" d="M216.41,279.3c29.79,34.48,98.22,1.92,98.22,1.92L329,272.9c16.22-3.81,22.15-8.09,22.15-8.09l-10.57,2.64,13.33-7c.36-.19-1-.26-1.42-.15l-11.93,3.6,13.05-7.82a.29.29,0,0,0-.24-.52l-14.71,4.84s12.34-7.73,10.62-7.78-15.5,5.93-15.5,5.93-1.55-8-2.26-8.16c-1.16-.22-2.59,5.28-5.57,9.38-1.88,2.58-25.82,12.23-25.82,12.23-18.63,7.09-49.72,9.29-68.5-13.31,0,0-7.65-6.08-16.66,1.53S216.41,279.3,216.41,279.3Z" transform="translate(-92.33 44.56)"/><path class="cls-5" d="M270.19,276.18c-13.69-.71-23.51-6.76-38.57-17.47,0,0-7.65-6.08-16.66,1.53s1.45,19.06,1.45,19.06c10,11.6,17,17.57,31.67,17.79Z" transform="translate(-92.33 44.56)"/><path class="cls-31" d="M271.31,276l-12.13,19.74a40.32,40.32,0,0,1-8.32-.22Z" transform="translate(-92.33 44.56)"/><path class="cls-32" d="M466,296.08c11.61,24.53,10.55,48.38-8.59,65-15.37,13.35-35.22,20.12-54.53,26.59-6.61,2.22-13.41,4.46-20.38,4.13-10.26-.49-19.35-6.44-27.86-12.19l-25.44-17.19c-6.47-4.37-13.19-8.85-20.88-10.18s-16.65,1.36-20.22,8.29,1.52,17.4,9.3,16.9c3.49-14-9.92-26.24-22.64-33A167.71,167.71,0,0,0,205.85,325c-16.48-1-34.43,1.07-46.62,12.21-15.78,14.41-16.66,38.93-13,60,3.81,21.82,11.6,43.51,26.27,60.12,7.37,8.35,17.73,15.65,28.76,14.12s19.41-16.29,11.8-24.44" transform="translate(-92.33 44.56)"/><path class="cls-33" d="M554.72,80.63c6-2.47,10-8.41,11.55-14.7s.79-12.92-.6-19.24c-2-8.86-5.68-18-13.31-23-4-2.57-8.74-3.75-13.43-4.53a50.62,50.62,0,0,0-17.74-.32,35,35,0,0,0-25.78,21.83A34.93,34.93,0,0,0,500.91,74" transform="translate(-92.33 44.56)"/><path class="cls-3" d="M656.26,67a4.23,4.23,0,1,1-5.88-1.11A4.23,4.23,0,0,1,656.26,67Z" transform="translate(-92.33 44.56)"/><circle class="cls-34" cx="518.59" cy="133.92" r="5.64"/><path class="cls-35" d="M349.8,94.59a5.29,5.29,0,1,1-7.35-1.38A5.31,5.31,0,0,1,349.8,94.59Z" transform="translate(-92.33 44.56)"/><path class="cls-36" d="M512.67,305.81a5.64,5.64,0,1,1-7.84-1.49A5.65,5.65,0,0,1,512.67,305.81Z" transform="translate(-92.33 44.56)"/><path class="cls-37" d="M319.87,314.81a6.7,6.7,0,1,1-9.31-1.76A6.7,6.7,0,0,1,319.87,314.81Z" transform="translate(-92.33 44.56)"/><circle class="cls-35" cx="197.15" cy="503.67" r="4.41"/><circle class="cls-38" cx="191.41" cy="501.02" r="5.19" transform="translate(-390.54 326.65) rotate(-45)"/></g></g></svg>