<?xml version="1.0" encoding="iso-8859-1"?>
<!-- Generator: Adobe Illustrator 19.0.0, SVG Export Plug-In . SVG Version: 6.00 Build 0)  -->
<svg version="1.1" id="Capa_1" xmlns="http://www.w3.org/2000/svg" xmlns:xlink="http://www.w3.org/1999/xlink" x="0px" y="0px"
	 viewBox="0 0 480 480" style="enable-background:new 0 0 480 480;" xml:space="preserve">
<g>
	<path style="fill:#EBE5DD;" d="M8,388v8c0,8.836,7.164,16,16,16h32c0-15.663,6.482-29.826,16.884-40H24C15.164,372,8,379.163,8,388
		z"/>
	<path style="fill:#EBE5DD;" d="M168,412h136c0-15.663,6.482-29.826,16.884-40H151.116C161.518,382.174,168,396.337,168,412z"/>
	<path style="fill:#EBE5DD;" d="M456,372h-56.884C409.518,382.174,416,396.337,416,412h40c8.836,0,16-7.164,16-16v-8
		C472,379.163,464.836,372,456,372z"/>
	<path style="fill:#EBE5DD;" d="M424.199,188.844C416.586,173.618,401.023,164,384,164H64c-22.091,0-40,17.909-40,40h407.777
		L424.199,188.844z"/>
</g>
<path style="fill:#FFD422;" d="M400,212h35.777l-4-8H24v8h24v72H24v88h48.884c10.103-9.881,23.901-16,39.116-16
	s29.013,6.119,39.116,16h169.769c10.103-9.881,23.901-16,39.116-16s29.013,6.119,39.116,16H456v-88h-32L400,212z"/>
<circle style="fill:#4D4D4D;" cx="112" cy="412" r="32"/>
<rect x="104" y="404" style="fill:#FFFFFF;" width="16" height="16"/>
<circle style="fill:#4D4D4D;" cx="360" cy="412" r="32"/>
<rect x="352" y="404" style="fill:#FFFFFF;" width="16" height="16"/>
<g>
	<polygon style="fill:#1E81CE;" points="456,284 432,212 400,212 424,284 	"/>
	<rect x="24" y="212" style="fill:#1E81CE;" width="24" height="72"/>
</g>
<path style="fill:#5AAAE7;" d="M403.647,222.94c-2.178-6.534-8.292-10.94-15.179-10.94H312c-8.836,0-16,7.163-16,16v56h127.579
	c-0.137-0.823-0.135-1.669-0.4-2.463L403.647,222.94z"/>
<g>
	<rect x="72" y="300" style="fill:#E7B900;" width="56" height="16"/>
	<rect x="72" y="324" style="fill:#E7B900;" width="56" height="16"/>
</g>
<path style="fill:#5AAAE7;" d="M248,212h-72v72h88v-56C264,219.163,256.836,212,248,212z"/>
<path style="fill:#1E81CE;" d="M96,212c-8.836,0-16,7.163-16,16v40c0,8.836,7.164,16,16,16h80v-72H96z"/>
<g>
	<rect x="72" y="180" style="fill:#5AAAE7;" width="96" height="16"/>
	<rect x="184" y="180" style="fill:#5AAAE7;" width="88" height="16"/>
	<rect x="288" y="180" style="fill:#5AAAE7;" width="96" height="16"/>
</g>
<polygon style="fill:#999999;" points="416,132 400,132 400,116 384,116 384,132 288,132 288,116 272,116 272,132 184,132 184,116 
	168,116 168,132 88,132 88,116 72,116 72,132 56,132 56,148 72,148 72,164 88,164 88,148 168,148 168,164 184,164 184,148 272,148 
	272,164 288,164 288,148 384,148 384,164 400,164 400,148 416,148 "/>
<path style="fill:#FFDB45;" d="M248,372h-72v-88h88v72C264,364.837,256.837,372,248,372z"/>
<rect x="24" y="308" width="24" height="16"/>
<path style="fill:#5AAAE7;" d="M104,116V76c0-13.255,10.745-24,24-24h0c13.255,0,24,10.745,24,24v40H104z"/>
<path style="fill:#E7B900;" d="M288,116h-96c-8.837,0-16-7.163-16-16V84h128v16C304,108.837,296.837,116,288,116z"/>
<path style="fill:#FFD422;" d="M304,84H176V68c0-8.837,7.163-16,16-16h96c8.837,0,16,7.163,16,16V84z"/>
<rect x="160" y="76" style="fill:#5AAAE7;" width="160" height="16"/>
<rect x="232" y="300" style="fill:#EBE5DD;" width="16" height="16"/>
<rect x="120" y="28" style="fill:#1E81CE;" width="16" height="24"/>
<g>
	<rect x="32" y="108" style="fill:#FF9811;" width="416" height="16"/>
	<path style="fill:#FF9811;" d="M74.344,121.656l-20.688-20.688C47.871,95.188,40.18,92,32,92V76
		c12.453,0,24.164,4.852,32.969,13.656l20.688,20.688L74.344,121.656z"/>
</g>
<g>
	<rect x="328" y="52" style="fill:#F40E34;" width="40" height="64"/>
	<rect x="24" y="284" style="fill:#F40E34;" width="24" height="32"/>
</g>
<rect x="24" y="316" style="fill:#FF9811;" width="24" height="32"/>
<rect x="296" y="284" style="fill:#FFDB45;" width="128" height="64"/>
<g>
	<rect x="312" y="300" style="fill:#EBE5DD;" width="16" height="16"/>
	<path style="fill:#EBE5DD;" d="M456,340L456,340c11.417,7.612,11.417,24.388,0,32l0,0V340z"/>
</g>
<path style="fill:#FF9811;" d="M464,300v16h8c4.418,0,8-3.582,8-8l0,0c0-4.418-3.582-8-8-8H464z"/>
<polygon style="fill:#999999;" points="464,340 480,340 464,356 "/>
<path d="M464,365.367V284c0-0.887-0.238-1.703-0.504-2.5l0.094-0.031l-21.538-64.612c0.172-0.223,0.38-0.411,0.53-0.653
	c1.457-2.359,1.59-5.305,0.352-7.781l-11.578-23.156c-6.546-13.093-17.918-22.513-31.355-26.743V148h16v-16h-16v-8h48v-16h-72V52
	c0-4.422-3.582-8-8-8h-40c-4.418,0-8,3.578-8,8v24h-8v-8c0-13.234-10.766-24-24-24h-96c-13.234,0-24,10.766-24,24v8h-8
	c0-14.87-10.238-27.287-24-30.864V28h-16v17.136C106.238,48.713,96,61.13,96,76v32H83.313L64.969,89.656
	C56.164,80.852,44.453,76,32,76v16c8.18,0,15.871,3.188,21.656,8.969L60.688,108H32v16h40v8H56v16h16v8h-8
	c-26.469,0-48,21.531-48,48v8v72v81.367C6.688,368.672,0,377.57,0,388v8c0,13.234,10.766,24,24,24h32c4.418,0,8-3.578,8-8
	c0-26.469,21.531-48,48-48s48,21.531,48,48c0,4.422,3.582,8,8,8h136c4.418,0,8-3.578,8-8c0-26.469,21.531-48,48-48s48,21.531,48,48
	c0,4.422,3.582,8,8,8h40c13.234,0,24-10.766,24-24v-8C480,377.57,473.313,368.672,464,365.367z M430.526,364
	c0.896-2.515,1.474-5.181,1.474-8v-64h16v72H430.526z M396.051,225.455L412.9,276H304v-48c0-4.414,3.59-8,8-8h76.469
	C391.913,220,394.957,222.189,396.051,225.455z M426.233,220l18.667,56h-15.133l-18.529-55.594c-0.007-0.02-0.018-0.037-0.024-0.057
	L411.098,220H426.233z M384,156h-96v-8h96V156z M184,100v-8h112v8c0,4.414-3.59,8-8,8h-96C187.59,108,184,104.414,184,100z M192,124
	h80v8h-88v-8H192z M272,148v8h-88v-8H272z M384,132h-96v-8h40h40h16V132z M336,60h24v48h-24V60z M320,108h-9.474
	c0.896-2.515,1.474-5.181,1.474-8v-8h8V108z M184,68c0-4.414,3.59-8,8-8h96c4.41,0,8,3.586,8,8v8H184V68z M168,92v8
	c0,2.819,0.578,5.485,1.475,8H160V92H168z M112,76c0-8.82,7.176-16,16-16s16,7.18,16,16v32h-32V76z M88,124h80v8H88V124z M88,148h80
	v8H88V148z M32,364v-8h8v8H32z M40,308h-8v-16h8V308z M32,324h8v16h-8V324z M40,276h-8v-56h8V276z M48.496,404H24
	c-4.41,0-8-3.586-8-8v-8c0-4.414,3.59-8,8-8h32.662C52.459,387.237,49.583,395.336,48.496,404z M296.496,404H175.504
	c-1.086-8.664-3.963-16.763-8.166-24H176h72c13.234,0,24-10.766,24-24v-72v-56c0-13.234-10.766-24-24-24H96
	c-13.234,0-24,10.766-24,24v40c0,13.234,10.766,24,24,24h72v72h-13.733c-11.283-9.948-26.079-16-42.267-16s-30.983,6.052-42.267,16
	H56v-80v-72c0-4.422-3.582-8-8-8H32c0-17.648,14.355-32,32-32h320c14.082,0,26.746,7.828,33.043,20.422L422.832,204H312
	c-13.234,0-24,10.766-24,24v128c0,10.892,7.337,20.007,17.296,22.929C300.743,386.432,297.637,394.906,296.496,404z M256,276h-72
	v-56h64c4.41,0,8,3.586,8,8V276z M168,276H96c-4.41,0-8-3.586-8-8v-40c0-4.414,3.59-8,8-8h72V276z M256,292v64c0,4.414-3.59,8-8,8
	h-64v-72H256z M360,348c-16.188,0-30.983,6.052-42.267,16H312c-4.41,0-8-3.586-8-8v-64h112v64c0,4.414-3.59,8-8,8h-5.733
	C390.983,354.052,376.188,348,360,348z M464,396c0,4.414-3.59,8-8,8h-32.496c-1.086-8.664-3.963-16.763-8.166-24H456
	c4.41,0,8,3.586,8,8V396z"/>
<path d="M112,372c-22.055,0-40,17.945-40,40s17.945,40,40,40s40-17.945,40-40S134.055,372,112,372z M112,436
	c-13.234,0-24-10.766-24-24s10.766-24,24-24s24,10.766,24,24S125.234,436,112,436z"/>
<rect x="104" y="404" width="16" height="16"/>
<path d="M360,372c-22.055,0-40,17.945-40,40s17.945,40,40,40s40-17.945,40-40S382.055,372,360,372z M360,436
	c-13.234,0-24-10.766-24-24s10.766-24,24-24s24,10.766,24,24S373.234,436,360,436z"/>
<rect x="352" y="404" width="16" height="16"/>
<rect x="72" y="300" width="56" height="16"/>
<rect x="72" y="324" width="56" height="16"/>
<rect x="72" y="180" width="96" height="16"/>
<rect x="184" y="180" width="88" height="16"/>
<rect x="288" y="180" width="96" height="16"/>
<rect x="312" y="300" width="16" height="16"/>
<rect x="232" y="300" width="16" height="16"/>
<g>
</g>
<g>
</g>
<g>
</g>
<g>
</g>
<g>
</g>
<g>
</g>
<g>
</g>
<g>
</g>
<g>
</g>
<g>
</g>
<g>
</g>
<g>
</g>
<g>
</g>
<g>
</g>
<g>
</g>
</svg>
