<svg xmlns="http://www.w3.org/2000/svg" width="174.219" height="31.071" viewBox="0 0 174.219 31.071">
  <path id="Path_1" data-name="Path 1" d="M22.773,29.336a5.018,5.018,0,0,0,.586.84q.508.645,1.152,1.406t1.27,1.465q.625.7.859,1.016.742,1.094,1.523,2.148T29.648,38.4a1.432,1.432,0,0,1,.313.488,1.616,1.616,0,0,1,.117.605q0,.352-.176.371a1.428,1.428,0,0,0-.371.1,1.627,1.627,0,0,1-.7.313,4.273,4.273,0,0,1-.508.039q-.43,0-.937-.02a3.421,3.421,0,0,0-.859.059,1.329,1.329,0,0,0-.273.137.52.52,0,0,1-.234.1.792.792,0,0,1-.449-.1,1.412,1.412,0,0,0-.371-.176,6.21,6.21,0,0,1-.566-.742q-.254-.391-.527-.781a3.589,3.589,0,0,0-.508-.488,2.8,2.8,0,0,1-.508-.527q-.625-.9-1.27-1.719t-1.309-1.641a8.151,8.151,0,0,0-.684-.82q-.371-.391-.684-.781a10.647,10.647,0,0,1-.586-.9,10.648,10.648,0,0,0-.586-.9,11.131,11.131,0,0,0-.664-.957q-.43-.566-.9-1.152t-.957-1.113a7.436,7.436,0,0,0-.84-.8.457.457,0,0,0-.156-.391q-.156-.117-.352-.273a2.019,2.019,0,0,0-.2-.371.722.722,0,0,1-.117-.41.866.866,0,0,1,.039-.273l.078-.234a.968.968,0,0,0,.1-.293.968.968,0,0,1,.1-.293,2.7,2.7,0,0,1,.566-.9,2.7,2.7,0,0,0,.566-.9,1.211,1.211,0,0,0,.039-.293.659.659,0,0,1,.078-.293A1.836,1.836,0,0,1,15.7,21.6a4.026,4.026,0,0,0,.43-.508l.391-.7.391-.7a17.324,17.324,0,0,1,1.211-1.738q.664-.84,1.25-1.66.547-.781,1.016-1.543T21.406,13.2q.273-.391.625-.879t.723-.957q.371-.469.762-.879a2.885,2.885,0,0,1,.781-.605q.664-.078.859.215a.621.621,0,0,0,.547.293,1.314,1.314,0,0,1,.742.352q.2.234.391.43a1.747,1.747,0,0,1,.859.2,2.8,2.8,0,0,1,.7.586,3.185,3.185,0,0,1-.41.781,5.358,5.358,0,0,0-.449.742.788.788,0,0,0-.449.391,1.275,1.275,0,0,1-.41.469q-.43.664-.859,1.309t-.859,1.23a1.521,1.521,0,0,1-.449.371,1.035,1.035,0,0,0-.41.41.9.9,0,0,0-.117.254.9.9,0,0,1-.117.254,13.614,13.614,0,0,1-1.055,1.445A9.367,9.367,0,0,0,21.8,21.094a2.7,2.7,0,0,0-.312.566,4.535,4.535,0,0,1-.273.566q-.156.234-.449.664t-.586.879q-.293.449-.508.859a1.558,1.558,0,0,0-.215.684,2.7,2.7,0,0,0,.508.781q.469.586,1.035,1.25t1.094,1.25Q22.617,29.18,22.773,29.336Zm26.367-8.164a5.728,5.728,0,0,1-.957,1.406q-.605.664-1.152,1.25a5.11,5.11,0,0,0-.742.938,6.291,6.291,0,0,1-.7.938q-.312.352-.625.645a5.561,5.561,0,0,0-.586.645q-.2.156-.371.313a2.011,2.011,0,0,0-.332.391,11.58,11.58,0,0,0,1.387,2.266q.8,1.016,1.66,2.031.43.508.859.957a5.722,5.722,0,0,1,.742.957,3.1,3.1,0,0,0,.566.879,5.66,5.66,0,0,1,.527.605l.41.684a2.413,2.413,0,0,0,.488.566.482.482,0,0,0,.234.371.9.9,0,0,1,.313.371,1.985,1.985,0,0,0,.02.313,1.228,1.228,0,0,1,.02.2,1.147,1.147,0,0,1-.41.527,4.543,4.543,0,0,0-.527.449.986.986,0,0,0-.664.234,1.1,1.1,0,0,1-.742.234,1.485,1.485,0,0,0-.312.332A1.485,1.485,0,0,1,47.93,40a.972.972,0,0,0-.566.176,1.717,1.717,0,0,1-.566.254,1.855,1.855,0,0,1-.625-.605,1.542,1.542,0,0,0-.625-.566.851.851,0,0,0-.137-.332,2.181,2.181,0,0,1-.176-.293,18.245,18.245,0,0,1-1.25-1.562L42.813,35.43q-.312-.352-.645-.684a8.755,8.755,0,0,1-.645-.723,4.968,4.968,0,0,1-.391-.547,4.841,4.841,0,0,0-.43-.586,2.368,2.368,0,0,1-.469-.547,1.761,1.761,0,0,0-.469-.508,2.33,2.33,0,0,0-.625.508,3.142,3.142,0,0,1-.625.547q-.312.273-.605.547a7.355,7.355,0,0,1-.605.508q-.078.9-.078,1.738v1.66q0,.664-.02,1.27a5.841,5.841,0,0,1-.176,1.23q-.2.039-.371-.215a.632.632,0,0,0-.371-.293.469.469,0,0,0-.254.156.235.235,0,0,1-.293.039,1.739,1.739,0,0,1-.586.352,1.783,1.783,0,0,0-.43.059A1.783,1.783,0,0,1,34.3,40a.833.833,0,0,1-.43-.078,1.421,1.421,0,0,1-.645.293q-.254.02-.41.02-.078-.273-.156-.527a3.338,3.338,0,0,1-.117-.566,1.114,1.114,0,0,1-.176-.352q-.059-.2-.137-.391a.866.866,0,0,0,.039-.273v-.312q0-.664-.039-1.289a7.185,7.185,0,0,1,.039-1.289,2.227,2.227,0,0,1-.117-.391,1.987,1.987,0,0,1-.039-.391,2.24,2.24,0,0,1,.02-.273.39.39,0,0,1,.1-.234,5.633,5.633,0,0,1-.137-1.074q-.02-.566-.02-1.074a2.887,2.887,0,0,1,.059-.566,3.08,3.08,0,0,0,.059-.605,10.387,10.387,0,0,0-.078-1.289,10.069,10.069,0,0,1-.078-1.25q.039-.43.039-.664a2.847,2.847,0,0,1,.039-.469.962.962,0,0,0-.039-.469.953.953,0,0,1,.1-.293.581.581,0,0,0,.059-.293q0-.508.02-1t.02-1.035q0-.391.02-.762t.02-.8a3.6,3.6,0,0,1,.059-.664q.059-.312.1-.625a6.19,6.19,0,0,0,.039-.684v-2.3q0-.84-.078-1.66-.039-.2-.078-.43a2.847,2.847,0,0,1-.039-.469q-.078-.742-.117-1.523t-.156-1.562a.449.449,0,0,0,.078-.254V11.5a1.894,1.894,0,0,0-.039-.371,2.131,2.131,0,0,0,.156-.176,2.131,2.131,0,0,1,.156-.176q.234,0,.488.02a.8.8,0,0,1,.449.176q.2-.078.449-.176a1.275,1.275,0,0,1,.449-.1.637.637,0,0,1,.469.156q.2-.078.215-.176t.293-.1q.508-.039.723-.039a2.088,2.088,0,0,0,.41-.039.7.7,0,0,1,.2.2l.156.234a3.479,3.479,0,0,1,1.387.879,5.272,5.272,0,0,0,1.191.957,2.052,2.052,0,0,0,.313.2l.313.156q.352.234.7.508a4.444,4.444,0,0,0,.742.469q.391.2.449.215a.178.178,0,0,1,.1.1,5.691,5.691,0,0,1,1.543.84,11.342,11.342,0,0,0,1.465.957,4.943,4.943,0,0,0,.684.313q.41.156.82.332t.781.371a1.845,1.845,0,0,1,.566.43,3.4,3.4,0,0,0,.762.605,4.877,4.877,0,0,1,.645.41l.039,1.055a2.09,2.09,0,0,1-.059.508,2.09,2.09,0,0,0-.059.508A1.369,1.369,0,0,0,49.141,21.172Zm-5.352-1.016q-.43-.234-.859-.449a2.207,2.207,0,0,1-.742-.605q-.273-.078-.977-.371t-1.426-.625q-.723-.332-1.328-.586a4.116,4.116,0,0,0-.684-.254q-.117.039-.117.508v2.7q0,.742-.039,1.445T37.5,23.359a1.2,1.2,0,0,0-.117.215q-.039.1-.078.215a10.658,10.658,0,0,0-.078,1.445v1.953a4.48,4.48,0,0,0,.039.547.332.332,0,0,0,.273-.1.66.66,0,0,1,.273-.176q.508-.547,1.016-1.055l1.055-1.055q.234-.234.469-.508a2.856,2.856,0,0,1,.508-.469q.2-.234.352-.449a3.449,3.449,0,0,1,.352-.41q.547-.586,1.133-1.152a5.415,5.415,0,0,0,.977-1.27,1.826,1.826,0,0,0,.508-.625A.481.481,0,0,1,43.789,20.156ZM66.6,34.531a4.738,4.738,0,0,1,.469.977,2.486,2.486,0,0,1,.156.664.918.918,0,0,1-.1.449,2.7,2.7,0,0,1-.254.371q-1.562.664-3.105,1.23t-3.145,1.113q-.391.117-.762.254a4.8,4.8,0,0,1-.8.215.838.838,0,0,1-.273.156q-.2.078-.449.156t-.488.137a1.642,1.642,0,0,1-.312.059.445.445,0,0,0-.156-.234L57.227,40a.246.246,0,0,0-.254.137.429.429,0,0,1-.254.215,2.856,2.856,0,0,0-.352.02.39.39,0,0,1-.273-.059,1.526,1.526,0,0,0-.566.273,1.526,1.526,0,0,1-.566.273,2.731,2.731,0,0,0-.723-.137,2.91,2.91,0,0,0-.293.059.777.777,0,0,1-.254-.664.971.971,0,0,0-.215-.7q0-.508-.078-.566a.169.169,0,0,1-.078-.137,3.094,3.094,0,0,1,.039-.508,1.151,1.151,0,0,0-.039-.508,4.408,4.408,0,0,0,.117-1.289,6.691,6.691,0,0,1,.039-1.25,3.364,3.364,0,0,1,.02-.371,3.364,3.364,0,0,0,.02-.371,1.926,1.926,0,0,1,.078-.723.659.659,0,0,0,.078-.332q0-.273-.02-.527t-.02-.566q0-.547.02-1.074t.02-1.113a22.734,22.734,0,0,0-.2-2.969,22.734,22.734,0,0,1-.2-2.969,32.166,32.166,0,0,0-.2-3.555,32.166,32.166,0,0,1-.2-3.555V14.98q0-.605.02-1.152a6.887,6.887,0,0,1,.059-.781q0-.039.234-.117a1.279,1.279,0,0,1,.313-.078.472.472,0,0,1,.313.1,1.41,1.41,0,0,0,.273.176,4.507,4.507,0,0,0,.84-.137.593.593,0,0,1,.215-.059.551.551,0,0,1,.371.117.391.391,0,0,0,.215.117q.664-.156.723-.039a.256.256,0,0,0,.254.117,1.52,1.52,0,0,1,.625-.117.737.737,0,0,0,.234.039.867.867,0,0,0,.43-.137,3.294,3.294,0,0,1,.43-.215,8.489,8.489,0,0,0,1.094-.391,6.959,6.959,0,0,1,.879-.469q.293-.117.605-.273.664-.273,1.27-.566t1.27-.605a1.8,1.8,0,0,0,.254-.02.367.367,0,0,0,.215-.1.8.8,0,0,0,.254.039h.254q.391.156.508.2.156.234.293.449a2.414,2.414,0,0,0,.332.41q.2.352.313.352a.405.405,0,0,1-.117.254.405.405,0,0,0-.117.254,9.208,9.208,0,0,1,.508,1.016,2.074,2.074,0,0,1,.2.664,1.112,1.112,0,0,1-.078.449,3.45,3.45,0,0,1-.2.371q-1.484.7-2.988,1.387t-3.066,1.348q-.391.156-.742.332a2.9,2.9,0,0,1-.781.254.769.769,0,0,1-.352.137,2.187,2.187,0,0,1-.43.059q.078.664.1,1.309t.059,1.309q.039.547.137,1.152t.176,1.191q1.289-.547,2.559-1.094T63.4,21.133q.234.039.488.078a2.969,2.969,0,0,1,.488.117,1.28,1.28,0,0,1,.156.2.7.7,0,0,0,.2.2q-.039.2.254.586a1.186,1.186,0,0,1,.293.586q0,.313.078.371a.7.7,0,0,1,.156.332,1,1,0,0,1,0,.43,2.054,2.054,0,0,1,.313.391.9.9,0,0,1,.117.469,2.828,2.828,0,0,1-1.094.879q-.547.215-1.094.449a2.5,2.5,0,0,0-.41.215,2.5,2.5,0,0,1-.41.215q-.312.117-.605.215a4.638,4.638,0,0,0-.605.254q-.508.273-1.035.605a3.318,3.318,0,0,1-1.074.449,1.357,1.357,0,0,0-.566.254,4.5,4.5,0,0,1-.449.371V32.6q0,.41-.039.84a3.476,3.476,0,0,0-.078.664v.625q.2-.078.391-.137t.391-.137a1.211,1.211,0,0,1,.293-.039.659.659,0,0,0,.293-.078,2.7,2.7,0,0,0,.313-.078,2.144,2.144,0,0,0,.273-.117,5.793,5.793,0,0,1,.9-.41q.312-.1.625-.215.664-.234,1.289-.488t1.25-.488a.524.524,0,0,0,.547-.117q.2.039.332.078a1.222,1.222,0,0,0,.332.039,2.8,2.8,0,0,1,.586.664,1.649,1.649,0,0,0,.313.43q.2.352.273.352a.57.57,0,0,1-.117.254A1.314,1.314,0,0,0,66.6,34.531Zm5.742,4.844-.234.156-.234.156a1.882,1.882,0,0,1-.781.254,1.345,1.345,0,0,0-.781.41q-.156-.2-.234-.2H69.8q-.508,0-.586-.273a3.06,3.06,0,0,0-.488.2q-.332.156-.488.234a5.013,5.013,0,0,0,.469-.781,1.648,1.648,0,0,0,.137-.508q.02-.234.039-.488a3.293,3.293,0,0,1,.176-.723,1.526,1.526,0,0,0,.117-.312,2.769,2.769,0,0,1,.117-.352,9.878,9.878,0,0,0,.332-1.328,4.067,4.067,0,0,1,.449-1.289,2.757,2.757,0,0,1,.293-1.25,8.118,8.118,0,0,0,.488-1.211,2.5,2.5,0,0,1,.215-.469,2.5,2.5,0,0,0,.215-.469,6.526,6.526,0,0,0,.254-.762q.1-.371.215-.723.313-1.133.625-2.246t.586-2.246q.039-.2.1-.43a3.337,3.337,0,0,1,.137-.43,5.4,5.4,0,0,0,.254-1.191,2.855,2.855,0,0,1,.371-1.152,1.314,1.314,0,0,1,.02-.508q.059-.234.137-.508t.156-.508l.117-.352a7.307,7.307,0,0,0,.293-.918,2.774,2.774,0,0,1,.41-.879l.117-.41q.117-.41.273-.918T75.625,16a3.756,3.756,0,0,0,.117-.527q.078-.312.137-.586t.137-.586a2.688,2.688,0,0,1,.156-.332,2.688,2.688,0,0,0,.156-.332q.117-.43.234-1.055a3.308,3.308,0,0,1,.313-.977.937.937,0,0,1,.449-.449,3.282,3.282,0,0,0,.566-.371,2.035,2.035,0,0,0,1.035-.078,3.7,3.7,0,0,0,.645-.391,3.088,3.088,0,0,1,.371.1,1.166,1.166,0,0,0,.371.059,4.869,4.869,0,0,1,1.035,1.68q.293.859.566,1.719.117.43.234.84a8.278,8.278,0,0,0,.273.8,1.431,1.431,0,0,0,.117.254q.078.137.156.293a3.953,3.953,0,0,1,.332.664q.137.352.254.7a1.819,1.819,0,0,1,.352.645q.117.371.215.742t.215.7a1.489,1.489,0,0,0,.352.566,3.335,3.335,0,0,0,.273.84,3.292,3.292,0,0,1,.273.879,5,5,0,0,1,.547,1.191q.313.879.625,1.895t.586,1.953q.273.938.391,1.328a4.461,4.461,0,0,0,.313.8q.234.488.43.879.156.43.332.9t.293.9q.078.43.176.82t.215.82a1.543,1.543,0,0,0,.234.488,1.51,1.51,0,0,1,.234.527,2.491,2.491,0,0,1,.215.586,1.86,1.86,0,0,0,.254.586,1.018,1.018,0,0,0,.039.547,2.554,2.554,0,0,1,.156.273,7.329,7.329,0,0,0,.352,1.309,2.761,2.761,0,0,1,.2,1.035q0,.469-.176.586a3.227,3.227,0,0,0-.449.391q-.313.273-.527.43a1.094,1.094,0,0,1-.645.156q-.469-.039-.566.137t-.137.254a3.55,3.55,0,0,0-.605-.02,1.931,1.931,0,0,1-.273.02.689.689,0,0,0-.273.059.827.827,0,0,0-.293.254q-.273-.312-.527-.566a3.185,3.185,0,0,1-.449-.566,8.291,8.291,0,0,0-.176-1.562,8.79,8.79,0,0,0-.371-1.406q-.391-1.016-.723-1.992t-.645-1.992a7.889,7.889,0,0,0-.254-.781q-.137-.352-.293-.742a2.127,2.127,0,0,1,.059.645,1.355,1.355,0,0,1-.215.645,2.284,2.284,0,0,1-.234.2q-.156.117-.156.2-.469.391-.82.742a1.406,1.406,0,0,1-.2.977,4.675,4.675,0,0,1-.508.508,1.549,1.549,0,0,1-.82-.078.928.928,0,0,0-.43-.156.846.846,0,0,0-.312-.02,2.517,2.517,0,0,1-.312.02,1.162,1.162,0,0,1-.586-.156.709.709,0,0,1-.176-.156,1.466,1.466,0,0,0-.137-.156,2.949,2.949,0,0,0-.723-.527,8.666,8.666,0,0,0-.8-.371l-.645-.566a3.894,3.894,0,0,0-.684-.488q-.313.742-.488,1.309a11.408,11.408,0,0,1-.41,1.113q-.43,1.328-.7,2.324T73.242,39.3a1.149,1.149,0,0,0-.293.117.659.659,0,0,1-.332.078Zm3.828-8.32q.313-.547.566-.605a.823.823,0,0,0,.449-.293q.078-.078.176-.2t.215-.234a2.554,2.554,0,0,1,.273-.156,1.043,1.043,0,0,0,.273-.2q.313-.273.527-.469a.931.931,0,0,1,.645-.2,1.737,1.737,0,0,1,1.094.332,2.427,2.427,0,0,0,1.055.449q.078.234.508.332a2.02,2.02,0,0,1,.664.254,12.272,12.272,0,0,1-.605-1.973q-.215-1-.527-1.973-.234-.859-.547-1.7t-.625-1.621q-.273-.781-.469-1.523a9.516,9.516,0,0,0-.508-1.445,15.572,15.572,0,0,0-.625,1.719q-.313,1.016-.469,1.8a2.948,2.948,0,0,1-.039.547q-.078.273-.156.488t-.156.449q-.508,1.523-.918,3.086t-.957,3.125Zm57.7,8.828a.787.787,0,0,1-.43.234,2.847,2.847,0,0,1-.469.039,2.92,2.92,0,0,1-1.25.273q-.43-.234-.469-.156a.442.442,0,0,1-.156.156,2.817,2.817,0,0,1-1.055.293,1.576,1.576,0,0,0-.781.215.851.851,0,0,1-.332-.684,3.888,3.888,0,0,0-.1-.762,1.713,1.713,0,0,1-.273-.684q-.078-.41-.117-.84t-.1-.84a2.351,2.351,0,0,0-.215-.723,1.1,1.1,0,0,1-.02-.352.714.714,0,0,0-.059-.352,4.323,4.323,0,0,0-.039-1.055q-.078-.391-.156-.82a3.227,3.227,0,0,1-.039-.527.507.507,0,0,0-.234-.449,1.821,1.821,0,0,0,.039-.82,4.631,4.631,0,0,1-.117-.508,5.533,5.533,0,0,1-.039-.684,2.816,2.816,0,0,0-.078-.684q-.234-1.875-.508-3.75t-.508-3.75a1.075,1.075,0,0,0-.332.586l-.176.7q-.234.7-.43,1.445t-.391,1.445a7.218,7.218,0,0,0-.137.723,3.456,3.456,0,0,1-.176.723q-.391,1.133-.684,1.953t-.566,1.68q-.078.469-.156.9l-.156.859q-.039.234-.117.664a3.545,3.545,0,0,1-.156.625,1.3,1.3,0,0,1-.137.273.355.355,0,0,0-.02.273,3.507,3.507,0,0,0-.527,1.289,4.917,4.917,0,0,1-.488,1.367,1.124,1.124,0,0,1-.352.82q-.2.039-.371.078a1.262,1.262,0,0,0-.371.156,1.521,1.521,0,0,0-.449-.1q-.254-.02-.488-.02a1.043,1.043,0,0,1-.352-.137,1.043,1.043,0,0,0-.352-.137,2.552,2.552,0,0,0-.43-.41q-.234-.176-.469-.371a2.5,2.5,0,0,0-.43-.781,3.938,3.938,0,0,0-.312-.8,2.768,2.768,0,0,1-.273-.84,4.844,4.844,0,0,0-.293-.8q-.176-.371-.371-.8-.078-.273-.176-.527t-.215-.527a3.6,3.6,0,0,0-.215-.781,6.253,6.253,0,0,1-.254-.82,3.138,3.138,0,0,0-.137-.41q-.137-.371-.273-.8t-.273-.781a2.011,2.011,0,0,0-.176-.391q-.078-.2-.137-.371l-.137-.41a9.25,9.25,0,0,0-.391-1.035q-.234-.527-.469-1a3.167,3.167,0,0,1-.273-.762,6.551,6.551,0,0,0-.2-.723q-.078-.2-.137-.352t-.137-.352q-.078-.234-.156-.488t-.156-.527a.292.292,0,0,0-.176.332,1.656,1.656,0,0,1-.02.449,4.69,4.69,0,0,0-.078.84q0,.41-.039.84-.078.469-.156.9t-.117.859A19.087,19.087,0,0,1,111.8,29.3q-.078.938-.2,1.895t-.156,1.973a6.912,6.912,0,0,1-.156,1.465,4.811,4.811,0,0,0-.078,1.5.6.6,0,0,0-.078.234V36.6q0,.2-.02.43t-.02.43a.941.941,0,0,0,.078.469,2.4,2.4,0,0,0-.117.762v.8a.965.965,0,0,0-.1.313.659.659,0,0,1-.137.313q.039.664-.391.664a.648.648,0,0,1-.254-.059.477.477,0,0,1-.215-.176q-.43.039-.488-.2t-.254-.2q-.469.2-.527.117t-.254-.039q-.313-.312-.41-.273a.48.48,0,0,1-.176.039q-.352-.117-.391-.059A.176.176,0,0,1,107.3,40a.713.713,0,0,0-.527-.2,3.509,3.509,0,0,1-.566-.039,2.912,2.912,0,0,1-.059-.293,2.4,2.4,0,0,1-.02-.332q0-.234.02-.449t.02-.449q0-.2-.02-.41t-.02-.488a3.465,3.465,0,0,1,.039-.527,3.745,3.745,0,0,0,.039-.566.574.574,0,0,0-.039-.215.693.693,0,0,1-.039-.254,1.789,1.789,0,0,0,.215-.8,2.718,2.718,0,0,1,.02-.566q.078-.664.137-1.309t.137-1.309q0-1.094.059-1.816t.176-1.465q.078-.352.137-.664t.137-.664a12.085,12.085,0,0,0,.1-1.23q.02-.645.1-1.27.078-.977.2-1.934t.2-1.895q.078-.742.176-1.465a10.363,10.363,0,0,0,.1-1.387,5.316,5.316,0,0,1,.1-.9q.1-.547.137-.937.078-.937.137-1.836t.059-1.8v-.43a.225.225,0,0,1,.078-.156.381.381,0,0,0,.078-.273.586.586,0,0,1,.176-.488,1,1,0,0,0,.293-.449,2.994,2.994,0,0,1,.449.039.5.5,0,0,1,.371.234,1.982,1.982,0,0,1,.547-.078.639.639,0,0,0,.469-.2.477.477,0,0,1,.352.117.917.917,0,0,0,.313.2,3.253,3.253,0,0,1,.313-.137,3.253,3.253,0,0,0,.313-.137.565.565,0,0,1,.176.176.312.312,0,0,0,.176.137,1.162,1.162,0,0,1,.781-.039.965.965,0,0,1,.1.313,2.636,2.636,0,0,0,.059.313,1.838,1.838,0,0,1,.508.879,2.219,2.219,0,0,0,.43.879q.078.234.176.469a3.874,3.874,0,0,1,.176.547l.117.469q.156.391.391.938.2.742.352,1.523a5.286,5.286,0,0,0,.508,1.445,4.947,4.947,0,0,0,.137.566q.1.332.176.566.273.664.566,1.309a12.3,12.3,0,0,1,.527,1.387q.234.742.41,1.523A12.058,12.058,0,0,0,118.4,25.7q.234.7.352,1.016a3.5,3.5,0,0,0,.313.625,2.153,2.153,0,0,0,.059.391,3.508,3.508,0,0,0,.176.566q.117.293.234.547t.234.293a.313.313,0,0,0,.137-.234.459.459,0,0,1,.137-.273q.039-.43.137-1.055a3.507,3.507,0,0,1,.293-1.016,4.811,4.811,0,0,1,.1-.723q.1-.527.254-1.133t.293-1.113a1.651,1.651,0,0,1,.254-.625,2.9,2.9,0,0,1,.137-.625.743.743,0,0,1,.137-.2,2.159,2.159,0,0,1,.156-.586,2.159,2.159,0,0,0,.156-.586,7.681,7.681,0,0,1,.2-1.094q.117-.43.313-1.055.156-.547.293-1.113a10.939,10.939,0,0,1,.332-1.113q.469-1.484.84-2.637a15.946,15.946,0,0,1,.918-2.246,1.334,1.334,0,0,1,.2-.43l.156-.156a1.821,1.821,0,0,1,.645-.117,6.191,6.191,0,0,1,.684.039,1.739,1.739,0,0,0,.586-.352.564.564,0,0,0,.469.2.608.608,0,0,0,.547-.234.316.316,0,0,0,.254.039.422.422,0,0,1,.293.039q.078-.078.2-.176a.367.367,0,0,1,.234-.1q.312.391.488.605a1.346,1.346,0,0,1,.254.488,2.824,2.824,0,0,1,.137.762,1.715,1.715,0,0,0,.215.762,9.934,9.934,0,0,0,.059,1.543q.1,1.035.234,2.188t.293,2.129a5.63,5.63,0,0,0,.273,1.211,2.973,2.973,0,0,0,.039.859,3.233,3.233,0,0,1,.078.7q0,.117.039.488t.078.781q.039.41.1.781t.1.527a2.133,2.133,0,0,0,.234,1.094q.2.977.332,1.953t.254,1.992a8.853,8.853,0,0,1,.1.977,8.853,8.853,0,0,0,.1.977q.039.2.1.391t.1.391q.078.391.117.742a6.6,6.6,0,0,0,.117.7,2.828,2.828,0,0,0,.117.41.665.665,0,0,1,0,.449,1.727,1.727,0,0,1,.059.586.862.862,0,0,0,.137.547,7.914,7.914,0,0,0,.117,1.445,3.1,3.1,0,0,0,.234.938q.078.469.137.977T133.867,39.883Zm9.727-26.445a.617.617,0,0,1-.234.527,2.028,2.028,0,0,0-.43.449,5.871,5.871,0,0,0-.684.723,5.87,5.87,0,0,1-.684.723q-.156.156-.43.41t-.566.508a5.864,5.864,0,0,1-.586.449.949.949,0,0,1-.488.2,2.1,2.1,0,0,1-.8-.215,4.672,4.672,0,0,0-.84-.293q-.273-.039-.488-.059a.668.668,0,0,1-.41-.215,1.328,1.328,0,0,1-.9-.488q-.2-.332-.43-.684a.18.18,0,0,1,.117-.2.376.376,0,0,0,.2-.156q.391-.508.664-.84t.625-.684q.664-.586,1.27-1.211a15.375,15.375,0,0,1,1.27-1.172.679.679,0,0,0,.469-.234.564.564,0,0,1,.469-.2.755.755,0,0,1,.527.2,2.616,2.616,0,0,1,.391.449l.352.508a1.1,1.1,0,0,0,.41.371q.273.2.742.508T143.594,13.438ZM138.242,20.7a1.035,1.035,0,0,1,.41.41.816.816,0,0,0,.41.371,1.12,1.12,0,0,0,.508.117,1.262,1.262,0,0,1,.469.078.59.59,0,0,1,.234.2l.156.234a2.189,2.189,0,0,0,.723.352,1.372,1.372,0,0,1,.645.352,2.39,2.39,0,0,1,.41.9,10.058,10.058,0,0,1,.215,1.152q.078.605.117,1.211a9.21,9.21,0,0,0,.117,1.035q.078.9.2,1.777a13.433,13.433,0,0,1,.117,1.777q0,.9-.078,1.836t-.078,1.836q0,.469-.02,1.172a1.792,1.792,0,0,1-.332,1.094,2.588,2.588,0,0,0-.039.547V38.4a2.846,2.846,0,0,0,.039.469,3.093,3.093,0,0,1,.039.508.769.769,0,0,1-.234.625.8.8,0,0,0-.254-.039h-.254a1,1,0,0,0-.625.156q-.43-.039-.82-.078t-.82-.039a5.988,5.988,0,0,0-1.445.2,1.946,1.946,0,0,1-.137-.82,1.442,1.442,0,0,0-.176-.781,1.8,1.8,0,0,1-.059-.215,1.1,1.1,0,0,1-.02-.215,3.231,3.231,0,0,0,.117-.645v-.371q0-.547-.039-1.113a5.282,5.282,0,0,1,.039-1.113,1,1,0,0,1,.059-.352,1,1,0,0,0,.059-.352.381.381,0,0,0-.078-.273.265.265,0,0,1-.078-.2q0-.117.02-.391a.593.593,0,0,1,.1-.352q0-.312.02-.605t.02-.566q0-.625-.039-1.25t-.039-1.211a.97.97,0,0,0-.039-.352.454.454,0,0,0-.078-.117.248.248,0,0,0-.117-.059q-.078-.02-.117-.137a13.827,13.827,0,0,0-.117-3.437,22.092,22.092,0,0,1-.273-3.477.848.848,0,0,1,.078-.41.625.625,0,0,1,.2-.215,1.405,1.405,0,0,0,.215-.176.56.56,0,0,0,.137-.293A.972.972,0,0,0,138.242,20.7Zm25.977-10.039a1.263,1.263,0,0,1,.625.117,2.81,2.81,0,0,1,.254.684,3.52,3.52,0,0,1,.059.684,6.672,6.672,0,0,1,.02.84q-.02.254-.059.527-.039.625-.039,1.191V15.9q0,1.367.039,2.773t.039,2.773q0,.547-.02,1.074t-.02,1.074a1.8,1.8,0,0,0,.02.254,1.8,1.8,0,0,1,.02.254q0,.352-.02.684t-.02.645V25.7a1.68,1.68,0,0,0,.039.313,2.154,2.154,0,0,0-.078.43q0,.625.039,1.27t.039,1.27q0,.586.02,1.133t.02,1.133q0,.313-.02.664t-.02.7q0,.82.039,1.66t.078,1.66v1.074a7.591,7.591,0,0,0,.078,1.074,5.155,5.155,0,0,1-.059.918q-.059.293-.137.566a1.208,1.208,0,0,1-.41.059,1.1,1.1,0,0,0-.215-.02,2.085,2.085,0,0,0-.7.293q-.156.137-.352.293-.156,0-.371.02a.519.519,0,0,0-.332.137.469.469,0,0,0-.312-.039.737.737,0,0,1-.234.039,2.248,2.248,0,0,0-.742.137,1.245,1.245,0,0,1-.547.1q-.312-.508-.469-.8a.467.467,0,0,0-.508-.254,5.4,5.4,0,0,1-.723-1.641,4.511,4.511,0,0,0-.723-1.562.755.755,0,0,0-.117-.391.848.848,0,0,1-.156-.312,5.062,5.062,0,0,1-.273-.664,3.1,3.1,0,0,0-.312-.664q-.312-.664-.625-1.309t-.586-1.348a5.273,5.273,0,0,1-.2-.645,5.273,5.273,0,0,0-.2-.645q-.078-.156-.176-.312t-.176-.273q-.234-.43-.449-.859a9.593,9.593,0,0,0-.488-.859,1.527,1.527,0,0,0-.215-.371q-.137-.176-.293-.371-.117-.273-.215-.547t-.215-.547a2.368,2.368,0,0,0-.234-.488,2.368,2.368,0,0,1-.234-.488,2.228,2.228,0,0,1-.117-.391.605.605,0,0,0-.234-.352,1.72,1.72,0,0,0-.273.625q-.039.469-.059.762t-.02.527a2.338,2.338,0,0,0,.059.527,2.171,2.171,0,0,1,.059.488q.078.938.117,1.895t.039,1.895q-.039.742-.02,1.133t.059.781a5.439,5.439,0,0,1,.02.8,5.439,5.439,0,0,0,.02.8q0,.9.02,1.738t.02,1.738v.938a2.46,2.46,0,0,1-.117.781,4.509,4.509,0,0,1-.762-.039,2.414,2.414,0,0,1-.371-.117.662.662,0,0,0-.371.176,1.713,1.713,0,0,1-.332.254q-.43-.039-.469.02a.574.574,0,0,1-.156.137.3.3,0,0,1-.215,0,.573.573,0,0,0-.215-.039,2.2,2.2,0,0,0-.508-.078q-.234.078-.449.156a2.528,2.528,0,0,1-.449.117,2.437,2.437,0,0,1-.273-1.016,2.122,2.122,0,0,0-.312-1.016l.1-.2a.766.766,0,0,0,.02-.234q0-.9-.039-1.8t-.039-1.8a10.5,10.5,0,0,0-.1-1.445,10.5,10.5,0,0,1-.1-1.445,2.846,2.846,0,0,1,.039-.469,3.093,3.093,0,0,0,.039-.508,1.424,1.424,0,0,0-.02-.234,1.228,1.228,0,0,1-.02-.2q-.078-.7-.1-1.445t-.02-1.484q-.039-.43-.059-.9t-.02-.977a2.629,2.629,0,0,1,.039-.43,2.846,2.846,0,0,0,.039-.469V22.813a2.717,2.717,0,0,1-.059-.625,2.518,2.518,0,0,0,.02-.312,3.927,3.927,0,0,0-.059-.684,4.165,4.165,0,0,1-.059-.723,2.338,2.338,0,0,1,.059-.527,2.338,2.338,0,0,0,.059-.527,10.633,10.633,0,0,0-.059-1.133,10.633,10.633,0,0,1-.059-1.133v-3.32a3.862,3.862,0,0,0-.039-.547,4.148,4.148,0,0,1-.039-.586q.234-.547.43-.566a.69.69,0,0,0,.352-.137,1.162,1.162,0,0,0,.742-.078q.508.039.625-.117a.239.239,0,0,0,.215.059.548.548,0,0,1,.254.02,1.28,1.28,0,0,0,.2-.156.909.909,0,0,1,.234-.156q.43-.234.508-.293t.2-.137a.256.256,0,0,1,.254.117.256.256,0,0,0,.254.117,2.052,2.052,0,0,0,.2.313.775.775,0,0,0,.273.234,4.492,4.492,0,0,0,.742,1.133,18.58,18.58,0,0,0,.8,1.953q.449.938.957,1.875a1.4,1.4,0,0,0,.039.293,1.2,1.2,0,0,0,.078.254q.2.43.566,1.113t.645,1.113a1.043,1.043,0,0,0,.2.273,1.043,1.043,0,0,1,.2.273,2.159,2.159,0,0,1,.2.43,2.159,2.159,0,0,0,.2.43,8.539,8.539,0,0,0,.449.918q.254.449.527.918.078.234.176.469t.215.469a7.045,7.045,0,0,0,.566,1.074,2.638,2.638,0,0,1,.371.8,2.516,2.516,0,0,1,.43.684,1.44,1.44,0,0,0,.469.605q.039-.2.078-1.152t.039-2.09V20.234q0-1.055-.039-2.09t-.039-2.051q0-.82.02-1.66t.059-1.66a5.613,5.613,0,0,0,.02-.8,5.005,5.005,0,0,1,.02-.762,1.228,1.228,0,0,1,.156-.391,2.732,2.732,0,0,0,.2-.391.859.859,0,0,1,.781.2,1.255,1.255,0,0,1,.566-.117,3.509,3.509,0,0,0,.566-.039,2.114,2.114,0,0,0,.352-.059.272.272,0,0,1,.117-.02,1.715,1.715,0,0,0,.293.117q.137.039.332.117A.646.646,0,0,1,164.219,10.664Zm6.211,29.8a.581.581,0,0,1-.156-.43,2.4,2.4,0,0,1,.02-.332q.02-.137.059-.332a8.527,8.527,0,0,0,.2-1.816q0-.918.078-1.816.039-.547.059-1.094t.02-1.094q0-3.242-.2-6.465t-.2-6.5q0-2.266.078-4.551t.117-4.59a1.5,1.5,0,0,1,.859-.156.9.9,0,0,0,.82-.352,1.314,1.314,0,0,1,.391-.02q.2.02.391.02a1.409,1.409,0,0,0,.82-.273,4.533,4.533,0,0,1,.859-.469.755.755,0,0,0,.332.059,1.1,1.1,0,0,1,.215-.02,1.36,1.36,0,0,1,.508.273q.391.273.859.625t.879.664q.41.313.527.391a11.487,11.487,0,0,1,1.738,1.621q.762.879,1.5,1.777.7.9,1.523,1.816t1.6,1.7a4.448,4.448,0,0,0,.566.547,4.449,4.449,0,0,1,.566.547,2.9,2.9,0,0,1,.215.332q.1.176.215.371a2.368,2.368,0,0,0,.547.469,3.307,3.307,0,0,1,.586.469,4.932,4.932,0,0,1,.586.625,1.367,1.367,0,0,1,.391.7.481.481,0,0,1-.078.273,2.554,2.554,0,0,0-.156.273,1.185,1.185,0,0,0-.039.352.812.812,0,0,1-.039.313,2.338,2.338,0,0,0-.43.391.612.612,0,0,1-.117.156.919.919,0,0,1-.293.254.563.563,0,0,0-.254.293.319.319,0,0,0-.059.234.454.454,0,0,1-.059.273,2.55,2.55,0,0,1-.625.82,4.63,4.63,0,0,0-.742.859l-.859,1.406a11.968,11.968,0,0,1-.977,1.367q-.234.313-.488.605t-.488.605a4.2,4.2,0,0,0-.352.488q-.156.254-.352.566-.43.547-.82,1.074t-.82,1.074q-.469.664-1.016,1.309a12.633,12.633,0,0,0-.977,1.309,12.467,12.467,0,0,1-.9,1.289,13.749,13.749,0,0,1-1.016,1.133,3.9,3.9,0,0,0-.391.352.675.675,0,0,1-.469.234.315.315,0,0,1-.254-.117.36.36,0,0,0-.293-.117,1.948,1.948,0,0,0-.234.039q-.2.039-.469.078l-.7.078a2.074,2.074,0,0,1-.9.293,2.564,2.564,0,0,0-.547.02.656.656,0,0,0-.254.117.336.336,0,0,1-.215.078.482.482,0,0,1-.43-.254A.442.442,0,0,0,170.43,40.469Zm11.719-16.875q0-.2-.371-.547t-.566-.508a4.3,4.3,0,0,0-.645-.449,2.314,2.314,0,0,1-.605-.488q-.2-.234-.371-.488t-.371-.488q-.7-.781-1.426-1.562a9.776,9.776,0,0,1-1.27-1.719,4.356,4.356,0,0,1-.664-.547,2.5,2.5,0,0,0-.742-.508,1.23,1.23,0,0,0-.059.488q.02.254.02.488,0,.9-.078,1.758t-.078,1.719q0,2.109.1,4.16t.1,4.121q0,.781.02,1.563a12.655,12.655,0,0,0,.137,1.563,1.369,1.369,0,0,0-.078.43,2.2,2.2,0,0,0,.078.508,1.889,1.889,0,0,0,.527-.488q.215-.293.41-.566.664-.859,1.309-1.738t1.309-1.777q.43-.586.879-1.152t.879-1.191q.117-.156.371-.547t.508-.8q.254-.41.469-.762A1.259,1.259,0,0,0,182.148,23.594Z" transform="translate(-13.789 -9.866)" fill="#d22d43"/>
</svg>
