<?xml version="1.0" encoding="utf-8"?>
<!-- Generator: Adobe Illustrator 22.0.1, SVG Export Plug-In . SVG Version: 6.00 Build 0)  -->
<svg version="1.1" id="Layer_1" xmlns="http://www.w3.org/2000/svg" xmlns:xlink="http://www.w3.org/1999/xlink" x="0px" y="0px"
	 viewBox="0 0 149.7 149.7" style="enable-background:new 0 0 149.7 149.7;" xml:space="preserve">
<style type="text/css">
	.st0{fill:#099094;}
	.st1{fill:#FFFFFF;}
</style>
<g>
	<g>
		<path id="XMLID_21_" class="st0" d="M147.5,75.3c0-39.7-32.1-71.8-71.8-71.8C36,3.5,3.9,35.7,3.9,75.3c0,39.7,32.1,71.8,71.8,71.8
			C115.3,147.2,147.5,115,147.5,75.3z"/>
		<path id="XMLID_19_" class="st1" d="M82,58.3v-6.8c0-3.3,2.2-4.1,3.8-4.1c1.6,0,9.5,0,9.5,0V32.9l-13.1-0.1
			c-14.6,0-17.9,10.9-17.9,17.8v7.7h-8.4v17h8.5c0,19.3,0,42.5,0,42.5h17c0,0,0-23.5,0-42.5H94l1.6-17H82z"/>
	</g>
</g>
</svg>
