<svg height="512" viewBox="0 0 512 512" width="512" xmlns="http://www.w3.org/2000/svg"><g id="flat"><path d="m232 32h48v56h-48z" fill="#ffb401"/><path d="m221.478 109.912 10.522 42.088h48l10.522-42.088z" fill="#ffb401"/><path d="m216 24h80a0 0 0 0 1 0 0v8a24 24 0 0 1 -24 24h-32a24 24 0 0 1 -24-24v-8a0 0 0 0 1 0 0z" fill="#ffcc4d"/><rect fill="#ffcc4d" height="32" rx="16" width="80" x="216" y="88"/><path d="m232 152h48v336h-48z" fill="#ffc431"/><path d="m232 288h-144l-64-56 64-56h144z" fill="#548aff"/><path d="m104 224h16v16h-16z" fill="#4976f2"/><path d="m136 224h48v16h-48z" fill="#4976f2"/><path d="m280 352h144l64-56-64-56h-144z" fill="#ef5e3b"/><path d="m360 288h48v16h-48z" fill="#e04f2b"/><path d="m320 288h24v16h-24z" fill="#e04f2b"/><path d="m232 432h-104l-64-56 64-56h104z" fill="#f78e00"/><g fill="#e67a00"><path d="m136 368h16v16h-16z"/><path d="m168 368h32v16h-32z"/></g></g></svg>