<?xml version="1.0" encoding="utf-8"?>
<!-- Generator: Adobe Illustrator 22.0.1, SVG Export Plug-In . SVG Version: 6.00 Build 0)  -->
<svg version="1.1" id="Layer_1" xmlns="http://www.w3.org/2000/svg" xmlns:xlink="http://www.w3.org/1999/xlink" x="0px" y="0px"
	 viewBox="0 0 149.7 149.7" style="enable-background:new 0 0 149.7 149.7;" xml:space="preserve">
<style type="text/css">
	.st0{fill:#099094;}
	.st1{fill:none;stroke:#FFFFFF;stroke-miterlimit:10;}
	.st2{fill:#FFFFFF;}
</style>
<g>
	<g>
		<path class="st0" d="M75.7,2.7C36,2.7,3.8,34.9,3.8,74.6c0,39.7,32.2,71.9,71.9,71.9c39.7,0,71.9-32.2,71.9-71.9
			C147.6,34.9,115.4,2.7,75.7,2.7z"/>
		<g>
			<path class="st1" d="M55.1,109.5L55.1,109.5L55.1,109.5L55.1,109.5z M96.3,36.6L96.3,36.6L96.3,36.6L96.3,36.6z"/>
			<g>
				<path class="st2" d="M75.7,100.3c14.2,0,25.7-11.5,25.7-25.7c0-14.2-11.5-25.7-25.7-25.7C61.5,48.9,50,60.4,50,74.6
					C50,88.7,61.5,100.3,75.7,100.3z M56.2,74.6c0-10.7,8.7-19.5,19.4-19.5s19.4,8.7,19.4,19.5c0,10.7-8.7,19.4-19.4,19.4
					S56.2,85.3,56.2,74.6z"/>
			</g>
			<path class="st2" d="M101.3,117.2H50.1c-9.6,0-17.4-7.8-17.4-17.4V49.4c0-9.6,7.8-17.4,17.4-17.4h51.2c9.6,0,17.4,7.8,17.4,17.4
				v50.4C118.7,109.4,110.9,117.2,101.3,117.2z M50.1,38.3c-6.1,0-11.1,5-11.1,11.1v50.4c0,6.1,5,11.1,11.1,11.1h51.2
				c6.1,0,11.1-5,11.1-11.1V49.4c0-6.1-5-11.1-11.1-11.1H50.1z"/>
		</g>
		<path class="st2" d="M101.7,46c-2.2,0-4.1,1.8-4.1,4.1c0,2.2,1.8,4,4.1,4c2.2,0,4.1-1.8,4.1-4C105.8,47.8,103.9,46,101.7,46z"/>
	</g>
</g>
</svg>
