<svg height="512" viewBox="0 0 64 64" width="512" xmlns="http://www.w3.org/2000/svg"><g id="book_store-shop-building-bookshop" data-name="book store-shop-building-bookshop"><path d="m5 26h54v31h-54z" fill="#5bcbfa"/><path d="m3 57h58v4h-58z" fill="#acabb1"/><path d="m11 34h25v16h-25z" fill="#2488ff"/><path d="m28 22h8a0 0 0 0 1 0 0v4a4 4 0 0 1 -4 4 4 4 0 0 1 -4-4v-4a0 0 0 0 1 0 0z" fill="#f8d251"/><path d="m20 22h8a0 0 0 0 1 0 0v4a4 4 0 0 1 -4 4 4 4 0 0 1 -4-4v-4a0 0 0 0 1 0 0z" fill="#e8702e"/><path d="m12 22h8a0 0 0 0 1 0 0v4a4 4 0 0 1 -4 4 4 4 0 0 1 -4-4v-4a0 0 0 0 1 0 0z" fill="#f8d251"/><path d="m4 22h8a0 0 0 0 1 0 0v4a4 4 0 0 1 -4 4 4 4 0 0 1 -4-4v-4a0 0 0 0 1 0 0z" fill="#e8702e"/><path d="m52 22h8a0 0 0 0 1 0 0v4a4 4 0 0 1 -4 4 4 4 0 0 1 -4-4v-4a0 0 0 0 1 0 0z" fill="#e8702e"/><path d="m44 22h8a0 0 0 0 1 0 0v4a4 4 0 0 1 -4 4 4 4 0 0 1 -4-4v-4a0 0 0 0 1 0 0z" fill="#f8d251"/><path d="m36 22h8a0 0 0 0 1 0 0v4a4 4 0 0 1 -4 4 4 4 0 0 1 -4-4v-4a0 0 0 0 1 0 0z" fill="#e8702e"/><path d="m5 17h11v5h-11z" fill="#e9e9ea"/><path d="m47 17h12v5h-12z" fill="#e9e9ea"/><path d="m42 34h11v23h-11z" fill="#787680"/><path d="m16 6h32v19h-32z" fill="#5bcbfa"/><path d="m20 3h8a4 4 0 0 1 4 4v14a0 0 0 0 1 0 0h-12a0 0 0 0 1 0 0v-18a0 0 0 0 1 0 0z" fill="#f7d4aa"/><path d="m32 3h12a0 0 0 0 1 0 0v14a4 4 0 0 1 -4 4h-8a0 0 0 0 1 0 0v-18a0 0 0 0 1 0 0z" fill="#f6c08e" transform="matrix(-1 0 0 -1 76 24)"/><path d="m61 56h-1v-27.03a4.939 4.939 0 0 0 1-2.97v-4a1 1 0 0 0 -1-1v-4a1 1 0 0 0 -1-1h-10v-10a1 1 0 0 0 -1-1h-3v-2a1 1 0 0 0 -1-1h-8a4.994 4.994 0 0 0 -4 2.03 4.994 4.994 0 0 0 -4-2.03h-8a1 1 0 0 0 -1 1v2h-3a1 1 0 0 0 -1 1v10h-10a1 1 0 0 0 -1 1v4a1 1 0 0 0 -1 1v4a4.939 4.939 0 0 0 1 2.97v27.03h-1a1 1 0 0 0 -1 1v4a1 1 0 0 0 1 1h58a1 1 0 0 0 1-1v-4a1 1 0 0 0 -1-1zm-8-23h-11a1 1 0 0 0 -1 1v22h-35v-25.42a4.941 4.941 0 0 0 2 .42 4.994 4.994 0 0 0 4-2.03 5.079 5.079 0 0 0 .47.57 4.975 4.975 0 0 0 7.53-.57 4.956 4.956 0 0 0 8 0 4.956 4.956 0 0 0 8 0 4.956 4.956 0 0 0 8 0 4.956 4.956 0 0 0 8 0 4.994 4.994 0 0 0 4 2.03 4.941 4.941 0 0 0 2-.42v25.42h-4v-22a1 1 0 0 0 -1-1zm-1 2v21h-9v-21zm-31-9h6a3 3 0 0 1 -6 0zm8 0h6a3 3 0 0 1 -6 0zm8 0h6a3 3 0 0 1 -6 0zm19 3a3.009 3.009 0 0 1 -3-3v-3h6v3a3.009 3.009 0 0 1 -3 3zm-7-11h9v3h-9zm0 7v-2h2v3a3 3 0 0 1 -6 0h3a1 1 0 0 0 1-1zm-16-18a3.009 3.009 0 0 1 3-3h7v16h-10zm-12-3h7a3.009 3.009 0 0 1 3 3v13h-10zm-4 3h2v14a1 1 0 0 0 1 1h24a1 1 0 0 0 1-1v-14h2v17h-30zm-1 19h3a3 3 0 1 1 -6 0v-3h2v2a1 1 0 0 0 1 1zm-10-8h9v3h-9zm-1 5h6v3a3 3 0 0 1 -6 0zm55 37h-56v-2h56z"/><path d="m36 33h-25a1 1 0 0 0 -1 1v16a1 1 0 0 0 1 1h25a1 1 0 0 0 1-1v-16a1 1 0 0 0 -1-1zm-1 16h-23v-14h23z"/><path d="m44 43h2v2h-2z"/><path d="m23 7h6v2h-6z"/><path d="m23 11h6v2h-6z"/><path d="m23 15h6v2h-6z"/><path d="m35 7h6v2h-6z"/><path d="m35 11h6v2h-6z"/><path d="m35 15h6v2h-6z"/></g></svg>