<svg id="Layer_1" enable-background="new 0 0 512 512" height="512" viewBox="0 0 512 512" width="512" xmlns="http://www.w3.org/2000/svg"><g id="XMLID_1987_"><path id="XMLID_1315_" d="m183.287 311.343-38.977 145.464-106.487-106.487z" fill="#ffcd69"/><path id="XMLID_1309_" d="m328.854 272.339-38.976 145.463-106.487-106.487z" fill="#ff7d97"/><path id="XMLID_1306_" d="m474.422 233.334-38.977 145.464-106.487-106.487z" fill="#8aa8bd"/><path id="XMLID_1199_" d="m180.722 55.193-75.297 130.419-75.298-130.419z" fill="#8aa8bd"/><path id="XMLID_1198_" d="m331.425 55.193-75.298 130.419-75.298-130.419z" fill="#ff7d97"/><path id="XMLID_1197_" d="m482.127 55.193-75.298 130.419-75.297-130.419z" fill="#ffcd69"/><g id="XMLID_325_"><path id="XMLID_407_" d="m10 65.193h14.353l72.411 125.419c1.786 3.094 5.088 5 8.66 5s6.874-1.906 8.66-5l66.691-115.512 66.691 115.512c1.786 3.094 5.088 5 8.66 5s6.874-1.906 8.66-5l66.693-115.512 66.69 115.512c1.786 3.094 5.088 5 8.66 5s6.874-1.906 8.66-5l72.411-125.419h14.1c5.522 0 10-4.477 10-10s-4.478-10-10-10h-492c-5.522 0-10 4.477-10 10s4.478 10 10 10zm95.425 100.419-57.978-100.419h115.954zm150.702 0-57.978-100.419h115.955zm150.702 0-57.976-100.419h115.954z"/><path id="XMLID_494_" d="m499.408 216.286-491.992 131.829c-5.335 1.429-8.501 6.913-7.071 12.248 1.197 4.468 5.237 7.414 9.653 7.414.856 0 1.728-.111 2.594-.343l22.243-5.96 102.405 102.405c1.9 1.9 4.454 2.929 7.072 2.929.862 0 1.731-.111 2.587-.341 3.451-.925 6.146-3.62 7.071-7.071l34.521-128.837 8.589 8.589c3.906 3.905 10.236 3.905 14.143 0 3.905-3.905 3.905-10.237 0-14.143l-8.514-8.513 112.003-30.011-30.011 112.003-9.843-9.843c-3.906-3.905-10.236-3.905-14.143 0-3.905 3.905-3.905 10.237 0 14.142l22.091 22.09c1.9 1.9 4.454 2.929 7.072 2.929.862 0 1.731-.111 2.587-.341 3.451-.925 6.146-3.62 7.071-7.071l34.521-128.837 94.315 94.315c1.9 1.9 4.454 2.929 7.072 2.929.862 0 1.731-.111 2.587-.341 3.451-.925 6.146-3.62 7.071-7.071l37.482-139.887 21.997-5.894c5.335-1.429 8.501-6.913 7.071-12.248-1.426-5.333-6.912-8.501-12.244-7.07zm-360.274 221.203-81.992-81.992 112.004-30.011zm321.145-190.013-30.011 112.003-81.992-81.992z"/><path id="XMLID_496_" d="m235.97 353.89c-2.64 0-5.21 1.07-7.07 2.93-1.859 1.86-2.93 4.44-2.93 7.07s1.07 5.21 2.93 7.07 4.431 2.93 7.07 2.93c2.63 0 5.21-1.07 7.07-2.93 1.859-1.86 2.93-4.44 2.93-7.07s-1.07-5.21-2.93-7.07-4.44-2.93-7.07-2.93z"/></g></g></svg>