<?xml version="1.0" encoding="utf-8"?>
<!-- Generator: Adobe Illustrator 22.0.1, SVG Export Plug-In . SVG Version: 6.00 Build 0)  -->
<svg version="1.1" id="Layer_1" xmlns="http://www.w3.org/2000/svg" xmlns:xlink="http://www.w3.org/1999/xlink" x="0px" y="0px"
	 viewBox="0 0 1296 1728" style="enable-background:new 0 0 1296 1728;" xml:space="preserve">
<style type="text/css">
	.st0{fill:#FF0050;}
</style>
<g>
	<path class="st0" d="M1012.2,606.5c23.6-129.4,62.7-222.3,93.9-279.9c12.2-22.5-12.7-47.5-34.8-34.6
		C810.1,444.2,695.7,666.2,681.4,844.2c-12.3,153.5,92.5,311.7,251.2,340.5c158.8,28.8,310.8-76.6,339.6-235.3
		C1302.4,782.9,1185.1,623,1012.2,606.5z"/>
	<path class="st0" d="M360.8,606.5c23.6-129.4,62.7-222.3,93.9-279.9c12.2-22.5-12.7-47.5-34.8-34.6
		C158.7,444.2,44.2,666.2,30,844.2c-12.3,153.5,92.5,311.7,251.2,340.5c158.8,28.8,310.8-76.6,339.6-235.3
		C651,782.9,533.7,623,360.8,606.5z"/>
</g>
</svg>
