<?xml version="1.0" encoding="utf-8"?>
<!-- Generator: Adobe Illustrator 22.0.1, SVG Export Plug-In . SVG Version: 6.00 Build 0)  -->
<svg version="1.1" xmlns="http://www.w3.org/2000/svg" xmlns:xlink="http://www.w3.org/1999/xlink" x="0px" y="0px"
	 viewBox="0 0 500 500" style="enable-background:new 0 0 500 500;" xml:space="preserve">
<style type="text/css">
	.st0{fill:#FFFFFF;}
	.st1{fill:#EDF2F6;}
	.st2{fill:#D3E5DE;}
	.st3{fill:#BFD9BF;}
	.st4{fill:#853A37;}
	.st5{fill:#6E312E;}
	.st6{fill:#F5E3D5;}
	.st7{fill:#F8ECDF;}
	.st8{fill:#717C88;}
	.st9{fill:#8A99AB;}
	.st10{fill:#A1B2C4;}
	.st11{fill:#ADBFD3;}
	.st12{fill:#6B8591;}
	.st13{fill:#AAB8BA;}
	.st14{fill:#B9C9AF;}
	.st15{fill:#CF6741;}
	.st16{fill:#E9C0AD;}
	.st17{fill:#252643;}
	.st18{fill:#D6E8EB;}
	.st19{fill:#DC9580;}
	.st20{fill:#662C28;}
	.st21{fill:#D16D71;}
	.st22{fill:#F8E8C7;}
	.st23{fill:#FFFCE8;}
	.st24{fill:#F7DB58;}
	.st25{fill:#D4785F;}
	.st26{fill:#E0A288;}
	.st27{fill:#E8B551;}
	.st28{fill:#833734;}
	.st29{fill:#A85A5D;}
	.st30{fill:#DA8E80;}
	.st31{fill:#C5B9AE;}
	.st32{fill:#A14343;}
	.st33{fill:#D98A5D;}
	.st34{fill:#313460;}
	.st35{fill:#90A885;}
	.st36{fill:#ECC485;}
</style>
<g id="BACKGROUND">
	<rect class="st0" width="500" height="500"/>
</g>
<g id="OBJECTS">
	<polygon class="st1" points="438.8,52.5 344.5,52.5 338.5,52.5 338.5,123 344.5,123 438.8,123 444.7,123 444.7,52.5 	"/>
	<g>
		<ellipse class="st1" cx="242.5" cy="390.5" rx="214.3" ry="70"/>
		<ellipse class="st2" cx="244.3" cy="385" rx="214.3" ry="70"/>
		<path class="st3" d="M97.3,361.9c-16.5,5.5-25.4,14.2-23.5,25.2c1.8,11,22.9,7.2,29.4,10.4c6.4,3.2,19.4,19.9,29.5,21.2
			c10.1,1.4,8.3,5,15.6,10.5c7.3,5.5,41.3,18.8,59.2,17c17.9-1.8,26.1-10.5,34.9-19.7c8.7-9.2,10.5-17,28.9-18.8
			c18.3-1.8,63.9-3.5,88.2-10.9c24.3-7.3,38.8-11.6,50.3-25.4c11.5-13.8,8.7-19.4,3.4-23.9c-5.3-4.5-117.6-3.6-136.4-4.5
			C257.8,342.2,97.3,361.9,97.3,361.9z"/>
		<ellipse class="st3" cx="425.7" cy="390.2" rx="29.7" ry="8.6"/>
		<path class="st0" d="M66.8,352.2c-0.6-0.4-1.4-0.4-2.2-0.6c-0.4-0.1-0.7-0.2-1.1-0.2c-0.4,0-0.7,0-1.1,0.1
			c-0.3,0.1-0.2,0.4-0.1,0.5c0.1,0.1,0.3,0.2,0.5,0.3c0.1,0.1,0.3,0.1,0.4,0.2c0.4,0.2,0.7,0.2,1.1,0.3c0.3,0.1,0.7,0.2,1,0.2
			c0.4,0.1,0.8,0.2,1.2,0.1C67,353.1,67.2,352.5,66.8,352.2z"/>
		<path class="st0" d="M56.1,362.6c0,0-0.3-0.1-0.1,0c-0.2-0.1-0.3-0.1-0.5-0.1c-0.1,0-0.2,0-0.3,0c0,0,0,0,0,0c0,0-0.1,0-0.1,0
			c-0.3-0.1-0.7-0.2-1-0.2c-0.3-0.1-0.7-0.1-1-0.2c-0.2,0-0.3-0.1-0.5-0.1c-0.2,0-0.4-0.1-0.6,0c0,0,0,0-0.1,0
			c-0.2-0.1-0.5,0.2-0.3,0.4c0,0,0.1,0,0.1,0.1c0,0.2,0.1,0.4,0.3,0.5c0.2,0.2,0.3,0.3,0.5,0.4c0.3,0.2,0.7,0.4,1.1,0.6
			c0.3,0.1,0.7,0.2,1.1,0.2c0.2,0,0.5,0.1,0.7,0.1c0.2,0,0.5-0.1,0.7-0.2C56.7,363.7,56.7,362.9,56.1,362.6z"/>
		<path class="st0" d="M49.6,379c-0.2,0-0.4,0-0.6,0c-0.2,0-0.4,0-0.6,0c-0.4,0-0.8,0-1.2,0c-0.4,0-0.8,0-1.2,0c-0.2,0-0.4,0-0.6,0
			c-0.3,0-0.4,0-0.6,0.1c0,0-0.1,0-0.1,0c-0.3,0-0.4,0.3-0.2,0.5c0,0,0,0.1,0.1,0.1c0.2,0.5,0.8,0.7,1.3,0.9c0.5,0.2,1,0.2,1.5,0.2
			c0.5,0,1,0,1.5-0.2c0.2-0.1,0.5-0.2,0.7-0.3c0.2-0.1,0.4-0.3,0.5-0.5C50.2,379.5,50,379,49.6,379z"/>
		<path class="st0" d="M65.1,403.7c-0.5,0.2-1,0.2-1.5,0.4c-0.2,0.1-0.4,0.1-0.7,0.2c-0.3,0.1-0.5,0.2-0.7,0.3
			c-0.3,0.1-0.7,0.2-1,0.3c-0.1,0-0.2,0.1-0.3,0.1c0,0-0.4,0.2-0.2,0.1c-0.3,0.1-0.6,0.3-0.9,0.4c-0.3,0.2-0.6,0.4-0.7,0.7
			c0,0-0.1,0-0.1,0.1c-0.2,0.1-0.1,0.4,0.1,0.5c0,0,0.1,0,0.1,0c0.2,0.3,0.5,0.5,0.9,0.5c0.3,0.1,0.7,0.1,1,0.1c0.3,0,0.7-0.1,1-0.1
			c0.3-0.1,0.7-0.3,1-0.4c0.3-0.1,0.6-0.3,0.9-0.5c0.2-0.2,0.4-0.4,0.6-0.5c0.4-0.4,0.6-0.9,1-1.4C65.8,404.1,65.5,403.6,65.1,403.7
			z"/>
		<path class="st0" d="M105.9,421.4C105.9,421.4,105.9,421.4,105.9,421.4c-0.3,0-0.5,0-0.7,0c-0.1,0-0.2,0-0.3,0.1
			c-0.2,0.1-0.4,0.1-0.6,0.2c-0.5,0.2-0.9,0.5-1.4,0.8c-0.4,0.3-0.8,0.6-1.2,1c-0.2,0.2-0.4,0.5-0.6,0.7c-0.5,0.7-0.2,1.6,0.5,2.1
			c0.5,0.3,1,0.3,1.5,0c0.3-0.2,0.5-0.3,0.8-0.5c0.2-0.1,0.3-0.3,0.5-0.4l-0.3,0.2c0.5-0.4,1-0.8,1.4-1.2c0.2-0.2,0.3-0.3,0.5-0.5
			c0.1-0.1,0.1-0.2,0.2-0.3c0.2-0.2,0.4-0.5,0.4-0.8C107,422.1,106.7,421.4,105.9,421.4z"/>
		<path class="st0" d="M161.9,437.8c-0.3-0.1-0.7,0-1,0.1c-0.4,0.1-0.8,0.3-1.1,0.6c-0.4,0.4-0.8,0.8-1,1.3
			c-0.1,0.3-0.2,0.5-0.3,0.8c-0.1,0.2-0.1,0.3-0.2,0.5c0,0.2-0.1,0.4-0.1,0.7c0,0.3,0,0.5,0,0.8c0,0.3,0.1,0.5,0.2,0.7
			c0.2,0.7,1.1,1,1.6,0.4c0.1-0.1,0.3-0.3,0.4-0.4c0.2-0.2,0.4-0.5,0.5-0.7c0.1-0.1,0.2-0.3,0.3-0.4c0.1-0.2,0.2-0.3,0.3-0.5
			c0.2-0.3,0.4-0.6,0.5-0.9c0.1-0.1,0.2-0.3,0.2-0.4c0.1-0.3,0.2-0.5,0.2-0.8C162.7,438.9,162.7,438,161.9,437.8z"/>
		<path class="st0" d="M226.3,447.5c0-0.2-0.1-0.4-0.2-0.6c-0.1-0.2-0.2-0.4-0.4-0.5c-0.1-0.1-0.2-0.2-0.4-0.2
			c0.2,0.1,0.3,0.1,0.2,0.1c-0.3-0.2-0.6-0.1-0.9,0c0,0,0,0,0.1,0l-0.1,0.1c0,0,0,0,0,0c0,0,0,0,0,0c0,0-0.1,0-0.1,0.1
			c-0.2,0.1-0.4,0.3-0.5,0.5c-0.1,0.2-0.2,0.5-0.3,0.8c-0.1,0.3-0.2,0.7-0.2,1c0,0.1,0,0.2,0,0.3c-0.1,0.4-0.1,0.5,0,0.9
			c0,0.2,0.1,0.3,0.1,0.5c0,0.2,0.1,0.3,0.1,0.5c0.2,0.5,0.6,0.9,1.2,0.9c0.5,0,0.9-0.3,1.1-0.7c0.1-0.2,0.2-0.5,0.3-0.7
			c0.1-0.2,0.1-0.3,0.2-0.5c0.1-0.3,0.1-0.6,0.1-0.9C226.4,448.4,226.4,447.9,226.3,447.5z"/>
		<g>
			<path class="st0" d="M278.3,447.7C278.3,447.8,278.3,447.8,278.3,447.7C278.3,447.8,278.3,447.8,278.3,447.7
				C278.3,447.7,278.3,447.7,278.3,447.7z"/>
			<path class="st0" d="M278.3,447.7c0-0.2,0-0.5,0-0.7c0-0.5-0.2-0.8-0.3-1.2c-0.2-0.6-0.4-1.2-0.5-1.8c0,0,0-0.1-0.1-0.3
				c0,0,0-0.1,0-0.1c0-0.1,0-0.2,0-0.2c0-0.1,0-0.3,0-0.4c0-0.2,0-0.4-0.1-0.5c0,0,0-0.1,0-0.1c0-0.1-0.1-0.1-0.1-0.2
				c0-0.4-0.4-0.6-0.8-0.5c-0.2,0-0.3,0-0.5,0.1c0,0-0.2,0.1-0.2,0.1c0.2-0.1,0.2-0.1,0,0c-0.2,0.1-0.3,0.1-0.4,0.3
				c0,0-0.1,0.1-0.1,0.1c-0.2,0.3-0.4,0.6-0.6,0.9c-0.4,0.7-0.6,1.4-0.6,2.2c0,0.8,0.3,1.6,0.6,2.3c0.3,0.6,0.8,1,1.5,1.2
				c0.1,0,0.2,0.1,0.3,0.1c0.2,0.1,0.4,0.1,0.6,0c0.1,0,0.2,0,0.3,0C278,449,278.4,448.4,278.3,447.7
				C278.3,447.7,278.3,447.8,278.3,447.7C278.3,447.7,278.3,447.7,278.3,447.7C278.3,447.7,278.3,447.7,278.3,447.7
				C278.3,447.7,278.3,447.7,278.3,447.7z"/>
		</g>
		<path class="st0" d="M321.1,439.1C321.1,439.1,321,439.1,321.1,439.1c-0.1-0.3-0.3-0.4-0.4-0.6c-0.1-0.1-0.2-0.3-0.3-0.4
			c-0.1-0.2-0.3-0.4-0.5-0.6c-0.1-0.2-0.3-0.4-0.4-0.7c-0.2-0.3-0.3-0.5-0.5-0.8c0,0.1,0.1,0.2,0.1,0.3c-0.1-0.2-0.2-0.5-0.4-0.7
			c0,0-0.1-0.1-0.1-0.1c-0.1-0.2-0.5-0.3-0.7-0.3c-0.3,0-0.5,0.1-0.7,0.3c-0.3,0.2-0.5,0.5-0.5,0.9c-0.1,0.3-0.1,0.6-0.1,0.9
			c0,0.3,0.1,0.6,0.2,0.9c0.1,0.4,0.3,0.7,0.6,1c0.2,0.2,0.3,0.4,0.5,0.6c0.2,0.2,0.5,0.4,0.8,0.5c0.1,0,0.2,0.1,0.3,0.1
			c0.6,0.1,1.5,0.2,2-0.3c0,0,0.1,0,0.1,0C321.2,439.9,321.4,439.3,321.1,439.1z"/>
		<path class="st0" d="M366.2,431c0-0.3-0.1-0.5-0.2-0.8c-0.1-0.3-0.3-0.6-0.4-0.9c0-0.1-0.1-0.1-0.1-0.2c-0.1-0.2-0.2-0.4-0.3-0.6
			c-0.1-0.2-0.3-0.3-0.4-0.5c-0.2-0.3-0.5-0.5-0.7-0.8c-0.3-0.2-0.5-0.5-0.8-0.7c-0.1-0.1-0.1-0.1-0.2-0.2c-0.1-0.1-0.2-0.2-0.3-0.2
			c-0.1,0-0.1,0-0.2-0.1c0,0-0.3-0.1-0.3-0.1c-0.2-0.1-0.4-0.1-0.6-0.1c-0.2,0-0.4,0-0.6,0.2c-0.1,0.1-0.2,0.2-0.2,0.3
			c-0.2,0.3-0.3,0.8-0.2,1.2c0,0.3,0.2,0.6,0.3,0.9c0.2,0.6,0.5,1.2,0.8,1.7c0.1,0.1,0.1,0.2,0.2,0.3c0.3,0.3,0.4,0.6,0.8,0.8
			c0.2,0.1,0.4,0.3,0.6,0.4c0.5,0.3,1.3,0.8,1.9,0.6c0.1,0,0.1,0,0.2,0c0.3,0,0.5-0.3,0.5-0.5c0-0.1,0-0.1,0-0.2
			C366.2,431.3,366.2,431.3,366.2,431z"/>
		<path class="st0" d="M406.2,420.5c-0.1-0.1-0.2-0.1-0.4-0.2c-0.1-0.1-0.2-0.1-0.3-0.2c0,0,0,0,0,0c0,0,0,0,0,0
			c-0.3-0.2-0.7-0.3-1.1-0.5c0,0,0,0,0,0c-0.1-0.1-0.2-0.1-0.4-0.2c-0.2-0.1-0.3-0.1-0.5-0.2c0,0,0,0,0,0c-0.1,0-0.1-0.1-0.1-0.1
			c-0.2-0.1-0.3-0.1-0.4-0.2c-0.3-0.2-0.5-0.3-0.8-0.5c-0.1-0.1-0.3-0.2-0.4-0.3c-0.1,0-0.1-0.1-0.2-0.1c0,0,0,0-0.1-0.1
			c0.1,0.1-0.1-0.1-0.1-0.1c-0.1-0.1-0.3-0.2-0.4-0.3c-0.1-0.1-0.3-0.1-0.4-0.2c-0.1-0.1-0.2-0.1-0.4-0.2c0,0,0,0-0.1,0
			c-0.1-0.1-0.4-0.1-0.4-0.1c-0.2,0-0.3,0-0.4,0.2c-0.2,0.4-0.2,0.7-0.2,1.1c0.1,0.4,0.2,0.7,0.4,1.1c0.2,0.4,0.5,0.7,0.8,1
			c0.3,0.3,0.7,0.6,1.1,0.8c0.8,0.4,1.6,0.8,2.5,0.9c0.8,0.1,1.6-0.1,2.3-0.6C406.6,421.4,406.7,420.7,406.2,420.5z"/>
		<g>
			<path class="st0" d="M434.5,407C434.5,407,434.5,407,434.5,407C434.4,407,434.4,407,434.5,407C434.4,407,434.4,407,434.5,407
				C434.4,407,434.4,407,434.5,407z"/>
			<path class="st0" d="M434.7,407.1c-0.1,0-0.1-0.1-0.2-0.1c0,0,0.1,0.1,0.1,0.1c0-0.1-0.1-0.1-0.1-0.2c-0.1,0-0.1-0.1,0,0
				c0,0,0,0,0,0c-0.2-0.2-0.4-0.3-0.6-0.4c0,0,0,0-0.1,0c0,0,0,0,0,0c-0.3-0.1-0.6-0.3-0.9-0.4c-0.1,0-0.2-0.1-0.3-0.1
				c0,0-0.1,0-0.1,0c-0.3-0.1-0.6-0.3-0.9-0.4c0,0-0.1,0-0.1,0c-0.1,0-0.2-0.1-0.2-0.1c-0.1,0-0.2-0.1-0.3-0.1c0,0,0,0,0,0
				c-0.1-0.1-0.2-0.1-0.3-0.2c-0.3-0.1-0.5-0.3-0.8-0.4c-0.1-0.1-0.3-0.1-0.5-0.1c0,0-0.1-0.1-0.1-0.1c-0.2-0.2-0.6,0.1-0.6,0.3
				c0,0.1,0,0.1,0,0.2c-0.1,0.2-0.1,0.4,0,0.7c0,0.3,0.1,0.6,0.3,0.9c0.2,0.3,0.4,0.6,0.6,0.8c0.5,0.5,1.1,0.9,1.8,1.1
				c0.2,0.1,0.5,0.1,0.8,0.2c0.4,0.1,0.6,0.1,1,0c0.1,0,0.2,0,0.3-0.1c0.3-0.1,0.7-0.2,0.9-0.4c0.1-0.1,0.2-0.2,0.2-0.2c0,0,0,0,0,0
				c0.1-0.1,0.2-0.2,0.2-0.2C435,407.7,435,407.3,434.7,407.1z"/>
		</g>
	</g>
	<g>
		<path class="st4" d="M113.6,157.2c0,11.2,0,22.4,0,33.6c0,2.8,2.9,2.8,2.9,0c0-11.2,0-22.4,0-33.6
			C116.5,154.3,113.6,154.3,113.6,157.2z"/>
		<path class="st5" d="M120.1,191.2c-0.2-0.4-0.3-0.8-0.5-1.1c-0.3-0.6-0.7-1-1.2-1.3c-0.3-0.3-0.6-0.5-1-0.6
			c-0.6-0.3-1.2-0.4-1.8-0.4c-0.4,0.1-0.8,0.1-1.3,0.2c-0.7,0.2-1.3,0.5-1.8,1c-0.1,0.1-0.2,0.2-0.3,0.3c0,0,0,0,0,0c0,0,0,0,0,0
			c-0.2,0.2-0.3,0.3-0.5,0.5c-0.4,0.5-0.7,1-0.9,1.6c-0.2,0.8-0.2,1.8,0,2.6c0,0,0,0,0,0c0,0,0,0,0,0c0.1,0.4,0.2,0.8,0.5,1.1
			c0.4,0.7,1,1.3,1.7,1.7c0,0,0,0,0,0c1.1,0.5,1.3,0.5,2.4,0.7c0.9,0,1.7-0.2,2.4-0.7c0.7-0.4,1.3-1,1.7-1.7c0-0.1,0.1-0.1,0.1-0.2
			c0.3-0.5,0.5-1.1,0.6-1.8C120.4,192.5,120.3,191.8,120.1,191.2z"/>
		<rect x="79.8" y="118.2" class="st4" width="9.7" height="156.9"/>
		<path class="st5" d="M79.8,164.7c3.2,2.4,6.5,4.8,9.7,7.1v-26.2c-3.3-0.3-6.7,0.4-9.6,2c0,0,0,0-0.1,0V164.7z"/>
		<polygon class="st6" points="131.7,163 37.6,163 57.6,80.7 111.7,80.7 		"/>
		<path class="st7" d="M111.7,80.7H57.6l-20,82.2h4.1c8.3-24.7,15.7-49.7,22.1-75c14,0.2,28,0.4,42,0.5
			c8.4,24.5,11.6,50.8,21.8,74.4h4.1L111.7,80.7z"/>
	</g>
	<g>
		<path class="st8" d="M342.6,166.6c23.8,4.6,39.6,13.6,44,40.9c4.4,27.3,3.5,49.1,3.5,49.1s-22.9,1.6-24.3,1.4
			c-1.4-0.2-6.3-13.6-9.4-17.3C353.4,237,342.6,166.6,342.6,166.6z"/>
		<path class="st9" d="M183.5,168.8c0,0,137.7-17.4,169.9,2.4s22.9,106.1,22.9,106.1s-104.5,7.6-107.1,8.3
			c-2.6,0.6-91.1,4.9-91.1,4.9L183.5,168.8z"/>
		<path class="st10" d="M352.8,244c19.6-3.5,43.4-3.7,53.1,0.7c17.4,7.8,2.9,107.5,0.2,114.6c-2.7,7.1-40.6,32.4-54.1,34.1
			c-13.5,1.7-9.5-49.5-9.5-49.5s13.9-44,14.3-47.7C357.2,292.4,352.8,244,352.8,244z"/>
		<path class="st10" d="M90.3,251.2c20-3.2,52.3-4.6,59.9-1.8c7.6,2.8,2.7,31.6,1.3,33.9s-17.9,29.8-19.2,28.9
			c-1.3-0.9-18.7-0.9-20.6-3.7c-1.9-2.8-13.6-13.5-14.3-16.1C96.8,289.9,90.3,251.2,90.3,251.2z"/>
		<path class="st11" d="M90.3,251.2c-22.1,4-22.9,38-21,67.9c1.9,29.8,4,62.4,13.4,69.2c9.4,6.9,24.6,5,29.5-1.8
			C117.2,379.6,118.5,246.1,90.3,251.2z"/>
		<path class="st9" d="M107.3,338.3c0,0-3.6,42.2,6.3,52.7c9.8,10.5,202.1,11.5,214.6-1.4c12.5-12.8,8.5-50.4,8.5-50.4
			s-17.4-9.6-20.6-9.6c-3.1,0-30.4,0-32.6,0.9S107.3,338.3,107.3,338.3z"/>
		<path class="st10" d="M324.6,335.1c1.1-24.7,30-48.2,13.9-58.2c-16.1-10.1-216.4,16.5-225.8,27.5c-9.4,11-13.4,31.2-5.4,38.5
			c8,7.3,184.6,6.4,198.1,5.5C318.8,347.5,324.2,345.2,324.6,335.1z"/>
		<path class="st11" d="M332.6,264.5c8.7-22.5,25.9-28.4,38.9-7.8s0.9,114.2-4.9,126.6c-5.8,12.4-37.6,16.5-42.5,5
			C319.2,376.8,323.3,288.8,332.6,264.5z"/>
		<path class="st9" d="M352.4,261.7c-7.9-0.4-10.8,20.6-2,20.6C359.2,282.3,363.1,262.2,352.4,261.7z"/>
		<path class="st9" d="M89.2,266.3c-7.9,0.3-9.2,21.4-0.4,20.7C97.5,286.3,100,266,89.2,266.3z"/>
		<path class="st9" d="M93.5,255.6c-0.2,0-0.4-0.1-0.7-0.1c-0.2,0-0.5,0.1-0.7,0.2c-0.5,0.2-1,0.6-1.3,0.9c-0.7,0.7-1.3,1.7-1.6,2.7
			c-0.4,0.9-0.6,1.9-0.6,2.9c0,0.5,0.1,1,0.2,1.4c0.1,0.4,0.5,0.9,0.9,1c0,0,0,0,0,0c0.1,0.1,0.3,0.1,0.3-0.1c0,0,0,0,0,0
			c0.2-0.2,0.4-0.7,0.4-0.9c0-0.4,0-0.8,0-1.2c0-0.7,0.2-1.6,0.5-2.2c0.4-0.8,0.7-1.3,1.3-1.9c0.3-0.3,0.6-0.6,0.9-0.9
			c0.2-0.2,0.2-0.3,0.4-0.5c0.1-0.1,0.2-0.3,0.2-0.4l0-0.2c0,0.1,0,0.1,0,0C93.9,256,93.8,255.7,93.5,255.6z"/>
		<path class="st9" d="M99.8,263c-0.1-0.1-0.2-0.2-0.3-0.2c-0.2-0.1-0.4-0.1-0.6-0.1c-0.3,0-0.7,0.2-1,0.3c-0.4,0.2-0.8,0.4-1.1,0.7
			c-0.4,0.3-0.8,0.7-1.1,1.2c-0.1,0.1-0.1,0.2-0.2,0.3c-0.1,0.2-0.2,0.4-0.2,0.6c0,0.2,0,0.4,0,0.7c0.1,0.2,0.3,0.4,0.6,0.3
			c0.2-0.1,0.4-0.2,0.5-0.3c0.2-0.1,0.4-0.3,0.5-0.5c0.1-0.1,0.3-0.3,0.4-0.4c0,0,0.1-0.1,0.1-0.1c0,0,0,0,0,0
			c0.1-0.1,0.2-0.1,0.2-0.2c0,0,0.2-0.2,0.1-0.1c-0.1,0.1,0,0,0,0c0,0,0.1-0.1,0.1-0.1c0.1-0.1,0.2-0.1,0.2-0.2
			c0.2-0.1,0.4-0.2,0.5-0.3c0,0,0,0,0,0c0,0,0.1,0,0.1,0c0.2-0.1,0.3-0.1,0.5-0.2c0.1-0.1,0.2-0.2,0.3-0.3c0.1-0.1,0.2-0.2,0.2-0.3
			c0,0,0,0,0,0c0,0,0,0,0,0c0,0,0,0,0,0c0,0,0,0,0,0C100,263.5,100,263.2,99.8,263z"/>
		<path class="st9" d="M82.7,266.9c0-0.1-0.1-0.3-0.2-0.4c0-0.1-0.1-0.1-0.2-0.2c-0.1-0.1-0.2-0.3-0.3-0.4c-0.1-0.2-0.2-0.4-0.4-0.6
			c-0.1-0.1-0.2-0.2-0.4-0.4c-0.2-0.2-0.4-0.3-0.7-0.4c-0.1,0-0.2-0.1-0.4-0.1c-0.2-0.1-0.4,0.1-0.4,0.2c-0.1,0.4-0.2,0.8-0.1,1.2
			c0.1,0.2,0.1,0.3,0.2,0.5c0.1,0.3,0.2,0.4,0.4,0.7c0.1,0.2,0.3,0.4,0.5,0.6c0.2,0.2,0.3,0.3,0.5,0.5c0.3,0.2,0.8,0.5,1.2,0.4
			c0,0,0.1,0,0.1,0c0.2,0,0.3-0.1,0.3-0.3c0-0.1,0-0.1,0-0.2C83,267.6,82.8,267.2,82.7,266.9z"/>
		<path class="st9" d="M81.2,278.7C81.1,278.7,81.1,278.7,81.2,278.7c-0.2-0.1-0.3-0.2-0.4-0.3c-0.2-0.1-0.4-0.1-0.6-0.2
			c-0.4,0-0.8,0-1.2,0c-0.4,0.1-0.7,0.2-1.1,0.4c-0.3,0.2-0.7,0.3-0.9,0.6c-0.2,0.2-0.1,0.4,0.2,0.5c0.3,0,0.7-0.1,1-0.1
			c0.2,0,0.3,0,0.5,0c0.1,0,0.4-0.1,0.5-0.1c0.4-0.1,0.7-0.1,1.1-0.2c0.2,0,0.3-0.1,0.5-0.1c0.2-0.1,0.3-0.1,0.4-0.2c0,0,0,0,0,0
			C81.3,279,81.3,278.7,81.2,278.7z"/>
		<path class="st9" d="M82.6,286.3c-0.1-0.1-0.2-0.2-0.4-0.3c-0.3,0-0.5,0-0.7,0.1c-0.2,0.1-0.3,0.2-0.4,0.3
			c-0.2,0.2-0.4,0.5-0.6,0.8c-0.4,0.5-0.6,1.2-0.8,1.8c-0.2,0.6-0.4,1.3-0.4,1.9c0,0.6,0.1,1.4,0.5,1.8c0.2,0.2,0.5,0.2,0.7,0
			c0.2-0.2,0.3-0.4,0.5-0.7c0.1-0.1,0.1-0.3,0.2-0.4c0-0.1,0.1-0.2,0.1-0.3c0,0,0,0,0,0c0,0,0,0,0,0c0.2-0.3,0.3-0.7,0.3-1
			c0.1-0.3,0.2-0.6,0.2-0.9c0.1-0.3,0.2-0.5,0.3-0.8c0,0,0-0.1,0.1-0.1c0,0,0,0,0-0.1c0-0.1,0.1-0.1,0.1-0.2
			c0.1-0.2,0.1-0.3,0.1-0.5c0-0.1,0.1-0.3,0.1-0.4c0-0.1,0-0.4,0.1-0.4C82.8,286.8,82.8,286.6,82.6,286.3z"/>
		<path class="st9" d="M93.9,296c-0.1-0.3-0.3-0.6-0.4-0.9c-0.1-0.1-0.2-0.2-0.3-0.3c0,0,0,0,0,0c-0.1-0.1-0.2-0.2-0.2-0.3
			c-0.2-0.2-0.3-0.5-0.5-0.7c-0.3-0.5-0.5-1-0.8-1.5c0,0,0,0,0-0.1c0-0.1-0.1-0.2-0.1-0.2c-0.1-0.2-0.1-0.3-0.2-0.5
			c-0.1-0.3-0.3-0.5-0.5-0.8c-0.2-0.2-0.4-0.3-0.6-0.3c-0.2,0-0.5,0.2-0.5,0.5c-0.1,0.3-0.1,0.6,0,1c0,0.4,0.1,0.7,0.2,1
			c0.2,0.6,0.5,1.3,0.8,1.8c0.3,0.6,0.6,1.1,1,1.6c0.2,0.3,0.5,0.6,0.9,0.8c0.3,0.2,0.7,0.4,1,0.4c0.3,0,0.6-0.3,0.6-0.6
			C94.1,296.6,94,296.3,93.9,296z"/>
		<path class="st9" d="M102.2,286.2c-0.1-0.1-0.2-0.2-0.3-0.3c-0.1-0.1-0.2-0.2-0.4-0.3c-0.1-0.1-0.3-0.2-0.4-0.3
			c-0.3-0.2-0.6-0.4-0.9-0.5c-0.2-0.1-0.4-0.2-0.6-0.2c-0.2-0.1-0.3-0.1-0.5-0.2c-0.1,0-0.3-0.1-0.4-0.1c-0.1,0-0.2,0-0.3-0.1
			c0.1,0,0,0-0.1,0c0,0-0.1,0-0.1-0.1c-0.1-0.1-0.3,0.1-0.2,0.2c0,0,0,0.1,0.1,0.1c0,0,0.1,0.1,0,0.1c0,0,0,0.1,0,0.1
			c0,0,0,0.1,0.1,0.1c0.1,0.2,0.1,0.3,0.2,0.5c0.1,0.1,0.2,0.3,0.3,0.4c0.1,0.2,0.3,0.4,0.4,0.6c0.2,0.2,0.4,0.3,0.6,0.4
			c0.1,0.1,0.3,0.2,0.4,0.3c0.2,0.1,0.3,0.2,0.5,0.2c0.1,0.1,0.3,0.1,0.4,0.2c0.1,0,0.3,0,0.5,0c0.3,0,0.6-0.1,0.7-0.4
			C102.4,286.8,102.4,286.5,102.2,286.2z"/>
		<path class="st9" d="M103.4,277.8c-0.1-0.1-0.1-0.2-0.2-0.3c-0.1-0.1-0.2-0.2-0.4-0.2c-0.1-0.1-0.2-0.1-0.3-0.1
			c-0.1,0-0.2,0-0.3,0l-0.4,0c-0.2,0-0.3,0-0.5,0c-0.1,0-0.2,0-0.3,0.1c-0.2,0-0.4,0.1-0.7,0.1c-0.1,0-0.2,0.2-0.1,0.3
			c0.2,0.1,0.4,0.2,0.6,0.4c0.1,0.1,0.2,0.1,0.3,0.2c0.1,0.1,0.3,0.1,0.4,0.2c0.3,0.1,0.6,0.2,0.9,0.2c0.1,0,0.3,0,0.5,0
			c0.1,0,0.2-0.1,0.3-0.2C103.4,278.1,103.5,278,103.4,277.8z"/>
		<path class="st9" d="M342.8,268c-0.4-0.2-0.7-0.3-1.1-0.4c-0.2,0-0.5,0-0.7,0c-0.5,0-1,0-1.4,0c-0.6,0-1.1,0.1-1.7,0.2
			c-0.4,0.1-0.7,0.2-1.1,0.5c-0.3,0.3-0.5,0.6-0.5,1c0,0.5,0.3,0.8,0.7,1c0.3,0.2,0.7,0.3,1.1,0.3c0.5,0,0.9-0.1,1.4-0.1
			c0.5,0,1-0.1,1.4-0.1c0.2,0,0.4,0,0.7,0c0.3,0,0.6-0.1,0.8-0.2c0.1-0.1,0.2-0.1,0.3-0.2C343.6,269.6,343.5,268.4,342.8,268z"/>
		<path class="st9" d="M346,261.5c-0.2-0.2-0.4-0.4-0.6-0.5c-0.3-0.2-0.5-0.4-0.9-0.5c-0.3-0.1-0.5-0.2-0.8-0.2c-0.1,0-0.2,0-0.3,0
			c-0.2,0-0.3,0-0.5,0.1c-0.1,0-0.2,0.1-0.3,0.1c-0.2,0.1-0.2,0.3-0.2,0.4c0.1,0.2,0.2,0.5,0.3,0.7c0.1,0.1,0.1,0.2,0.2,0.3
			c0.1,0.2,0.3,0.4,0.5,0.5c0.2,0.2,0.4,0.3,0.7,0.5c0.2,0.1,0.4,0.2,0.6,0.3c0.3,0.2,0.6,0.2,0.9,0.1c0,0,0,0,0,0
			c0.2,0,0.4-0.1,0.5-0.2c0.1-0.1,0.2-0.3,0.2-0.5c0-0.1,0-0.1,0-0.2C346.4,262.1,346.2,261.7,346,261.5z"/>
		<path class="st9" d="M353.6,251.3c0-0.5-0.1-1-0.3-1.5c-0.2-0.5-0.4-0.7-0.8-0.9c-0.2-0.1-0.4-0.1-0.5,0.1
			c-0.4,0.4-0.5,0.5-0.6,1.1c-0.1,0.5-0.1,1-0.1,1.5c0,0.9,0.1,1.8,0.1,2.7c0.1,0.9,0.1,1.8,0.1,2.7c0,0.9-0.1,2.1,0.4,2.9
			c0.3,0.4,0.9,0.6,1.2,0.2c0.6-0.8,0.6-1.9,0.6-2.9c0-1,0-2,0-2.9C353.7,253.2,353.7,252.3,353.6,251.3z"/>
		<g>
			<path class="st9" d="M360.2,261.2C360.2,261.1,360.2,261.1,360.2,261.2C360.2,261.1,360.2,261.1,360.2,261.2
				C360.2,261.2,360.2,261.2,360.2,261.2z"/>
			<path class="st9" d="M361.3,258.1c-0.2,0-0.4,0-0.6,0.1c-0.3,0.1-0.5,0.3-0.7,0.5c-0.3,0.3-0.6,0.6-0.9,1c-0.2,0.3-0.4,0.6-0.5,1
				c-0.1,0.3-0.1,0.5-0.1,0.8c0,0.1,0,0.3,0,0.4c0,0,0,0.1,0.1,0.1c0,0,0,0,0,0c-0.1,0.2,0.3,0.4,0.4,0.2c0,0,0,0,0,0
				c0,0,0.1,0,0.1,0c0.1,0,0.2-0.1,0.3-0.2c0,0,0.1,0,0.1-0.1c-0.1,0.1,0,0,0,0c0.1-0.1,0.3-0.2,0.4-0.3c0.1-0.1,0.1-0.2,0.2-0.3
				c0,0,0.1-0.1,0.1-0.1c0,0,0,0,0,0c0,0,0,0,0,0c0,0,0,0,0,0c0-0.1,0,0,0,0c0.1-0.1,0.2-0.3,0.3-0.4c0.1-0.1,0.2-0.2,0.2-0.3
				c0,0,0,0,0,0c0,0,0.1-0.1,0.1-0.1c0.1-0.1,0.2-0.3,0.4-0.4c0.2-0.2,0.4-0.3,0.5-0.5c0.1-0.2,0.1-0.4,0.2-0.6
				C362,258.5,361.7,258.1,361.3,258.1z"/>
		</g>
		<path class="st9" d="M368.3,269.8c-0.6-0.4-1.5-0.4-2.2-0.4c-0.6,0-1.2,0-1.9,0c-0.7,0-1.4,0.1-2,0.2c-0.3,0.1-0.6,0.2-0.9,0.3
			c-0.4,0.2-0.6,0.4-0.8,0.7c-0.1,0.2,0,0.5,0.2,0.6c0.3,0.2,0.5,0.3,0.9,0.3c0.3,0,0.6,0,0.9,0.1c0.6,0,1.2-0.1,1.8-0.1
			c0.6,0,1.2,0,1.8,0.1c0.1,0,0.3,0,0.4,0c0.1,0,0.2,0,0.3,0c0.1,0,0.2,0,0.1,0c0.4,0.1,0.8,0.1,1.2,0
			C368.9,271.3,369,270.3,368.3,269.8z"/>
		<path class="st9" d="M363.4,281.7c-0.1-0.2-0.1-0.4-0.3-0.5c-0.1-0.1-0.3-0.2-0.4-0.3c-0.3-0.3-0.7-0.4-1.1-0.6
			c-0.2-0.1-0.5-0.2-0.7-0.3c-0.2-0.1-0.4-0.1-0.6-0.2c-0.2-0.1-0.5-0.2-0.7-0.2c-0.2,0-0.4,0-0.6,0.1c-0.2,0-0.3,0.2-0.2,0.4
			c0.1,0.2,0.1,0.3,0.2,0.5c0.1,0.2,0.3,0.3,0.5,0.5c0.4,0.3,0.7,0.6,1.1,0.9c0.2,0.1,0.4,0.2,0.5,0.3c0.2,0.1,0.5,0.3,0.7,0.4
			c0.1,0,0.2,0.1,0.3,0.1c0.2,0.1,0.4,0,0.6,0c0.2-0.1,0.5-0.1,0.6-0.4C363.6,282.2,363.5,281.9,363.4,281.7z"/>
		<path class="st9" d="M352.8,289.1c-0.1-0.7-0.2-1.3-0.4-1.9c-0.1-0.3-0.2-0.6-0.3-0.9c-0.1-0.3-0.3-0.6-0.5-0.8
			c-0.2-0.3-0.7-0.1-0.8,0.2c-0.2,0.6-0.1,1.2-0.1,1.8c0,0.6,0,1.3,0,1.9c0,0.6,0,1.2,0,1.8c0.1,0.7,0.1,1.5,0.7,1.9c0,0,0,0,0,0.1
			c0.1,0.2,0.5,0.3,0.7,0.1c0.1-0.1,0.3-0.2,0.4-0.3c0.1-0.1,0.2-0.3,0.3-0.4c0.2-0.4,0.2-0.8,0.2-1.3
			C353.1,290.5,352.9,289.8,352.8,289.1z"/>
		<path class="st9" d="M344.1,281c-0.2,0-0.3,0.1-0.5,0.1c-0.2,0.1-0.4,0.2-0.6,0.3c-0.4,0.2-0.7,0.6-1,0.9
			c-0.3,0.3-0.5,0.6-0.8,0.9c-0.3,0.3-0.6,0.7-0.9,1c-0.3,0.5-0.6,1.2-0.3,1.7c0.2,0.4,0.7,0.5,1.1,0.4c0.2-0.1,0.4-0.2,0.6-0.3
			c0.2-0.2,0.4-0.3,0.6-0.5c0.1-0.2,0.3-0.3,0.4-0.5c0.3-0.3,0.6-0.7,0.9-1.1c0.2-0.3,0.5-0.6,0.7-1c0.1-0.2,0.3-0.6,0.3-0.8
			c0-0.2,0-0.4,0-0.6C344.9,281.2,344.5,280.9,344.1,281z"/>
		<path class="st9" d="M341.4,274.7c-0.2,0-0.4,0.1-0.6,0.1c-0.2,0.1-0.4,0.2-0.6,0.3c-0.2,0.1-0.4,0.2-0.6,0.3
			c-0.2,0.1-0.4,0.3-0.6,0.5c-0.3,0.3-0.7,0.5-1,0.8c-0.2,0.2-0.3,0.4-0.4,0.6c-0.1,0.2-0.2,0.4-0.2,0.6c0,0.2,0.1,0.3,0.3,0.4
			c0.1,0,0.2,0.1,0.3,0c0.1,0,0.2-0.1,0.3-0.1c0.2-0.1,0.5-0.2,0.7-0.3c0.4-0.3,0.7-0.6,1.1-0.9c0.2-0.1,0.3-0.3,0.5-0.4
			c0.2-0.1,0.3-0.3,0.4-0.5c0.2-0.2,0.3-0.3,0.5-0.5c0.1-0.2,0.2-0.4,0.3-0.6C341.8,274.9,341.7,274.7,341.4,274.7z"/>
	</g>
	<g>
		<rect x="340.1" y="47.8" class="st12" width="100.3" height="70.5"/>
		<rect x="334.2" y="47.8" class="st13" width="100.3" height="70.5"/>
		<rect x="341.8" y="53.8" class="st0" width="85" height="58.4"/>
		<rect x="355.4" y="63.7" class="st14" width="57.9" height="38.7"/>
		<g>
			<path class="st0" d="M374.6,71.4c-6.4,0-11.5,5.2-11.5,11.5s5.2,11.5,11.5,11.5c0.4,0,0.8,0,1.2-0.1V71.4
				C375.4,71.4,375,71.4,374.6,71.4z"/>
			<path class="st0" d="M375.8,67.9v3.5c5.8,0.6,10.3,5.5,10.3,11.5c0,6-4.5,10.9-10.3,11.5v3.3h29.7V67.9H375.8z"/>
			<path class="st14" d="M386.1,82.9c0-6-4.5-10.9-10.3-11.5v22.9C381.6,93.8,386.1,88.8,386.1,82.9z"/>
		</g>
	</g>
	<g>
		<path class="st15" d="M178.6,100.9c-42-2-37,38.8-35.8,52s-5.2,27.2-1.8,41.6c3.4,14.4,66-7,66-7s-3.1-23.8-3.7-42.8
			C202.8,125.7,204.9,102.1,178.6,100.9z"/>
		<path class="st16" d="M153.1,360.3c0,0-0.9,18.2-0.8,24.3c0.2,6.1-0.5,8.9-2,12.7c-1.5,3.8-8.6,12.3-8.6,14.3c0,2,2.6,2.3,3.8,1.8
			c0,0,2,1.5,4.1,0.3c0,0,1.1,0.6,2.9,0c0,0,1.1,1.1,3.5-0.8c2.4-1.8,4.9-10.6,7.1-13.7c2.1-3.1,2-4.6,1.1-9
			c-0.9-4.4,2.1-27.1,2.3-33.2c0.2-6.1-6.9-0.9-7.5-0.6C158.5,356.8,153.1,360.3,153.1,360.3z"/>
		<path class="st16" d="M126.3,357.6c0,0-0.9,18.2-0.8,24.3c0.2,6.1-0.5,8.9-2,12.7c-1.5,3.8-7.2,11-7.2,13c0,2,1.6,1.7,2.8,1.2
			c0,0,0.9,1.9,3.1,0.7c0,0,1,1.4,2.8,0.8c0,0,2.5,2.1,5-0.5c2.1-2.2,4.2-10.1,6.4-13.2s2-4.6,1.1-9s2.1-27.1,2.3-33.2
			c0.2-6.1-6.9-0.9-7.5-0.6C131.6,354,126.3,357.6,126.3,357.6z"/>
		<path class="st17" d="M190.9,295.8c-0.5,0.6-9,16.4-13,26c-4,9.6-8.9,30.4-10.5,42c0,0-10.4,2-16.2-2.1c0,0-0.2-23.5,2.8-38.8
			c2.9-15.3,9-31.6,9-31.6s-12.7,15.9-17.6,28.1c-4.9,12.2-4.9,44-4.9,44s-11.8,2.3-16.5-1.8c0,0-3.8-45.1,1.4-61
			c5.2-15.9,16.8-27.4,16.8-27.4l23.4,3.5l23.1,4.9L190.9,295.8z"/>
		<path class="st18" d="M155.6,177.1c-9.4,2.5-17,9.4-19.9,17.7c-3,8.3-0.9,29.1-0.9,29.1s3,0.6,7.8,0.5l9.1,11.1
			c0,0-5,29.4-15.5,37.1c0,0,18.2,24.8,53.8,13s20-82.9,20-82.9l-3.5-25.4l-10.2-3.5c0,0-18.4,3.7-19.2,3.8
			C176.2,177.6,155.6,177.1,155.6,177.1z"/>
		<path class="st16" d="M142.5,224.3c0,0,5.3,18.8,10.5,26.1s28.9,12.6,28.9,12.6s2.9-13.6,1.8-13.7c-1.1-0.1-12.1-5.1-17.2-9.7
			c-5-4.6-8-18.3-8-18.3S150.3,224.8,142.5,224.3z"/>
		<path class="st16" d="M170,158.5c0,0,0,9.6-2.5,12.8c-2.5,3.2-11.9,5.7-11.9,5.7s8.5,11.9,22.2,8.9c13.8-3,18.3-12.4,18.3-12.4
			s-7.1-2.1-9.2-4.1c-2.1-2.1-3.2-12.4-3.2-12.4L170,158.5z"/>
		<path class="st19" d="M210.8,397c0,0,0.9,16.1-0.7,21.6c-1.6,5.5-6.2,8.5-11.5,10.8s-9.6,5.3-5.5,7.8c0,0,0.9,2.3,3.9,2.5
			c0,0,1.6,1.1,4.6,0.9c0,0,2.5,0.5,4.8,0.7c2.3,0.2,9.6-1.4,14.4-5c4.8-3.7,6.4-6.4,7.1-8.7c0.7-2.3-1.1-22.2,2.1-33.9
			C233.3,381.9,212.7,391.3,210.8,397z"/>
		<path class="st19" d="M173.7,385.1c0,0,0.9,16.1-0.7,21.6s-5.5,7.9-10.8,10.2s-8.8,4.7-4.7,7.2c0,0,0.1,2.5,3.1,2.8
			c0,0,0.6,1.4,3.6,1.1c0,0,2.2,2.5,4.5,2.8c2.3,0.2,10.3-2.8,15.1-6.4c4.8-3.7,6.4-6.4,7.1-8.7s-1.1-22.2,2.1-33.9
			C196.1,369.9,175.5,379.3,173.7,385.1z"/>
		<path class="st4" d="M317.4,275.2c0,0,3.4,17.9-15.1,29.1c-18.6,11.2-35.1,14.7-44,24.1c-8.9,9.4-25,61.7-26.8,72
			c0,0-17.9,1.4-24.3-3.4c0,0,2.5-61.5,16.5-85.3c0,0-17,21.3-22.9,43.6c-6,22.2-6.9,39.4-6.9,39.4s-17.4,4.1-22.9-1.6
			c0,0,5.3-58.9,14.4-80.9c9.2-22,23.8-30.3,23.8-30.3l36.5-16.1c0,0,38.3,1.4,39.7,1.1C286.7,266.8,317.4,275.2,317.4,275.2z"/>
		<path class="st19" d="M338.5,221.8c0,0,1.4,4.6,1.8,9.6c0.5,5-10.1,12.2-11.5,12.4c-1.4,0.2-12.4,2.1-14,0.7
			c-1.6-1.4-4.8-7.3-5.7-10.3c-0.9-3,2.5-9.6,3.7-10.8C314,222.3,338.5,221.8,338.5,221.8z"/>
		<path class="st6" d="M290.2,166.6c14,3.2,25,6.9,31.2,11.9c6.2,5,22.7,38.3,23.8,43.8c0,0-19.9,9.4-28.9,10.8
			c0,0,6.4,27.5,6.6,41.3c0,0-21.3,11-39.7,6.4c-18.3-4.6-35.8-5.5-42.4-1.6c-6.6,3.9-10.5-32.1-10.5-32.1l5.7-51.8l3.7-12.4
			c0,0,12.6-11.5,26.6-14C280.3,166.3,290.2,166.6,290.2,166.6z"/>
		<path class="st19" d="M265.9,153.3c0,0,1.6,8.3,0.5,15.6c0,0,10.3,7.1,23.8-2.3c0,0-4.8-22.5-7.1-27.5
			C280.8,134,265.9,153.3,265.9,153.3z"/>
		<path class="st20" d="M258,153.2c0,0-14.4-0.5-18.6-22.5c-4.2-22,5.6-42.6,34.1-37.4c0,0,14.4-4.6,23.4,11.7
			c9,16.3,3.2,40.4-12.8,46.3c-16,6-21.6-5.5-21.6-5.5L258,153.2z"/>
		<path class="st20" d="M214.8,157.3c-21.9,2.7-21.6,25.5-21.7,33.5c0,8.1-6.3,16.2-0.8,21.7c5.5,5.5,15.1,7.5,29.7,5.9
			c14.6-1.6,26.8-9.5,28.9-15.7c2-6.1-7.5-15.7-7.9-26.7C242.5,165,227.7,155.7,214.8,157.3z"/>
		<path class="st16" d="M217.8,300.1c-0.6,0.6-1.1,1.3-1.5,2.1c-2.9,5.8-2.1,12-0.8,18.1c0.8,4.1,1.5,9.6,3.8,13.3
			c1.7,2.6-1.7,13.5-0.2,14.7c1.5,1.2,3.4-0.2,3.4-0.2s1.2,0.2,2.2,0c0,0,1.7,0.3,2.7-0.3c0,0,1.3,0.5,1.8-1.1
			c0.5-1.5,0.7-10.9-0.7-13c-1.3-2.1-0.8-10.2-0.5-19.6c0.3-9.3,10.7-12.1,13-20.3c2.3-8.3-9.2-2.3-10.5-2.1
			c-2.1,0.2-4.8,2.7-6.5,3.9C222,296.9,219.6,298.2,217.8,300.1z"/>
		<path class="st16" d="M195.7,292c-0.8,0.4-1.5,0.8-2.2,1.4c-4.8,4.3-6.3,10.4-7.4,16.6c-0.7,4.1-2.2,9.5-1.3,13.7
			c0.6,3-6.6,11.9-5.6,13.6c0.8,1.3,1.7,0.7,1.7,0.7s1.2,1.4,2.4,1.1c0,0,1,0.6,2.2,0.4c0,0,2.6,2,3.7,0c0.8-1.4,4.6-9.8,4.2-12.3
			c-0.5-2.5,3-9.8,6.8-18.4c3.8-8.5,14.4-7.3,19.6-14.1c5.2-6.8-7.7-5.5-9-5.9c-2-0.5-5.4,0.8-7.4,1.2
			C200.8,290.6,198,290.9,195.7,292z"/>
		<path class="st21" d="M231.6,216.9c9.2,3.3,18.6,10.9,22.5,20.3c3.9,9.4,1.8,20.1-0.1,22.5c-1.9,2.4-9.4,3.1-11.2,3.4
			c-1.8,0.3,0.3,5,0.3,5s1.1,8.5,0.9,8.9c-0.2,0.5,2.8,9.9,2,16.9c0,0-10.7,12.8-31.7,10.4c-21-2.4-30-12.5-30-12.5
			s9.1-20.6,10.7-30.2c1.6-9.5-2.3-19.7-2.9-19.5c-0.6,0.2-8-10.7-7.7-10.5c0.3,0.1,9.9-15.1,21.4-14.9
			C217.4,217,231.6,216.9,231.6,216.9z"/>
		<path class="st16" d="M213.3,203.8c0,0-1.1,8.6-2.9,10.7c-1.7,2.1-4.7,2.3-4.7,2.3s3.2,8.3,12.6,8.3c9.4,0,13.2-8.1,13.2-8.1
			s-3.7-1.3-5.2-3.1c-1.5-1.8-2.2-10-2.2-10H213.3z"/>
		<polygon class="st22" points="203.9,237.4 236.6,227.1 237.3,235.5 		"/>
		<path class="st23" d="M172.6,229.8l4.6-5.6c0,0,25,12.6,26.7,13.2c1.7,0.6,32.8-7.5,34.2-7.3c1.4,0.1,3.2,6.5,3.2,6.5
			c-0.2,0.7-24,14.4-25,14.4c-1,0-10.3,0.5-14.6,0.7c-4.2,0.2-16.9-6.9-19.6-8.8C179.4,241,172.6,229.8,172.6,229.8z"/>
		<path class="st24" d="M169.5,226.8l10.4,48c0,0,22.3,12.7,28,13c8.1,0.5,39.7-10.5,39.7-10.5l-4.6-44.9c0,0-31.3,9.8-37.3,9.8
			C199.8,242.1,169.5,226.8,169.5,226.8z"/>
		<path class="st16" d="M173.2,247.7c-5,3.2-0.8,11.3,2.5,11.7c3.3,0.4,4.5,0.4,5.8,0.1s1.5-1.2,0.9-1.8c0,0,1.6-0.5,1.5-1.3
			c-0.1-0.8-0.3-1.3-0.3-1.3s1.3-0.4,1.3-1.6c0-1.2-0.7-1.6-0.7-1.6s0.6-1.3-0.4-2.4c-1-1.1-6.1-0.7-6.1-0.7s2.6-2.6,1.7-3.4
			C178.5,244.4,175.1,246.5,173.2,247.7z"/>
		<path class="st16" d="M247.9,250.3c5,3.2,0.8,11.3-2.5,11.7s-4.5,0.4-5.8,0.1c-1.3-0.3-1.5-1.2-0.9-1.8c0,0-1.6-0.5-1.5-1.3
			c0.1-0.8,0.3-1.3,0.3-1.3s-1.3-0.4-1.3-1.6c0-1.2,0.7-1.6,0.7-1.6s-0.6-1.3,0.4-2.4c1-1.1,6.1-0.7,6.1-0.7s-2.6-2.6-1.7-3.4
			C242.5,246.9,246,249,247.9,250.3z"/>
		<path class="st19" d="M340.4,231.4c0,0-53.2,16.2-57.2,16.5c-4,0.3-11.5,0-15.1,0.8c-3.7,0.8-12.4,7.8-13.8,9.2
			c-1.4,1.4-1.7,4.1-1.7,4.1s-1.3,2.2,0.6,3.8c0,0-0.7,1.8,0.6,3.1c1.4,1.2,3.5,0.8,6.7-0.8c3.2-1.5,13.5-5.4,16.7-6
			c3.2-0.6,10.7,0.8,16.5,0c5.8-0.8,25.7-4.7,35.9-10.1C339.9,246.7,342.2,236.8,340.4,231.4z"/>
		<path class="st25" d="M284.3,142.7c-1.9-0.2-3.9,0.1-5.7,0.9l-12.2,14c0.1,1.1,0.2,2.3,0.3,3.6c2.3,1.8,5.1,3,8,3.4
			c3.8,0.6,7.6,0,11.2-1.3c1.1-0.4,2.2-0.8,3.2-1.4C287.9,156.5,285.9,147.9,284.3,142.7z"/>
		<path class="st19" d="M286.1,127.3c0,0,6-0.9,7,3.9c0.9,4.8-2.3,7.8-4.9,8.7c0,0,2,17.9-14.7,21.3c-15.7,3.2-24.9-19.5-24.7-32.6
			c0,0,19.3-7.3,25.3-15.6C274,113.1,277.5,123,286.1,127.3z"/>
		<path class="st19" d="M290.4,129.4c-0.4-0.1-0.8-0.1-1.1,0c-0.8,0.3-1.3,1-1.6,1.7c-0.3,0.8-0.4,1.6-0.4,2.4
			c0.1,0.8,0.3,1.8,1,2.3c0.4,0.3,1.1,0.4,1.5,0.2c0.6-0.3,0.8-1.1,0.4-1.6c-0.2-0.2-0.6-0.3-0.9-0.1c-0.1,0.1-0.2,0.2-0.3,0.3
			c0,0-0.1-0.1-0.1-0.1c-0.1-0.1-0.1-0.2-0.2-0.3c-0.2-0.6-0.3-1.3-0.2-2c0.1-0.6,0.3-1.2,0.8-1.6c0.2-0.1,0.4-0.2,0.6-0.1
			c0.2,0,0.3,0.1,0.5,0.1c0.2,0,0.5-0.1,0.5-0.3C291.2,129.9,290.8,129.5,290.4,129.4z"/>
		<path class="st25" d="M288.9,131.8c0-0.1,0-0.2,0.1-0.3c0.1-0.3,0.3-0.7,0.6-1c0.2-0.3,0.5-0.3,0.8-0.2c0.3,0.1,0.6-0.2,0.5-0.5
			c-0.2-0.6-0.9-0.8-1.5-0.6c-0.6,0.2-0.9,0.7-1.3,1.2c-0.6,1-0.8,2.1-0.7,3.2c0.1,0.5,0.2,1.1,0.5,1.5c0.4,0.6,1.2,0.9,1.9,0.5
			c0.7-0.4,0.9-1.1,0.9-1.8c0-0.6-0.1-1.3-0.6-1.7C289.8,131.7,289.3,131.7,288.9,131.8z"/>
		<path class="st25" d="M263.2,256.1c-0.9,0.2-1.8,0.6-2.7,1c-0.9,0.5-1.7,0.9-2.6,1.5c-0.8,0.5-1.6,1.1-2.4,1.6
			c-0.7,0.6-1.6,1.1-2.1,1.9c-0.1,0.1,0.1,0.2,0.1,0.1c0.8-0.4,1.5-1.1,2.3-1.6c0.8-0.6,1.6-1.1,2.4-1.6c0.8-0.5,1.6-1,2.4-1.4
			c0.8-0.5,1.7-0.9,2.5-1.4C263.3,256.2,263.3,256.1,263.2,256.1z"/>
		<path class="st25" d="M264.2,261.2c-0.9,0.1-1.7,0.3-2.6,0.6c-0.8,0.3-1.6,0.6-2.4,1c-0.8,0.4-1.6,0.8-2.3,1.3
			c-0.7,0.4-1.6,0.9-2.2,1.5c-0.1,0.1-0.1,0.2-0.1,0.2c0,0,0,0,0,0.1c0,0,0,0,0,0c0,0.1,0.2,0.1,0.2,0.1c0.8-0.3,1.6-0.8,2.4-1.2
			c0.7-0.4,1.5-0.8,2.3-1.2c0.8-0.4,1.6-0.7,2.4-1c0.8-0.3,1.5-0.7,2.3-1C264.4,261.3,264.4,261.1,264.2,261.2z"/>
		<path class="st26" d="M226.4,213.8c-1.5-1.8-2.2-10-2.2-10h-5.7l-5.8,3.9c-0.2,1-0.4,2-0.7,3c3.5,3.8,9.4,5.4,14.3,3.6
			c0.2-0.1,0.3-0.1,0.4-0.2C226.6,214,226.5,213.9,226.4,213.8z"/>
		<path class="st16" d="M231.4,187.4c0,0,4.8-1,5.2,2.6s-1.6,6.1-3.5,6.3c0,0-1.8,13.8-15.6,15.2c-13.8,1.4-17-23.2-17-23.2
			s11.9-6.7,14.1-15.9C214.6,172.4,221.9,183.2,231.4,187.4z"/>
		<path class="st26" d="M234.8,191.2c-0.3-0.3-0.8-0.4-1.2-0.1c0-0.1,0-0.3,0-0.4c0.1-0.4,0.4-0.8,0.8-0.8c0.2,0,0.4-0.3,0.1-0.4
			c-0.3-0.2-0.6-0.1-0.9,0c-0.3,0.2-0.5,0.5-0.6,0.8c-0.1,0.3-0.2,0.7-0.2,1.1c0,0.3,0,0.7,0.1,1.1c0.1,0.3,0.3,0.7,0.6,0.9
			c0.3,0.2,0.7,0.2,1,0.1c0.4-0.2,0.5-0.6,0.5-1C235.1,191.9,235,191.5,234.8,191.2z"/>
		<path class="st26" d="M183,166.3c0.8-0.9,1.2-2,1.7-3c-0.6-3.1-1-6.1-1-6.1l-13.8,1.4c0,0,0,7.3-1.7,11.3c0.4,0.1,0.8,0.2,1.3,0.3
			c2.2,0.3,4.5-0.1,6.6-0.6C178.7,169,181.3,168.2,183,166.3z"/>
		<path class="st16" d="M158.3,134.9c0,0-6.4-0.7-6.4,5.5s7.1,5.5,7.1,5.5s5.3,20.2,20.9,18.3c15.6-1.8,16.7-22.9,16.3-29.4
			c0,0-15.1-5.8-16.5-17.1C179.7,117.8,175.1,133.2,158.3,134.9z"/>
		<path class="st26" d="M157.3,138.1c-0.5-0.4-1.1-0.6-1.7-0.5c-0.5,0.1-1.1,0.5-1,1.1c0,0.1,0.2,0.2,0.4,0.2
			c0.3-0.1,0.4-0.3,0.7-0.3c0.2-0.1,0.4,0,0.6,0.1c0.5,0.2,0.8,0.8,1,1.3c0,0.1,0,0.2,0,0.2c-0.3-0.1-0.6,0-0.9,0.2
			c-0.6,0.4-0.8,1.1-0.7,1.8c0.1,0.6,0.4,1.2,1,1.4c0.7,0.2,1.3-0.3,1.6-0.9c0.2-0.5,0.4-1.1,0.4-1.6
			C158.6,139.9,158.1,138.7,157.3,138.1z"/>
		<path class="st26" d="M184.3,251.3c-0.8-0.2-1.7-0.2-2.5-0.2c-0.8,0-1.7-0.1-2.5,0.1c-0.1,0-0.1,0.1-0.1,0.1c0,0,0,0-0.1,0
			c0,0,0,0,0,0.1c0,0,0,0,0.1,0c0,0.1,0.1,0.1,0.1,0.1c1.4,0.2,3.1,0.1,2.5,0.1c-0.9,0,1.7,0.1,2.5-0.1
			C184.4,251.5,184.4,251.4,184.3,251.3z"/>
		<path class="st26" d="M183.7,254.8c-0.7-0.3-1.5-0.2-2.2-0.2c-0.8,0-1.5,0.1-2.2,0.4c-0.1,0-0.1,0.1,0,0.1c0.8,0.1,1.5,0,2.3,0
			c0.7,0,1.5,0.1,2.2-0.1C183.8,254.9,183.8,254.8,183.7,254.8z"/>
		<path class="st26" d="M182.6,257.3c-0.6-0.1-1.1-0.1-1.7-0.1c-0.6,0-1.1-0.1-1.7-0.1c-0.1,0-0.1,0.1,0,0.1
			c0.5,0.3,1.1,0.4,1.7,0.5c0.6,0.1,1.2,0.1,1.8-0.2C182.7,257.4,182.7,257.3,182.6,257.3z"/>
		<path class="st26" d="M242.6,254.7c-0.4-0.1-0.8-0.1-1.2-0.1c-0.4,0-0.9,0-1.3,0c-0.8,0-1.7-0.2-2.6-0.1c-0.1,0-0.1,0.2,0,0.2
			c0.8,0.3,1.7,0.3,2.6,0.4c0.8,0,1.8,0.2,2.5-0.2C242.7,254.8,242.6,254.7,242.6,254.7z"/>
		<path class="st26" d="M242.4,257.7c-0.2-0.1-0.3-0.1-0.4-0.2c-0.1,0-0.3-0.1-0.4-0.1c-0.3,0-0.6,0-0.9,0c-0.3,0-0.6,0-0.9,0.1
			c-0.1,0-0.3,0-0.4,0.1c-0.1,0-0.1,0-0.2,0.1c-0.1,0-0.2,0.1-0.2,0.2c0,0,0,0.1,0,0.1c0.1,0,0.1,0.1,0.2,0.1c0.1,0,0.1,0,0.2,0
			c0.1,0,0.3,0,0.4,0c0.3,0,0.6,0,0.9,0c0.3,0,0.6,0,0.9,0c0.3,0,0.6-0.1,0.9-0.1C242.5,257.9,242.5,257.7,242.4,257.7z"/>
		<path class="st26" d="M242.7,259.8c-0.1,0-0.2,0-0.3,0c-0.1,0-0.2,0-0.3,0c-0.2,0-0.4,0-0.6,0.1c-0.2,0-0.4,0-0.6,0.1
			c-0.1,0-0.2,0-0.3,0c-0.1,0-0.2,0.1-0.3,0.1c-0.1,0-0.1,0.1,0,0.2c0.1,0,0.2,0.1,0.3,0.1c0.1,0,0.2,0,0.3,0c0.2,0,0.4,0,0.6-0.1
			c0.2,0,0.4-0.1,0.6-0.1c0.1,0,0.2-0.1,0.3-0.1c0.1,0,0.2-0.1,0.3-0.1C242.8,259.9,242.7,259.8,242.7,259.8z"/>
		<path class="st27" d="M207.8,285c-0.1-0.8-0.2-1.5-0.3-2.3c-0.2-1.4-0.3-2.8-0.5-4.2c-0.3-2.8-0.6-5.6-0.8-8.5
			c-0.4-5.7-0.6-11.3-0.7-17c0-1.6-0.1-3.1,0-4.7c0-1.6,0.1-3.3-0.1-4.9c0-0.3-0.5-0.4-0.5-0.1c-0.5,2.8-0.4,5.6-0.5,8.4
			c-0.1,2.9-0.1,5.8,0,8.6c0.2,5.7,0.6,11.4,1.2,17.1c0.2,1.6,0.3,3.2,0.5,4.8c0.1,0.8,0.2,1.6,0.3,2.4c0.1,0.8,0.1,1.6,0.5,2.3
			c0.2,0.4,0.9,0.3,0.9-0.1C208,286.2,207.9,285.6,207.8,285z"/>
		<path class="st27" d="M229.8,247.8c-0.1-0.4-0.5-0.6-0.8-0.6c-0.8,0-1.6,0.3-2.3,0.4c-0.9,0.2-1.8,0.4-2.7,0.5
			c-0.7,0.1-4.9,0.7-4.2,2c0.4,0.8,1.9,0.4,2.6,0.3c0.9-0.1,1.9-0.3,2.8-0.5c0.9-0.2,1.8-0.4,2.8-0.5
			C228.8,249.2,230,249,229.8,247.8z"/>
		<path class="st26" d="M176.5,259.3c-0.5-0.3-1.1-0.4-1.6-0.7c-0.5-0.3-1-0.7-1.5-1.2c-0.8-0.8-1.5-1.8-1.8-3
			c-0.7-2.1-0.2-4.6,1.5-6.1c0.2-0.2,0.8-0.5,0.7-0.9c-0.1-0.3-0.4-0.3-0.6-0.2c-0.9,0.4-1.6,1.4-2,2.2c-1,1.8-1,4-0.2,5.9
			c0.5,1.1,1.2,2.2,2.2,3c0.8,0.7,2.1,1.6,3.2,1.3C176.7,259.7,176.7,259.4,176.5,259.3z"/>
		<path class="st26" d="M223.2,347.1C223.2,347.1,223.2,347.1,223.2,347.1C223.2,347.1,223.2,347.1,223.2,347.1
			c-0.1-0.1-0.1-0.1-0.1-0.1c0,0,0,0,0,0c0,0,0-0.1,0-0.1c0,0,0,0,0,0c0,0,0,0,0,0c0,0,0,0,0,0c0,0,0-0.1,0-0.1c0,0,0,0,0-0.1
			c0,0,0,0,0,0c0,0,0,0,0-0.1c0,0,0,0,0,0c0,0,0,0,0,0c0-0.1,0-0.1,0-0.2c0,0-0.1-0.1-0.2,0c-0.1,0.1-0.2,0.2-0.2,0.3
			c-0.1,0.1-0.1,0.3-0.1,0.4c0,0.1,0,0.3,0.1,0.4c0,0.1,0.1,0.1,0.1,0.2c0.1,0.1,0.2,0.2,0.3,0.1c0.1,0,0.1-0.1,0.2-0.2
			C223.3,347.3,223.2,347.2,223.2,347.1z"/>
		<g>
			<path class="st26" d="M225.6,346.9C225.6,346.9,225.6,346.9,225.6,346.9C225.6,346.9,225.6,346.9,225.6,346.9
				C225.6,347,225.6,347,225.6,346.9z"/>
			<path class="st26" d="M225.6,346.9c0,0,0-0.1,0-0.1c0,0,0-0.1,0-0.1c0,0,0,0,0,0c0,0,0,0,0-0.1c0,0,0-0.1,0-0.1c0,0,0-0.1,0-0.1
				c0,0,0-0.1,0-0.1c0,0,0-0.1,0-0.1c0,0,0-0.1-0.1-0.1c0-0.1-0.2-0.1-0.3,0c0,0,0,0.1-0.1,0.1c0,0,0,0.1,0,0.1c0,0,0,0.1,0,0.1
				c0,0,0,0.1,0,0.1c0,0,0,0.1,0,0.1c0,0.1,0,0.2,0.1,0.2c0,0.1,0,0.1,0.1,0.2c0,0.1,0.1,0.1,0.2,0.2c0.1,0.1,0.2,0,0.3,0
				c0,0,0.1-0.1,0.1-0.1C225.6,347,225.6,347,225.6,346.9C225.6,346.9,225.6,346.9,225.6,346.9z"/>
		</g>
		<g>
			<path class="st26" d="M228.2,346.3C228.2,346.3,228.2,346.3,228.2,346.3c0-0.1,0-0.2-0.1-0.2c0,0-0.1-0.1-0.1-0.1c0,0,0,0,0-0.1
				c0,0,0,0-0.1,0c0,0,0,0,0,0c0,0,0,0-0.1-0.1c0,0-0.1,0-0.1-0.1c0,0-0.1,0-0.1,0c0,0,0,0,0,0c-0.1,0-0.1,0-0.1,0.1l0,0
				c0,0,0,0.1,0,0.1c0,0,0,0.1,0,0.1c0,0.1,0,0.1,0.1,0.2c0,0,0.1,0.1,0.1,0.1c0,0.1,0.1,0.1,0.1,0.1c0.1,0,0.1,0.1,0.2,0
				c0.1,0,0.1,0,0.1-0.1c0,0,0,0,0,0C228.2,346.4,228.2,346.4,228.2,346.3z"/>
			<polygon class="st26" points="228,346.6 228,346.6 228,346.6 			"/>
			<path class="st26" d="M228.1,346.5C228.1,346.5,228.1,346.5,228.1,346.5C228.1,346.5,228.1,346.5,228.1,346.5z"/>
			<path class="st26" d="M228,346.6C228,346.6,228,346.6,228,346.6C228,346.6,228,346.6,228,346.6C228,346.6,228,346.6,228,346.6z"
				/>
		</g>
		<g>
			<path class="st26" d="M227.2,335L227.2,335C227.2,335,227.2,335,227.2,335C227.2,335,227.2,335,227.2,335z"/>
			<path class="st26" d="M228.2,334.4c0-0.1-0.1-0.3-0.2-0.4c0,0,0,0,0,0c0,0,0,0,0,0c0,0,0,0,0,0c0,0,0,0,0,0c0,0,0,0,0-0.1
				c0,0-0.1-0.1-0.2-0.1c0,0,0,0,0.1,0c0,0,0,0-0.1-0.1c-0.1-0.1-0.2,0-0.1,0.1c0,0,0,0.1,0,0.1c0,0,0,0.1,0,0.1c0,0,0,0,0,0.1
				c0,0,0,0,0,0c0,0.1,0,0.2,0,0.4c0,0,0,0,0,0c0,0,0,0,0,0c0,0,0,0,0,0.1c0,0,0,0,0,0.1c0,0,0,0,0,0c0,0,0,0,0,0c0,0,0,0.1,0,0.1
				c0,0,0,0,0,0c0,0,0,0,0,0c0,0,0,0,0,0c0,0,0,0,0,0c0,0,0,0,0,0c0,0-0.1,0,0,0c0,0,0,0-0.1,0c0,0-0.1,0,0,0c0,0,0,0,0,0
				c0,0-0.1,0-0.1,0c0,0,0,0,0,0c0,0,0,0,0,0c0,0,0,0,0,0c0,0,0,0,0,0c0,0,0,0,0,0c0,0-0.1,0-0.1,0h0.1c0,0,0,0,0,0c0,0,0,0,0,0
				c0,0,0,0,0,0c0,0-0.1,0-0.1,0c0,0,0,0,0,0.1c0,0,0,0.1,0,0.1c0,0,0,0,0-0.1c0,0.1,0.2,0.2,0.3,0.2c0.1,0,0.3,0,0.4,0
				c0.1-0.1,0.3-0.1,0.3-0.3C228.2,334.9,228.2,334.7,228.2,334.4z"/>
		</g>
		<path class="st27" d="M230.7,251.3c-0.6,0-1.3,0.2-1.9,0.4c-0.6,0.1-1.3,0.3-1.9,0.4c-1.3,0.3-2.6,0.6-3.9,0.8
			c-1.3,0.2-2.5,0.4-3.8,0.7c-0.5,0.1-1.8,0.5-1.2,1.3c0.1,0.1,0.3,0.1,0.4,0c0.3-0.2,0.8-0.1,1.1-0.1c0.6,0,1.1-0.1,1.7-0.1
			c1.1-0.1,2.2-0.2,3.3-0.4c1.1-0.2,2.2-0.3,3.3-0.5c1-0.2,2.3-0.3,3.2-0.8C231.9,252.5,231.5,251.3,230.7,251.3z"/>
		<path class="st28" d="M239,186.3c-0.5,0-1-0.3-1.5-0.3c-0.5,0-1.1,0-1.6,0c-1,0-2,0.1-3.1-0.1c-2.1-0.3-3.8-1.3-5.5-2.4
			c-3.1-2-6-4.6-8.5-7.3c-0.7-0.8-1.4-1.6-2.1-2.5c-0.3-0.4-0.6-0.8-1-1.2c-0.2-0.3-0.4-0.6-0.7-0.7c-0.1-0.3-0.3-0.5-0.7-0.6
			c-0.2-0.1-0.4,0.2-0.4,0.4c0,0.2-0.4,0.8-0.5,1c-0.2,0.4-0.5,0.8-0.7,1.2c-0.5,0.8-1,1.6-1.6,2.4c-1.1,1.6-2.2,3.1-3.5,4.6
			c-2.4,2.8-5.3,5-8.7,6.5c-0.9,0.4-1.9,0.7-2.8,1c-0.2,0-1.9,0.3-1.6,0.7c0.4,0.6,1.6,0.2,2.1,0.1c1-0.1,1.9-0.4,2.8-0.7
			c1.8-0.6,3.5-1.6,5.1-2.8c3.3-2.5,5.9-5.8,8.2-9.2c0.7-1,1.4-2,2-3.1c0.1-0.1,0.1-0.2,0.1-0.3c0.2,0.4,0.5,0.7,0.7,1
			c0.6,0.8,1.1,1.6,1.8,2.4c1.2,1.6,2.6,3,4,4.4c1.5,1.4,3.1,2.6,4.7,3.8c1.7,1.2,3.6,2.4,5.6,2.8c1.2,0.3,2.5,0.3,3.7,0.3
			c0.6,0,1.2-0.1,1.8-0.2c0.3-0.1,0.6-0.1,0.8-0.3c0.3-0.2,0.6-0.4,1-0.5C239.3,186.6,239.2,186.3,239,186.3z"/>
		<path class="st28" d="M210.6,169.1c-0.1-0.1-0.3-0.1-0.4,0c-0.6,0.4-0.7,1.2-1,1.8c-0.3,0.8-0.7,1.6-1.1,2.3
			c-0.8,1.5-1.8,2.9-3,4.2c-1.1,1.2-2.3,2.2-3.7,3c-0.7,0.4-1.5,0.7-2.2,1c-0.6,0.3-1.4,0.5-1.9,0.9c-0.1,0.1,0,0.2,0.1,0.3
			c1.5,0.5,3.4-0.5,4.7-1.2c1.5-0.8,2.8-1.9,4-3.2c1.2-1.3,2.2-2.8,3.1-4.4c0.4-0.8,0.8-1.6,1.1-2.5c0.2-0.4,0.3-0.8,0.4-1.2
			c0.1-0.2,0.1-0.3,0.2-0.4c0-0.1,0.1-0.1,0.1-0.2C210.8,169.3,210.8,169.2,210.6,169.1z"/>
		<path class="st28" d="M207.1,167c0-0.1-0.1-0.1-0.1,0c-0.5,0.2-0.7,0.8-0.9,1.2c-0.3,0.5-0.5,0.9-0.8,1.4c-0.6,1-1.3,1.9-2.1,2.7
			c-0.8,0.8-1.6,1.5-2.6,2.2c-0.5,0.3-0.9,0.6-1.4,0.9c-0.5,0.3-1,0.8-1.6,0.9c-0.1,0-0.1,0.2,0,0.2c1,0.7,2.5-0.4,3.3-0.9
			c1.1-0.7,2-1.5,2.9-2.4c0.9-0.9,1.7-1.9,2.3-3c0.3-0.5,0.6-1.1,0.8-1.7C207.1,168.1,207.3,167.5,207.1,167z"/>
		<path class="st28" d="M238.3,178.3c-0.4,0-0.7-0.1-1.1-0.2c-0.5-0.1-0.9-0.1-1.4-0.2c-0.8-0.1-1.6-0.2-2.4-0.4
			c-1.6-0.3-3.2-0.8-4.8-1.4c-3.1-1.2-5.9-3-8.4-5.2c-0.7-0.6-1.3-1.3-2-2c-0.6-0.6-1.1-1.5-1.8-2c-0.1-0.1-0.3,0.1-0.3,0.2
			c0.2,0.8,0.8,1.5,1.3,2.2c0.5,0.7,1.1,1.4,1.7,2c1.2,1.3,2.6,2.5,4,3.5c2.9,2.1,6.3,3.6,9.8,4.3c1,0.2,2,0.4,3.1,0.5
			c0.9,0.1,2.1,0.1,2.5-0.9C238.7,178.5,238.6,178.3,238.3,178.3z"/>
		<path class="st28" d="M237.6,172.9c0-0.1-0.2-0.2-0.3-0.1c-0.2,0.1-0.6-0.1-0.8-0.2c-0.4-0.1-0.8-0.2-1.2-0.4
			c-0.8-0.2-1.5-0.5-2.3-0.7c-1.5-0.6-3-1.2-4.5-2c-1.4-0.8-2.8-1.6-4-2.5c-0.7-0.5-1.4-1-2-1.6c-0.6-0.5-1.2-1-1.9-1.4
			c-0.2-0.1-0.4,0.1-0.3,0.3c0.8,1.5,2.5,2.7,3.8,3.7c1.5,1.1,3.1,2.2,4.8,3c1.6,0.9,3.3,1.6,5.1,2.2c0.8,0.3,1.7,0.6,2.5,0.6
			C237.2,173.8,237.8,173.4,237.6,172.9z"/>
		<path class="st28" d="M197,192.5c-0.1-0.3-0.5-0.3-0.7,0c-0.3,0.7-0.2,1.7-0.3,2.5c-0.1,0.9-0.3,1.8-0.5,2.7
			c-0.4,1.6-1.1,3.1-1.7,4.6c-0.9,2.4-2.1,6.4,0.3,8.3c0.1,0.1,0.4,0.1,0.4-0.2c-0.2-1.4-0.4-2.8-0.3-4.1c0.1-1.5,0.6-3,1.2-4.4
			c0.5-1.5,1.1-2.9,1.4-4.5c0.1-0.8,0.2-1.6,0.3-2.4C197.2,194.2,197.3,193.2,197,192.5z"/>
		<path class="st28" d="M200.2,202.7c0.2-0.9,0.8-1.9,0.6-2.8c0-0.1-0.1-0.1-0.1-0.1c-0.9,0.4-1.3,1.7-1.5,2.5
			c-0.4,1.1-0.6,2.2-0.7,3.3c-0.2,2.1-0.2,4.6,1.3,6.2c0.1,0.1,0.3,0,0.3-0.1c0.1-1.1,0-2.1-0.2-3.1c-0.1-1-0.1-2-0.1-3
			C199.8,204.7,199.9,203.7,200.2,202.7z"/>
		<path class="st28" d="M204.5,208c0-0.1,0-0.2,0-0.2c0,0,0-0.1-0.1-0.1c0,0-0.1-0.1-0.1-0.1c0-0.1-0.2-0.2-0.3,0c0,0,0,0,0,0
			c-0.1,0.1-0.2,0.2-0.2,0.3c-0.1,0.2-0.1,0.3-0.2,0.5c-0.1,0.4-0.1,0.7-0.2,1.1c0,0.3,0,0.7,0,1c0,0.2,0.1,0.3,0.1,0.5
			c0,0.1,0.1,0.3,0.2,0.4c0.1,0.1,0.1,0.1,0.2,0c0.1-0.1,0.1-0.2,0.2-0.4c0.1-0.2,0.1-0.3,0.2-0.5c0.1-0.3,0.1-0.7,0.1-1
			c0-0.3,0-0.6,0-1C204.5,208.3,204.5,208.2,204.5,208z"/>
		<path class="st28" d="M246.6,197.8c-0.7-1.7-1.6-3.2-2.4-4.9c-0.4-0.8-0.7-1.6-1.1-2.4c-0.2-0.4-0.3-0.8-0.5-1.2
			c-0.1-0.4-0.2-0.8-0.5-1c0,0-0.1,0-0.1,0c-0.3,0.5,0,1.5,0.1,2.1c0.2,0.8,0.4,1.5,0.7,2.3c0.6,1.6,1.2,3.2,1.8,4.7
			c0.5,1.4,1.1,2.9,1.3,4.4c0.1,0.7,0.1,1.3,0,2c-0.1,0.7-0.2,1.2-0.3,1.9c0,0.2,0.1,0.4,0.3,0.3c1.4-0.4,2-2.1,1.9-3.4
			C247.9,200.9,247.2,199.3,246.6,197.8z"/>
		<path class="st28" d="M240.2,204.1c-0.2-1.2-0.6-2.5-1-3.6c-0.4-1.1-0.7-2.5-1.5-3.4c-0.1-0.1-0.2-0.1-0.3-0.1c0,0,0,0,0,0
			c0,0,0,0,0,0c-0.1,0.1-0.2,0.2-0.2,0.3c0.1,1.1,0.5,2.2,0.8,3.3c0.3,1.1,0.6,2.3,0.7,3.4c0.4,2.1,0.4,4.2,0,6.3
			c0,0.2,0.2,0.4,0.4,0.2C240.8,208.7,240.6,206.3,240.2,204.1z"/>
		<path class="st28" d="M232.5,209.7c-0.1-0.6-0.2-1.1-0.4-1.7c-0.1-0.5-0.3-1.2-0.8-1.5c-0.1,0-0.1,0-0.2,0c-0.3,0.5-0.1,1-0.1,1.5
			c0.1,0.5,0.2,1,0.2,1.5c0.1,0.5,0.1,1,0.2,1.5c0,0.3,0.2,0.7,0.1,1.1c0,0.2-0.2,0.4,0,0.6c0.3,0.2,0.6-0.1,0.8-0.4
			c0.2-0.3,0.3-0.7,0.3-1.1C232.7,210.8,232.6,210.3,232.5,209.7z"/>
		<path class="st28" d="M290.5,127.6c-0.4-0.1-0.8-0.4-1.2-0.6c-0.5-0.2-1-0.2-1.5-0.3c-0.9-0.2-1.8-0.5-2.6-0.9
			c-1.7-0.9-3-2.3-4.3-3.6c-1.3-1.3-2.6-2.7-3.8-4.1c-0.6-0.7-1.1-1.5-1.6-2.3c-0.5-0.8-0.8-1.6-1.2-2.4c0-0.5-0.2-0.9-0.9-1.1
			c-0.2-0.1-0.4,0.1-0.4,0.3c-0.4,1.1-1.1,1.9-1.9,2.6c-0.9,0.8-1.7,1.6-2.7,2.4c-1.8,1.5-3.8,2.9-5.8,4.1
			c-4.1,2.5-8.5,4.3-13.2,5.6c-1.3,0.4-2.6,0.7-4,0.9c-0.6,0.1-1.3,0.2-1.9,0.3c-0.6,0.1-1.2,0.2-1.6,0.6c0,0,0,0.1,0,0.1
			c0.9,0.6,2.4,0.2,3.5,0.1c1.3-0.1,2.6-0.3,3.9-0.6c2.5-0.5,5-1.3,7.4-2.2c4.9-1.9,9.4-4.6,13.3-8c1.1-0.9,2.2-1.9,3.1-2.9
			c0.2-0.2,0.4-0.5,0.6-0.8c0.2,0.5,0.4,1,0.6,1.5c0.4,0.9,0.9,1.7,1.5,2.5c1.1,1.6,2.4,3.2,3.7,4.7c1.3,1.5,2.7,3.1,4.5,4
			c0.9,0.5,1.8,0.8,2.8,1c0.5,0.1,1,0.2,1.5,0.3c0.6,0.1,1.1-0.1,1.7-0.2C290.9,128.5,290.9,127.8,290.5,127.6z"/>
		<path class="st28" d="M271.4,107.1c-0.8,0.4-1.3,1.3-1.9,1.9c-0.6,0.7-1.2,1.3-1.9,2c-1.3,1.3-2.8,2.6-4.3,3.8
			c-2.9,2.3-6.2,4.2-9.6,5.8c-1,0.5-2,0.8-3.1,1.2c-1.1,0.4-2.4,0.9-3.5,1c-0.3,0-0.3,0.4-0.1,0.5c1,0.3,1.9,0.5,3,0.3
			c1.1-0.2,2-0.6,3-1c1.8-0.8,3.6-1.7,5.4-2.7c3.4-2,6.5-4.5,9.3-7.3c0.8-0.8,1.5-1.6,2.1-2.4c0.6-0.8,1.6-1.7,1.8-2.7
			C271.8,107.2,271.6,107,271.4,107.1z"/>
		<path class="st28" d="M266.4,104.8c-0.8,0.5-1.4,1.3-2.1,1.9c-0.7,0.7-1.5,1.3-2.3,2c-1.6,1.3-3.2,2.4-4.9,3.4
			c-1.7,1-3.5,1.9-5.4,2.6c-1.9,0.7-3.8,1.3-5.6,2c-0.2,0.1-0.2,0.4,0.1,0.4c2.1-0.1,4-0.4,5.9-1.2c1.9-0.7,3.8-1.6,5.6-2.7
			c1.8-1,3.4-2.2,5-3.6c0.8-0.7,1.5-1.4,2.2-2.2c0.7-0.7,1.4-1.5,1.8-2.5C266.7,104.9,266.6,104.7,266.4,104.8z"/>
		<path class="st28" d="M264.5,102.4c-1.1,0.5-2.1,1.3-3.1,1.9c-1,0.7-2,1.3-3.1,2c-2,1.2-4.2,2.4-6.5,2.9c-0.2,0-0.1,0.3,0,0.3
			c1.2,0,2.4-0.1,3.5-0.5c1.2-0.5,2.3-1.1,3.4-1.8c1.1-0.7,2.2-1.4,3.2-2.2C262.9,104.2,263.9,103.5,264.5,102.4
			C264.7,102.4,264.6,102.4,264.5,102.4z"/>
		<path class="st28" d="M294.1,121c-0.2,0.3-0.9,0.1-1.1,0c-0.5-0.1-0.9-0.3-1.4-0.4c-0.9-0.3-1.8-0.6-2.7-0.9
			c-1.8-0.8-3.4-1.8-5-2.9c-1.5-1.2-2.9-2.6-4-4.2c-0.6-0.8-1.1-1.6-1.5-2.5c-0.4-0.8-0.8-1.7-1.3-2.4c-0.1-0.1-0.1,0-0.1,0.1
			c-0.1,1.6,0.9,3.3,1.6,4.6c0.8,1.5,1.9,2.9,3.1,4.1c2.3,2.5,5.4,4.5,8.7,5.5c1.1,0.3,4.2,1.2,4.2-0.8
			C294.4,120.9,294.2,120.8,294.1,121z"/>
		<path class="st28" d="M296.1,117.5c-2.6-1.3-5.2-2.6-7.6-4.2c-1.2-0.8-2.3-1.8-3.4-2.7c-0.5-0.5-1.1-1-1.6-1.6
			c-0.5-0.6-1.4-1.3-1.2-2.2c0-0.1-0.1-0.1-0.1-0.1c-1,1.1,0.5,2.7,1.2,3.5c1.1,1.3,2.4,2.5,3.7,3.5c2.6,2,5.6,3.7,8.9,4
			C296.2,117.8,296.2,117.6,296.1,117.5z"/>
		<path class="st29" d="M231.6,216.4c-0.3-0.2-0.5-0.2-0.7,0.1c-0.4,0.4-0.6,1-0.9,1.4c-0.3,0.5-0.7,0.9-1,1.3
			c-2.9,3.4-7.5,5.2-12,4.6c-2.4-0.3-4.8-1.3-6.7-2.8c-1-0.7-1.8-1.6-2.6-2.5c-0.2-0.3-1.5-2.4-2-1.7c-0.5,0.7,0.6,2,1,2.6
			c0.6,0.9,1.4,1.7,2.2,2.4c1.6,1.4,3.6,2.5,5.6,3.1c4.3,1.3,9.1,0.4,12.8-2.2c0.9-0.7,1.8-1.4,2.6-2.2c0.7-0.8,1.6-1.8,1.9-2.8
			C232,217.3,232,216.7,231.6,216.4z"/>
		<path class="st29" d="M250.5,254.2c-0.1-0.4-0.1-0.9-0.4-1.1c-0.1-0.1-0.2,0-0.2,0.1c-0.1,0.3,0,0.7,0,1c0,0.4,0,0.8,0,1.2
			c-0.1,0.8-0.2,1.6-0.5,2.3c-0.5,1.5-1.5,2.8-2.7,3.7c-0.5,0.4,0,1.3,0.5,0.9c1.4-1.1,2.5-2.5,3-4.3c0.3-0.8,0.4-1.7,0.4-2.5
			C250.6,255,250.6,254.6,250.5,254.2z"/>
		<path class="st29" d="M245.6,294c-0.9,0.5-1.7,1.2-2.5,1.7c-0.9,0.6-1.8,1.1-2.7,1.6c-1.8,1-3.7,1.8-5.6,2.5
			c-3.9,1.4-8.1,2.3-12.2,2.7c-8.9,0.8-17.9-0.8-26.3-3.8c-2.2-0.8-4.2-1.7-6.2-2.8c-1-0.5-1.9-1.1-2.9-1.7c-0.9-0.6-1.8-1.4-2.8-2
			c-0.3-0.2-0.7,0.2-0.5,0.5c0.6,0.8,1.4,1.5,2.1,2.1c0.8,0.6,1.6,1.3,2.5,1.8c1.8,1.2,3.6,2.1,5.6,2.9c4.1,1.8,8.4,3,12.8,3.8
			c9,1.7,18.5,1.6,27.2-1.2c2.3-0.8,4.6-1.7,6.8-2.8c1.1-0.6,2.2-1.2,3.2-1.8c1-0.6,2.2-1.3,2.7-2.4
			C247,294.4,246.3,293.5,245.6,294z"/>
		<path class="st26" d="M193,327.4c0-0.1-0.1-0.3-0.2-0.3l0.1,0.1c0,0,0,0,0,0c0,0,0,0-0.1-0.1c0,0,0,0,0,0
			c-0.1-0.1-0.1-0.1-0.2-0.1c-0.1,0-0.1,0.1-0.1,0.1c0,0,0,0.1,0,0.1c0,0,0,0,0,0c0,0,0,0,0,0c0,0,0,0,0,0c0,0,0,0,0,0.1
			c0,0,0,0,0,0c0,0,0,0.1-0.1,0.1c0,0,0,0.1,0,0.1c0,0,0,0.1,0,0.1c0,0.1,0,0.1-0.1,0.1c0,0,0,0,0,0c0,0-0.1,0.1-0.1,0.1
			c0,0,0.1,0,0.1,0c-0.1,0-0.1,0-0.2,0.1c0,0,0,0-0.1,0c0,0-0.1,0-0.1,0.1c0,0-0.1,0-0.1,0c0,0,0,0,0,0c0,0,0,0,0,0c0,0,0,0-0.1,0
			c0,0-0.1,0,0,0.1c0,0,0,0,0.1,0.1c0,0.1,0.1,0.2,0.1,0.2c0,0,0,0,0,0c0,0,0,0,0,0c0.1,0.1,0.1,0.1,0.2,0.1c0.1,0,0.2,0,0.4,0
			c0.1,0,0.2-0.1,0.3-0.1c0.2-0.1,0.3-0.3,0.4-0.5c0-0.1,0-0.2,0.1-0.3C193,327.5,193,327.5,193,327.4z"/>
		<g>
			<path class="st26" d="M181.7,336.4C181.7,336.4,181.7,336.4,181.7,336.4C181.7,336.4,181.7,336.4,181.7,336.4
				C181.7,336.4,181.7,336.4,181.7,336.4z"/>
			<path class="st26" d="M181.7,336.3C181.7,336.3,181.7,336.3,181.7,336.3c0-0.1,0-0.2-0.1-0.2c0,0-0.1,0-0.1,0.1c0,0,0,0,0,0
				c0,0,0,0-0.1,0c0,0,0,0-0.1,0c-0.1,0-0.2,0.1-0.3,0.2c0,0.1-0.1,0.1-0.1,0.2c0,0,0,0.1-0.1,0.2c0,0.1,0,0.1,0,0.2
				c0,0.1,0,0.1,0.1,0.1c0,0,0.1,0,0.2,0c0.1,0,0.1,0,0.2-0.1c0,0,0.1-0.1,0.1-0.1c0.1-0.1,0.1-0.1,0.2-0.2c0,0,0-0.1,0.1-0.1
				c0,0,0-0.1,0-0.1c0-0.1,0-0.1,0-0.2C181.7,336.4,181.7,336.4,181.7,336.3C181.7,336.3,181.7,336.4,181.7,336.3
				C181.7,336.4,181.7,336.4,181.7,336.3C181.7,336.4,181.7,336.3,181.7,336.3z"/>
		</g>
		<g>
			<path class="st26" d="M184,337.2C184,337.2,184,337.2,184,337.2C184,337.2,184,337.2,184,337.2C184,337.2,184,337.2,184,337.2
				c0-0.1,0-0.2,0-0.2c0-0.1-0.1-0.1-0.1,0c0,0-0.1,0.1-0.1,0.1c0,0,0,0,0,0c0,0,0,0,0,0c0,0,0,0,0,0c0,0-0.1,0.1-0.1,0.1
				c-0.1,0.1-0.1,0.1-0.1,0.2c0,0,0,0.1-0.1,0.1c0,0,0,0.1-0.1,0.1c0,0,0,0.1,0,0.1c0,0,0,0.1,0,0.1c0,0.1,0,0.1,0,0.2
				c0,0,0.1,0.1,0.2,0c0.1,0,0.1,0,0.2-0.1c0.1,0,0.1-0.1,0.1-0.1c0.1-0.1,0.1-0.2,0.2-0.3c0-0.1,0.1-0.1,0.1-0.2
				C184.1,337.4,184.1,337.4,184,337.2C184.1,337.3,184.1,337.3,184,337.2z"/>
			<path class="st26" d="M183.3,337.6C183.3,337.6,183.3,337.6,183.3,337.6C183.3,337.6,183.3,337.6,183.3,337.6
				C183.3,337.6,183.3,337.6,183.3,337.6z"/>
		</g>
		<g>
			<path class="st26" d="M186.7,338.1C186.7,338.1,186.6,338.1,186.7,338.1C186.6,338.1,186.6,338.1,186.7,338.1
				C186.6,338,186.6,338,186.7,338.1c0-0.1,0-0.1,0-0.1c0,0-0.1-0.1-0.1-0.1c0,0-0.1,0-0.1,0.1c0,0,0,0,0,0c0,0,0,0,0,0
				c0,0-0.1,0,0,0c0,0,0,0,0,0c0,0,0,0-0.1,0c0,0,0,0,0,0c0,0,0,0-0.1,0.1c0,0-0.1,0.1-0.1,0.1c0,0,0,0.1-0.1,0.1c0,0,0,0.1,0,0.1
				c0,0,0,0.1,0,0.1c0,0.1,0,0.1,0,0.2c0,0.1,0,0.2,0.1,0.2c0.1,0.1,0.1,0.1,0.2,0.1c0,0,0,0,0.1,0c0.1,0,0.1-0.1,0.2-0.1
				c0.1,0,0.1-0.1,0.2-0.2c0.1-0.1,0.1-0.2,0.1-0.3c0-0.1,0-0.2,0-0.2C186.7,338.2,186.7,338.1,186.7,338.1z"/>
			<path class="st26" d="M185.9,338.7C185.9,338.7,185.9,338.7,185.9,338.7C185.9,338.7,185.9,338.7,185.9,338.7
				C185.9,338.7,185.9,338.7,185.9,338.7z"/>
			<path class="st26" d="M185.9,338.8C185.9,338.8,185.9,338.8,185.9,338.8C185.9,338.7,185.9,338.7,185.9,338.8
				C185.9,338.8,185.9,338.8,185.9,338.8z"/>
		</g>
		<g>
			<path class="st20" d="M208.4,187.8C208.4,187.8,208.3,187.7,208.4,187.8L208.4,187.8z"/>
			<path class="st20" d="M208.4,187.8C208.4,187.8,208.4,187.8,208.4,187.8C208.4,187.8,208.4,187.8,208.4,187.8c0-0.1,0-0.1,0-0.1
				c0-0.1-0.1-0.2-0.2-0.3c-0.2-0.2-0.4-0.3-0.6-0.4c-0.7-0.3-1.4-0.2-2,0.1c-0.3,0.1-0.6,0.4-0.9,0.6c-0.2,0.2-0.3,0.3-0.4,0.6
				c-0.1,0.2-0.1,0.4-0.1,0.6c0,0.4,0.5,0.6,0.8,0.3c0,0,0,0,0,0c0,0,0.1-0.1,0.1-0.1c0,0,0.1-0.1,0.1-0.1c0.1-0.1,0.2-0.2,0.3-0.3
				c0,0,0.1-0.1,0.1-0.1c0,0,0.1-0.1,0.1-0.1c0.1,0,0.1-0.1,0.2-0.1c0,0,0,0,0,0c0,0,0.1,0,0.1,0c0.1,0,0.1,0,0.2-0.1
				c0,0,0.1,0,0.1,0c0.1,0,0.1,0,0.2,0c0,0,0.1,0,0.1,0c0,0,0,0,0,0c0.1,0,0.3,0.1,0.4,0.1c0,0,0,0,0,0c0,0,0,0,0.1,0
				c0,0,0.1,0,0.1,0c0.2,0.1,0.2,0.1,0.1,0.1c0,0,0,0,0,0c0.1,0.1,0.3,0.1,0.4,0.1c0,0,0.1,0,0,0c0.1,0,0.2,0,0.3,0
				c0.1,0,0.2-0.1,0.3-0.2C208.4,188.1,208.4,188,208.4,187.8z"/>
		</g>
		<path class="st20" d="M223.2,186.4c-0.5-0.3-1-0.5-1.6-0.5c-0.5,0-1.1,0.1-1.5,0.4c-0.5,0.3-0.9,0.8-1,1.3c0,0.3,0.4,0.5,0.6,0.3
			c0.2-0.1,0.3-0.2,0.5-0.4c0.1-0.1,0.3-0.2,0.4-0.3c0,0,0.1,0,0.1-0.1c0,0,0.1,0,0.1,0c0,0,0.2-0.1,0.2-0.1c0,0,0.1,0,0.1,0
			c0,0,0,0,0,0c0.1,0,0.2,0,0.3,0c0,0,0.1,0,0.1,0c0,0,0,0,0,0c0,0,0,0,0,0c0.1,0,0.2,0,0.3,0.1c0,0,0.1,0,0.1,0c0,0,0,0,0,0
			c0,0,0,0,0,0c0.1,0,0.2,0.1,0.2,0.1c0,0,0.1,0.1,0.1,0.1c0,0,0,0,0,0c0,0,0,0,0,0c0.1,0.1,0.1,0.1,0.2,0.2
			c0.2,0.2,0.2,0.3,0.4,0.5c0.3,0.3,0.9,0.2,0.9-0.2C224.2,187.3,223.7,186.8,223.2,186.4z"/>
		<path class="st20" d="M208,192.9c0-0.1,0-0.3,0-0.4c0-0.2-0.1-0.5-0.3-0.7c0,0,0,0,0,0c0-0.1-0.1-0.1-0.1-0.2
			c-0.1-0.1-0.2-0.2-0.3-0.2c-0.2-0.1-0.5-0.2-0.7-0.1c-0.2,0.1-0.5,0.2-0.6,0.4c0,0.1-0.1,0.2-0.1,0.2c0,0.2,0,0.3,0,0.5
			c0.1,0.5,0.2,1,0.3,1.5c0,0.1,0.1,0.2,0.2,0.3c0.1,0.1,0.2,0.2,0.3,0.2c0.1,0,0.2,0.1,0.2,0.1c0.1,0,0.3,0,0.4,0
			c0.1,0,0.2,0,0.2-0.1c0.1,0,0.2-0.1,0.3-0.2c0,0,0,0,0-0.1c0,0,0,0,0.1,0c0.1-0.1,0.2-0.2,0.2-0.3c0.1-0.1,0.1-0.2,0.1-0.4
			C208.1,193.4,208,193.1,208,192.9z"/>
		<path class="st20" d="M222.4,192.9c0-0.1,0-0.3,0-0.4c0-0.2-0.1-0.5-0.3-0.7c0,0,0,0,0,0c0-0.1-0.1-0.1-0.1-0.2
			c-0.1-0.1-0.2-0.2-0.3-0.2c-0.2-0.1-0.5-0.2-0.7-0.1c-0.2,0.1-0.5,0.2-0.6,0.4c0,0.1-0.1,0.2-0.1,0.2c0,0.2,0,0.3,0,0.5
			c0.1,0.5,0.2,1,0.3,1.5c0,0.1,0.1,0.2,0.2,0.3c0.1,0.1,0.2,0.2,0.3,0.2c0.1,0,0.2,0.1,0.2,0.1c0.1,0,0.3,0,0.4,0
			c0.1,0,0.2,0,0.2-0.1c0.1,0,0.2-0.1,0.3-0.2c0,0,0,0,0-0.1c0,0,0,0,0.1,0c0.1-0.1,0.2-0.2,0.2-0.3c0.1-0.1,0.1-0.2,0.1-0.4
			C222.5,193.4,222.5,193.1,222.4,192.9z"/>
		<path class="st26" d="M216,196.4c-0.2-0.1-0.4-0.1-0.6,0c-0.1,0-0.1,0.1-0.2,0.1c0,0,0,0,0,0c0,0,0,0-0.1,0
			c-0.1,0-0.2,0.1-0.3,0.1c-0.1,0-0.1,0-0.2,0c0,0,0,0,0,0c0,0-0.1,0-0.1,0c-0.2,0-0.5,0-0.7,0c-0.2,0-0.4,0-0.7-0.1
			c-0.2,0-0.4,0.2-0.2,0.4c0.2,0.2,0.4,0.4,0.7,0.5c0.3,0.1,0.6,0.2,0.9,0.1c0.3,0,0.6-0.1,0.9-0.1c0.4-0.1,0.9-0.3,0.9-0.7
			C216.3,196.6,216.2,196.5,216,196.4z"/>
		<path class="st0" d="M217.1,200.2c-0.4-0.1-0.7,0-1,0.1c0,0-0.1,0-0.1,0c-0.3,0.1-0.6,0.2-0.8,0.3l0.3-0.1
			c-0.2,0.1-0.4,0.1-0.6,0.2c-0.1,0-0.2,0-0.3,0c0,0-0.1,0-0.1,0c-0.1,0-0.2-0.1-0.3-0.1c-0.1,0-0.1,0-0.2,0c-0.4-0.1-0.8,0-1.1,0.4
			c-0.3,0.3-0.3,0.8-0.1,1.1c0.1,0.2,0.2,0.4,0.4,0.5c0.2,0.2,0.5,0.3,0.8,0.5c0.4,0.1,0.8,0.2,1.1,0.2c0.4,0,0.9-0.1,1.2-0.2
			c0.3-0.1,0.5-0.2,0.7-0.4c0.1,0,0.2-0.1,0.2-0.1c0.3-0.2,0.5-0.5,0.6-0.8C218.2,201.1,217.8,200.3,217.1,200.2z"/>
		<g>
			<path class="st21" d="M222.9,197C222.9,197,222.9,196.9,222.9,197C222.9,196.9,222.9,196.9,222.9,197z"/>
			<path class="st30" d="M226.8,195.6c-0.2-0.4-0.5-0.6-0.9-0.9c-0.4-0.2-0.8-0.3-1.2-0.3c-0.2,0-0.4,0-0.6,0.1
				c-0.4,0.1-0.8,0.3-1.1,0.6c-0.1,0.1-0.3,0.3-0.4,0.5c0,0,0,0,0,0c-0.1,0.2-0.2,0.4-0.2,0.6c0,0,0,0,0,0c0,0.2-0.1,0.4-0.1,0.6
				c0,0,0,0,0,0c0,0,0,0,0,0c0,0.1,0.1,0.5,0.1,0.6c0,0,0,0,0,0c0.1,0.4,0.3,0.7,0.6,1c0.3,0.3,0.6,0.5,1,0.6c0.4,0.1,0.8,0.1,1.2,0
				c0.2-0.1,0.4-0.2,0.6-0.3l0.1,0c0.3-0.1,0.5-0.4,0.7-0.6c0.1-0.1,0.1-0.2,0.2-0.2c0.2-0.4,0.3-0.8,0.3-1.2
				C227.1,196.3,227,195.9,226.8,195.6z"/>
			<path class="st30" d="M207.9,197.2c-0.2-0.3-0.5-0.6-0.8-0.8c-0.3-0.2-0.7-0.3-1.1-0.3c-0.2,0-0.4,0-0.6,0.1
				c-0.4,0.1-0.7,0.3-1,0.6c-0.1,0.1-0.2,0.3-0.4,0.5c0,0,0,0,0,0c-0.1,0.2-0.2,0.4-0.2,0.5c0,0,0,0,0,0c0,0.2-0.1,0.4-0.1,0.6
				c0,0,0,0,0,0c0,0,0,0,0,0c0,0.1,0.1,0.5,0.1,0.6c0,0,0,0,0,0c0.1,0.4,0.3,0.7,0.6,1c0.3,0.3,0.6,0.5,1,0.6c0.4,0.1,0.8,0.1,1.2,0
				c0.2-0.1,0.4-0.1,0.6-0.2l0.1,0c0.3-0.1,0.5-0.3,0.6-0.6c0.1-0.1,0.1-0.1,0.2-0.2c0.2-0.3,0.3-0.7,0.3-1.1
				C208.2,197.9,208.1,197.5,207.9,197.2z"/>
			<path class="st30" d="M193.5,145.3c-0.2-0.4-0.6-0.7-1-1c-0.4-0.2-0.9-0.4-1.4-0.4c-0.2,0-0.5,0-0.7,0.1
				c-0.5,0.1-0.8,0.4-1.2,0.7c-0.2,0.2-0.3,0.4-0.4,0.5c0,0,0,0,0,0c-0.1,0.2-0.2,0.4-0.3,0.7c0,0,0,0,0,0c0,0.2-0.1,0.5-0.1,0.7
				c0,0,0,0,0,0c0,0,0,0,0,0c0,0.1,0.1,0.6,0.1,0.7c0,0,0,0,0,0c0.1,0.4,0.3,0.8,0.7,1.2c0.3,0.3,0.7,0.5,1.2,0.7
				c0.5,0.1,0.9,0.1,1.4,0c0.2-0.1,0.5-0.2,0.7-0.3l0.1,0c0.3-0.2,0.6-0.4,0.8-0.7c0.1-0.1,0.1-0.2,0.2-0.3c0.2-0.4,0.4-0.9,0.4-1.4
				C193.8,146.1,193.7,145.7,193.5,145.3z"/>
			<path class="st30" d="M169,145.8c-0.2-0.4-0.6-0.7-1-1c-0.4-0.2-0.9-0.4-1.4-0.4c-0.2,0-0.5,0-0.7,0.1c-0.5,0.1-0.8,0.4-1.2,0.7
				c-0.2,0.2-0.3,0.4-0.4,0.5c0,0,0,0,0,0c-0.1,0.2-0.2,0.4-0.3,0.7c0,0,0,0,0,0c0,0.2-0.1,0.5-0.1,0.7c0,0,0,0,0,0c0,0,0,0,0,0
				c0,0.1,0.1,0.6,0.1,0.7c0,0,0,0,0,0c0.1,0.4,0.3,0.8,0.7,1.2c0.3,0.3,0.7,0.5,1.2,0.7c0.5,0.1,0.9,0.1,1.4,0
				c0.2-0.1,0.5-0.2,0.7-0.3l0.1,0c0.3-0.2,0.6-0.4,0.8-0.7c0.1-0.1,0.1-0.2,0.2-0.3c0.2-0.4,0.4-0.9,0.4-1.4
				C169.4,146.7,169.2,146.2,169,145.8z"/>
		</g>
		<path class="st31" d="M289.3,165.7c-0.1,0-0.1,0.1-0.2,0.1c0,0,0,0,0,0c0,0,0,0,0,0c-0.1,0-0.2,0.1-0.3,0.1
			c-0.1,0-0.1,0.1-0.1,0.2c-0.7,0.5-1.3,1-2,1.5c-0.8,0.6-1.7,1-2.6,1.5c-1.7,0.8-3.6,1.3-5.5,1.5c-2,0.2-4,0.1-6-0.3
			c-1-0.2-1.9-0.5-2.9-0.8c-1-0.3-2-0.9-3-1.1c-0.2,0-0.4,0-0.5,0.1c0,0.1-0.1,0.1-0.1,0.2c0,0,0,0,0,0.1c-0.1,0.2,0,0.4,0.1,0.5
			c0.8,0.8,1.9,1.3,2.9,1.7c1,0.4,2,0.8,3,1c2.2,0.5,4.4,0.6,6.6,0.4c2.2-0.3,4.2-0.8,6.2-1.7c0.9-0.4,1.9-0.9,2.7-1.5
			c0.9-0.6,1.9-1.3,2.6-2.1C290.7,166.3,290,165.6,289.3,165.7z"/>
		<path class="st31" d="M345.1,222.6c-0.1-0.1-0.7-0.4-0.9-0.4c-0.1,0-0.2,0-0.3,0.1c-0.3,0.1-0.5,0.2-0.8,0.3
			c-0.9,0.4-1.9,0.9-2.8,1.3c-3.7,1.6-7.5,3.1-11.3,4.5c-2.2,0.8-4.3,1.6-6.5,2.3c-1.1,0.4-2.2,0.7-3.3,1.1
			c-0.6,0.2-1.1,0.4-1.7,0.6c-0.3,0.1-0.6,0.2-0.8,0.4c-0.2-0.8-0.3-1.6-0.5-2.5c-0.5-2.7-1-5.3-1.5-7.9c-1-5.3-2.1-10.6-3.2-15.9
			c-0.6-3-1-6.1-2-9c-0.1-0.2-0.4-0.2-0.4,0c0.1,2.6,0.7,5.3,1.1,7.9c0.5,2.7,0.9,5.3,1.4,8c0.9,5.3,1.8,10.7,2.7,16
			c0.3,1.5,0.5,2.9,0.8,4.4c0.1,0.8,0.3,1.6,0.4,2.3c0.1,0.8,0.3,1.4,0.9,1.9c0.2,0.2,0.5,0.2,0.6-0.1c0.6-1.2,0.1-2.5-0.1-3.7
			c-0.1-0.3-0.1-0.6-0.2-0.9c0.6,0.3,1.6-0.1,2.2-0.3c1-0.2,2-0.5,3-0.8c1.9-0.5,3.8-1.1,5.8-1.7c3.9-1.2,7.7-2.8,11.5-4.4
			c0.9-0.4,1.8-0.8,2.7-1.2c0.5-0.2,0.9-0.4,1.4-0.6c0.4-0.2,1-0.4,1.3-0.7C345.1,223.4,345.3,223,345.1,222.6z"/>
		<path class="st31" d="M322.4,273.7c-0.6-0.1-1-0.1-1.6,0.2c-0.5,0.3-1,0.6-1.6,0.8c-1.1,0.6-2.1,1.1-3.2,1.6
			c-2.2,1-4.4,1.8-6.7,2.6c-4.5,1.4-9.2,2.3-14,2.4c-10,0.2-19.4-3.7-29.2-5c-2.9-0.4-5.9-0.5-8.8-0.5c-2.9,0.1-5.8,0.2-8.7,0.8
			c-0.4,0.1-0.3,0.7,0.1,0.7c2.7,0.1,5.3-0.1,7.9-0.1c2.6,0,5.2,0.1,7.8,0.5c5,0.6,9.9,2.1,14.8,3.3c4.9,1.2,9.8,2.2,14.8,2.2
			c4.8,0,9.5-0.8,14.1-2.1c2.6-0.8,5.2-1.7,7.7-2.8c1.2-0.5,2.5-1.1,3.7-1.7c0.6-0.3,1.2-0.6,1.8-0.9c0.7-0.4,1-0.7,1.2-1.4
			C322.8,274,322.7,273.7,322.4,273.7z"/>
		<path class="st32" d="M287,297.4c-0.2-0.2-0.3-0.5-0.4-0.7c-0.2-0.2-0.3-0.5-0.5-0.7c-0.4-0.5-0.7-1-1.1-1.5
			c-0.7-1.2-1.4-2.4-1.9-3.7c-0.5-1.3-0.8-2.6-1-4c-0.1-0.7-0.1-1.3,0-2c0.1-0.5,0.4-1.3,0.1-1.8c-0.1-0.1-0.1-0.1-0.2-0.1
			c-0.6,0.1-0.8,1-0.9,1.5c-0.2,0.7-0.2,1.5-0.2,2.2c0,1.6,0.4,3.1,0.9,4.6c0.5,1.4,1.1,2.8,1.9,4.1c0.4,0.6,0.8,1.3,1.4,1.8
			c0.2,0.2,0.5,0.4,0.8,0.5c0.4,0.2,0.6,0.1,1,0.1C287.1,297.8,287.2,297.5,287,297.4z"/>
		<path class="st32" d="M304.5,285.2c-1.8,9.4-10.9,14.2-18.8,17.8c-8.1,3.6-16.3,7.4-23.5,12.8c-3.5,2.6-6.7,5.5-9.5,8.7
			c-3,3.6-5.5,7.5-7.5,11.7c-2.2,4.5-4,9.2-5.7,13.8c-1.8,4.8-3.4,9.6-4.8,14.4c-2.9,9.8-5.2,19.7-6.6,29.8
			c-0.2,1.2-0.3,2.4-0.5,3.6c0,0.3,0.4,0.3,0.5,0.1c1.6-10,3.6-20,6.4-29.7c2.7-9.8,6-19.5,10.2-28.8c2-4.4,4.2-8.7,7.2-12.5
			c2.7-3.4,5.8-6.4,9.3-9.1c7-5.5,15-9.5,23.1-13.1c8-3.5,16.9-7.6,20.4-16.3c0.4-1,0.7-2,0.9-3
			C305.7,284.8,304.7,284.6,304.5,285.2z"/>
		<path class="st32" d="M213.9,320.1c-0.9,0.8-1.7,1.8-2.4,2.8c-0.7,0.9-1.4,1.9-2.1,2.8c-1.4,2-2.7,4.1-3.9,6.2
			c-2.4,4.2-4.5,8.7-6.3,13.2c-1.8,4.6-3.2,9.2-4.5,13.9c-1.4,5.3-2.6,10.7-3.2,16.1c-0.4,3.1-0.6,6.2-0.6,9.3
			c0,3.1-0.1,6.3,0.5,9.3c0,0.2,0.4,0.2,0.4,0c0.2-2.7,0-5.5,0-8.2c0-2.8,0.2-5.5,0.5-8.2c0.5-5.5,1.6-10.9,3-16.3
			c2.4-9.4,5.7-18.6,10.4-27c1.3-2.3,2.7-4.6,4.2-6.8c0.8-1.1,1.6-2.2,2.4-3.3c0.8-1.1,1.8-2.1,2.5-3.2
			C214.9,320.2,214.3,319.8,213.9,320.1z"/>
		<g>
			<path class="st20" d="M258.4,131.5C258.5,131.5,258.5,131.5,258.4,131.5c0,0,0-0.1,0-0.1c0,0,0,0,0,0c0,0,0,0,0,0l0,0
				c0,0,0,0,0,0c0,0,0,0,0,0c-0.1-0.3-0.4-0.5-0.7-0.6c-0.2-0.1-0.5-0.2-0.7-0.2c-0.5-0.1-1-0.1-1.5,0.1c-0.2,0.1-0.4,0.2-0.6,0.3
				c-0.2,0.2-0.4,0.4-0.6,0.6c-0.1,0.2-0.2,0.4-0.3,0.6c0,0.1,0,0.3,0,0.4c0,0.1,0,0.2,0,0.2c0,0,0,0,0,0c0,0.5,0.5,0.7,0.9,0.5
				c0.1,0,0.2-0.1,0.2-0.2c0,0,0,0,0.1,0c0,0,0,0,0,0c0,0,0,0,0.1,0c0.1-0.1,0.3-0.2,0.4-0.4c0,0,0.1-0.1,0.1-0.1c0,0,0.1,0,0.1-0.1
				c0.1,0,0.1-0.1,0.2-0.1c0,0,0.1,0,0.1,0c0,0,0,0,0,0c0,0,0,0,0.1,0c0,0,0,0,0,0c0,0,0.1,0,0.1,0c0,0,0.1,0,0.1,0c0,0,0.1,0,0.1,0
				c0.1,0,0.2,0,0.2,0c0,0,0,0,0.1,0c0.1,0,0.3,0.1,0.4,0.1c0,0,0.1,0,0.1,0.1c0.2,0.1,0.4,0.2,0.6,0.2c0.4,0,0.7-0.3,0.8-0.6
				C258.5,131.9,258.5,131.7,258.4,131.5z"/>
			<path class="st20" d="M255.9,132.5C256,132.4,256,132.4,255.9,132.5C256,132.4,256,132.5,255.9,132.5
				C255.9,132.5,255.9,132.5,255.9,132.5z"/>
		</g>
		<g>
			<path class="st20" d="M274.2,129.9C274.2,129.9,274.2,129.9,274.2,129.9C274.3,129.9,274.3,129.9,274.2,129.9
				C274.2,129.9,274.2,129.9,274.2,129.9z"/>
			<path class="st20" d="M276.7,129.2c-0.1-0.3-0.5-0.5-0.8-0.7c-0.2-0.1-0.5-0.3-0.8-0.3c-0.6-0.2-1.1-0.2-1.7-0.1
				c-0.5,0.1-1,0.4-1.4,0.7c-0.4,0.3-0.8,0.9-0.8,1.4c0,0.5,0.5,0.8,1,0.6c0.1-0.1,0.2-0.1,0.3-0.2c0,0,0,0,0,0
				c0.1,0,0.2-0.1,0.2-0.2c0,0,0,0,0,0c0,0,0,0,0.1,0c0.1-0.1,0.2-0.1,0.2-0.1c0.1,0,0.2-0.1,0.2-0.1c0,0,0,0,0,0c0,0,0,0,0,0
				c0,0,0,0,0,0c0.1,0,0.1,0,0,0c0,0,0.1,0,0.1,0c0.1,0,0.2-0.1,0.3-0.1c0,0,0.1,0,0.1,0c0,0,0,0,0.1,0c0,0,0,0,0,0c0,0,0.1,0,0.1,0
				c0.1,0,0.1,0,0.2,0c0,0-0.1,0,0,0c0,0,0,0,0,0c0,0,0,0,0,0c0,0,0,0,0,0c0,0,0.1,0,0.1,0c0.1,0,0.2,0,0.3,0.1c0,0,0.1,0,0.1,0
				c0,0,0,0-0.1,0c0,0,0,0,0,0c0.1,0,0.2,0.1,0.2,0.1c0,0,0,0,0.1,0c0,0,0,0,0,0c0.2,0.2,0.4,0.3,0.6,0.4c0.4,0.1,0.8-0.1,1-0.3
				C276.9,129.9,276.9,129.5,276.7,129.2z"/>
			<path class="st20" d="M274.7,130C274.7,130,274.7,130,274.7,130L274.7,130z"/>
			<path class="st20" d="M273.2,130C273.3,130,273.3,130,273.2,130C273.3,130,273.3,130,273.2,130C273.2,130,273.2,130,273.2,130z"
				/>
		</g>
		<path class="st20" d="M259.5,140.3c-0.1-0.6-0.2-1.2-0.5-1.8c-0.3-0.6-0.9-1.2-1.6-1.2c-0.5,0-0.9,0.3-1.1,0.7
			c-0.2,0.3-0.2,0.7-0.3,1c-0.1,0.6,0,1.1,0.2,1.7c0.4,1.5,3.1,2.4,3.3,0.3C259.6,140.7,259.6,140.5,259.5,140.3z"/>
		<path class="st20" d="M277,137c-0.1-0.6-0.2-1.2-0.5-1.8c-0.3-0.6-0.9-1.2-1.6-1.2c-0.5,0-0.9,0.3-1.1,0.7c-0.2,0.3-0.2,0.7-0.3,1
			c-0.1,0.6,0,1.1,0.2,1.7c0.4,1.5,3.1,2.4,3.3,0.3C277,137.5,277,137.3,277,137z"/>
		<path class="st25" d="M269.7,142.4c-0.2,0.1-0.4,0.2-0.6,0.4c0,0-0.1,0.1-0.1,0.1c0,0,0,0-0.1,0.1c0,0,0,0,0,0c0,0-0.1,0-0.1,0.1
			c-0.1,0.1-0.3,0.2-0.4,0.2c0,0-0.1,0-0.1,0.1c0,0-0.1,0.1,0,0c0.1-0.1-0.1,0.1-0.1,0c0,0-0.1,0-0.1,0.1c0,0,0,0,0,0
			c-0.1,0.1-0.3,0.1-0.4,0.1c-0.1,0-0.1,0-0.2,0c0,0,0,0,0,0c0,0-0.1,0-0.1,0c-0.1,0-0.3,0-0.4,0c-0.1,0-0.2,0-0.2,0
			c0,0-0.1-0.1-0.1,0c-0.1-0.2-0.3-0.1-0.4,0.1c-0.2,0.4,0.2,0.8,0.6,1c0.4,0.2,0.9,0.4,1.4,0.3c0.5,0,1-0.2,1.4-0.4
			c0.2-0.1,0.4-0.3,0.6-0.4c0.3-0.2,0.4-0.4,0.6-0.7C270.8,142.8,270.2,142.2,269.7,142.4z"/>
		<g>
			<path class="st0" d="M267.3,147.2C267.3,147.2,267.3,147.2,267.3,147.2C267.2,147.3,267.2,147.3,267.3,147.2
				C267.2,147.3,267.2,147.3,267.3,147.2C267.3,147.3,267.3,147.3,267.3,147.2z"/>
			<path class="st0" d="M272.8,148.9c-0.2-0.7-0.7-1.1-1.4-1.2c-0.5,0-0.9,0.2-1.3,0.4c-0.2,0.1-0.4,0.2-0.6,0.3
				c-0.1,0-0.3,0.1-0.4,0.1c-0.8,0.1-2.2,0.5-1.9,1.6c0.3,0.8,1.3,1.4,2.1,1.4c0.3,0,0.7,0,1-0.1c0.8-0.2,1.6-0.5,2.1-1.1
				C272.7,149.8,272.9,149.3,272.8,148.9z"/>
		</g>
		<path class="st33" d="M200.4,134.5c-0.7-0.5-1.7-0.4-2.5-0.5c-0.9-0.1-1.7-0.3-2.6-0.6c-1.7-0.6-3.3-1.4-4.7-2.4
			c-3-2.1-5.3-4.9-7.3-8c-0.6-0.9-1.1-1.8-1.7-2.7c-0.3-0.5-0.5-1-0.8-1.5c-0.2-0.4-0.4-0.9-0.8-1.2c-0.1-0.1-0.3-0.1-0.4,0
			c-0.1-0.1-0.2-0.1-0.4-0.1c-1.1,0.4-1.3,1.9-1.8,2.8c-0.5,1.1-1.1,2.1-1.8,3.1c-1.3,2-2.9,3.7-4.6,5.2c-3.9,3.3-8.7,5.1-13.7,5.3
			c-1.5,0-2.9,0-4.4-0.2c-1.5-0.2-3-0.6-4.5-0.8c-0.3,0-0.4,0.3-0.2,0.5c1.2,0.8,2.5,1.2,3.9,1.5c1.3,0.3,2.7,0.5,4,0.6
			c2.8,0.1,5.6-0.3,8.3-1.2c4.9-1.6,9.1-4.7,12.2-9c0.8-1.1,1.6-2.4,2.2-3.6c0.3-0.6,0.6-1.3,0.8-1.9c0-0.1,0.1-0.2,0.1-0.3
			c0.1,0.3,0.3,0.7,0.4,0.9c0.4,1,0.8,1.9,1.3,2.8c1,1.8,2.2,3.5,3.5,5.1c2.5,3,5.8,5.4,9.4,6.7c1.1,0.4,2.2,0.7,3.4,0.8
			c0.9,0,2.3-0.2,2.6-1.3C200.5,134.7,200.5,134.6,200.4,134.5z"/>
		<path class="st33" d="M149.8,147.9c-0.2-1.4-0.4-2.9-0.6-4.3c-0.2-1.3-0.3-3-1.1-4.1c0,0-0.1,0-0.1,0c-0.3,1.1,0.1,2.5,0.2,3.6
			c0.1,1.3,0.2,2.6,0.3,3.8c0.1,2.5,0.2,5.1,0.2,7.6c0,5.1-0.6,10.2-1.4,15.3c-0.2,1.4-0.6,2.8-0.8,4.1c-0.3,1.5-0.2,3-0.5,4.5
			c0,0.3,0.3,0.4,0.4,0.1c0.5-1.2,1.2-2.4,1.6-3.7c0.4-1.2,0.6-2.5,0.9-3.8c0.5-2.6,0.8-5.2,1.1-7.8
			C150.4,158.2,150.4,153.1,149.8,147.9z"/>
		<path class="st33" d="M157.2,155.3c-0.1-1.2-0.2-2.5-0.3-3.7c-0.1-1.1-0.1-2.3-0.6-3.3c-0.1-0.1-0.3-0.1-0.3,0
			c-0.3,1.1,0,2.4,0,3.5c0.1,1.1,0.1,2.3,0.1,3.4c0.1,2.3,0.1,4.5,0.1,6.8c-0.1,2.1-0.2,4.2-0.7,6.3c-0.2,1-0.5,1.9-0.8,2.9
			c-0.3,0.9-0.7,1.9-0.8,2.9c0,0.1,0.2,0.2,0.2,0.1c1.6-1.3,2.1-3.7,2.5-5.5c0.5-2.1,0.6-4.2,0.7-6.4
			C157.4,160,157.4,157.7,157.2,155.3z"/>
		<path class="st33" d="M164.6,159.2c-0.1-0.1-0.2,0-0.2,0c-0.1,1.9-0.3,3.7-0.5,5.6c-0.1,1-0.3,1.9-0.3,2.9c0,0.4-0.1,0.9,0,1.3
			c0,0.5,0.1,1,0.1,1.6c0,0.1,0.2,0.2,0.2,0c0.1-0.5,0.4-1,0.5-1.5c0.1-0.5,0.2-1,0.3-1.5c0.1-1,0.2-2,0.3-3
			C165.2,163,165.6,160.8,164.6,159.2z"/>
		<path class="st33" d="M192.2,167.8c-0.2-0.7-0.4-1.3-0.5-2c-0.1-0.7-0.3-1.3-0.4-2c-0.1-0.6-0.1-1.4-0.6-1.8c-0.1-0.1-0.1,0-0.2,0
			c-0.4,0.6-0.2,1.3-0.1,1.9c0.1,0.7,0.2,1.4,0.4,2.1c0.2,0.7,0.3,1.4,0.5,2.1c0.2,0.6,0.4,1.3,0.9,1.7c0.1,0.1,0.2,0,0.2-0.1
			C192.6,169.1,192.4,168.4,192.2,167.8z"/>
		<path class="st33" d="M197.1,162.5c-0.3-0.8-0.6-1.7-0.9-2.6c-0.2-0.8-0.4-1.7-0.6-2.6c-0.2-0.9-0.2-1.8-0.5-2.6
			c-0.1-0.1-0.2-0.1-0.3,0c-0.3,0.8-0.2,1.8-0.1,2.7c0.1,0.9,0.2,1.8,0.5,2.7c0.2,0.9,0.5,1.8,0.9,2.7c0.2,0.6,0.6,1.9,1.3,2
			c0.1,0,0.2,0,0.3-0.1C198,164,197.4,163.1,197.1,162.5z"/>
		<path class="st33" d="M202.1,155.4c-0.3-1.8-0.5-3.6-0.7-5.3c-0.2-1.8-0.4-3.5-0.6-5.3c-0.1-0.9-0.2-1.8-0.3-2.7
			c-0.1-0.7,0-1.5-0.5-2c0,0-0.1,0-0.1,0c-0.4,0.6-0.2,1.5-0.2,2.2c0,0.9,0.1,1.8,0.1,2.7c0.1,1.8,0.3,3.5,0.4,5.3
			c0.2,1.7,0.4,3.4,0.6,5.2c0.2,1.8,0.4,3.6,1.1,5.3c0.1,0.3,0.5,0.3,0.6-0.1C202.7,158.9,202.4,157.2,202.1,155.4z"/>
		<path class="st33" d="M177.2,113.8c-0.1-0.3-0.5-0.2-0.5,0.1c0,0.6-0.7,1-1,1.4c-0.3,0.4-0.6,0.9-0.9,1.3
			c-0.6,0.8-1.2,1.6-1.8,2.4c-1.4,1.5-2.9,2.9-4.6,4.1c-3.6,2.5-7.8,4.1-12.2,4.5c-1.3,0.1-2.6,0.1-3.9,0c-0.7-0.1-1.3-0.1-2-0.2
			c-0.6-0.1-1.2-0.2-1.8-0.1c-0.1,0-0.1,0.1,0,0.2c0.9,0.7,2.3,0.8,3.4,1c1.2,0.2,2.4,0.3,3.6,0.2c2.5,0,5-0.3,7.4-1
			c4.4-1.3,8.3-3.7,11.3-7.2c0.8-0.9,1.6-1.9,2.3-3c0.3-0.5,0.7-1.1,0.8-1.7C177.4,115,177.3,114.4,177.2,113.8z"/>
		<path class="st33" d="M171.3,110.5c-0.1-0.2-0.3-0.2-0.4-0.1c-0.5,0.7-1.2,1.2-1.9,1.8c-0.7,0.6-1.3,1.2-2,1.7
			c-1.5,1.2-3,2.4-4.5,3.5c-1.5,1-3.2,2-4.9,2.6c-0.9,0.3-1.7,0.5-2.6,0.7c-0.5,0.1-1,0.1-1.4,0c-0.4,0-0.7-0.2-1.1-0.1
			c0,0-0.1,0.1,0,0.1c0.2,0.8,1.4,0.9,2.1,0.9c1,0,2-0.1,2.9-0.4c2-0.5,4-1.3,5.8-2.4c1.8-1.1,3.5-2.5,5.2-3.8
			C169.6,114,172,112.4,171.3,110.5z"/>
		<path class="st33" d="M198.6,126.4c0-0.1-0.1-0.2-0.2-0.3c-0.1-0.1-0.2-0.2-0.4-0.1c0,0,0,0,0,0c-0.5-0.3-1.3-0.4-1.8-0.5
			c-0.8-0.2-1.5-0.5-2.3-0.8c-1.6-0.6-3-1.5-4.4-2.4c-1.4-0.9-2.6-2.1-3.7-3.3c-0.6-0.6-1.1-1.3-1.6-2c-0.5-0.7-0.8-1.5-1.5-2
			c-0.2-0.1-0.4-0.1-0.4,0.2c0,0.8,0.5,1.6,0.9,2.3c0.4,0.8,0.9,1.5,1.5,2.3c1,1.4,2.2,2.6,3.6,3.8c1.4,1.1,2.8,2.1,4.4,2.8
			c0.8,0.4,1.6,0.7,2.5,1c0.9,0.3,1.8,0.6,2.7,0.4c0.3-0.1,0.5-0.3,0.6-0.6c0,0,0,0.1,0,0.1C198.6,126.8,198.7,126.6,198.6,126.4z"
			/>
		<path class="st33" d="M197.1,118.5c-0.8,0-1.6-0.1-2.4-0.3c-1.3-0.4-2.6-1-3.7-1.8c-1.1-0.8-2.1-1.7-3-2.7
			c-0.4-0.5-0.8-1.1-1.2-1.7c-0.3-0.6-0.6-1.2-1.1-1.6c-0.1-0.1-0.2,0-0.2,0.1c0,1.2,0.9,2.6,1.5,3.6c0.8,1.2,1.7,2.2,2.8,3.1
			c1.1,0.9,2.3,1.7,3.6,2.2c1.4,0.6,3.2,1.2,4.7,0.4c0.2-0.1,0.3-0.3,0.3-0.6C198.4,118.4,197.6,118.5,197.1,118.5z"/>
		<path class="st13" d="M158.5,218c-0.2-0.8-0.3-1.6-0.3-2.4c-0.1-1.6-0.1-3.3-0.1-4.9c0-1.6,0-3.2-0.3-4.8
			c-0.2-1.5-0.6-3.1-1.5-4.4c-0.1-0.2-0.5-0.1-0.4,0.2c0.4,1.6,0.8,3.1,0.9,4.8c0.1,1.6,0,3.3,0,4.9c0,1.6-0.1,3.3,0.1,4.9
			c0.1,0.8,0.2,1.5,0.4,2.3c0.2,0.7,0.3,1.6,0.9,2.2c0.3,0.3,0.9,0.1,0.9-0.4C159,219.5,158.6,218.7,158.5,218z"/>
		<path class="st13" d="M157.7,221.1c-0.5-0.1-0.9,0.1-1.4,0.3c-0.5,0.2-1,0.3-1.5,0.5c-0.9,0.3-1.9,0.5-2.8,0.7c-2,0.4-4,0.6-6,0.7
			c-2,0.1-4,0.2-6,0.2c-1,0-2,0-3-0.1c-0.3,0-1.9-0.5-1.8,0.2c0.1,0.7,1.7,0.8,2.2,0.9c1,0.1,2,0.2,3,0.2c2,0,4.1-0.1,6.1-0.2
			c2-0.1,4-0.3,6-0.7c1-0.2,1.9-0.4,2.8-0.7c0.8-0.2,2.1-0.5,2.6-1.2C158.2,221.6,158,221.1,157.7,221.1z"/>
		<path class="st13" d="M192.7,177.3c-0.4,0-0.7,0.3-0.7,0.6c-0.1,0.3-0.6,0.8-0.9,1.1c-0.5,0.5-1,1-1.5,1.5c-1,0.9-2.1,1.6-3.3,2.3
			c-2.3,1.3-4.8,2.2-7.4,2.6c-5.4,0.9-10.7-0.3-15.4-3c-1.3-0.8-2.6-1.6-3.7-2.6c-0.6-0.5-1.2-1-1.8-1.6c-0.5-0.5-1-1.1-1.7-1.5
			c-0.3-0.1-0.5,0.1-0.5,0.4c0.1,0.7,0.7,1.3,1.1,1.9c0.5,0.6,1,1.2,1.6,1.7c1.1,1,2.3,2,3.5,2.8c2.5,1.6,5.4,2.8,8.3,3.5
			c6,1.3,12.3,0.3,17.6-2.9c1.4-0.9,2.8-1.9,4-3.1c0.6-0.6,1.2-1.2,1.6-1.8C194,178.4,193.7,177.2,192.7,177.3z"/>
		<path class="st13" d="M185.6,286c-0.8-0.5-1.5-0.2-2.3,0c-0.9,0.2-1.8,0.5-2.8,0.6c-1.7,0.3-3.4,0.6-5.1,0.7
			c-3.5,0.2-7.1,0-10.5-0.6c-3.5-0.6-6.9-1.5-10.2-2.7c-3.4-1.2-6.5-3-9.6-4.8c-0.9-0.5-1.8-0.9-2.7-1.5c-0.8-0.5-1.6-1-2.4-1.5
			c-0.7-0.5-1.5-1-2.2-1.6c-0.6-0.6-0.9-1.3-1.5-1.9c-0.1-0.1-0.2,0-0.2,0.1c-0.2,1.4,1.1,2.5,2.1,3.4c1.3,1.2,2.9,2.1,4.4,3.1
			c0.7,0.5,1.4,1,2.2,1.5c0.9,0.6,1.8,1.1,2.7,1.7c0.7,0.5,1.5,0.9,2.2,1.3c0.8,0.5,1.6,0.9,2.5,1.3c3.4,1.6,7.1,2.6,10.8,3.3
			c3.6,0.7,7.3,1.1,11,1c2.1-0.1,4.3-0.3,6.3-0.7c1-0.2,2-0.4,3-0.7c0.5-0.1,1.1-0.3,1.6-0.5c0.5-0.2,0.7-0.5,0.9-1
			C185.9,286.4,185.8,286.1,185.6,286z"/>
		<path class="st34" d="M185.9,298c-5.1,7.1-9.2,15-12.5,23.1c-3.3,8.1-5.6,16.7-6.9,25.3c-0.8,5.4-1.2,10.8-1.4,16.2
			c0,0.3,0.4,0.3,0.5,0c0.5-4.9,0.8-9.8,1.4-14.6c0.6-4.3,1.5-8.6,2.5-12.8c2.2-8.4,5.3-16.6,9.4-24.3c2.3-4.3,4.8-8.5,7.6-12.5
			C186.7,298,186.1,297.6,185.9,298z"/>
		<path class="st34" d="M159.1,292.1c-3.8,2.7-7,6.3-9.9,9.9c-3,3.7-5.7,7.7-7.9,12c-2.2,4.4-3.6,9.1-4.2,14
			c-0.6,5.1-0.5,10.2-0.4,15.3c0.1,3,0.2,6,0.3,9c0.1,1.5,0.1,3,0.2,4.4c0.1,1.5,0.1,3,0.4,4.5c0,0.2,0.3,0.1,0.3,0
			c0.1-1.3,0-2.6,0-4c-0.1-1.3-0.1-2.6-0.1-4c-0.1-2.6-0.1-5.3-0.2-7.9c-0.1-5-0.3-10,0.2-15c0.4-5,1.5-9.9,3.6-14.5
			c2-4.3,4.5-8.3,7.4-12c1.6-2.1,3.3-4.1,5.1-6c1.8-1.9,3.7-3.7,5.6-5.6C159.5,292.2,159.3,292,159.1,292.1z"/>
		<g>
			<path class="st26" d="M162.3,394C162.3,394,162.3,394,162.3,394C162.3,394,162.3,394,162.3,394z"/>
			<path class="st26" d="M163.2,394.4c0-0.1,0-0.2-0.1-0.3c0,0-0.1-0.1-0.1-0.1c0,0,0,0,0,0c0,0,0,0,0-0.1c-0.1-0.1-0.2-0.2-0.3-0.2
				c0,0,0.1,0,0.1,0.1c0,0-0.1-0.1-0.1-0.1c-0.1-0.1-0.2-0.1-0.2,0c0,0,0,0,0,0.1c0,0-0.1,0-0.1,0.1c0,0,0,0,0,0c0,0,0,0,0,0.1
				c0,0,0,0,0,0c0,0-0.1,0.1-0.1,0.1c0,0-0.1,0.1-0.1,0.2c0,0,0,0.1,0,0.1c0,0.1-0.1,0.3-0.1,0.4c0,0.1-0.1,0.1-0.1,0.2
				c0,0-0.1,0.1-0.1,0.1c0,0-0.1,0-0.1,0.1c-0.1,0-0.2,0-0.2,0.1c0,0-0.1,0-0.1,0c0,0,0,0,0,0c0,0,0,0-0.1,0c0,0,0,0,0,0
				c0,0-0.1,0-0.1,0c0,0,0,0,0,0c0,0-0.1,0-0.1,0c0,0,0,0,0,0c0,0,0,0,0,0c-0.2-0.1-0.4,0.1-0.4,0.3c0,0,0,0,0,0c0,0,0,0,0,0
				c0,0.1,0,0.2,0,0.3c0,0.1,0.1,0.1,0.1,0.2c0.1,0.1,0.2,0.2,0.3,0.2c0.3,0.1,0.6,0.1,0.9,0.1c0.3-0.1,0.5-0.2,0.7-0.4
				c0.2-0.2,0.4-0.5,0.5-0.8C163.2,394.8,163.2,394.6,163.2,394.4z"/>
		</g>
		<path class="st26" d="M136.1,391.4c0-0.2-0.2-0.3-0.2-0.5c0-0.1-0.3-0.2-0.3,0c0,0.1-0.1,0.3-0.2,0.4c0,0.1-0.1,0.3-0.1,0.4
			c0,0.1-0.1,0.3-0.1,0.4c0,0,0,0.1,0,0.1c0,0,0,0.1,0,0.1c0,0,0,0.1-0.1,0.1c0,0,0,0,0,0c0,0,0,0,0,0c0,0-0.1,0.1-0.1,0.1
			c0,0,0,0,0,0c0,0,0.1,0,0,0c0,0,0,0-0.1,0c0,0-0.1,0-0.1,0c0,0,0,0-0.1,0c0,0,0,0,0.1,0c0,0-0.1,0-0.2,0.1c0,0,0,0,0,0
			c0,0-0.1,0-0.1,0c0,0-0.1,0-0.1,0c0,0,0,0,0.1,0c0,0-0.1,0-0.1,0c0,0-0.1,0-0.1,0c-0.2,0-0.4,0-0.4,0.2c-0.1,0.1-0.1,0.4,0.1,0.5
			c0.2,0.1,0.4,0.2,0.6,0.3c0.2,0,0.3,0,0.5-0.1c0.3-0.1,0.6-0.3,0.8-0.6c0.3-0.3,0.4-0.7,0.4-1.1
			C136.1,391.8,136.1,391.6,136.1,391.4z"/>
		<path class="st25" d="M188.4,415.5c0-0.1,0-0.1,0-0.2c0-0.1,0-0.1,0-0.1c0,0,0,0,0,0c0,0,0,0,0,0c0,0,0,0,0,0
			c0-0.1-0.1-0.2-0.2-0.3l0.1,0.1c0-0.1-0.1-0.2-0.2-0.2c-0.1-0.1-0.2-0.1-0.3,0c0.1,0-0.1,0.1-0.1,0.1c0,0,0,0,0,0.1
			c-0.1,0-0.1,0.1-0.2,0.2l0.2-0.1c-0.1,0.1-0.2,0.1-0.3,0.2c-0.1,0.1-0.2,0.3-0.3,0.4c0,0.1-0.1,0.2-0.1,0.2c0,0-0.1,0.1,0,0
			c0.1-0.1,0,0,0,0c-0.1,0.1-0.2,0.2-0.3,0.3c0,0,0,0,0,0c0,0-0.1,0.1-0.1,0.1c-0.1,0-0.1,0.1-0.2,0.1c-0.1,0-0.1,0.1-0.2,0.1
			c0,0,0,0,0,0c0,0-0.1,0-0.1,0c-0.2,0.1-0.3,0.1-0.5,0.1c0,0-0.1,0-0.1,0c0,0,0,0,0,0c0,0,0,0,0,0c-0.1,0-0.2,0-0.2,0
			c0,0-0.1,0-0.1,0c0,0-0.1,0-0.1,0c-0.1,0-0.1,0-0.2,0.1c0,0,0.1,0,0,0c0,0-0.1,0-0.1,0c0,0-0.2,0.2-0.2,0.2c0,0,0,0,0,0
			c0,0,0,0.1,0,0.1c0,0.1,0.1,0.3,0.2,0.4c0,0,0,0,0,0c0,0,0.1,0,0.1,0.1c0.1,0,0.1,0.1,0.2,0.1c0.1,0,0.2,0,0.3,0.1
			c0.2,0,0.4,0.1,0.6,0c0.4,0,0.8-0.2,1.2-0.4c0.4-0.2,0.7-0.4,0.9-0.7c0.1-0.2,0.3-0.3,0.4-0.5
			C188.4,415.9,188.4,415.7,188.4,415.5C188.4,415.4,188.4,415.5,188.4,415.5z"/>
		<g>
			<path class="st25" d="M225.3,425.5C225.3,425.5,225.3,425.5,225.3,425.5C225.3,425.5,225.3,425.5,225.3,425.5z"/>
			<path class="st25" d="M227,424.9C227,424.9,227,424.9,227,424.9c0-0.1,0-0.3,0-0.3c0-0.1-0.1-0.2-0.1-0.3c0,0-0.1-0.1-0.1-0.1
				c-0.1-0.1-0.1-0.2-0.3-0.3c0,0-0.1-0.1-0.1-0.1c-0.1,0-0.2,0-0.2,0.1c0,0,0,0.1,0,0.1c0,0-0.1,0.1-0.1,0.1c0,0,0,0.1-0.1,0.1
				c0,0,0,0,0,0c0,0,0,0-0.1,0.1c0,0.1,0,0.1-0.1,0.2c0,0.1-0.1,0.2-0.1,0.2c0,0,0,0,0,0c0,0,0,0.1-0.1,0.1c0,0,0,0.1-0.1,0.1
				c0,0,0,0,0,0.1c0,0,0,0,0,0.1c0,0,0,0-0.1,0.1c0,0,0,0,0,0c0,0,0,0-0.1,0c0,0-0.1,0-0.1,0.1c0,0,0,0-0.1,0c0,0,0,0,0,0
				c0,0-0.1,0-0.1,0c0,0-0.1,0-0.1,0c0,0,0,0-0.1,0c0,0,0,0,0,0c0,0,0,0,0,0c0,0-0.1,0-0.1,0c0,0,0,0,0,0c0.1,0,0,0,0,0
				c0,0-0.1,0-0.1,0c0,0-0.1,0-0.1,0.1c0,0-0.1,0-0.1,0c0,0-0.1,0-0.1,0c0,0-0.1,0-0.1,0.1c0,0,0,0,0,0c-0.1,0-0.1,0.1-0.1,0.1
				c0,0,0,0,0,0c0,0.1,0,0.1,0.1,0.2c0,0,0,0,0.1,0c0,0.1,0.1,0.1,0.1,0.2c0,0,0,0,0,0c0.1,0.1,0.1,0.1,0.2,0.2c0,0,0.1,0,0,0
				c0.1,0,0.1,0,0.2,0.1c0.1,0,0.3,0,0.4,0c0.3,0,0.6-0.1,0.9-0.3c0.3-0.2,0.5-0.4,0.6-0.7C226.9,425.4,227,425.2,227,424.9
				L227,424.9z"/>
		</g>
		<g>
			<path class="st15" d="M171.6,135.3c-0.6-0.3-1.3-0.4-2-0.3c-1.1,0.2-2.5,1.1-2.4,2.4c0,0.4,0.4,0.7,0.8,0.5
				c0.2-0.1,0.4-0.2,0.5-0.4c0,0,0,0,0,0c0,0,0,0,0,0c0,0,0.1-0.1,0.1-0.1c0.1-0.1,0.2-0.1,0.3-0.2c0.1-0.1,0.2-0.1,0.3-0.1
				c0,0,0.1,0,0.1-0.1c0,0,0,0,0,0c0,0,0.1,0,0.1,0c0.1,0,0.1,0,0.2-0.1c0.1,0,0.2,0,0.2,0c0,0,0,0,0,0c0,0,0,0,0,0c0,0,0,0,0,0
				c0,0,0,0,0,0c0.1,0,0.1,0,0.2,0c0.1,0,0.1,0,0.2,0c0,0,0,0,0.1,0c0.1,0,0.2,0,0.2,0.1c0.1,0,0.1,0,0.2,0.1c0,0,0,0,0,0
				c0.1,0.1,0.2,0.1,0.3,0.2c0,0,0.1,0,0.1,0.1c0,0,0,0,0,0c0,0,0,0,0.1,0.1c0.3,0.3,0.6,0.5,1,0.5c0.3,0,0.6-0.2,0.7-0.5
				C173.1,136.4,172.3,135.6,171.6,135.3z"/>
			<path class="st15" d="M169.9,136.8C169.9,136.8,169.9,136.8,169.9,136.8C169.9,136.8,169.9,136.8,169.9,136.8
				C169.9,136.8,169.9,136.8,169.9,136.8z"/>
		</g>
		<g>
			<path class="st15" d="M188.3,137.1C188.3,137.1,188.3,137.1,188.3,137.1C188.3,137.1,188.3,137.1,188.3,137.1
				C188.3,137.1,188.3,137.1,188.3,137.1z"/>
			<path class="st15" d="M190.5,136.6c-0.1-0.6-0.8-1-1.3-1.2c-0.5-0.2-1.1-0.4-1.7-0.3c-1,0.1-2.1,0.6-2.6,1.6
				c-0.1,0.2-0.1,0.5,0.1,0.7c0.2,0.2,0.5,0.2,0.7,0.1c0.1-0.1,0.3-0.2,0.4-0.3c0.1-0.1,0.2-0.1,0.3-0.1c0,0,0.1,0,0.1-0.1
				c0,0,0,0,0,0c0,0,0,0,0,0c0.1,0,0.2-0.1,0.3-0.1c0,0,0.1,0,0.1,0c0,0,0,0,0.1,0c0,0,0.1,0,0.1,0c0,0,0.1,0,0.1,0c0,0,0.2,0,0.3,0
				c0,0,0.1,0,0.1,0c0.1,0,0.2,0,0.3,0.1c0.1,0,0.2,0.1,0.3,0.1c0,0,0,0,0.1,0c0,0-0.1,0,0,0c0,0,0,0,0,0c0,0,0,0,0,0c0,0,0,0,0,0
				c0.1,0,0.1,0.1,0.2,0.1c0,0,0.1,0.1,0.1,0.1c0,0,0,0,0.1,0c0,0,0,0,0,0c0,0,0.1,0.1,0.1,0.1c0.2,0.1,0.4,0.3,0.6,0.3
				C190.1,137.9,190.7,137.3,190.5,136.6z"/>
		</g>
		<path class="st20" d="M189,142c0-0.1,0-0.3,0-0.4c-0.1-0.4-0.2-0.8-0.4-1.2c-0.3-0.5-1.1-0.7-1.5-0.2c-0.8,0.8-1.1,1.9-0.8,3
			c0.1,0.4,0.2,0.7,0.5,0.9c0.5,0.4,1.1,0.3,1.6-0.1c0.4-0.4,0.6-1.1,0.6-1.7C189,142.2,189,142.1,189,142z"/>
		<path class="st20" d="M172,142c0-0.1,0-0.3,0-0.4c-0.1-0.4-0.2-0.8-0.4-1.2c-0.3-0.5-1.1-0.7-1.5-0.2c-0.8,0.8-1.1,1.9-0.8,3
			c0.1,0.4,0.2,0.7,0.5,0.9c0.5,0.4,1.1,0.3,1.6-0.1c0.4-0.4,0.6-1.1,0.6-1.7C172,142.2,172,142.1,172,142z"/>
		<g>
			<path class="st26" d="M181.6,147.4c0,0-0.1-0.1-0.1-0.1c-0.1-0.1-0.2-0.1-0.3-0.1c0,0-0.1,0-0.1,0c-0.1,0-0.3,0-0.4,0.1
				c-0.1,0.1-0.2,0.1-0.3,0.2c0,0-0.1,0-0.1,0c0,0-0.1,0-0.1,0c-0.1,0-0.2,0.1-0.3,0.1c-0.1,0-0.1,0-0.2,0c0,0-0.1,0-0.1,0
				c0,0,0,0,0,0c0,0,0,0,0,0c0,0,0,0,0,0c0,0,0,0,0,0c-0.2,0-0.4,0-0.6,0c0,0-0.1,0-0.1,0c0,0-0.1,0-0.1,0c0,0-0.1,0,0,0
				c-0.2,0-0.3-0.1-0.5,0c-0.1,0-0.2,0.1-0.2,0.2c0,0.5,0.7,0.9,1.1,1c0.5,0.1,1.1,0.1,1.6-0.1c0.3-0.1,0.7-0.3,0.9-0.7
				C181.8,147.9,181.8,147.6,181.6,147.4z"/>
			<path class="st26" d="M179.7,147.7C179.6,147.7,179.6,147.7,179.7,147.7C179.6,147.7,179.6,147.7,179.7,147.7
				C179.7,147.7,179.7,147.7,179.7,147.7z"/>
		</g>
		<path class="st0" d="M182.1,151.7c-0.1-0.1-0.2-0.2-0.3-0.3c-0.1-0.1-0.3-0.1-0.5-0.1c-0.3,0-0.5,0.1-0.8,0.2
			c-0.2,0.1-0.3,0.1-0.5,0.1c-0.1,0-0.2,0-0.2,0c-0.1,0-0.2,0-0.2-0.1c0,0,0.1,0,0.1,0.1c0,0,0,0,0,0c-0.2-0.1-0.4-0.1-0.6-0.1
			c-0.3,0-0.5,0.1-0.6,0.3c-0.2,0.2-0.2,0.4-0.1,0.7c0,0.2,0.2,0.4,0.3,0.6c0.2,0.2,0.4,0.3,0.6,0.4c0.3,0.1,0.6,0.1,0.9,0.1
			c0.3,0,0.6-0.1,0.9-0.2c0.1,0,0.2-0.1,0.4-0.1c0.2-0.1,0.3-0.1,0.4-0.2c0.1-0.1,0.2-0.2,0.3-0.3c0.1-0.1,0.1-0.3,0.1-0.5
			C182.2,152,182.2,151.9,182.1,151.7z"/>
	</g>
	<g>
		<path class="st35" d="M424.8,314.1c0,0,6.7-55.3,27.7-72.6c0,0,6.7,47.9-4.4,73.5L424.8,314.1z"/>
		<path class="st14" d="M428.2,331.8c0,0,15.1-55.2,39-69.7c0,0-0.3,49.7-15.4,74.1L428.2,331.8z"/>
		<path class="st35" d="M431.1,313.2c0,0-10.2-54.7-32.2-70.7c0,0-3.7,48.3,9,73.1L431.1,313.2z"/>
		<path class="st14" d="M426.8,332.1c0,0-18-54.3-42.7-67.5c0,0,3,49.7,19.4,73.1L426.8,332.1z"/>
		<path class="st14" d="M421.8,339c0,0-11.9-31.1-11.2-61c0.6-30,18.3-51.1,18.3-51.1s13.8,38.4,13.4,62.1
			c-0.4,23.7-9.9,50.3-9.9,50.3L421.8,339z"/>
		<path class="st15" d="M393.3,324.3h66.4c0,0-9.5,57.6-13.2,63.2c-3.7,5.6-34.1,5.8-39.7,0.4C401.3,382.6,393.3,324.3,393.3,324.3z
			"/>
		<path class="st35" d="M417.1,321.8c-0.1-0.5-0.2-0.9-0.4-1.4c-0.3-1-0.5-2-0.8-3c-0.5-2.1-1-4.1-1.4-6.2c-0.4-2-0.8-4.1-1.1-6.1
			c-0.3-2.1-0.5-4.2-1.1-6.2c-0.1-0.4-0.7-0.3-0.8,0.1c-0.2,2.1,0.2,4.3,0.5,6.4c0.3,2.1,0.6,4.1,1,6.1c0.4,2,0.8,4.1,1.3,6.1
			c0.2,1,0.5,2,0.8,3c0.1,0.5,0.3,1.1,0.5,1.6c0.2,0.4,0.5,0.8,0.9,1.1c0.1,0.1,0.3,0.1,0.3-0.1
			C417.1,322.7,417.2,322.3,417.1,321.8z"/>
		<path class="st35" d="M442.1,296.3c0,0-0.1,0-0.1,0c-0.3,0.2-0.3,0.6-0.4,1c-0.1,0.5-0.1,1.1-0.1,1.6c-0.1,1.1-0.1,2.3-0.2,3.4
			c-0.1,2.2-0.3,4.4-0.5,6.6c-0.2,2.2-0.5,4.4-0.8,6.6c-0.2,1.1-0.3,2.3-0.5,3.4c-0.1,0.6-0.2,1.1-0.3,1.7c-0.1,0.5-0.2,0.9,0,1.4
			c0.2,0.3,0.5,0.3,0.7,0.1c0.4-0.3,0.4-0.9,0.5-1.3c0.1-0.6,0.2-1.1,0.3-1.7c0.2-1.1,0.4-2.2,0.5-3.4c0.3-2.2,0.6-4.4,0.8-6.6
			c0.2-2.2,0.4-4.5,0.5-6.7c0.1-1.1,0.1-2.3,0.1-3.4C442.5,298.2,442.7,296.8,442.1,296.3z"/>
		<path class="st35" d="M463.1,283.1C463.1,283.1,463.1,283.1,463.1,283.1c0-0.1,0-0.1-0.1-0.2c-0.1-0.1-0.2-0.1-0.3-0.1
			c-0.1,0-0.3,0.1-0.3,0.2c0,0,0,0,0,0c0,0-0.1,0,0,0c-0.2,0.1-0.4,0.1-0.5,0.2c-0.4,0.2-0.7,0.3-1.1,0.5c-0.3,0.2-0.7,0.3-1,0.5
			c-0.2,0.1-0.4,0.2-0.6,0.4c0.3-1.1,0.7-2.2,1-3.3c0.6-1.9,1.2-3.8,1.7-5.6c0.6-2,1.2-3.9,1.5-5.9c0-0.1-0.1-0.1-0.1,0
			c-0.8,1.5-1.4,3.2-2,4.8c-0.6,1.7-1.2,3.4-1.8,5.1c-1.1,3.4-2.2,6.8-3.3,10.2c0,0.1-0.1,0.2-0.1,0.3c-0.1-0.6-0.2-1.3-0.3-1.9
			c-0.1-0.7-0.2-1.5-0.2-2.2c0-0.7-0.1-1.4-0.5-2c-0.1-0.1-0.2-0.1-0.2,0c-0.4,0.6-0.4,1.4-0.4,2.1c0,0.7,0.1,1.5,0.2,2.2
			c0.1,0.7,0.2,1.5,0.4,2.2c0.1,0.4,0.2,0.9,0.4,1.4c0,0.1-0.1,0.2-0.1,0.4c-0.3,0.8-0.6,1.7-0.8,2.6c0,0.2,0,0.5-0.1,0.7
			c0,0.2-0.2,0.4-0.2,0.6c-0.2,0.4-0.3,0.9-0.4,1.3c-0.3,0.9-0.6,1.7-0.8,2.6c-1.1,3.4-2.1,6.9-3.2,10.3c-0.1,0.3-0.2,0.5-0.2,0.8
			c-0.1-0.8-0.3-1.5-0.4-2.3c-0.3-1.5-0.5-3.1-0.8-4.6c-0.3-1.5-0.6-2.9-0.8-4.4c-0.1-0.8-0.2-1.6-0.3-2.3c0-0.4,0-0.8-0.1-1.1
			c-0.1-0.4-0.3-0.6-0.5-0.9c-0.1-0.1-0.2-0.1-0.3,0c-0.2,0.2-0.4,0.3-0.5,0.6c-0.1,0.4-0.1,0.8-0.1,1.1c0,0.8,0.1,1.5,0.2,2.2
			c0.2,1.5,0.5,3.1,0.8,4.6c0.3,1.5,0.6,3.1,0.9,4.6c0.2,0.8,0.3,1.6,0.5,2.4c0.1,0.6,0.3,1.3,0.5,1.9c-0.3,1-0.6,2-0.9,3.1
			c-0.3,0.9-0.5,1.9-0.8,2.8c-0.3,0.9-0.7,1.9-0.4,2.9c0.1,0.3,0.4,0.3,0.6,0.2c0.7-0.6,0.8-1.4,1-2.2c0.2-0.9,0.5-1.7,0.7-2.6
			c0.5-1.7,1-3.5,1.5-5.2c1-3.4,1.9-6.8,2.9-10.2c0-0.1,0-0.1,0.1-0.2c0.2,0.1,0.5-0.1,0.7-0.2c0.5-0.3,1-0.6,1.5-1
			c1-0.6,1.9-1.3,2.9-1.9c1-0.7,1.9-1.3,2.8-2c0.4-0.3,0.9-0.6,1-1.1c0.1-0.4,0-0.9-0.4-1c-0.1-0.1-0.2,0-0.3,0.1c0,0,0,0.1,0,0.1
			c-0.6,0.3-1.2,0.8-1.7,1.2c-0.8,0.6-1.6,1.2-2.4,1.8c-0.8,0.6-1.5,1.2-2.3,1.8c-0.4,0.3-0.8,0.6-1.1,0.9c-0.1,0.1-0.3,0.2-0.4,0.4
			c0.4-1.3,0.8-2.6,1.1-3.9c0.2-0.8,0.6-1.5,0.8-2.3c0.3-0.9,0.6-1.8,0.8-2.7c0.7-2.2,1.3-4.3,2-6.5c0.2,0.1,0.4,0,0.6,0
			c0.3-0.1,0.5-0.1,0.8-0.2c0.5-0.2,1-0.4,1.6-0.6C462.4,284,463.3,283.8,463.1,283.1C463.1,283.1,463.1,283.1,463.1,283.1z"/>
		<path class="st35" d="M438.1,283.2c-0.3,0.1-0.5,0.2-0.7,0.3c-0.1,0.1-0.1,0.3-0.1,0.4c-0.3,0.4-0.7,0.8-1,1.2
			c-0.5,0.6-0.9,1.1-1.4,1.7c-0.9,1.2-1.8,2.4-2.8,3.5c-0.9,1.1-1.9,2.2-2.9,3.3c-0.5,0.5-1,1-1.6,1.5c-0.3,0.3-0.6,0.5-0.9,0.8
			c-0.2,0.2-0.4,0.4-0.6,0.5c-0.1-3.3-0.1-6.6-0.1-9.9c0-0.9,0-1.8,0-2.8c0-0.1,0.1-0.1,0.1-0.2c0-0.1,0-0.2-0.1-0.2
			c0-4.6,0.2-9.2,0.3-13.8c0.5-0.1,0.9-0.4,1.2-0.7c0.5-0.4,1-0.8,1.4-1.1c0.9-0.8,1.9-1.6,2.7-2.4c0.9-0.8,1.7-1.7,2.6-2.6
			c0.4-0.5,0.9-0.9,1.3-1.4c0.4-0.4,0.9-0.9,1-1.4c0.1-0.3,0-0.6-0.3-0.7c0.3,0.1-0.1-0.1-0.2-0.1c-0.1-0.1-0.2-0.1-0.4,0
			c-0.1,0-0.2,0.1-0.2,0.2c-0.3,0.2-0.6,0.6-0.8,0.8c-0.4,0.5-0.8,0.9-1.3,1.4c-0.9,0.9-1.8,1.9-2.7,2.8c-0.9,0.9-1.8,1.8-2.7,2.6
			c-0.5,0.4-0.9,0.9-1.4,1.3c-0.1,0.1-0.3,0.3-0.5,0.5c0.2-4.7,0.4-9.4,0.7-14.1c0.2-3,0.4-5.9,0.6-8.9c0.2-3,0.6-6.1,0.5-9.1
			c0-0.1-0.2-0.2-0.3,0c-0.6,2.6-0.9,5.3-1.2,7.9c-0.3,2.6-0.6,5.2-0.8,7.8c-0.2-0.3-0.4-0.6-0.6-0.9c-0.3-0.4-0.6-0.9-0.9-1.3
			c-0.2-0.2-0.4-0.5-0.7-0.6c-0.1,0-0.2-0.1-0.3-0.1c-0.1-0.1-0.2-0.2-0.3-0.3c-0.1-0.1-0.3,0-0.3,0.1c0,0.1,0.1,0.3,0.1,0.4
			c0,0.1,0,0.2,0,0.4c0,0.3,0.1,0.6,0.3,0.9c0.3,0.5,0.7,1,1,1.4c0.3,0.5,0.7,1,1.1,1.4c0.1,0.2,0.3,0.3,0.5,0.4
			c-0.4,4.8-0.8,9.7-1,14.5c-0.2,3.9-0.3,7.9-0.4,11.8c-0.2-0.3-0.4-0.6-0.6-0.9c-0.9-1.4-1.7-2.9-2.5-4.3c-0.8-1.4-1.6-2.8-2.3-4.3
			c-0.4-0.8-0.8-1.5-1.1-2.3c-0.2-0.3-0.3-0.7-0.5-1c-0.2-0.4-0.5-0.5-0.9-0.7c-0.2-0.1-0.4,0-0.4,0.2c-0.1,0.4-0.2,0.6-0.1,1
			c0.1,0.4,0.3,0.8,0.5,1.1c0.4,0.8,0.7,1.5,1.1,2.3c0.7,1.5,1.5,3,2.3,4.4c0.8,1.4,1.7,2.9,2.6,4.3c0.5,0.7,0.9,1.4,1.4,2.1
			c0.1,0.2,0.3,0.4,0.5,0.7c0,0.6,0,1.1,0,1.7c-0.1,5.4-0.1,10.8,0.1,16.3c0.1,3,0.3,6,0.6,8.9c0,0,0,0.1,0,0.1
			c-0.3-0.4-0.6-0.8-1-1.2c-1.1-1.4-2.2-2.7-3.4-4.1c-1.1-1.3-2.1-2.6-3.1-3.9c-0.5-0.6-0.9-1.3-1.3-2c-0.4-0.7-0.7-1.5-1.5-1.9
			c-0.1,0-0.2,0-0.3,0c-0.8,0.6-0.3,1.4,0.1,2.1c0.4,0.7,0.9,1.5,1.4,2.2c1,1.4,2,2.8,3.1,4.1c1.2,1.4,2.4,2.8,3.6,4.2
			c0.6,0.7,1.2,1.3,1.8,2c0.2,0.2,0.5,0.5,0.7,0.8c0.1,0.7,0.1,1.4,0.2,2.1c0.2,1.5,0.3,3.1,0.7,4.6c0.2,0.8,1.6,0.7,1.6-0.2
			c0-1.3-0.3-2.7-0.4-4c-0.2-1.3-0.3-2.6-0.4-3.9c-0.3-2.6-0.5-5.3-0.6-7.9c-0.1-1.8-0.2-3.7-0.2-5.6c0.5,0,1-0.4,1.3-0.6
			c0.6-0.4,1.2-0.9,1.8-1.4c1.2-1.1,2.3-2.3,3.3-3.5c1-1.2,2-2.5,3-3.8c0.5-0.6,1-1.3,1.5-1.9c0.5-0.6,1.2-1.2,1.6-1.8
			C439.1,283.7,438.6,283.1,438.1,283.2z"/>
		<path class="st35" d="M411.3,318.1c-0.5-0.8-1-1.6-1.5-2.3c-1-1.5-1.9-2.9-2.9-4.4c-1.4-2.3-2.7-4.7-4-7.1
			c0.6-0.9,0.7-2.2,0.9-3.2c0.2-1.3,0.4-2.7,0.6-4c0.2-1.3,0.4-2.6,0.6-3.9c0.1-0.9,0.2-2-0.9-2.3c-0.1,0-0.2,0.1-0.2,0.2
			c0,0.5-0.1,1-0.1,1.4c0,0.5-0.1,1.1-0.2,1.6c-0.2,1.2-0.3,2.4-0.5,3.6c-0.2,1.2-0.3,2.5-0.5,3.7c-0.1,0.7-0.2,1.4-0.2,2.1
			c-0.2-0.4-0.4-0.8-0.6-1.2c-1.2-2.3-2.3-4.7-3.3-7.1c0-0.1,0.1-0.2,0-0.2c-0.1-0.3-0.2-0.5-0.4-0.7c-1.1-2.5-2-4.9-3-7.4
			c0.3,0,0.4-0.3,0.4-0.5c0.2-1,0.4-2,0.6-2.9c0.1-0.5,0.3-0.9,0.4-1.4c0.2-0.4,0.4-0.9,0.3-1.4c-0.1-0.4-0.7-0.6-1-0.3
			c-0.1,0.2-0.2,0.5,0,0.6c-0.1,0.2-0.2,0.5-0.3,0.8c-0.2,0.5-0.3,1.1-0.5,1.6c-0.1,0.5-0.2,1.1-0.2,1.7c0,0.3,0,0.6,0,0.9
			c0,0.1,0,0.4,0.1,0.5c0,0,0,0,0,0c-0.4-1.1-0.9-2.3-1.3-3.4c-1.3-3.6-2.5-7.4-4.3-10.9c-0.1-0.2-0.3,0-0.3,0.1
			c0.6,3.5,1.8,6.8,3,10.1c1.2,3.3,2.4,6.6,3.7,9.9c0.1,0.1,0.1,0.3,0.2,0.4c-0.5-0.4-1.1-0.7-1.6-1.1c-0.7-0.6-1.4-1.2-2.1-1.8
			c-0.3-0.3-0.7-0.6-1-0.9c-0.4-0.3-0.8-0.4-1.3-0.5c-0.1,0-0.2,0.1-0.2,0.2c0.1,0.4,0.3,0.8,0.5,1.2c0.3,0.4,0.7,0.7,1,1
			c0.7,0.6,1.5,1.3,2.3,1.8c0.7,0.6,1.5,1.1,2.3,1.7c0.3,0.2,0.6,0.4,1,0.6c2.3,5.5,4.9,11,8,16.1c0.9,1.5,1.8,2.9,2.7,4.3
			c-0.4-0.3-0.8-0.5-1.3-0.8c-1.4-0.9-2.8-1.8-4.2-2.7c-1.4-0.9-2.7-1.9-4.1-2.9c-0.6-0.5-1.3-1-1.9-1.5c-0.6-0.5-1.1-0.8-1.9-0.7
			c-0.1,0-0.1,0.1-0.1,0.2c0,0.8,0.5,1.2,1.1,1.6c0.6,0.5,1.3,1,1.9,1.5c1.4,1,2.8,2,4.2,3c1.4,0.9,2.8,1.8,4.3,2.6
			c0.7,0.4,1.5,0.8,2.2,1.2c0.3,0.2,0.7,0.3,1.1,0.5c0.3,0.4,0.6,0.8,0.8,1.3c0.5,0.8,0.8,1.7,1.7,2.2c0.2,0.1,0.5,0,0.6-0.2
			C412.1,319.4,411.7,318.8,411.3,318.1z"/>
		<path class="st14" d="M408.6,271.6c-0.3-1-0.6-2.1-0.9-3.1c-0.2-0.9-0.5-1.8-0.8-2.7c0,0,0.1-0.1,0.1-0.2c0.1-0.2,0.2-0.5,0.3-0.7
			c0.2-0.5,0.3-1,0.4-1.5l0.4-1.5c0.1-0.4,0.3-1,0.3-1.4c0-0.3-0.2-0.7-0.5-0.7c-0.3-0.1-0.3,0.1-0.3,0.4c0,0.1,0,0.3-0.1,0.4
			c-0.1,0.3-0.1,0.5-0.2,0.8c-0.1,0.5-0.2,1-0.3,1.5c-0.1,0.6-0.3,1.1-0.4,1.7c0,0.1,0,0.1,0,0.2c-0.2-0.8-0.5-1.7-0.7-2.5
			c-1.2-4.3-2.4-8.6-4-12.8c0-0.1-0.1,0-0.1,0c0.6,3.6,1.5,7.2,2.4,10.7c-0.2-0.2-0.4-0.3-0.6-0.5c-0.3-0.2-0.6-0.4-0.9-0.7
			c-0.2-0.1-0.4-0.3-0.6-0.3c-0.2-0.1-0.3-0.1-0.5-0.1c-0.1,0-0.1,0.1-0.1,0.2c0,0.2,0.1,0.3,0.2,0.4c0.1,0.2,0.2,0.4,0.4,0.5
			c0.3,0.3,0.7,0.5,1,0.8c0.3,0.2,0.6,0.4,1,0.6c0.2,0.1,0.3,0.2,0.5,0.2c0.1,0.4,0.2,0.7,0.3,1.1c0.6,2.2,1.1,4.3,1.7,6.5l0.8,3
			c-0.3-0.2-0.5-0.4-0.7-0.6c-0.6-0.5-1.2-1.1-1.8-1.6c-0.6-0.6-1.1-1.2-1.6-1.8c-0.2-0.3-0.5-0.7-0.7-0.9c-0.3-0.3-0.6-0.6-0.9-0.8
			c-0.1-0.1-0.3,0-0.2,0.1c0.2,0.8,0.5,1.5,1.1,2.2c0.5,0.7,1.1,1.3,1.7,1.9c0.6,0.6,1.2,1.2,1.8,1.7c0.5,0.4,1.1,0.9,1.7,1.1
			c0.2,0.7,0.4,1.5,0.7,2.2c0.3,0.5,1,0.3,1-0.3C409.4,273.8,408.9,272.7,408.6,271.6z"/>
		<path class="st14" d="M452.1,263.4c-0.1-0.3-0.4-0.4-0.6-0.4c-0.1,0-0.2,0.1-0.1,0.2c0.3,0.4-0.5,0.9-0.8,1.2
			c-0.5,0.5-1,0.9-1.5,1.3c-0.5,0.4-1,0.8-1.5,1.2c-0.2,0.2-0.4,0.3-0.7,0.5c0.7-3.9,1.5-7.7,2.5-11.5c0.6-2.4,1.4-4.8,1.9-7.2
			c0-0.1-0.1-0.1-0.1,0c-1,1.9-1.7,3.9-2.4,5.9c-0.5,1.5-0.9,3-1.3,4.5c-0.1-0.3-0.3-0.6-0.4-0.9c-0.2-0.5-0.5-1.1-0.6-1.7
			c-0.2-0.6-0.3-1.1-0.3-1.7c0-0.4,0.1-1-0.1-1.4c0,0,0,0,0-0.1c0-0.1-0.1-0.2-0.3-0.2c-0.1,0.1-0.2,0.1-0.3,0.2
			c-0.1,0.1-0.2,0.3-0.2,0.4c-0.1,0.3-0.1,0.6-0.1,0.9c0,0.7,0.2,1.3,0.4,2c0.2,0.6,0.4,1.3,0.8,1.8c0.3,0.5,0.6,1,1.1,1.2
			c-0.1,0.4-0.2,0.9-0.3,1.3c-1,3.9-1.6,7.8-2.1,11.8c0,0,0-0.1,0-0.1c-0.2-0.7-0.5-1.4-0.8-2.2c-0.3-0.7-0.5-1.3-0.7-2
			c-0.1-0.3-0.2-0.7-0.2-1c-0.1-0.3-0.2-0.6-0.4-0.9c0-0.1-0.2-0.1-0.2,0c-0.5,0.6-0.4,1.2-0.3,1.9c0.2,0.7,0.5,1.5,0.8,2.2
			c0.3,0.7,0.6,1.5,0.9,2.2c0.2,0.5,0.4,1.2,0.8,1.7c-0.1,1.1-0.2,2.1-0.3,3.2c0,0.6-0.1,1.3-0.1,1.9c0,0.6,0,1.2,0.3,1.7
			c0.1,0.1,0.3,0.2,0.4,0.1c0.6-0.7,0.5-1.9,0.6-2.8c0.1-1.1,0.2-2.2,0.3-3.3c0.2-2.2,0.5-4.3,0.8-6.5c0-0.1,0-0.2,0-0.3
			c0.6-0.2,1.1-0.6,1.6-0.9c0.7-0.5,1.3-0.9,2-1.5c0.3-0.3,0.6-0.5,0.9-0.8c0.3-0.3,0.6-0.5,0.8-0.9
			C452.3,264.1,452.3,263.8,452.1,263.4z"/>
		<path class="st14" d="M452.9,253.6c-0.2,0-0.3,0-0.5,0.1c-0.2,0.1-0.3,0.1-0.5,0.2c-0.3,0.2-0.6,0.4-0.9,0.6
			c-0.3,0.2-0.6,0.4-0.9,0.6c-0.1,0.1-0.3,0.2-0.4,0.3c-0.1,0.1-0.1,0.1-0.1,0.2c0,0,0,0.1,0,0.1c0.2,0.1,0.3,0.1,0.5,0
			c0.2-0.1,0.3-0.1,0.5-0.2c0.3-0.2,0.6-0.3,0.9-0.5c0.3-0.2,0.6-0.3,0.9-0.5c0.1-0.1,0.3-0.2,0.4-0.3c0.1-0.1,0.2-0.2,0.2-0.3
			C453.1,253.8,453,253.6,452.9,253.6z"/>
		<g>
			<path class="st36" d="M446.8,345.2c-2.3,0.7-4.5,2.2-6.9,2.4c-2.4,0.2-4.6-0.7-6.6-1.8c-1.9-1-3.9-2.1-6.1-2.6
				c-2.3-0.5-4.5-0.1-6.6,0.7c-2.5,0.9-4.8,2.1-7.5,2.1c-2.9,0-5.8-1-8.6-1.6c-2.2-0.5-4.6-0.7-6.9-0.2c-0.4,0.1-0.8,0.2-1.2,0.4
				c0.1,0.4,0.1,0.8,0.2,1.2c0.7-0.2,1.5-0.3,2.2-0.4c2.2-0.2,4.3,0.2,6.4,0.7c2.6,0.7,5.2,1.5,7.9,1.5c2.4,0,4.6-0.8,6.8-1.6
				c2.3-0.9,4.7-1.7,7.2-1c2.1,0.5,3.9,1.6,5.8,2.6c1.9,0.9,3.8,1.8,5.9,1.9c2.2,0.1,4.4-0.7,6.4-1.3c2.7-0.9,5.1-1.4,7.8-0.3
				c0.9,0.3,1.7,0.7,2.5,1.1c0.2-0.8,0.3-1.7,0.5-2.5C453,345.1,450.1,344.1,446.8,345.2z"/>
			<path class="st36" d="M446.5,336.2c-2.9,0.1-5.3,1.5-8.1,2c-2.1,0.4-4.2-0.5-6.1-1.3c-2.3-1-4.5-2.1-7-2.5
				c-2.7-0.4-5.2,0.4-7.6,1.6c-2,1-4.3,2.6-6.7,2.7c-2.7,0.1-5.5-1.5-8-2.1c-2.3-0.6-4.8-0.5-7,0.5c-0.3,0.1-0.5,0.2-0.8,0.4
				c0.1,1,0.3,2,0.5,3c0.7-0.5,1.5-0.9,2.4-1.1c2.2-0.4,4.2,0.2,6.2,0.9c2.6,0.9,5.1,1.8,7.8,2c2.6,0.1,4.9-1,7.2-2
				c1.9-0.9,3.8-1.6,5.9-1.2c2.1,0.4,4.1,1.5,6.1,2.4c2.2,1,4.6,1.7,7,1.5c2.7-0.2,5.1-1.7,7.7-2c3.4-0.4,7,1.7,10.5,2.3
				c0.3-1.7,0.6-3.3,0.9-4.9c-1-0.2-2.1-0.4-3.1-0.8C451.7,336.9,449.2,336.1,446.5,336.2z"/>
		</g>
		<path class="st36" d="M439.4,378.1c-1.8,0.5-3.5,1.3-5.4,1.5c-1.9,0.2-3.8,0-5.6-0.5c-1.9-0.6-3.6-1.6-5.4-2.1
			c-1.7-0.6-3.7-0.8-5.4-0.2c-1.6,0.5-3,1.5-4.4,2.4c-3.2,2-6.9,2.1-9.8-0.5c-0.1-0.1-0.2-0.1-0.3-0.2c0.3,1,0.5,1.9,0.8,2.8
			c1.8,1.7,4.3,2.6,6.8,2.3c1.8-0.2,3.4-1,4.9-1.8c1.6-0.9,3.1-1.8,5-1.5c2,0.3,3.9,1.5,5.8,2.2c2,0.8,4.2,1.2,6.3,1.2
			c2.2,0,4.3-0.4,6.4-1c2-0.6,3.5-1,5.5-0.2c1.2,0.5,2.3,1,3.5,1.4c0.3-1.2,0.7-2.5,1.1-4.1c-1.4-0.5-2.6-1.2-4-1.6
			C443.2,377.5,441.3,377.6,439.4,378.1z"/>
	</g>
</g>
</svg>
