<svg id="right-arrow" xmlns="http://www.w3.org/2000/svg" width="490.666" height="490.666" viewBox="0 0 490.666 490.666">
  <path id="Path_3" data-name="Path 3" d="M245.333,0C109.839,0,0,109.839,0,245.333S109.839,490.666,245.333,490.666,490.666,380.827,490.666,245.333C490.514,109.9,380.764.153,245.333,0Z" fill="#099094"/>
  <path id="Path_4" data-name="Path 4" d="M290.133,104.533a49.514,49.514,0,0,0-68.416,0,48.362,48.362,0,0,0-.021,68.395l.021.021,19.2,19.2H117.333a53.334,53.334,0,0,0,0,106.667H240.917l-19.2,19.2a48.384,48.384,0,0,0,68.416,68.118L408.384,267.883a32,32,0,0,0,0-45.248Z" fill="#fafafa"/>
</svg>
