<svg height="512" viewBox="0 0 74 74" width="512" xmlns="http://www.w3.org/2000/svg"><g id="color_line" data-name="color line"><path d="m13.39 27.628c-4.712.724-8.8 3.9-9.068 9.742v11.775a2.759 2.759 0 0 0 .834 2 2.794 2.794 0 0 0 4.773-2v-11.145h.01v28.7a4.3 4.3 0 0 0 4.3 4.3 4.3 4.3 0 0 0 4.3-4.3 4.3 4.3 0 0 0 4.3 4.3 4.3 4.3 0 0 0 4.3-4.3v-17.55a2.806 2.806 0 1 0 5.612 0v-11.785c0-4.951-4.359-9.033-9.1-9.746" fill="#89c5cd"/><path d="m26.98 50.375a2.76 2.76 0 0 0 -2.76 2.76v11.985a4.3 4.3 0 0 1 -4.3 4.3c-.15 0-.29-.01-.43-.02a4.3 4.3 0 0 0 7.64-2.7v-16.32h-.1c-.017 0-.03-.005-.05-.005z" fill="#6eaaad"/><path d="m32.74 37.36v11.79a2.8 2.8 0 0 1 -5.34 1.2 2.806 2.806 0 0 0 2.43-2.78v-11.79a9.644 9.644 0 0 0 -4.09-7.61c3.86 1.41 7 4.99 7 9.19z" fill="#6eaaad"/><path d="m39.115 39.966h9.309v29.161h-9.309z" fill="#fcd462"/><path d="m43.769 28.004-7.956 11.962h15.913z" fill="#fcd462"/><path d="m57.067 22.902h9.309v46.226h-9.309z" fill="#27ccbc"/><path d="m61.721 10.939-7.956 11.963h15.913z" fill="#27ccbc"/><path d="m45.35 39.97h3.07v29.16h-3.07z" fill="#f7be56"/><path d="m51.73 39.97h-3.07l-6.42-9.66 1.53-2.31z" fill="#f7be56"/><path d="m63.31 22.9h3.07v46.23h-3.07z" fill="#21b3a9"/><path d="m69.68 22.9h-3.07l-6.42-9.65 1.53-2.31z" fill="#21b3a9"/><path d="m22.688 24.8.953 2.824a1.745 1.745 0 0 1 -.137.147 7.073 7.073 0 0 1 -9.977 0 1.745 1.745 0 0 1 -.137-.147l1.11-2.824z" fill="#fcd462"/><path d="m18.516 30.336a7.5 7.5 0 0 1 -5.342-2.205 2.06 2.06 0 0 1 -.174-.188.5.5 0 0 1 -.109-.312.525.525 0 0 1 .034-.186l1.109-2.823a.5.5 0 0 1 .466-.322h8.188a.5.5 0 0 1 .474.34l.953 2.823a.5.5 0 0 1 .026.16.513.513 0 0 1 -.109.316 2.083 2.083 0 0 1 -.176.19 7.5 7.5 0 0 1 -5.34 2.207zm-4.543-2.822a6.573 6.573 0 0 0 9.1-.012l-.742-2.2h-7.49z" fill="#323c6b"/><path d="m26.134 10.286v9.314a7.724 7.724 0 1 1 -15.448 0v-9.338z" fill="#fcd462"/><path d="m26.13 10.29v9.31a7.718 7.718 0 0 1 -7.72 7.72 7.626 7.626 0 0 1 -4.48-1.44 7.814 7.814 0 0 0 2.18.31 7.72 7.72 0 0 0 7.73-7.72v-8.18z" fill="#f7be56"/><g fill="#323c6b"><path d="m48.424 69.628h-9.309a.5.5 0 0 1 -.5-.5v-29.162a.5.5 0 0 1 .5-.5h9.309a.5.5 0 0 1 .5.5v29.162a.5.5 0 0 1 -.5.5zm-8.809-1h8.309v-28.162h-8.309z"/><path d="m51.726 40.466h-15.913a.5.5 0 0 1 -.416-.777l7.956-11.963a.519.519 0 0 1 .832 0l7.956 11.963a.5.5 0 0 1 -.416.777zm-14.979-1h14.046l-7.023-10.56z"/><path d="m66.376 69.628h-9.31a.5.5 0 0 1 -.5-.5v-46.228a.5.5 0 0 1 .5-.5h9.31a.5.5 0 0 1 .5.5v46.228a.5.5 0 0 1 -.5.5zm-8.81-1h8.31v-45.228h-8.31z"/><path d="m69.678 23.4h-15.912a.5.5 0 0 1 -.416-.777l7.956-11.963a.519.519 0 0 1 .832 0l7.956 11.963a.5.5 0 0 1 -.416.777zm-14.978-1h14.045l-7.023-10.56z"/><path d="m22.834 71.5a4.8 4.8 0 0 1 -4.3-2.667 4.8 4.8 0 0 1 -9.1-2.131v-15.186a3.308 3.308 0 0 1 -5.617-2.371v-11.774c.3-6.525 5.1-9.562 9.492-10.236a.5.5 0 0 1 .152.988c-5.181.8-8.412 4.262-8.646 9.271v11.751a2.327 2.327 0 0 0 2.31 2.322 2.313 2.313 0 0 0 2.3-2.322v-11.145a.5.5 0 0 1 .211-.408.506.506 0 0 1 .454-.064.515.515 0 0 1 .345.476v28.696a3.8 3.8 0 0 0 7.6 0v-14.1a.5.5 0 0 1 1 0v14.1a3.8 3.8 0 0 0 7.6 0v-28.7a.5.5 0 0 1 1 0v11.15a2.306 2.306 0 1 0 4.611 0v-11.785c0-4.909-4.5-8.625-8.677-9.251a.5.5 0 0 1 .148-.989c4.684.7 9.528 4.727 9.528 10.241v11.784a3.3 3.3 0 0 1 -5.611 2.374v15.176a4.8 4.8 0 0 1 -4.8 4.8z"/><path d="m18.41 27.82a8.222 8.222 0 0 1 -8.223-8.22v-9.337a.5.5 0 0 1 .5-.5l15.447.023a.5.5 0 0 1 .5.5v9.314a8.233 8.233 0 0 1 -8.224 8.22zm-7.223-17.056v8.836a7.223 7.223 0 0 0 7.223 7.22 7.232 7.232 0 0 0 7.224-7.22v-8.815z"/></g><path d="m11.2 17.521a.8.8 0 0 1 -.658.492.731.731 0 0 1 -.689-.609 47 47 0 0 1 -1.184-7.704 4.023 4.023 0 0 1 .9-2.436c.123-.135 1.175-1.138 3.075.258a5.479 5.479 0 0 1 4.152-4.242 7.948 7.948 0 0 1 3.086-.227c2.148.235 5.914 1.178 7.579 4.832a8.714 8.714 0 0 1 .234 4.994s-.584 3.138-.806 4.552a.693.693 0 0 1 -.683.578h-.086a.683.683 0 0 1 -.646-.431 48.654 48.654 0 0 1 -1.685-6.158 25.154 25.154 0 0 1 -11.941 2.212z" fill="#707583"/><path d="m26.2 18.513a1.219 1.219 0 0 1 -1.2-.746 50.271 50.271 0 0 1 -1.587-5.625 26.026 26.026 0 0 1 -11.155 2.026l-.558 3.432a.483.483 0 0 1 -.062.17 1.3 1.3 0 0 1 -1.09.74 1.232 1.232 0 0 1 -1.175-.988 47.115 47.115 0 0 1 -1.204-7.822 4.469 4.469 0 0 1 1.052-2.8 2.486 2.486 0 0 1 3.1-.175 6.093 6.093 0 0 1 4.333-3.925 8.419 8.419 0 0 1 3.279-.244c2.219.243 6.206 1.23 7.979 5.122a9.154 9.154 0 0 1 .266 5.322s-.578 3.109-.8 4.514a1.189 1.189 0 0 1 -1.178.999zm-2.417-7.592a.5.5 0 0 1 .491.409 47.744 47.744 0 0 0 1.663 6.07.184.184 0 0 0 .181.115c.179 0 .26-.068.275-.159.222-1.415.808-4.562.808-4.562a8.365 8.365 0 0 0 -.2-4.71c-1.562-3.426-5.165-4.309-7.173-4.528a7.425 7.425 0 0 0 -2.891.21 4.963 4.963 0 0 0 -3.8 3.826.5.5 0 0 1 -.792.339c-1.6-1.177-2.377-.36-2.409-.325a3.549 3.549 0 0 0 -.768 2.1 46.8 46.8 0 0 0 1.173 7.583c.009.035.063.227.2.227.056 0 .127-.088.181-.17l.627-3.787a.487.487 0 0 1 .535-.417 24.615 24.615 0 0 0 11.68-2.164.5.5 0 0 1 .222-.053z" fill="#323c6b"/><path d="m69.376 40.667a.5.5 0 0 1 -.5-.5v-.884a.5.5 0 0 1 1 0v.884a.5.5 0 0 1 -.5.5z" fill="#323c6b"/><path d="m69.376 50.125a.5.5 0 0 1 -.5-.5v-7.25a.5.5 0 0 1 1 0v7.25a.5.5 0 0 1 -.5.5z" fill="#323c6b"/><path d="m6.779 17.607a.5.5 0 0 1 -.487-.39l-.1-.456a.5.5 0 1 1 .979-.207l.1.443a.5.5 0 0 1 -.377.6.506.506 0 0 1 -.115.01z" fill="#323c6b"/><path d="m6.229 15.083a.5.5 0 0 1 -.492-.415 34.211 34.211 0 0 1 -.568-4.968 7.928 7.928 0 0 1 .431-2.429.5.5 0 1 1 .947.321 7.058 7.058 0 0 0 -.378 2.108 32.179 32.179 0 0 0 .555 4.8.5.5 0 0 1 -.408.578.511.511 0 0 1 -.087.005z" fill="#323c6b"/><path d="m42.5 49.458.009 7a.7.7 0 1 1 -1.395 0l-.014-7.011a.671.671 0 0 1 .173-.447.7.7 0 0 1 1.223.462z" fill="#fff"/><path d="m41.1 47.093v-.447a.639.639 0 0 1 .183-.461.659.659 0 0 1 .526-.236.694.694 0 0 1 .687.7v.447a.7.7 0 1 1 -1.395 0z" fill="#fff"/></g></svg>