<svg xmlns="http://www.w3.org/2000/svg" width="360.023" height="248" viewBox="0 0 360.023 248">
  <g id="showdetails" transform="translate(-151.978 -132)">
    <g id="Group_3" data-name="Group 3">
      <path id="Path_3" data-name="Path 3" d="M506.134,241.843c-.006-.006-.011-.013-.018-.019l-104.5-104a20,20,0,0,0-28.218,28.352L443.558,236H167.6c-11.046,0-15.2,8-15.6,16.4s4.554,17.757,15.6,17.757L443.557,276,373.4,345.824a20,20,0,0,0,28.218,28.352l104.5-104c.006-.006.011-.013.018-.019A20.017,20.017,0,0,0,506.134,241.843Z" fill="#099094"/>
    </g>
  </g>
</svg>
