<svg id="_x33_0" enable-background="new 0 0 62.828 62" height="512" viewBox="0 0 62.828 62" width="512" xmlns="http://www.w3.org/2000/svg"><g><g><g><path d="m53.414 53.9c0-2.29 1.56-4.29 3.79-4.85l4.21-1.05v2.59c0 2.52-1.88 4.64-4.38 4.96l-3.62.45z" fill="#b4dd7f"/></g><g><path d="m53.414 53.9v2.1l-3.62-.45c-2.5-.32-4.38-2.44-4.38-4.96v-2.59l4.21 1.05c2.23.56 3.79 2.56 3.79 4.85z" fill="#b4dd7f"/></g><g><path d="m53.414 46-1.81-1.36c-1.38-1.03-2.19-2.65-2.19-4.37 0-1.46.58-2.85 1.6-3.87l2.4-2.4 2.4 2.4c1.02 1.02 1.6 2.41 1.6 3.87 0 1.72-.81 3.34-2.19 4.37z" fill="#b4dd7f"/></g><g><path d="m9.414 53.9c0-2.29 1.56-4.29 3.79-4.85l4.21-1.05v2.59c0 2.52-1.88 4.64-4.38 4.96l-3.62.45z" fill="#b4dd7f"/></g><g><path d="m9.414 46-1.81-1.36c-1.38-1.03-2.19-2.65-2.19-4.37 0-1.46.58-2.85 1.6-3.87l2.4-2.4 2.4 2.4c1.02 1.02 1.6 2.41 1.6 3.87 0 1.72-.81 3.34-2.19 4.37z" fill="#b4dd7f"/></g><g><path d="m9.414 53.9v2.1l-3.62-.45c-2.5-.32-4.38-2.44-4.38-4.96v-2.59l4.21 1.05c2.23.56 3.79 2.56 3.79 4.85z" fill="#b4dd7f"/></g><g><path d="m32.414 55 2 6h-6l2-6z" fill="#ffeaa7"/></g><g><path d="m33.614 53.2-1.2 1.8h-2l-1.2-1.8 2.2-2.2z" fill="#fcd770"/></g><g><path d="m35.414 55 1.8-4.51c3.7 2.05 6.2 5.99 6.2 10.51h-9l-2-6 1.2-1.8z" fill="#e6e9ed"/></g><g><path d="m27.414 55 1.8-1.8 1.2 1.8-2 6h-9c0-4.52 2.5-8.46 6.2-10.51z" fill="#e6e9ed"/></g><g><path d="m37.214 50.49-1.8 4.51-1.8-1.8-2.2-2.2h2c1.47 0 2.86-.4 4.04-1.1z" fill="#ccd1d9"/></g><g><path d="m29.214 53.2-1.8 1.8-1.8-4.51-.23-.59c1.18.7 2.56 1.1 4.03 1.1h2z" fill="#ccd1d9"/></g><g><path d="m42.414 37c1.66 0 3 1.34 3 3 0 .83-.34 1.58-.88 2.12s-1.29.88-2.12.88h-1v-6z" fill="#f0d0b4"/></g><g><path d="m21.414 37v6h-1c-.83 0-1.58-.34-2.12-.88s-.88-1.29-.88-2.12c0-1.66 1.34-3 3-3z" fill="#f0d0b4"/></g><g><path d="m41.414 29.63v7.37 6c0 2.95-1.59 5.52-3.96 6.9-1.18.7-2.57 1.1-4.04 1.1h-2-2c-1.47 0-2.85-.4-4.03-1.1-2.38-1.38-3.97-3.95-3.97-6.9v-6-7.37l.81.8.15-.1c1.07-.77 2.46-.92 3.67-.41.01 0 .03.01.04.01 1.21.5 2.08 1.59 2.3 2.89l.03.18h6l.03-.18c.22-1.3 1.09-2.39 2.3-2.89.01 0 .03-.01.04-.01 1.21-.51 2.6-.36 3.67.41l.15.1z" fill="#f0d0b4"/></g><g><path d="m27.414 43h8c0 1.1-.45 2.1-1.17 2.83-.73.72-1.73 1.17-2.83 1.17-2.21 0-4-1.79-4-4z" fill="#ff826e"/></g><g><path d="m41.414 29.63-.81.8-.15-.1c-1.07-.77-2.46-.92-3.67-.41-.01 0-.03.01-.04.01-1.21.5-2.08 1.59-2.3 2.89l-.03.18h-6l-.03-.18c-.22-1.3-1.09-2.39-2.3-2.89-.01 0-.03-.01-.04-.01-1.21-.51-2.6-.36-3.67.41l-.15.1-.81-.8-3.44-3.44.11-.15c.77-1.07.92-2.46.41-3.67 0-.01-.01-.03-.01-.04-.5-1.21-1.59-2.08-2.89-2.3l-.18-.03v-6l.18-.03c1.3-.22 2.39-1.09 2.89-2.3 0-.01.01-.03.01-.04.51-1.21.36-2.6-.41-3.67l-.11-.15 4.25-4.25.15.11c1.07.77 2.46.92 3.67.41.01 0 .03-.01.04-.01 1.21-.5 2.08-1.59 2.3-2.89l.03-.18h6l.03.18c.22 1.3 1.09 2.39 2.3 2.89.01 0 .03.01.04.01 1.21.51 2.6.36 3.67-.41l.15-.11 4.25 4.25-.11.15c-.77 1.07-.92 2.46-.41 3.67 0 .01.01.03.01.04.5 1.21 1.59 2.08 2.89 2.3l.18.03v6l-.18.03c-1.3.22-2.39 1.09-2.89 2.3 0 .01-.01.03-.01.04-.51 1.21-.36 2.6.41 3.67l.11.15z" fill="#ff826e"/></g><g><path d="m34.414 21v3c0 1.66-1.34 3-3 3-.83 0-1.58-.34-2.12-.88s-.88-1.29-.88-2.12v-3h3z" fill="#ccd1d9"/></g><g><path d="m31.414 21h-3c0-3-3-4-3-8 0-3.31 2.69-6 6-6s6 2.69 6 6c0 4-3 5-3 8z" fill="#ffeaa7"/></g><g><circle cx="31.414" cy="13" fill="#fcd770" r="2"/></g></g><g><path d="m27.414 21v3c0 2.206 1.794 4 4 4s4-1.794 4-4v-3c0-1.087.516-1.855 1.169-2.827.815-1.214 1.831-2.725 1.831-5.173 0-3.86-3.14-7-7-7s-7 3.14-7 7c0 2.448 1.016 3.959 1.831 5.173.653.972 1.169 1.74 1.169 2.827zm4 5c-1.103 0-2-.897-2-2v-2h4v2c0 1.103-.897 2-2 2zm-1-13c0-.551.449-1 1-1s1 .449 1 1-.449 1-1 1-1-.449-1-1zm1-5c2.757 0 5 2.243 5 5 0 1.839-.724 2.917-1.491 4.058-.585.871-1.18 1.77-1.408 2.942h-1.101v-4.184c1.161-.414 2-1.514 2-2.816 0-1.654-1.346-3-3-3s-3 1.346-3 3c0 1.302.839 2.402 2 2.816v4.184h-1.101c-.228-1.172-.822-2.071-1.408-2.942-.767-1.141-1.491-2.219-1.491-4.058 0-2.757 2.243-5 5-5z"/><path d="m27.414 40c1.654 0 3-1.346 3-3v-1h-2v1c0 .551-.449 1-1 1s-1-.449-1-1v-1h-2v1c0 1.654 1.346 3 3 3z"/><path d="m35.414 40c1.654 0 3-1.346 3-3v-1h-2v1c0 .551-.449 1-1 1s-1-.449-1-1v-1h-2v1c0 1.654 1.346 3 3 3z"/><path d="m26.414 43c0 2.757 2.243 5 5 5s5-2.243 5-5v-1h-10zm7.829 1c-.413 1.164-1.525 2-2.829 2s-2.416-.836-2.829-2z"/><path d="m54.414 49.438v-2.938l1.413-1.06c1.62-1.215 2.587-3.149 2.587-5.175 0-1.728-.673-3.353-1.895-4.575l-3.105-3.105-3.105 3.105c-1.222 1.222-1.895 2.847-1.895 4.575 0 2.025.967 3.96 2.587 5.175l1.413 1.06v2.938c-.709-.635-1.571-1.111-2.544-1.355l-5.456-1.364v3.867c0 3.02 2.26 5.58 5.256 5.954l2.744.343v3.117h-8.042c-.304-3.939-2.39-7.526-5.652-9.747 1.981-1.453 3.35-3.689 3.635-6.253h.059c2.206 0 4-1.794 4-4s-1.794-4-4-4v-5.958l3.741-3.741-.599-.838c-.566-.792-.68-1.805-.286-2.75.371-.901 1.167-1.535 2.126-1.695l1.017-.168v-7.696l-1.016-.168c-.961-.161-1.757-.794-2.145-1.737-.376-.904-.263-1.917.304-2.71l.598-.838-5.44-5.44-.838.599c-.792.567-1.805.679-2.75.286-.901-.371-1.535-1.167-1.695-2.126l-.169-1.02h-7.696l-.168 1.016c-.161.961-.794 1.757-1.736 2.145-.906.375-1.918.264-2.71-.304l-.838-.598-5.44 5.44.599.838c.566.792.68 1.805.286 2.75-.371.901-1.167 1.535-2.126 1.695l-1.017.168v7.696l1.016.168c.961.161 1.757.794 2.145 1.737.376.904.263 1.917-.304 2.71l-.598.838 3.741 3.741v5.96c-2.206 0-4 1.794-4 4s1.794 4 4 4h.059c.285 2.564 1.655 4.8 3.635 6.253-3.263 2.221-5.348 5.808-5.652 9.747h-8.042v-3.117l2.744-.343c2.996-.374 5.256-2.934 5.256-5.954v-3.867l-5.456 1.364c-.974.244-1.836.72-2.544 1.355v-2.938l1.413-1.06c1.62-1.215 2.587-3.149 2.587-5.175 0-1.728-.673-3.353-1.895-4.575l-3.105-3.105-3.105 3.105c-1.222 1.222-1.895 2.847-1.895 4.575 0 2.025.967 3.96 2.587 5.175l1.413 1.06v2.938c-.709-.635-1.571-1.111-2.544-1.355l-5.456-1.364v3.867c0 3.02 2.26 5.58 5.256 5.954l2.744.343v3.117h-8v2h62v-2h-8v-3.117l2.744-.343c2.996-.374 5.256-2.934 5.256-5.954v-3.867l-5.456 1.364c-.975.244-1.837.72-2.546 1.355zm-40.97.585 2.97-.743v1.305c0 2.013-1.506 3.72-3.504 3.969l-.728.091 1.939-1.939-1.414-1.414-2.264 2.264c.147-1.687 1.332-3.115 3.001-3.533zm-5.242-6.182c-1.119-.84-1.788-2.176-1.788-3.575 0-1.194.465-2.316 1.309-3.161l1.691-1.691 1.691 1.691c.844.844 1.309 1.967 1.309 3.161 0 1.399-.668 2.735-1.788 3.575l-.212.159v-4h-2v4zm-5.788 6.745v-1.305l2.97.743c1.669.418 2.854 1.846 3.001 3.533l-2.264-2.264-1.414 1.414 1.939 1.939-.728-.091c-1.998-.249-3.504-1.956-3.504-3.969zm39.932 9.414h-7.211l-1.617-4.852.252-.378 2.01 2.01 1.916-4.789c2.655 1.854 4.355 4.782 4.65 8.009zm-8.538-8.02c.635-.028 1.252-.121 1.846-.274l-.606 1.514zm-6.029 1.241-.606-1.514c.594.153 1.211.246 1.846.274zm3.635-.807.913.913-.448.673h-.93l-.449-.673zm-.279 3.586h.558l1.333 4h-3.225zm13.279-16c0 1.103-.897 2-2 2v-4c1.103 0 2 .897 2 2zm-25.007-18.05c-.55-1.334-1.642-2.327-2.993-2.75v-4.4c1.35-.423 2.445-1.42 3.007-2.785.556-1.337.486-2.813-.169-4.067l3.111-3.111c1.253.654 2.733.722 4.101.155 1.334-.55 2.327-1.643 2.75-2.993h4.399c.423 1.35 1.42 2.445 2.785 3.007 1.337.555 2.813.486 4.066-.169l3.111 3.111c-.655 1.253-.724 2.734-.155 4.101.55 1.334 1.643 2.327 2.993 2.75v4.401c-1.351.423-2.445 1.42-3.007 2.785-.556 1.337-.486 2.813.169 4.067l-3.111 3.111c-1.254-.655-2.736-.725-4.101-.155-1.334.55-2.327 1.643-2.75 2.993h-4.399c-.423-1.35-1.42-2.445-2.785-3.007-1.337-.556-2.814-.486-4.067.169l-3.111-3.111c.656-1.255.725-2.736.156-4.102zm-.993 18.05c0-1.103.897-2 2-2v4c-1.103 0-2-.897-2-2zm4 3v-11.474l.538-.384c.792-.566 1.805-.681 2.75-.286.901.371 1.535 1.167 1.695 2.126l.169 1.018h7.696l.168-1.016c.161-.961.794-1.757 1.737-2.145.903-.376 1.917-.263 2.71.304l.537.383v11.474c0 3.86-3.14 7-7 7h-4c-3.86 0-7-3.14-7-7zm2.719 8.99 1.916 4.789 2.01-2.01.252.378-1.618 4.853h-7.211c.296-3.227 1.995-6.155 4.651-8.01zm27.069-8.149c-1.119-.84-1.788-2.176-1.788-3.575 0-1.194.465-2.316 1.309-3.161l1.691-1.691 1.691 1.691c.844.844 1.309 1.967 1.309 3.161 0 1.399-.668 2.735-1.788 3.575l-.212.159v-4h-2v4zm-5.788 6.745v-1.305l2.97.743c1.669.418 2.854 1.846 3.001 3.533l-2.264-2.264-1.414 1.414 1.939 1.939-.728-.091c-1.998-.249-3.504-1.956-3.504-3.969zm14-1.305v1.305c0 2.013-1.506 3.72-3.504 3.969l-.728.091 1.939-1.939-1.414-1.414-2.264 2.264c.147-1.688 1.331-3.116 3.001-3.533z"/><path d="m57.707 7.293 1.414 1.414 3.707-3.707-3.707-3.707-1.414 1.414 1.293 1.293h-10.586v2h10.586z"/><path d="m57.707 14.707 1.293 1.293h-8.586v2h8.586l-1.293 1.293 1.414 1.414 3.707-3.707-3.707-3.707z"/><path d="m57.707 26.707 1.293 1.293h-10.586v2h10.586l-1.293 1.293 1.414 1.414 3.707-3.707-3.707-3.707z"/><path d="m5.121 7.293-1.293-1.293h10.586v-2h-10.586l1.293-1.293-1.414-1.414-3.707 3.707 3.707 3.707z"/><path d="m5.121 19.293-1.293-1.293h8.586v-2h-8.586l1.293-1.293-1.414-1.414-3.707 3.707 3.707 3.707z"/><path d="m5.121 31.293-1.293-1.293h10.586v-2h-10.586l1.293-1.293-1.414-1.414-3.707 3.707 3.707 3.707z"/></g></g></svg>