<svg id="Layer_3" enable-background="new 0 0 64 64" height="512" viewBox="0 0 64 64" width="512" xmlns="http://www.w3.org/2000/svg"><path d="m4 24h56v38h-56z" fill="#c2c2c2"/><path d="m8 28h28v22h-28z" fill="#699ce6"/><g fill="#f8cf6a"><path d="m14 42h4v4h-4z"/><path d="m12 46h4v4h-4z"/><path d="m16 46h4v4h-4z"/><path d="m24 46h4v4h-4z"/><path d="m28 46h4v4h-4z"/><path d="m26 42h4v4h-4z"/></g><path d="m22 38 6-6 3 3-3 3z" fill="#dc6068"/><path d="m11 38 6-6 3 3-3 3z" fill="#dc6068"/><path d="m4 54h36v8h-36z" fill="#616161"/><path d="m4 54h33v8h-33z" fill="#929292"/><path d="m40 62c0-1 0-27 0-27h16v27" fill="#cb9e78"/><path d="m44 39h8v8h-8z" fill="#929292"/><path d="m44 39h5v8h-5z" fill="#c2c2c2"/><path d="m2 12h60v12h-60z" fill="#98775a"/><path d="m2 12h57v12h-57z" fill="#cb9e78"/><path d="m14 2h36v16h-36z" fill="#57964c"/><path d="m14 2h33v16h-33z" fill="#74c865"/><path d="m62 25h-60c-.552 0-1-.447-1-1v-12c0-.553.448-1 1-1h12v2h-11v10h58v-10h-11v-2h12c.552 0 1 .447 1 1v12c0 .553-.448 1-1 1z"/><path d="m60 63h-56c-.552 0-1-.447-1-1v-38h2v37h54v-37h2v38c0 .553-.448 1-1 1z"/><path d="m57 62h-2v-26h-14v26h-2v-27c0-.553.448-1 1-1h16c.552 0 1 .447 1 1z"/><path d="m36 51h-28c-.552 0-1-.447-1-1v-22c0-.553.448-1 1-1h28c.552 0 1 .447 1 1v22c0 .553-.448 1-1 1zm-27-2h26v-20h-26z"/><path d="m4 53h36v2h-36z"/><path d="m52 48h-8c-.552 0-1-.447-1-1v-8c0-.553.448-1 1-1h8c.552 0 1 .447 1 1v8c0 .553-.448 1-1 1zm-7-2h6v-6h-6z"/><path d="m8 37h28v2h-28z"/><path d="m17.707 38.707-1.414-1.414 2.293-2.293-1.586-1.586-5.293 5.293-1.414-1.414 6-6c.391-.391 1.023-.391 1.414 0l3 3c.391.391.391 1.023 0 1.414z"/><path d="m28.707 38.707-1.414-1.414 2.293-2.293-1.586-1.586-5.293 5.293-1.414-1.414 6-6c.391-.391 1.023-.391 1.414 0l3 3c.391.391.391 1.023 0 1.414z"/><path d="m17 5h6v2h-6z"/><path d="m19 6h2v9h-2z"/><path d="m28 15c-1.654 0-3-1.346-3-3v-4c0-1.654 1.346-3 3-3s3 1.346 3 3v4c0 1.654-1.346 3-3 3zm0-8c-.551 0-1 .448-1 1v4c0 .552.449 1 1 1s1-.448 1-1v-4c0-.552-.449-1-1-1z"/><path d="m36 11c-1.654 0-3-1.346-3-3v-3h2v3c0 .552.449 1 1 1s1-.448 1-1v-3h2v3c0 1.654-1.346 3-3 3z"/><path d="m35 10h2v5h-2z"/><path d="m44 15h-3v-2h3c.551 0 1-.448 1-1s-.449-1-1-1c-1.654 0-3-1.346-3-3s1.346-3 3-3h3v2h-3c-.551 0-1 .448-1 1s.449 1 1 1c1.654 0 3 1.346 3 3s-1.346 3-3 3z"/><path d="m50 19h-36c-.552 0-1-.447-1-1v-16c0-.553.448-1 1-1h36c.552 0 1 .447 1 1v16c0 .553-.448 1-1 1zm-35-2h34v-14h-34z"/><path d="m33 50h-2v-3h-6v3h-2v-4c0-.553.448-1 1-1h8c.552 0 1 .447 1 1z"/><path d="m31 46h-2v-3h-2v3h-2v-4c0-.553.448-1 1-1h4c.552 0 1 .447 1 1z"/><path d="m27 46h2v4h-2z"/><path d="m21 50h-2v-3h-6v3h-2v-4c0-.553.448-1 1-1h8c.552 0 1 .447 1 1z"/><path d="m19 46h-2v-3h-2v3h-2v-4c0-.553.448-1 1-1h4c.552 0 1 .447 1 1z"/><path d="m15 46h2v4h-2z"/></svg>