<?xml version="1.0" encoding="utf-8"?>
<!-- Generator: Adobe Illustrator 22.0.1, SVG Export Plug-In . SVG Version: 6.00 Build 0)  -->
<svg version="1.1" id="Layer_1" xmlns="http://www.w3.org/2000/svg" xmlns:xlink="http://www.w3.org/1999/xlink" x="0px" y="0px"
	 viewBox="0 0 149.7 149.7" style="enable-background:new 0 0 149.7 149.7;" xml:space="preserve">
<style type="text/css">
	.st0{fill:#099094;}
	.st1{fill:#FFFFFF;}
</style>
<g>
	<g>
		<path id="XMLID_36_" class="st0" d="M148.6,76.1c0-39.7-32.1-71.8-71.8-71.8C37.1,4.3,5,36.4,5,76.1c0,39.7,32.1,71.8,71.8,71.8
			C116.4,147.9,148.6,115.7,148.6,76.1z"/>
		<g>
			<path class="st1" d="M119.9,70.1c-0.6-23-19.2-41-42.4-41c-22.8,0-41.4,17.7-42.4,40.2c0,0.6,0,1.2,0,1.9c0,7.5,2,14.8,5.8,21.2
				c0.1,0.2,0.1,0.3,0.1,0.5l-7.5,22.2c-0.1,0.3,0.2,0.6,0.5,0.5l23.1-7.4c0.2,0,0.3,0,0.5,0c6.1,3.3,13,5,20,5
				c23.4,0,42.4-18.9,42.4-42.1C120,70.9,119.9,70.1,119.9,70.1z M48.9,90.2c-3.8-5.6-5.8-12.2-5.8-19c0-1.1,0.1-2.2,0.2-3.3
				C45,50.3,59.7,37,77.6,37c17.9,0,32.9,13.8,34.3,31.5c0.1,1,0.1,1.9,0.1,2.7c0,18.8-15.5,34.2-34.4,34.2c-5.1,0-10-1.1-14.5-3.2
				c-1.3-0.6-3.7-2-4.4-2.5c-0.2-0.1-0.3-0.1-0.5-0.1l-11.6,3.7c-0.3,0.1-0.5-0.2-0.4-0.4l3.8-11.1c0.1-0.2,0-0.4-0.1-0.6
				C49.5,90.9,49.1,90.4,48.9,90.2z"/>
		</g>
		<path class="st1" d="M97.7,80.6c-0.3-0.4-2.1-1.3-2.1-1.3c-0.7-0.4-6-3-7-3.3c-0.9-0.3-1.8-0.7-2.7,0.6c-0.7,1-2.6,3.2-3.2,3.9
			c-0.4,0.5-0.8,0.7-1.8,0.2c-0.2-0.1-4.9-2.1-8.2-5c-2.9-2.6-4.9-5.7-5.6-7c-0.4-0.8-0.2-1.1,0.4-1.7c0.3-0.3,1.8-2.1,2-2.3
			c0.2-0.4,0.7-1.2,0.7-1.2c0.4-0.9,0.2-1.6-0.1-2.1c-0.2-0.3-2.9-6.9-3.2-7.5c-0.8-1.9-1.6-1.9-2.4-1.9c-0.4,0-4,0.1-5.1,1.3
			l-0.2,0.2c-1.1,1.2-3.5,3.7-3.5,8.5c0,1.1,0.2,2.3,0.5,3.6c0.7,2.3,2,4.8,3.7,7.2c0,0,2.7,3.7,4,5.2c4.2,4.8,8.9,8.3,13.6,10.2
			c6.1,2.4,8.7,2.9,10.1,2.9c0.6,0,2-0.3,2.3-0.4c1.9-0.2,6.3-2.5,7.2-5C98,83.3,98,81.1,97.7,80.6z"/>
	</g>
</g>
</svg>
