<?xml version="1.0" encoding="utf-8"?>
<!-- Generator: Adobe Illustrator 22.0.1, SVG Export Plug-In . SVG Version: 6.00 Build 0)  -->
<svg version="1.1" id="Layer_1" xmlns="http://www.w3.org/2000/svg" xmlns:xlink="http://www.w3.org/1999/xlink" x="0px" y="0px"
	 viewBox="0 0 149.7 149.7" style="enable-background:new 0 0 149.7 149.7;" xml:space="preserve">
<style type="text/css">
	.st0{fill:#099094;}
	.st1{fill:#FFFFFF;}
</style>
<g>
	<g>
		<path id="XMLID_41_" class="st0" d="M148.3,75.3c0-39.7-32.1-71.8-71.8-71.8C36.8,3.5,4.7,35.6,4.7,75.3
			c0,39.7,32.1,71.8,71.8,71.8C116.1,147.1,148.3,115,148.3,75.3z"/>
		<path class="st1" d="M94.8,101.8H58.1c-9.8,0-17.8-8-17.8-17.8V66.6c0-9.8,8-17.8,17.8-17.8h36.7c9.8,0,17.8,8,17.8,17.8V84
			C112.6,93.8,104.7,101.8,94.8,101.8z"/>
		<path class="st0" d="M91.2,75.5L67,88.5c-0.8,0.4-1.8-0.1-1.8-1.1l0-26.2c0-0.9,1-1.5,1.8-1.1l24.1,13.1C92,73.8,92,75,91.2,75.5z
			"/>
	</g>
</g>
</svg>
